<svg xmlns="http://www.w3.org/2000/svg" xmlns:xlink="http://www.w3.org/1999/xlink" width="23.497" height="28" viewBox="0 0 23.497 28">
  <defs>
    <linearGradient id="linear-gradient" x1="0.5" x2="0.5" y2="1" gradientUnits="objectBoundingBox">
      <stop offset="0" stop-color="#048e81"/>
      <stop offset="1" stop-color="#0491e8"/>
    </linearGradient>
  </defs>
  <g id="advisory" transform="translate(-0.101 0)">
    <path id="Path_48211" data-name="Path 48211" d="M57.7,363.753,58.529,365v4.93h.921V364.72l-1.014-1.52Zm0,0" transform="translate(-54.281 -342.283)" fill="url(#linear-gradient)"/>
    <path id="Path_48212" data-name="Path 48212" d="M138.406,185.382A1.358,1.358,0,0,0,139.788,184h-.921a.435.435,0,0,1-.461.461h-.921a.435.435,0,0,1-.461-.461H136.1a1.357,1.357,0,0,0,1.382,1.382Zm0,0" transform="translate(-128.169 -173.404)" fill="url(#linear-gradient)"/>
    <path id="Path_48213" data-name="Path 48213" d="M14.66,15.664H12.54V14.006a3.69,3.69,0,0,0,2.3-3.087l.461-.138a1.431,1.431,0,0,0,.967-1.29v-1.2A1.357,1.357,0,0,0,14.89,6.911V4.146A4.129,4.129,0,0,0,10.743,0H8.9A4.129,4.129,0,0,0,4.754,4.146V6.911A1.358,1.358,0,0,0,3.372,8.293v.875a1.441,1.441,0,0,0,.6,1.152l.783.507a3.663,3.663,0,0,0,2.3,3.179v1.659H4.939A4.827,4.827,0,0,0,.1,20.456v7.187h.921V20.456a3.893,3.893,0,0,1,3.87-3.87h2.35l1.382,1.7a.969.969,0,0,0-.23.6v1.474l-.876,5.574a.924.924,0,0,0,.369.876l1.336,1.013a.971.971,0,0,0,1.106,0l1.336-1.013a.923.923,0,0,0,.369-.876l-.875-5.574V18.889a.971.971,0,0,0-.23-.6l1.382-1.7H14.66a3.893,3.893,0,0,1,3.87,3.87v7.187h.921V20.456a4.818,4.818,0,0,0-4.792-4.791Zm-.737-8.754H12.909a1.316,1.316,0,0,0-1.751-.829,1.346,1.346,0,0,0-.829.829H9.223a1.316,1.316,0,0,0-1.751-.829,1.346,1.346,0,0,0-.829.829H5.63V5.575h.092A3.751,3.751,0,0,0,8.578,4.239a18.781,18.781,0,0,0,5.344.829Zm-1.843.461a.461.461,0,1,1-.461-.461A.435.435,0,0,1,12.08,7.371Zm-3.686,0a.461.461,0,1,1-.461-.461A.435.435,0,0,1,8.394,7.371ZM8.855.921H10.7a3.205,3.205,0,0,1,3.225,3.225,17.323,17.323,0,0,1-5.344-.875l-.323-.138-.23.276a2.907,2.907,0,0,1-2.4,1.244V4.146A3.205,3.205,0,0,1,8.855.921ZM5.63,10.6v-.23l-1.2-.783a.418.418,0,0,1-.184-.368V8.293a.435.435,0,0,1,.461-.461H6.643a1.316,1.316,0,0,0,1.751.829,1.346,1.346,0,0,0,.829-.829h1.106a1.316,1.316,0,0,0,1.751.829,1.346,1.346,0,0,0,.829-.829h1.935a.435.435,0,0,1,.461.461v1.2a.443.443,0,0,1-.323.415l-1.06.368V10.6a2.773,2.773,0,0,1-2.764,2.764H8.394A2.772,2.772,0,0,1,5.63,10.6Zm2.3,3.64c.138,0,.322.046.461.046h2.764a1.567,1.567,0,0,0,.461-.046v1.428H7.933Zm2.3,4.653v.921H9.315v-.921Zm-.461,8.155L8.44,26.03l.829-5.3h1.013l.829,5.344Zm.23-9.076H9.546L8.44,16.586h2.672Zm0,0" transform="translate(0 0)" fill="url(#linear-gradient)"/>
    <path id="Path_48214" data-name="Path 48214" d="M248.1,364.72v5.206h.921V365l.829-1.244-.737-.553Zm0,0" transform="translate(-233.719 -342.283)" fill="url(#linear-gradient)"/>
    <path id="Path_48215" data-name="Path 48215" d="M278.552,32H272.1v.921h6.45a.435.435,0,0,1,.461.461v4.607a.435.435,0,0,1-.461.461H275L273.622,42.6h-.6v-.921H272.1v1.843h2.165l1.382-4.146h2.9a1.358,1.358,0,0,0,1.382-1.382V33.382A1.358,1.358,0,0,0,278.552,32Zm0,0" transform="translate(-256.336 -30.157)" fill="url(#linear-gradient)"/>
    <path id="Path_48216" data-name="Path 48216" d="M272.1,88h1.382v.921H272.1Zm0,0" transform="translate(-256.336 -82.932)" fill="url(#linear-gradient)"/>
    <path id="Path_48217" data-name="Path 48217" d="M312.1,88h1.382v.921H312.1Zm0,0" transform="translate(-294.033 -82.932)" fill="url(#linear-gradient)"/>
    <path id="Path_48218" data-name="Path 48218" d="M352.1,88h1.382v.921H352.1Zm0,0" transform="translate(-331.729 -82.932)" fill="url(#linear-gradient)"/>
  </g>
</svg>
