<svg id="audio-file" xmlns="http://www.w3.org/2000/svg" xmlns:xlink="http://www.w3.org/1999/xlink" width="17.76" height="24" viewBox="0 0 17.76 24">
  <defs>
    <linearGradient id="linear-gradient" x1="0.5" x2="0.5" y2="1" gradientUnits="objectBoundingBox">
      <stop offset="0" stop-color="#048e81"/>
      <stop offset="1" stop-color="#0995eb"/>
    </linearGradient>
  </defs>
  <g id="Group_773" data-name="Group 773">
    <g id="Group_772" data-name="Group 772" transform="translate(0)">
      <path id="Path_47155" data-name="Path 47155" d="M81.377,5.377s0,0,0-.006L81.3,5.294,76.155.153a.509.509,0,0,0-.237-.126.62.62,0,0,0-.064-.013A.4.4,0,0,0,75.786,0H64.308a.522.522,0,0,0-.522.522V23.478a.522.522,0,0,0,.522.522H81a.522.522,0,0,0,.522-.522V5.842a.491.491,0,0,0,.021-.1A.5.5,0,0,0,81.377,5.377Zm-5.069-3.6,3.436,3.436H76.308Zm4.174,21.175H64.83V1.043H75.264v4.7a.522.522,0,0,0,.522.522h4.7Z" transform="translate(-63.786)" fill="url(#linear-gradient)"/>
      <path id="Path_47156" data-name="Path 47156" d="M194.4,179.015A2.612,2.612,0,0,0,197,176.406v-3.13a2.609,2.609,0,0,0-5.217,0v3.13A2.612,2.612,0,0,0,194.4,179.015Zm-1.565-5.739a1.565,1.565,0,1,1,3.13,0v3.13a1.565,1.565,0,1,1-3.13,0Z" transform="translate(-185.526 -162.319)" fill="url(#linear-gradient)"/>
      <path id="Path_47157" data-name="Path 47157" d="M153.816,261.217a3.656,3.656,0,0,1-3.652-3.652.522.522,0,1,0-1.043,0,4.685,4.685,0,0,0,4.174,4.642v1.1h-1.565a.522.522,0,0,0,0,1.044H155.9a.522.522,0,1,0,0-1.044h-1.565v-1.1a4.685,4.685,0,0,0,4.174-4.642v-1.043a.522.522,0,1,0-1.044,0v1.043A3.656,3.656,0,0,1,153.816,261.217Z" transform="translate(-144.946 -243.478)" fill="url(#linear-gradient)"/>
    </g>
  </g>
</svg>
