<svg id="coins_1_" data-name="coins (1)" xmlns="http://www.w3.org/2000/svg" width="75.687" height="68" viewBox="0 0 75.687 68">
  <path id="Path_47958" data-name="Path 47958" d="M104.478,380A1.48,1.48,0,0,0,103,381.449v.029a1.478,1.478,0,0,0,2.957,0v-.029A1.48,1.48,0,0,0,104.478,380Zm0,0" transform="translate(-87.774 -323.826)" fill="#2b7b74"/>
  <path id="Path_47959" data-name="Path 47959" d="M63.861,36.094V7.391c0-4.8-8.607-7.391-16.7-7.391s-16.7,2.59-16.7,7.391V20.8c-3.214-2.008-8.584-3.062-13.748-3.062-8.1,0-16.7,2.59-16.7,7.391V60.609C0,65.41,8.606,68,16.7,68c6.068,0,12.423-1.455,15.226-4.2,2.8,2.75,9.158,4.2,15.226,4.2a40.056,40.056,0,0,0,7.558-.7,16.262,16.262,0,1,0,9.146-31.21ZM60.9,16.261c0,.654-.944,1.78-3.6,2.8A29.668,29.668,0,0,1,47.157,20.7a29.668,29.668,0,0,1-10.145-1.634c-2.66-1.022-3.6-2.148-3.6-2.8v-4.54c3.214,2.008,8.584,3.062,13.748,3.062S57.69,13.729,60.9,11.721Zm-27.5,4.33c3.214,2.008,8.584,3.062,13.748,3.062S57.69,22.6,60.9,20.591v4.54c0,.654-.944,1.78-3.6,2.8a29.668,29.668,0,0,1-10.145,1.634,29.668,29.668,0,0,1-10.145-1.634c-2.66-1.022-3.6-2.148-3.6-2.8ZM30.452,34c0,.654-.944,1.78-3.6,2.8A29.668,29.668,0,0,1,16.7,38.435,29.668,29.668,0,0,1,6.56,36.8c-2.66-1.021-3.6-2.148-3.6-2.8V29.46c3.214,2.008,8.584,3.062,13.748,3.062s10.534-1.054,13.748-3.062Zm-27.5,4.33c3.214,2.008,8.584,3.062,13.748,3.062s10.534-1.054,13.748-3.062v4.54c0,.654-.944,1.78-3.6,2.8A29.668,29.668,0,0,1,16.7,47.3,29.668,29.668,0,0,1,6.56,45.671c-2.66-1.021-3.6-2.148-3.6-2.8Zm30.452,8.749a25.257,25.257,0,0,0,9.848,2.934,16.387,16.387,0,0,0,.461,5.947A27.026,27.026,0,0,1,36.7,54.313c-2.272-.927-3.29-1.961-3.29-2.574Zm10.43.024a26.806,26.806,0,0,1-7.4-1.78c-2.094-.9-3.031-1.881-3.031-2.454V38.25a15.57,15.57,0,0,0,2.783,1.318,33.95,33.95,0,0,0,10.7,1.817A16.178,16.178,0,0,0,43.839,47.1Zm6.385-8.767c-.86.064-1.74.1-2.623.1a31.384,31.384,0,0,1-10.384-1.641c-2.63-.971-3.807-2.1-3.807-2.794V29.46c3.214,2.008,8.584,3.062,13.748,3.062S57.69,31.468,60.9,29.46V34a2.169,2.169,0,0,1-1,1.486c-.162,0-.322-.008-.48-.008a16.118,16.118,0,0,0-9.2,2.858ZM37.012,4.59A29.668,29.668,0,0,1,47.157,2.957,29.668,29.668,0,0,1,57.3,4.59c2.66,1.022,3.6,2.148,3.6,2.8s-.944,1.78-3.6,2.8a29.668,29.668,0,0,1-10.145,1.634,29.668,29.668,0,0,1-10.145-1.634c-2.66-1.022-3.6-2.148-3.6-2.8s.944-1.78,3.6-2.8ZM6.56,22.329A29.668,29.668,0,0,1,16.7,20.7a29.668,29.668,0,0,1,10.145,1.634c2.66,1.022,3.6,2.148,3.6,2.8s-.944,1.78-3.6,2.8A29.668,29.668,0,0,1,16.7,29.565,29.668,29.668,0,0,1,6.56,27.932c-2.66-1.022-3.6-2.148-3.6-2.8S3.9,23.351,6.56,22.329ZM26.849,63.41A29.668,29.668,0,0,1,16.7,65.043,29.668,29.668,0,0,1,6.56,63.41c-2.66-1.021-3.6-2.148-3.6-2.8V56.014a23.348,23.348,0,0,0,7.6,2.607,1.478,1.478,0,0,0,.507-2.913c-5.313-.924-7.935-2.814-8.1-3.851l0-.011c0-.016,0-.038-.006-.053V51.78c0-.013,0-.027,0-.04V47.2c3.214,2.008,8.584,3.062,13.748,3.062S27.238,49.207,30.452,47.2v4.54c0,.013,0,.027,0,.04v.014a.016.016,0,0,1,0,0c0,.016,0,.024,0,.04v.009c-.166,1.047-2.788,2.937-8.1,3.861a1.478,1.478,0,1,0,.506,2.913,23.3,23.3,0,0,0,7.6-2.609v4.6c0,.654-.944,1.78-3.6,2.8Zm10.163,0c-2.66-1.021-3.6-2.148-3.6-2.8V55.953c2.753,1.708,7.081,2.772,11.482,3.081a16.3,16.3,0,0,0,5.043,5.909c-.925.065-1.867.1-2.777.1A29.668,29.668,0,0,1,37.012,63.41Zm22.414,1.634a13.3,13.3,0,1,1,13.3-13.3A13.3,13.3,0,0,1,59.426,65.043Zm0,0" fill="#2b7b74"/>
  <path id="Path_47960" data-name="Path 47960" d="M376.435,288.87a1.478,1.478,0,0,1,0-2.957,1.464,1.464,0,0,1,1.045.434,1.479,1.479,0,0,0,2.091-2.091,4.426,4.426,0,0,0-1.657-1.047v-1.73a1.478,1.478,0,0,0-2.957,0v1.732a4.435,4.435,0,0,0,1.478,8.616,1.478,1.478,0,1,1,0,2.957,1.464,1.464,0,0,1-1.045-.434,1.479,1.479,0,0,0-2.091,2.091,4.425,4.425,0,0,0,1.657,1.047v1.73a1.478,1.478,0,0,0,2.957,0v-1.732a4.435,4.435,0,0,0-1.478-8.615Zm0,0" transform="translate(-317.009 -238.609)" fill="#2b7b74"/>
</svg>
