<svg xmlns="http://www.w3.org/2000/svg" width="730.54" height="898.423" viewBox="0 0 730.54 898.423">
  <g id="Group_198" data-name="Group 198" opacity="0.05" style="mix-blend-mode: luminosity;isolation: isolate">
    <g id="Group_185" data-name="Group 185">
      <path id="Path_46888" data-name="Path 46888" d="M439.736,249.13a30.568,30.568,0,0,0-28.58,19.861,305.151,305.151,0,0,1-69.019,80.89l.107.079a30.431,30.431,0,1,0,39.773,45.929,368.843,368.843,0,0,0,82.273-97.082,30.246,30.246,0,0,0,5.9-18v-1.25A30.455,30.455,0,0,0,439.736,249.13Z" transform="translate(-209.548 493.893)" fill="#0091ea"/>
      <path id="Path_46889" data-name="Path 46889" d="M382.094,291.063V260.089a30.442,30.442,0,0,0-60.885,0v63.9a30.442,30.442,0,0,0,60.885,0Z" transform="translate(-321.209 254.38)" fill="#0091ea"/>
      <path id="Path_46890" data-name="Path 46890" d="M401.984,231.714a30.412,30.412,0,0,0-30.4,30.482V395.861a30.435,30.435,0,0,0,60.87,0V262.2A30.417,30.417,0,0,0,401.984,231.714Z" transform="translate(298.048 279.791)" fill="#0091ea"/>
      <path id="Path_46891" data-name="Path 46891" d="M377.331,245.3a30.389,30.389,0,0,0-30.388,30.429V409.43a30.429,30.429,0,0,0,60.857,0V275.725A30.44,30.44,0,0,0,377.331,245.3Z" transform="translate(-4.85 446.76)" fill="#0091ea"/>
      <path id="Path_46892" data-name="Path 46892" d="M392.554,243.7a30.42,30.42,0,0,0-30.414,30.429v1.209a30.435,30.435,0,0,0,60.87,0v-1.209A30.43,30.43,0,0,0,392.554,243.7Z" transform="translate(181.973 427.176)" fill="#0091ea"/>
      <path id="Path_46893" data-name="Path 46893" d="M1046.725,497.6c-29.034-172.708-179.288-304.366-360.239-304.366-180.99,0-331.245,131.658-360.2,304.366a365.608,365.608,0,0,0-5.078,60.884v57.308a30.442,30.442,0,1,0,60.885,0V558.486a306.972,306.972,0,0,1,6.061-60.884C416.4,358.7,539.274,254.146,686.486,254.146S956.568,358.7,984.764,497.6a306.008,306.008,0,0,1,6.075,60.884V619.4a30.455,30.455,0,0,0,60.91,0V558.486A369.911,369.911,0,0,0,1046.725,497.6Z" transform="translate(-321.209 -193.236)" fill="#0091ea"/>
      <path id="Path_46894" data-name="Path 46894" d="M461.2,211.559A121.716,121.716,0,0,0,339.527,333.18V591.113a30.142,30.142,0,0,0,3.177,13.506c0,.053.041.08.067.12v.186a30.738,30.738,0,0,0,10.98,11.924,30.425,30.425,0,0,0,46.659-25.736v-63.9c0-.213-.066-.425-.066-.638V438.651a115.785,115.785,0,0,0,32.064,12.589,110.3,110.3,0,0,0,28.793,3.616,119.164,119.164,0,0,0,60.843-16.2,121.187,121.187,0,0,0,60.791-105.47,118.575,118.575,0,0,0-10.076-47.843A120.587,120.587,0,0,0,461.2,211.559Zm60.843,121.994a81.159,81.159,0,0,1-1.488,13.666,61.713,61.713,0,0,1-35.626,42.127,66.523,66.523,0,0,1-23.729,4.679,60.91,60.91,0,0,1-60.857-60.472v-.372a60.85,60.85,0,0,1,121.7,0Z" transform="translate(-96.018 32.017)" fill="#0091ea"/>
      <path id="Path_46895" data-name="Path 46895" d="M631.116,202.394c-113.459,0-208.827,77.66-235.839,182.625a245,245,0,0,0-7.67,60.884V689.425a181.949,181.949,0,0,1-50.156,125.716l.2.252a30.424,30.424,0,1,0,40.106,45.57,242.683,242.683,0,0,0,70.722-171.538V445.9a182.625,182.625,0,1,1,365.25,0V689.425a30.429,30.429,0,0,0,60.858.106V445.9a244.975,244.975,0,0,0-7.644-60.884C839.9,280.054,744.588,202.394,631.116,202.394Z" transform="translate(-265.839 -80.653)" fill="#0091ea"/>
    </g>
    <path id="Path_46896" data-name="Path 46896" d="M461.654,353.307a30.522,30.522,0,0,0-9.784-33.313c-23.6-27-30.482-34.589-43.311-67.81l-.119.066a30.415,30.415,0,1,0-56.112,23.184c15.474,39.707,26.215,53.253,54.463,85.45a30.732,30.732,0,0,0,15.221,11.353h.04l.492.146.505.159.094.054A30.528,30.528,0,0,0,461.654,353.307Z" transform="translate(23.264 279.221)" fill="#028e80"/>
  </g>
</svg>
