<svg xmlns="http://www.w3.org/2000/svg" width="32" height="32" viewBox="0 0 32 32">
  <path id="Path_48210" data-name="Path 48210" d="M31.956,31.256l-3.011-6.9A1.6,1.6,0,0,0,27.9,23.331l-7.79-2.479-.834-2.085,2.463-2.956a.535.535,0,0,0,.124-.342V14.4H22.4A1.6,1.6,0,0,0,24,12.8V10.669a1.6,1.6,0,0,0-1.6-1.6h-.533V8.535H22.4a.533.533,0,0,0,.532-.571L22.54,2.479A2.676,2.676,0,0,0,19.88,0H12.267A2.67,2.67,0,0,0,9.6,2.669V8a.533.533,0,0,0,.533.533v.533H9.6a1.6,1.6,0,0,0-1.6,1.6V12.8a1.6,1.6,0,0,0,1.6,1.6h.533v1.067a.535.535,0,0,0,.123.341l2.454,2.945-.973,2.187-2.688.84L4.1,23.331a1.576,1.576,0,0,0-1.024.977L.044,31.256A.533.533,0,0,0,.534,32H31.467a.533.533,0,0,0,.489-.746ZM21.867,10.135H22.4a.534.534,0,0,1,.533.533V12.8a.534.534,0,0,1-.533.533h-.533Zm-11.733,3.2H9.6a.534.534,0,0,1-.533-.533V10.669a.534.534,0,0,1,.533-.533h.533Zm9.754,8.607,1.908.6L18.353,25.38l-1.406-1.757ZM17.419,26.1,16,27.515,14.582,26.1,16,24.323Zm-4.565-5.039.758-1.7,2.19.876a.537.537,0,0,0,.4,0l2.172-.869.7,1.741L16,22.854ZM10.667,2.669a1.6,1.6,0,0,1,1.6-1.6H19.88a1.606,1.606,0,0,1,1.6,1.486l.351,4.914H18.134c-2.477,0-3.733-.9-3.733-2.667a.533.533,0,1,0-1.067,0,2.67,2.67,0,0,1-2.667,2.667ZM11.2,15.276V8.495a3.743,3.743,0,0,0,2.651-1.746c.728,1.154,2.2,1.786,4.282,1.786H20.8v6.74l-2.457,2.948L16,19.161l-2.343-.937Zm.931,6.661,3.058,1.693-1.4,1.75-3.481-2.873Zm1.32,9H1.347l2.72-6.247a.535.535,0,0,1,.346-.34l4.678-1.462,4.418,3.646.834.834Zm1.1,0,.672-2.69.4.4a.534.534,0,0,0,.755,0l.4-.4.673,2.69Zm4,0-.892-3.57.714-.714a.526.526,0,0,0,.244-.105l4.4-3.628.23.072-1.881,5.643a.533.533,0,0,0,.089.5l1.44,1.8Zm3.915-2.24,1.8-5.387.859.268.463,5.556L24.044,30.67Zm2.823,2.24,1.223-1.223a.534.534,0,0,0,.154-.421l-.447-5.371,1.37.428a.566.566,0,0,1,.364.385l2.7,6.2Z" transform="translate(0 -0.002)" fill="#209dea"/>
</svg>
