<svg xmlns="http://www.w3.org/2000/svg" width="28.011" height="32" viewBox="0 0 28.011 32">
  <g id="Deposit_at_bank" data-name="Deposit at bank" transform="translate(-2.98 0.036)">
    <path id="Path_48219" data-name="Path 48219" d="M28.308,19.973a.666.666,0,0,0,.666-.666v-2h1.332a.666.666,0,0,0,.666-.666c0-1.832.147-2.338-.366-2.591l-7.048-3.524a7.328,7.328,0,1,0-13.15,0L3.36,14.051c-.486.24-.366.593-.366,2.591a.666.666,0,0,0,.666.666H4.992v2a.666.666,0,0,0,.666.666h.666V25.3H5.658a.666.666,0,0,0-.666.666v2H3.66a.666.666,0,0,0-.666.666V31.3a.666.666,0,0,0,.666.666H30.306a.666.666,0,0,0,.666-.666V28.633a.666.666,0,0,0-.666-.666H28.974v-2a.666.666,0,0,0-.666-.666h-.666V19.973Zm-.666-1.332h-4V17.308h4ZM22.978,25.3a.666.666,0,0,0-.666.666v2h-2v-2a.666.666,0,0,0-.666-.666h-.666V19.973h.666a.666.666,0,0,0,.666-.666v-2h2v2a.666.666,0,0,0,.666.666h.666V25.3ZM11.654,27.967v-2a.666.666,0,0,0-.666-.666h-.666V19.973h.666a.666.666,0,0,0,.666-.666v-2h2v2a.666.666,0,0,0,.666.666h.666V25.3h-.666a.666.666,0,0,0-.666.666v2Zm6-2.665H16.317V19.973h1.332ZM14.984,18.64V17.308h4V18.64Zm0,7.994h4v1.332h-4Zm2-25.314a6,6,0,1,1-6,6A6,6,0,0,1,16.983,1.32ZM4.326,15.057,11.1,11.666c1.466,1.972,2.551,1.645.553,1.645a.666.666,0,1,0,0,1.332H22.312a.666.666,0,0,0,0-1.332c-2,0-.913.326.553-1.645l6.775,3.391v.919H4.326Zm6,2.252V18.64h-4V17.308ZM7.657,19.973H8.989V25.3H7.657ZM6.324,26.634h4v1.332h-4Zm23.316,4H4.326V29.3H29.64Zm-6-2.665V26.634h4v1.332ZM26.309,25.3H24.977V19.973h1.332Z" transform="translate(0)" fill="#0491e8"/>
    <path id="Path_48220" data-name="Path 48220" d="M23.331,10.662H20.666a.666.666,0,0,0,0,1.332H22v.666a.666.666,0,1,0,1.332,0v-.666a2,2,0,0,0,0-4H22a.666.666,0,0,1,0-1.332h2.665a.666.666,0,0,0,0-1.332H23.331V4.666a.666.666,0,0,0-1.332,0v.666a2,2,0,1,0,0,4h1.332a.666.666,0,1,1,0,1.332Z" transform="translate(-5.682 -1.347)" fill="#0491e8"/>
  </g>
</svg>
