<svg xmlns="http://www.w3.org/2000/svg" width="25.016" height="32" viewBox="0 0 25.016 32">
  <g id="businessman" transform="translate(-55.876)">
    <path id="Path_48233" data-name="Path 48233" d="M80.38,25.087V23.426a4.621,4.621,0,0,0-2.73-4.218l-.009,0-4.208-1.629-2.085-.808V15.543a4.919,4.919,0,0,0,1.983-3.381,2.271,2.271,0,0,0,2.127-2.213,2.33,2.33,0,0,0-.33-1.185.981.981,0,0,0,.347-.748V7.209a.984.984,0,0,0-.983-.983h-.142A5.988,5.988,0,0,0,70.079.6a.985.985,0,0,0-.906-.6H67.595a.985.985,0,0,0-.906.6A5.988,5.988,0,0,0,62.42,6.225h-.142a.984.984,0,0,0-.983.983v.808a.981.981,0,0,0,.368.766,2.2,2.2,0,0,0-.351,1.173,2.265,2.265,0,0,0,2.127,2.207,4.865,4.865,0,0,0,1.98,3.375v1.21l-6.291,2.457-.008,0a4.621,4.621,0,0,0-2.73,4.218v1.661a.79.79,0,0,0-.512.738v1.557a.79.79,0,0,0,.512.738v2.6A1.283,1.283,0,0,0,57.67,32H71.8a.469.469,0,1,0,0-.938h-1.04l-.425-4.084h0l-.611-5.87.33-.515a.912.912,0,0,0,.974-.122l2.319-1.923L77.3,20.077a3.711,3.711,0,0,1,2.145,3.349v1.609H76.616V22.947a.469.469,0,0,0-.938,0v8.115H73.991a.469.469,0,0,0,0,.938H79.1a1.283,1.283,0,0,0,1.282-1.282v-2.6a.79.79,0,0,0,.512-.738V25.825a.79.79,0,0,0-.512-.738ZM73.366,11.213V9h.772a1.4,1.4,0,0,1,.381.95,1.324,1.324,0,0,1-1.153,1.264ZM67.549.991s0-.005,0-.008a.046.046,0,0,1,.046-.045h1.579a.046.046,0,0,1,.046.045s0,0,0,0V3.1a.469.469,0,1,0,.938,0V1.616a5.018,5.018,0,0,1,3.255,4.609H70.156V5.292a.469.469,0,1,0-.938,0v.933h-1.67Zm-.938.625v4.61H63.356a5.019,5.019,0,0,1,3.255-4.61Zm-3.21,9.6A1.262,1.262,0,0,1,62.688,9H63.4ZM62.277,8.062a.046.046,0,0,1-.046-.046V7.209a.046.046,0,0,1,.046-.046H74.49a.046.046,0,0,1,.046.046v.808a.046.046,0,0,1-.046.046Zm2.062,3.511V9h8.09v2.573a3.988,3.988,0,0,1-3.976,3.98h-.008A4.01,4.01,0,0,1,64.339,11.573Zm1.427,6.045,1.274,1.057-.715,1.058-1.913-1.587ZM60.151,31.063H57.67a.345.345,0,0,1-.344-.344V28.171h2.826Zm0-3.829H56.814v-1.26h3.338Zm6.258.044-.394,3.784H61.089V22.948a.469.469,0,1,0-.938,0v2.088H57.326V23.426a3.718,3.718,0,0,1,2.146-3.35l3.943-1.54,2.334,1.935a.912.912,0,0,0,.974.122l.33.515-.642,6.169Zm.549,3.784.1-.94.94.94Zm2.863,0h-.5l-2.141-2.141.127-1.222,2.415,2.415Zm-.709-6.807.157,1.506-1.594-1.594.127-1.222Zm-1.185-2.511.029-.281h.865l.137,1.312Zm1.5,5.5.145,1.393L67.433,26.5l.118-1.13Zm-.435-6.715h-1.2l-.423-.661.461-.683,0,0a.933.933,0,0,0,.05-.085l0-.007h1.007l0,.006a.939.939,0,0,0,.053.089l.461.683Zm.135-2.559a.922.922,0,0,0-.167.182H67.823a.918.918,0,0,0-.167-.182l-1.306-1.083a.99.99,0,0,0,.006-.106V16.07a5.172,5.172,0,0,0,4.054.012v.7a.943.943,0,0,0,.008.112Zm1.33,1.766-.715-1.058,1.254-1.04.005,0,1.352.524Zm8.989,10.985a.345.345,0,0,1-.344.344H76.616V28.171h2.825Zm.512-3.485H76.616v-1.26h3.337v1.26Z" fill="#0491e8"/>
  </g>
</svg>
