<svg xmlns="http://www.w3.org/2000/svg" xmlns:xlink="http://www.w3.org/1999/xlink" width="238" height="122" viewBox="0 0 238 122">
  <defs>
    <filter id="Rectangle_437" x="0" y="0" width="238" height="122" filterUnits="userSpaceOnUse">
      <feOffset dx="15" dy="15" input="SourceAlpha"/>
      <feGaussianBlur stdDeviation="10" result="blur"/>
      <feFlood flood-opacity="0.102"/>
      <feComposite operator="in" in2="blur"/>
      <feComposite in="SourceGraphic"/>
    </filter>
  </defs>
  <g id="Group_147" data-name="Group 147" transform="translate(-1526 -977)">
    <g transform="matrix(1, 0, 0, 1, 1526, 977)" filter="url(#Rectangle_437)">
      <rect id="Rectangle_437-2" data-name="Rectangle 437" width="178" height="62" rx="25" transform="translate(15 15)" fill="#fbfbfb"/>
    </g>
    <text id="الدعم_" data-name="الدعم " transform="translate(1679.973 1029)" fill="#048e81" font-size="22" font-family="DINNextLTW23-Regular, DIN Next LT W23"><tspan x="-52.888" y="0"> </tspan><tspan y="0">الدعم</tspan></text>
    <g id="chat" transform="translate(1580.027 991.113)">
      <path id="Path_46818" data-name="Path 46818" d="M141.871,208.71a10.523,10.523,0,0,0,2.941-7.2,10.836,10.836,0,0,0-4.23-8.387c-.059,7.541-7.151,13.674-15.861,13.674h-5.9c2.28,3.76,6.913,6.344,12.24,6.344h12.689a1.058,1.058,0,0,0,.978-.654,1.046,1.046,0,0,0-.231-1.15Z" transform="translate(-110.973 -165.396)" fill="#64b5f6"/>
      <path id="Path_46819" data-name="Path 46819" d="M13.748,16.026C6.168,16.026,0,21.24,0,27.658a10.535,10.535,0,0,0,2.941,7.2l-2.63,2.63a1.056,1.056,0,0,0,.747,1.8H13.748c7.58,0,13.746-5.214,13.746-11.632S21.328,16.026,13.748,16.026Z" transform="translate(0)" fill="#2196f3"/>
      <g id="Group_146" data-name="Group 146" transform="translate(6.346 24.485)">
        <path id="Path_46820" data-name="Path 46820" d="M109.772,144.026H97.083a1.057,1.057,0,1,0,0,2.115h12.689a1.057,1.057,0,1,0,0-2.115Z" transform="translate(-96.026 -144.026)" fill="#fafafa"/>
        <path id="Path_46821" data-name="Path 46821" d="M105.543,208.026H97.083a1.057,1.057,0,1,0,0,2.115h8.459a1.057,1.057,0,0,0,0-2.115Z" transform="translate(-96.026 -203.796)" fill="#fafafa"/>
      </g>
    </g>
  </g>
</svg>
