<svg xmlns="http://www.w3.org/2000/svg" width="24" height="24" viewBox="0 0 24 24">
  <g id="gavel_1_" data-name="gavel (1)" transform="translate(0 0)">
    <path id="Path_48053" data-name="Path 48053" d="M75.485,19.5a1.956,1.956,0,0,0-.577-1.392L65.554,8.754l1.508-1.508A1.594,1.594,0,0,0,68.935,4.71L64.692.467A1.594,1.594,0,0,0,62.156,2.34l-5.8,5.8a1.594,1.594,0,0,0-1.873,2.535l4.243,4.243a1.594,1.594,0,0,0,2.535-1.873l1.508-1.508,1.646,1.646h0l7.708,7.708A1.969,1.969,0,0,0,75.485,19.5ZM63.1,1.13a.656.656,0,0,1,.928,0l4.243,4.243a.656.656,0,1,1-.928.928L63.1,2.058a.656.656,0,0,1,0-.928ZM62.77,3.053l3.58,3.58L64.56,8.422h0l-2.121,2.121h0l-1.79,1.789-3.58-3.58Zm-2.453,11.2a.657.657,0,0,1-.928,0l-4.243-4.243a.656.656,0,0,1,.928-.928l4.243,4.243h0a.657.657,0,0,1,0,.928Zm4.574-4.839,1.315,1.315L64.747,12.19l-1.315-1.315ZM74.246,20.23a1.031,1.031,0,0,1-1.458,0L65.41,12.853l1.458-1.458,7.377,7.377a1.031,1.031,0,0,1,0,1.458Zm0,0" transform="translate(-51.485 0)" fill="#048e81"/>
    <path id="Path_48054" data-name="Path 48054" d="M16.438,350.625H15.75V349.7a1.705,1.705,0,0,0-1.7-1.7H3.766a1.705,1.705,0,0,0-1.7,1.7v.922H1.375A1.377,1.377,0,0,0,0,352v3.219a.469.469,0,0,0,.469.469H17.344a.469.469,0,0,0,.469-.469V352A1.377,1.377,0,0,0,16.438,350.625Zm.437,4.125H.938V352a.438.438,0,0,1,.437-.437H6.8a.469.469,0,1,0,0-.937H3V349.7a.767.767,0,0,1,.766-.766H14.047a.767.767,0,0,1,.766.766v.922h-3.8a.469.469,0,0,0,0,.938h5.422a.438.438,0,0,1,.437.437Zm0,0" transform="translate(0 -331.687)" fill="#048e81"/>
    <path id="Path_48055" data-name="Path 48055" d="M180.469,404a.469.469,0,1,0,.331.137A.472.472,0,0,0,180.469,404Zm0,0" transform="translate(-171.563 -385.062)" fill="#048e81"/>
  </g>
</svg>
