<svg xmlns="http://www.w3.org/2000/svg" width="79.957" height="68" viewBox="0 0 79.957 68">
  <g id="_0ac920ce-a620-4aca-a4e1-9ec65bbfb0d4" data-name="0ac920ce-a620-4aca-a4e1-9ec65bbfb0d4" transform="translate(-12.967 -13.358)">
    <path id="Path_2" data-name="Path 2" d="M356.01,248.653c-1.6-.138-1.81-1.275-1.81-2.553V218.6c0-3.054.027-6.124,0-9.164a2.1,2.1,0,0,1,2.41-2.439q15.81.016,31.619,0c.7,0,1.438-.043,1.89.676-.924,2.287-.634,4.691-.639,7.058-.016,9.992,0,19.987-.027,29.979,0,.753.341,1.725-.753,2.13a3.559,3.559,0,0,1-.431-2.431q-.016-16.289,0-32.578c0-2.577,0-2.58-2.527-2.58H358.614c-2.111,0-2.13.013-2.13,2.165v32.844c0,2.039.043,2.082,2.082,2.085h27.527a3.568,3.568,0,0,1,2.314.381c.2.732-.431.644-.8.732a7.671,7.671,0,0,1-1.85.088H358.971A3.362,3.362,0,0,0,356.01,248.653Z" transform="translate(-319.323 -193.64)" fill="#fff"/>
    <path id="Path_3" data-name="Path 3" d="M393.75,248.716c.548-.4.3-.98.3-1.472q.024-17.428,0-34.851a3.331,3.331,0,0,1,1.1-2.822c.721.434.532,1.169.532,1.8.013,12.221,0,24.441.024,36.664,0,1.779-.668,2.572-2.508,2.564-10.716-.051-21.435-.043-32.152-.056,0-1.3.73-1.579,1.893-1.573q14.518.043,29.034,0c.514,0,1.065.165,1.534-.216a.144.144,0,0,1,.24-.035Z" transform="translate(-324.349 -195.527)" fill="#fff"/>
    <path id="Path_4" data-name="Path 4" d="M533.764,401.7c-1.494-1.009-3.179.439-4.875.043-.567-.133-.865.186-1.129.66a2.588,2.588,0,0,1-1.794,1.257c-.639.138-1.491.437-1.693-.415s.783-.349,1.169-.615c.33-.248,1.028-.242,1.017-.682s-.636-.181-.977-.285c-1.392-.429-2.239-1.233-2.023-2.8a2.2,2.2,0,0,1,2.5-2.167c1.534.1,2.066,1.155,2.13,2.553.027.642-.3,1.52.94,1.371,1.1-.13,2.593.455,2.7-1.446a2.229,2.229,0,0,1,1.616-2.3,2.129,2.129,0,0,1,2.5.722,2.662,2.662,0,0,1,.21,3A2.129,2.129,0,0,1,533.764,401.7Z" transform="translate(-443.493 -332.822)" fill="#fff"/>
    <path id="Path_5" data-name="Path 5" d="M479.773,401.666c-1.411.133-3.211-.58-4.212,1.419-.16.322-.844.439-1.31.532-.532.12-1.3.322-1.494-.383-.266-.961.729-.4,1.084-.674s1.089-.439,1.081-.626c-.029-.623-.671-.266-1.033-.375a2.393,2.393,0,0,1-1.946-2.742,2.194,2.194,0,0,1,2.2-2.22,2.076,2.076,0,0,1,2.37,2.263c0,1.621.817,1.829,2.13,1.68a11.043,11.043,0,0,1,2.4,0c1.6.168,2.63-.194,2.308-2.114-.051-.3-.152-.767.429-.772a.876.876,0,0,1,.889.655,2.4,2.4,0,0,1-2.346,3.344C481.528,401.677,480.729,401.666,479.773,401.666Z" transform="translate(-405.703 -332.756)" fill="#fff"/>
    <path id="Path_6" data-name="Path 6" d="M450.651,399.883c-.032,3.195-1.145,4.441-3.5,4.337a3.122,3.122,0,0,1-3.075-3.538,1.925,1.925,0,0,1,.293-1c.192-.242.644-.517.871-.442.365.12.053.533,0,.8-.333,2.087.815,3.4,2.641,2.95.4-.1,1.022-.429,1.041-.687.037-.594-.588-.245-.913-.335-1.472-.415-2.4-1.278-2.069-2.878a2.239,2.239,0,0,1,3.046-1.9C450.547,397.609,450.622,398.975,450.651,399.883Z" transform="translate(-385.262 -333.103)" fill="#fff"/>
    <path id="Path_7" data-name="Path 7" d="M271.969,395.171a6.092,6.092,0,0,1,.016-1.331c.162-.711-.615-1.821.735-2.053,1.4-.24,2.854-.469,3.9.879.4.519.607,1.35.17,1.733-1.438,1.262-.3,2.3.08,3.445.1.309.7.687.133.993a.937.937,0,0,1-1.331-.514c-.285-.527-.511-1.121-.8-1.672a.985.985,0,0,0-1.126-.532c-.474.088-.266.559-.362.876-.17.615.6,1.752-.586,1.765s-.78-1.15-.831-1.885C271.932,396.31,271.972,395.732,271.969,395.171Z" transform="translate(-258.94 -329.096)" fill="#fff"/>
    <path id="Path_8" data-name="Path 8" d="M362.607,393.788c0-.666-.029-1.331.013-1.989.024-.375-.266-1,.479-.99a.833.833,0,0,1,.849.982c-.13,1.166.168,1.3,1.353,1.092,1.443-.266,2.258.8,2.46,2.194a2.791,2.791,0,0,1-2.316,3.315,2.376,2.376,0,0,1-2.756-2.093,12.728,12.728,0,0,1-.029-2.511Z" transform="translate(-325.475 -328.512)" fill="#fff"/>
    <path id="Path_9" data-name="Path 9" d="M444.338,443.953c-2.258,0-4.526.029-6.776-.013-1.02-.019-1.733-.5-1.573-1.659.149-1.065.935-1.262,1.864-1.222.99.043.836.759.8,1.345-.053.8.2,1.137,1.041,1.065.745-.067,1.5,0,2.258-.019.887-.019,2.034.458,1.8-1.331-.1-.729.751-1.132,1.565-1.065a1.035,1.035,0,0,1,1.044,1.262c-.266,1.539.839,1.017,1.557,1.129,1.089.168,1.1-.485,1.081-1.27,0-.343-.226-.985.266-.98s.266.652.266,1c-.043.831.08,1.3,1.118,1.283s.985-.533,1.02-1.254c.04-.8-.3-1.648.216-2.41.666.748.162,1.645.314,2.46.237,1.291-.205,1.8-1.613,1.707-2.074-.136-4.161-.035-6.243-.035Z" transform="translate(-379.319 -364.467)" fill="#fff"/>
    <path id="Path_10" data-name="Path 10" d="M401.05,398.35a1.962,1.962,0,0,1,1.965,1.9c.1,1.281-.911,1.275-1.789,1.454-.453.093-1.374-.237-1.278.378.115.745,1.009.775,1.768.7.354-.035.865-.711,1.065-.016.157.556-.4.911-.948,1.081a2.662,2.662,0,0,1-2.891-.8,2.876,2.876,0,0,1-.386-3.232A2.425,2.425,0,0,1,401.05,398.35Z" transform="translate(-351.636 -334.046)" fill="#fff"/>
    <path id="Path_11" data-name="Path 11" d="M294.129,401.21c-.032-1.922,1.384-3.246,3.094-2.841a1.908,1.908,0,0,1,1.664,1.928c0,1.156-.913,1.185-1.747,1.379-.463.109-1.416-.391-1.315.458.072.6,1,.684,1.7.634.362-.027.849-.7,1.065-.045.226.706-.458.964-1.017,1.124a2.721,2.721,0,0,1-3.448-2.636Z" transform="translate(-275.245 -334.006)" fill="#fff"/>
    <path id="Path_12" data-name="Path 12" d="M345.6,401.21c.072,1.651-.636,2.662-2.367,2.615-1.084-.024-2.069-.471-2.13-1.707-.064-1.174.921-1.427,1.848-1.7.4-.115,1.31.418,1.148-.49-.13-.73-.982-.533-1.6-.514-.373,0-.873.636-1.065.051s.4-.9.927-1.084C344.286,397.7,345.612,398.857,345.6,401.21Z" transform="translate(-309.71 -333.927)" fill="#fff"/>
    <path id="Path_13" data-name="Path 13" d="M529.908,444.007c-1.547,0-3.1-.093-4.641.027-1.331.1-1.771-.37-1.563-1.624.138-.839-.266-1.731.24-2.54.7.737.3,1.64.3,2.449,0,.927.266,1.27,1.2,1.2a21.611,21.611,0,0,1,2.785,0c1.286.061,2.556.178,2.178-1.781-.035-.181-.04-.508.266-.469.115.013.224.306.266.487.17.556-.357,1.427.357,1.653s1.88.533,1.728-1.046c-.019-.186-.474-1.286.588-.554.069.051.367-.2.533-.335a1.3,1.3,0,0,1,1.6-.181c.8.556.532,1.432.469,2.2s-.714.506-1.148.514C533.359,444.021,531.634,444,529.908,444.007Z" transform="translate(-443.662 -364.511)" fill="#fff"/>
    <path id="Path_14" data-name="Path 14" d="M386.887,395.083c0-.708-.043-1.416.019-2.117.029-.346-.338-1.012.458-.956a.887.887,0,0,1,.889.956c0,1.1-.024,2.207,0,3.309.024.769-.341,1.773.988,1.9a.306.306,0,0,1,.178.514c-.184.218-.455.493-.7.5a1.574,1.574,0,0,1-1.837-1.733C386.86,396.67,386.887,395.877,386.887,395.083Z" transform="translate(-343.277 -329.392)" fill="#fff"/>
    <path id="Path_15" data-name="Path 15" d="M318.162,395.362c.362.932-.759,2.4,1.094,3.019.394.13-.109.828-.562.86-1.065.077-1.845-.325-1.864-1.523-.035-1.6-.029-3.195,0-4.771,0-.333-.224-.895.445-.879a.857.857,0,0,1,.889.817C318.2,393.676,318.162,394.475,318.162,395.362Z" transform="translate(-291.877 -329.436)" fill="#fff"/>
    <path id="Path_16" data-name="Path 16" d="M345.65,443.184c-.064.29.266.74-.216.78-.41.035-.317-.439-.375-.719-.027-.128,0-.266-.024-.4-.109-.466-.232-.932-.349-1.4-.2.429-.407.857-.6,1.289s-.144,1.3-.719,1.238c-.658-.072-.562-.99-.857-1.5-.184-.317.019-.849-.532-.964-.043.341-.072.684-.128,1.022s-.136.692-.218,1.036c-.051.2-.069.487-.373.413-.091-.024-.192-.293-.173-.431.136-1,.3-2,.458-3.006.043-.266.1-.532.461-.532s.389.3.479.532q.429,1.153.86,2.308c.306-.772.588-1.552.927-2.306.093-.21.333-.474.532-.493.4-.04.439.346.487.652C345.41,441.549,345.53,442.377,345.65,443.184Z" transform="translate(-309.697 -364.614)" fill="#fff"/>
    <path id="Path_17" data-name="Path 17" d="M329.683,401.727c.453-.588-.679-1.946.642-1.957,1.209,0,.567,1.315.727,2.053s-.447,1.744.815,2.069c.322.083.266.418.125.666a.772.772,0,0,1-.911.333C329.137,404.5,329.957,402.912,329.683,401.727Z" transform="translate(-301.316 -335.088)" fill="#fff"/>
    <path id="Path_18" data-name="Path 18" d="M375.538,439.25c.413.333.165.812.266,1.217.061.266-.245.767.341.735.378-.021.349-.905.988-.532-.2.328-.423.644-.591.985a.682.682,0,0,0,0,.487c.17.474,1,1.009.668,1.251-.533.383-.711-.533-1.084-.836-.162-.13-.29-.2-.367.051s.2.879-.354.775c-.445-.085-.24-.679-.25-1.049-.027-.836-.016-1.672,0-2.508C375.147,439.564,375.134,439.269,375.538,439.25Z" transform="translate(-334.671 -364.056)" fill="#fff"/>
    <path id="Path_19" data-name="Path 19" d="M513.225,449.315c-1.427.032-1.938-.751-1.211-2,.266-.471-.117-.623-.181-.921a1.325,1.325,0,0,1,.908-1.779,1.716,1.716,0,0,1,.972.037c.117.639-.45.229-.692.354-.4.21-.658.463-.636.9.027.631.445.908,1.025,1.02.2.037.551.16.546.224-.021.373-.357.282-.6.309-.5.059-1.214-.1-1.182.679.027.573.6.666,1.124.676a3.7,3.7,0,0,1,.7.152C513.862,449.357,513.516,449.272,513.225,449.315Z" transform="translate(-434.879 -367.957)" fill="#fff"/>
    <path id="Path_20" data-name="Path 20" d="M364.3,445.517c-.2.3.41,1.118-.618,1.033-.586-.051-1.387.588-1.68-.4-.266-.889.421-1.142,1.116-1.291.234-.051.477-.136.407-.394-.043-.154-.28-.28-.453-.373-.224-.12-.743.2-.687-.245.048-.383.575-.346.913-.282C364.381,443.776,364.283,444.647,364.3,445.517Z" transform="translate(-325.002 -367.195)" fill="#fff"/>
    <path id="Path_21" data-name="Path 21" d="M297.14,445.748c-.221.437.266,1.363-.389,1.273s-1.494.8-1.936-.216a3.648,3.648,0,0,1-.048-2.455c.085-.3.354-.072.4.16s-.016.453.045.658c.154.511-.434,1.438.559,1.456.65.013.753-.721.783-1.331.016-.362-.117-1.108.213-1.017C297.468,444.457,296.927,445.24,297.14,445.748Z" transform="translate(-275.575 -367.692)" fill="#fff"/>
    <path id="Path_22" data-name="Path 22" d="M387.377,446.862a1.39,1.39,0,0,1-1.347-1.563,1.408,1.408,0,0,1,1.265-1.579,1.071,1.071,0,0,1,1.2.982c.165.8-.49.49-.847.591s-.916-.266-.945.359c-.024.532.423.692.932.69.2,0,.628-.178.586.205S387.739,446.828,387.377,446.862Z" transform="translate(-342.678 -367.329)" fill="#fff"/>
    <path id="Path_23" data-name="Path 23" d="M275.463,439.66c.532.128,1.155-.192,1.3.266s-.7.13-.732.413c-.117.9-.112,1.824-.168,2.734-.016.237.091.612-.266.631s-.282-.367-.282-.6c-.021-.7,0-1.406-.019-2.109a1.528,1.528,0,0,0-.112-.636c-.176-.343-.961.144-.828-.517C274.372,439.7,275.141,439.708,275.463,439.66Z" transform="translate(-260.728 -364.357)" fill="#fff"/>
    <path id="Path_24" data-name="Path 24" d="M319.834,441.581c-1.086.969-1.227,1.824-.12,2.676-.112.1-.21.266-.333.288a.674.674,0,0,1-.825-.477c-.248-.764.362-1.749-.6-2.332.266-.4.532-1.116.815-1.126C319.243,440.588,318.943,441.666,319.834,441.581Z" transform="translate(-292.732 -365.053)" fill="#fff"/>
    <path id="Path_25" data-name="Path 25" d="M409.439,443.842a1.753,1.753,0,0,1-.351.232c-1.355.442-.453.7.08.972a.74.74,0,0,1,.344,1.185,1.2,1.2,0,0,1-1.393.482c-.282-.069-.32-.362-.027-.423,2.021-.431.532-.764,0-1.163a.722.722,0,0,1-.13-1.065,1.089,1.089,0,0,1,1.153-.458C409.21,443.629,409.295,443.735,409.439,443.842Z" transform="translate(-358.64 -367.229)" fill="#fff"/>
    <path id="Path_26" data-name="Path 26" d="M309.853,445.946c-.2.756-.772.94-1.5.833-.1-.013-.173-.154-.266-.237.088-.075.17-.194.266-.21,1.6-.266.831-.652.067-1.052a.7.7,0,0,1-.367-1,1.065,1.065,0,0,1,1.084-.612c.13,0,.25.162.375.25-2.071.961.426,1.094.312,1.7a1.383,1.383,0,0,0,.035.322Z" transform="translate(-285.394 -367.296)" fill="#fff"/>
    <path id="Path_27" data-name="Path 27" d="M399.231,445.734v-.948c.021-.306.019-.628.511-.532.266.045.727-.152.825-.024.319.418-.335.357-.407.62s-.162.578-.266.863c-.149.445.285,1.313-.4,1.273C398.946,446.929,399.409,446.04,399.231,445.734Z" transform="translate(-352.354 -367.678)" fill="#fff"/>
    <path id="Path_28" data-name="Path 28" d="M285.935,445.622V444.6c0-.375.115-.588.564-.453.221.067.62-.075.687.035.2.322-.248.37-.359.575a4.986,4.986,0,0,0-.328.831c-.152.458.266,1.331-.32,1.331C285.682,446.9,286.052,446.008,285.935,445.622Z" transform="translate(-269.216 -367.619)" fill="#fff"/>
    <path id="Path_29" data-name="Path 29" d="M501.551,442.244c-.266.7.338,1.76-.423,1.888-.4.069-.208-1.211-.21-1.864s-.093-1.981.2-1.89C501.955,440.639,501.2,441.659,501.551,442.244Z" transform="translate(-426.945 -364.881)" fill="#fff"/>
    <path id="Path_30" data-name="Path 30" d="M331.014,392.347a.739.739,0,1,1-1.467-.035.7.7,0,0,1,.767-.711C330.812,391.612,330.993,391.9,331.014,392.347Z" transform="translate(-301.228 -329.091)" fill="#fff"/>
    <path id="Path_32" data-name="Path 32" d="M517.607,392.54c.559,0,1.036.2.881.8s-.655.732-1.185.288C517.035,393.168,517.077,392.788,517.607,392.54Z" transform="translate(-438.882 -329.782)" fill="#fff"/>
    <path id="Path_46608" data-name="Path 46608" d="M517.607,392.54c.559,0,1.036.2.881.8s-.655.732-1.185.288C517.035,393.168,517.077,392.788,517.607,392.54Z" transform="translate(-454.293 -330.465)" fill="#fff"/>
    <path id="Path_34" data-name="Path 34" d="M512.87,393.721c-.482.333-.943.346-1.116-.266s.21-.871.8-.841C513.121,392.854,513.121,393.248,512.87,393.721Z" transform="translate(-434.899 -329.835)" fill="#fff"/>
    <path id="Path_46607" data-name="Path 46607" d="M512.87,393.721c-.482.333-.943.346-1.116-.266s.21-.871.8-.841C513.121,392.854,513.121,393.248,512.87,393.721Z" transform="translate(-450.31 -330.517)" fill="#fff"/>
    <path id="Path_35" data-name="Path 35" d="M514.86,388.854c-.115-.482-.074-.964.533-.964s.61.5.509.972C515.534,389.429,515.19,389.453,514.86,388.854Z" transform="translate(-437.171 -326.371)" fill="#fff"/>
    <path id="Path_38" data-name="Path 38" d="M530.262,402.236c0,.647.149,1.265-.719,1.182-.916-.085-1.627-.389-1.613-1.491,0-.78.2-1.475,1.137-1.416C530.217,400.585,530.182,401.546,530.262,402.236Z" transform="translate(-446.798 -335.628)" fill="#fff"/>
    <path id="Path_39" data-name="Path 39" d="M561.26,402.137c-.178.644-.128,1.467-1.142,1.488-.95.021-1.2-.62-1.222-1.39s.248-1.459,1.124-1.531C560.978,400.624,561.117,401.4,561.26,402.137Z" transform="translate(-469.519 -335.769)" fill="#fff"/>
    <path id="Path_40" data-name="Path 40" d="M478.668,402.354c-.1.423.28,1.145-.674,1.065s-1.632-.431-1.6-1.518c.019-.708.173-1.392,1.065-1.382C478.686,400.538,478.633,401.481,478.668,402.354Z" transform="translate(-408.985 -335.638)" fill="#fff"/>
    <path id="Path_41" data-name="Path 41" d="M457.964,402.534c-.072.418.3,1.14-.631,1.086s-1.683-.357-1.693-1.443c0-.714.237-1.384,1.094-1.368C457.8,400.831,457.943,401.659,457.964,402.534Z" transform="translate(-393.755 -335.85)" fill="#fff"/>
    <path id="Path_42" data-name="Path 42" d="M278.221,398.449c-.69.109-.844-.266-.841-.921s.149-1.089.951-1.025c.642.051,1.1.2,1.129.961C279.486,398.332,278.948,398.47,278.221,398.449Z" transform="translate(-262.956 -332.686)" fill="#fff"/>
    <path id="Path_43" data-name="Path 43" d="M367.878,404.447c-.016-.849.25-1.571,1.211-1.558s1.211.732,1.187,1.584-.216,1.566-1.217,1.555S367.873,405.272,367.878,404.447Z" transform="translate(-329.359 -337.376)" fill="#fff"/>
    <path id="Path_44" data-name="Path 44" d="M439.726,447.33c-.024.423.083.937-.618.881a.893.893,0,0,1-.932-1.02.817.817,0,0,1,.908-.881C439.848,446.313,439.707,446.869,439.726,447.33Z" transform="translate(-380.94 -369.236)" fill="#fff"/>
    <path id="Path_45" data-name="Path 45" d="M467.765,448.234a.945.945,0,0,1-.761-1.065c.048-.485.3-.836.847-.812.658.027.751.487.724,1.02S468.342,448.221,467.765,448.234Z" transform="translate(-402.089 -369.27)" fill="#fff"/>
    <path id="Path_46" data-name="Path 46" d="M404.741,403.9c-.293-.088-.879.226-.775-.49a.958.958,0,0,1,1.022-.831c.5-.016.924.181.889.722C405.83,404,405.226,403.853,404.741,403.9Z" transform="translate(-355.831 -337.147)" fill="#fff"/>
    <path id="Path_47" data-name="Path 47" d="M300.3,403.892c-.266-.176-.937.309-.8-.453a1.033,1.033,0,0,1,1.15-.881c.423.016.836.141.836.65C301.482,404.057,300.779,403.8,300.3,403.892Z" transform="translate(-279.172 -337.127)" fill="#fff"/>
    <path id="Path_48" data-name="Path 48" d="M348.134,410.609a.841.841,0,0,1-.988.777c-.439-.024-.8-.266-.729-.735.083-.623.658-.594,1.118-.65S348.214,410.116,348.134,410.609Z" transform="translate(-313.605 -342.588)" fill="#fff"/>
    <path id="Path_49" data-name="Path 49" d="M563.49,447.631c.122.74-.479.761-1.086.679-.319-.045-.972.266-.879-.386s.367-1.427,1.265-1.48C563.533,446.4,563.445,446.989,563.49,447.631Z" transform="translate(-471.443 -369.333)" fill="#fff"/>
    <path id="Path_51" data-name="Path 51" d="M389.415,445.51c.394.024.671.117.6.45-.027.133-.3.28-.479.306-.266.037-.575-.043-.5-.407C389.079,445.7,389.322,445.593,389.415,445.51Z" transform="translate(-344.881 -368.65)" fill="#fff"/>
    <path id="Path_52" data-name="Path 52" d="M400.42,249.829c-3.5-4.819-9.7-3.168-11.251,1.227a12.663,12.663,0,0,0-.381,3.674c-.152,3.043.354,6.11-.351,9.132a7.188,7.188,0,0,1-1.89,3.285,1,1,0,0,1-1.52.194.964.964,0,0,1-.1-1.515c1.627-1.715,1.795-3.81,1.864-6.03.1-3.251-.652-6.584.556-9.742a8.245,8.245,0,0,1,14.356-1.784A1.818,1.818,0,0,1,400.42,249.829Z" transform="translate(-341.634 -221.404)" fill="#fff"/>
    <path id="Path_53" data-name="Path 53" d="M397.579,235.07c-3.331-3.685-7.351-4.862-12.074-3.216A10.3,10.3,0,0,0,378.947,241v1.2c-.051.924.309,2.268-1.1,2.268-1.331,0-1-1.331-1-2.186-.04-6.555,3.331-11.073,9.6-12.923,4.1-1.209,9.766.66,12.277,4.052A2.151,2.151,0,0,1,397.579,235.07Z" transform="translate(-335.915 -209.773)" fill="#fff"/>
    <path id="Path_54" data-name="Path 54" d="M408.025,273.932a41.29,41.29,0,0,1,.117-10.631c.306-1.826,1.928-2.806,3.858-2.782a3.914,3.914,0,0,1,3.994,2.985c-.873.431-.98,1.736-2.13,1.864-.237-.3-.149-.682-.237-1.02a1.578,1.578,0,0,0-1.725-1.331,1.632,1.632,0,0,0-1.507,1.462,1.52,1.52,0,0,0,1.126,1.731c.365.146.8.13,1.1.434,0,.043.048.1.029.125-.65.943-.471,1.552.7,1.773a1.824,1.824,0,0,1-1.88.234c-1.723-.785-1.539.373-1.581,1.376A19.6,19.6,0,0,0,408.025,273.932Z" transform="translate(-358.608 -232.911)" fill="#fff"/>
    <path id="Path_55" data-name="Path 55" d="M444,259.3l1.294-1.558a6.371,6.371,0,0,1,1.6,4.212c.04,2.87,0,5.738.027,8.608,0,.783-.232,1.382-1.033,1.379s-1.065-.66-1.065-1.4c0-2.295-.037-4.59,0-6.885A8.584,8.584,0,0,0,444,259.3Z" transform="translate(-385.214 -230.872)" fill="#fff"/>
    <path id="Path_56" data-name="Path 56" d="M454.81,247.254c.128-.727.716-1.137,1.134-1.664,2.8,2.883,3.328,6.456,3.1,10.25a.927.927,0,0,1-1.065.921c-.865-.061-1.065-.679-1-1.406A12.014,12.014,0,0,0,454.81,247.254Z" transform="translate(-393.146 -221.957)" fill="#fff"/>
    <path id="Path_57" data-name="Path 57" d="M464.994,298.061c0,.8.024,1.6,0,2.38a.961.961,0,0,1-.993,1.02.972.972,0,0,1-1.086-1.046c-.029-1.5-.013-3,0-4.5a1.048,1.048,0,0,1,2.1.027c.016.7,0,1.411,0,2.13Z" transform="translate(-399.081 -258.133)" fill="#fff"/>
    <path id="Path_58" data-name="Path 58" d="M420.779,321.113v-2.13a1,1,0,0,1,1.022-1.134,1.039,1.039,0,0,1,1.065,1.113c.037,1.456.027,2.915,0,4.372a.98.98,0,0,1-1.041,1.113c-.756,0-1.065-.485-1.065-1.222S420.776,321.819,420.779,321.113Z" transform="translate(-368.162 -274.977)" fill="#fff"/>
    <path id="Path_59" data-name="Path 59" d="M393.484,329.7a.841.841,0,0,1-.82-.423,1.078,1.078,0,0,1,.176-1.331,12.213,12.213,0,0,0,2.513-3.014.929.929,0,0,1,1.15-.418,1,1,0,0,1,.735.844C397.39,326.361,394.613,329.639,393.484,329.7Z" transform="translate(-347.438 -279.823)" fill="#fff"/>
    <path id="Path_60" data-name="Path 60" d="M423.8,276.736c-.618-.117-1.56.362-1.786-.186s.562-1.142,1.025-1.635c.178-.729.8-1.014,1.363-1.355.721-.57.692-1.962,2.031-1.864C426.829,274.385,426.075,275.828,423.8,276.736Z" transform="translate(-369.05 -241.109)" fill="#fff"/>
    <path id="Path_61" data-name="Path 61" d="M425.951,294.55c.224.176.615.328.735.6a10.543,10.543,0,0,0,1.645,2.535,1,1,0,0,1-.138,1.526.987.987,0,0,1-1.422-.17,7.639,7.639,0,0,1-1.93-2.971C424.551,295.232,424.969,294.726,425.951,294.55Z" transform="translate(-371.09 -257.882)" fill="#fff"/>
    <path id="Path_62" data-name="Path 62" d="M376.8,293.559c.128-.783-.333-2,1.113-1.9s.942,1.331,1,2.162c.069.887.1,2.026-1.129,1.952C376.43,295.686,376.922,294.406,376.8,293.559Z" transform="translate(-335.906 -255.754)" fill="#fff"/>
    <path id="Path_63" data-name="Path 63" d="M408.748,300.473a4.051,4.051,0,0,1,1.864-3.783c.024,1.014.045,2.031.072,3.049a1.137,1.137,0,0,1-.7,1.177.924.924,0,0,1-1.235-.442Z" transform="translate(-359.332 -259.452)" fill="#fff"/>
    <path id="Path_64" data-name="Path 64" d="M448.924,316.453a1.05,1.05,0,0,1-1.145,1.028.956.956,0,0,1-.969-1.041c.016-.727.439-1.017,1.113-1S448.846,315.854,448.924,316.453Z" transform="translate(-387.273 -273.208)" fill="#fff"/>
    <path id="Path_65" data-name="Path 65" d="M419.928,270.948c-.176.732-.852.958-1.363,1.355-2.162-.1-3.291-1.534-2.356-3.07a1.849,1.849,0,0,1,2.319-.98A2.039,2.039,0,0,1,419.928,270.948Z" transform="translate(-364.58 -238.497)" fill="#fff"/>
    <circle id="Ellipse_1" data-name="Ellipse 1" cx="0.666" cy="0.666" r="0.666" transform="translate(37.47 77.96)" fill="#fff"/>
    <path id="Path_46609" data-name="Path 46609" d="M517.479,392.54c.405,0,.751.147.639.579s-.475.531-.859.208C517.064,393,517.095,392.719,517.479,392.54Z" transform="translate(-429.865 -317.09)" fill="#fff"/>
    <path id="Path_46613" data-name="Path 46613" d="M517.372,392.54c.276,0,.512.1.436.395s-.324.362-.586.142C517.089,392.851,517.11,392.662,517.372,392.54Z" transform="translate(-451.425 -316.969)" fill="#fff"/>
    <path id="Path_46610" data-name="Path 46610" d="M512.552,393.416c-.349.241-.683.251-.808-.193s.152-.631.579-.61C512.733,392.787,512.733,393.072,512.552,393.416Z" transform="translate(-425.484 -317.148)" fill="#fff"/>
    <path id="Path_46612" data-name="Path 46612" d="M512.285,393.16c-.238.165-.466.171-.552-.131s.1-.43.395-.416C512.409,392.731,512.409,392.926,512.285,393.16Z" transform="translate(-446.712 -317.031)" fill="#fff"/>
    <path id="Path_46611" data-name="Path 46611" d="M514.846,388.588c-.083-.349-.054-.7.386-.7s.442.365.369.7C515.334,389.005,515.085,389.023,514.846,388.588Z" transform="translate(-427.982 -313.337)" fill="#fff"/>
    <path id="Path_46614" data-name="Path 46614" d="M517.372,392.54c.276,0,.512.1.436.395s-.324.362-.586.142C517.089,392.851,517.11,392.662,517.372,392.54Z" transform="translate(-447.241 -316.969)" fill="#fff"/>
    <path id="Path_46615" data-name="Path 46615" d="M512.285,393.16c-.238.165-.466.171-.552-.131s.1-.43.395-.416C512.409,392.731,512.409,392.926,512.285,393.16Z" transform="translate(-442.527 -317.031)" fill="#fff"/>
  </g>
</svg>
