<svg xmlns="http://www.w3.org/2000/svg" width="24.662" height="18" viewBox="0 0 24.662 18">
  <g id="money_4_" data-name="money (4)" transform="translate(0 -6.482)">
    <path id="Path_47312" data-name="Path 47312" d="M19.754,30.121H.514A.514.514,0,0,1,0,29.608V18.595a.514.514,0,0,1,.514-.514h19.24a.514.514,0,0,1,.514.514V29.608A.514.514,0,0,1,19.754,30.121ZM1.028,29.094H19.24V19.109H1.028Z" transform="translate(0 -5.639)" fill="#2b7b74"/>
    <path id="Path_47313" data-name="Path 47313" d="M18.117,30.038H5.5a.514.514,0,0,1-.514-.514,1.033,1.033,0,0,0-1.032-1.031.514.514,0,0,1-.514-.514V23.17a.514.514,0,0,1,.514-.514,1.033,1.033,0,0,0,1.032-1.032.514.514,0,0,1,.514-.514H18.117a.514.514,0,0,1,.514.514,1.033,1.033,0,0,0,1.028,1.032.514.514,0,0,1,.514.514v4.809a.514.514,0,0,1-.514.514,1.032,1.032,0,0,0-1.031,1.031.514.514,0,0,1-.51.514ZM5.955,29.01H17.67a2.068,2.068,0,0,1,1.474-1.482V23.619a2.067,2.067,0,0,1-1.48-1.48H5.953a2.066,2.066,0,0,1-1.48,1.48v3.909a2.067,2.067,0,0,1,1.48,1.482Z" transform="translate(-1.675 -7.113)" fill="#2b7b74"/>
    <path id="Path_47314" data-name="Path 47314" d="M17.044,29.95a2.832,2.832,0,1,1,2.832-2.832A2.832,2.832,0,0,1,17.044,29.95Zm0-4.636a1.8,1.8,0,1,0,1.8,1.8,1.8,1.8,0,0,0-1.8-1.8Z" transform="translate(-6.909 -8.656)" fill="#2b7b74"/>
    <path id="Path_47315" data-name="Path 47315" d="M24.155,24.342a.514.514,0,0,1-.051-1.025l.593-.062-1.043-9.93L7.113,15.061a.514.514,0,1,1-.107-1.022l17.05-1.79a.514.514,0,0,1,.565.457l1.15,10.953a.514.514,0,0,1-.457.565l-1.1.116-.054,0Z" transform="translate(-3.182 -2.802)" fill="#2b7b74"/>
    <path id="Path_47316" data-name="Path 47316" d="M28,18.487a.514.514,0,0,1-.1-1.018l.334-.064L26.351,7.6l-16.1,3.089a.515.515,0,0,1-.194-1.011L26.663,6.491a.514.514,0,0,1,.6.407l2.075,10.816a.514.514,0,0,1-.408.6l-.839.161A.526.526,0,0,1,28,18.487Z" transform="translate(-4.685 0)" fill="#2b7b74"/>
  </g>
</svg>
