<svg id="money_4_" data-name="money (4)" xmlns="http://www.w3.org/2000/svg" width="14" height="14" viewBox="0 0 14 14">
  <path id="Path_47272" data-name="Path 47272" d="M303.23,243.641a.408.408,0,0,1,.41.4h.82a1.227,1.227,0,0,0-.82-1.155V242h-.82v.891a1.23,1.23,0,0,0,.41,2.39.41.41,0,1,1-.41.41H302a1.232,1.232,0,0,0,.82,1.16v.885h.82v-.885a1.23,1.23,0,0,0-.41-2.39.41.41,0,0,1,0-.82Z" transform="translate(-293.742 -235.383)" fill="#0995eb"/>
  <path id="Path_47273" data-name="Path 47273" d="M9.488,4.977c-.138,0-.275.007-.41.019V2.461A2.165,2.165,0,0,0,7.65.644,7.054,7.054,0,0,0,4.566,0,7.216,7.216,0,0,0,1.458.643,2.175,2.175,0,0,0,0,2.461V9.9a2.175,2.175,0,0,0,1.458,1.818,7.216,7.216,0,0,0,3.108.643,8.312,8.312,0,0,0,1.357-.109A4.511,4.511,0,1,0,9.488,4.977ZM1.82,1.379A6.48,6.48,0,0,1,4.566.82c2.175,0,3.691.865,3.691,1.641S6.742,4.1,4.566,4.1A6.48,6.48,0,0,1,1.82,3.543c-.635-.312-1-.706-1-1.082S1.185,1.691,1.82,1.379ZM.82,3.89a3.828,3.828,0,0,0,.638.389,7.216,7.216,0,0,0,3.108.643A7.054,7.054,0,0,0,7.65,4.278,3.754,3.754,0,0,0,8.258,3.9V5.147a4.519,4.519,0,0,0-2.1,1.3,7.246,7.246,0,0,1-1.592.17A6.48,6.48,0,0,1,1.82,6.058c-.635-.312-1-.706-1-1.082Zm0,2.516a3.828,3.828,0,0,0,.638.389,7.216,7.216,0,0,0,3.108.643,8.515,8.515,0,0,0,.93-.05A4.477,4.477,0,0,0,5,9.066c-.142.008-.286.012-.43.012A6.48,6.48,0,0,1,1.82,8.519c-.635-.312-1-.706-1-1.082Zm3.746,5.133A6.48,6.48,0,0,1,1.82,10.98c-.635-.312-1-.706-1-1.082V8.867a3.828,3.828,0,0,0,.638.389A7.216,7.216,0,0,0,4.566,9.9c.143,0,.286,0,.428-.011a4.477,4.477,0,0,0,.451,1.6A7.672,7.672,0,0,1,4.566,11.539ZM9.488,13.18A3.691,3.691,0,1,1,13.18,9.488,3.7,3.7,0,0,1,9.488,13.18Z" fill="#0995eb"/>
</svg>
