<svg xmlns="http://www.w3.org/2000/svg" width="113.129" height="129.591" viewBox="0 0 113.129 129.591">
  <g id="Group_194" data-name="Group 194" transform="translate(0 0)">
    <g id="Group_188" data-name="Group 188" transform="translate(0)">
      <g id="Group_186" data-name="Group 186" transform="translate(18.626 18.311)">
        <g id="Group_185" data-name="Group 185">
          <path id="Path_46888" data-name="Path 46888" d="M341.909,249.13a3.245,3.245,0,0,0-3.034,2.108,32.391,32.391,0,0,1-7.326,8.586l.011.008a3.23,3.23,0,1,0,4.222,4.875,39.153,39.153,0,0,0,8.733-10.305,3.211,3.211,0,0,0,.627-1.911v-.133A3.233,3.233,0,0,0,341.909,249.13Z" transform="translate(-317.475 -170.26)" fill="#0091ea"/>
          <path id="Path_46889" data-name="Path 46889" d="M327.672,236.166v-3.288a3.231,3.231,0,0,0-6.463,0v6.783a3.231,3.231,0,0,0,6.463,0Z" transform="translate(-321.209 -178.269)" fill="#0091ea"/>
          <path id="Path_46890" data-name="Path 46890" d="M374.809,231.714a3.228,3.228,0,0,0-3.227,3.236v14.188a3.231,3.231,0,0,0,6.461,0V234.95A3.229,3.229,0,0,0,374.809,231.714Z" transform="translate(-300.503 -177.419)" fill="#0091ea"/>
          <path id="Path_46891" data-name="Path 46891" d="M350.169,245.3a3.226,3.226,0,0,0-3.226,3.23v14.192a3.23,3.23,0,1,0,6.46,0V248.526A3.231,3.231,0,0,0,350.169,245.3Z" transform="translate(-310.631 -171.836)" fill="#0091ea"/>
          <path id="Path_46892" data-name="Path 46892" d="M365.368,243.7a3.229,3.229,0,0,0-3.228,3.23v.128a3.231,3.231,0,0,0,6.461,0v-.128A3.23,3.23,0,0,0,365.368,243.7Z" transform="translate(-304.384 -172.491)" fill="#0091ea"/>
          <path id="Path_46893" data-name="Path 46893" d="M398.221,225.544a38.775,38.775,0,0,0-77.012,6.463v6.083a3.231,3.231,0,1,0,6.463,0v-6.083a32.308,32.308,0,1,1,64.617,0v6.466a3.233,3.233,0,0,0,6.465,0v-6.466A39.266,39.266,0,0,0,398.221,225.544Z" transform="translate(-321.209 -193.236)" fill="#0091ea"/>
          <path id="Path_46894" data-name="Path 46894" d="M352.443,211.559a12.92,12.92,0,0,0-12.916,12.91v27.379a3.2,3.2,0,0,0,.337,1.434c0,.006,0,.008.007.013v.02a3.263,3.263,0,0,0,1.166,1.266,3.23,3.23,0,0,0,4.953-2.732v-6.783c0-.023-.007-.045-.007-.068v-9.333a12.291,12.291,0,0,0,3.4,1.336,11.71,11.71,0,0,0,3.056.384,12.649,12.649,0,0,0,6.458-1.72,12.864,12.864,0,0,0,6.453-11.2,12.586,12.586,0,0,0-1.07-5.078A12.8,12.8,0,0,0,352.443,211.559Zm6.458,12.949a8.615,8.615,0,0,1-.158,1.451,6.551,6.551,0,0,1-3.782,4.472,7.061,7.061,0,0,1-2.519.5,6.465,6.465,0,0,1-6.46-6.419v-.04a6.459,6.459,0,0,1,12.918,0Z" transform="translate(-313.679 -185.704)" fill="#0091ea"/>
          <path id="Path_46895" data-name="Path 46895" d="M358.131,202.394a25.818,25.818,0,0,0-25.848,25.848v25.849a19.313,19.313,0,0,1-5.324,13.344l.021.027a3.229,3.229,0,1,0,4.257,4.837,25.76,25.76,0,0,0,7.507-18.208V228.242a19.385,19.385,0,1,1,38.77,0v25.849a3.23,3.23,0,0,0,6.46.011V228.242a25.806,25.806,0,0,0-25.844-25.848Z" transform="translate(-319.358 -189.471)" fill="#0091ea"/>
        </g>
        <path id="Path_46896" data-name="Path 46896" d="M361.163,244.579a3.24,3.24,0,0,0-1.039-3.536c-2.5-2.866-3.236-3.672-4.6-7.2l-.013.007a3.228,3.228,0,1,0-5.956,2.461c1.642,4.215,2.783,5.653,5.781,9.07a3.262,3.262,0,0,0,1.616,1.205h0l.052.016.054.017.01.006A3.24,3.24,0,0,0,361.163,244.579Z" transform="translate(-309.691 -177.438)" fill="#028e80"/>
      </g>
      <g id="Group_187" data-name="Group 187">
        <path id="Path_46897" data-name="Path 46897" d="M419.571,182.2a5.9,5.9,0,0,0-4.353-1.946H313.935a5.906,5.906,0,0,0-5.926,5.921V303.926a5.918,5.918,0,0,0,3.938,5.578,5.632,5.632,0,0,0,1.988.346H415.217a5.954,5.954,0,0,0,5.921-5.924V186.18A5.7,5.7,0,0,0,419.571,182.2Zm-4.127,121.721a.25.25,0,0,1-.226.233H313.935a.255.255,0,0,1-.268-.233V186.18a.256.256,0,0,1,.268-.265H415.217a.252.252,0,0,1,.226.265Z" transform="translate(-308.009 -180.259)" fill="#028e80"/>
      </g>
    </g>
    <path id="Path_46898" data-name="Path 46898" d="M419.571,182.2l-4.127,4.855-20.9,24.716-4.243,5.008-4.24,5.04-4.312,5.083-4.511,5.349-5.541,6.569-3.782,4.472-5.575,6.57-3.4,4.051-1.262,1.452-5.194,6.188-7.49,8.864-9.9,11.691-18.64,22.046-4.51,5.345a5.918,5.918,0,0,1-3.938-5.578V186.18a5.906,5.906,0,0,1,5.926-5.921H415.217A5.9,5.9,0,0,1,419.571,182.2Z" transform="translate(-308.009 -180.259)" fill="#fff" opacity="0.2"/>
  </g>
</svg>
