<svg xmlns="http://www.w3.org/2000/svg" width="24.775" height="24" viewBox="0 0 24.775 24">
  <g id="court_1_" data-name="court (1)" transform="translate(0 -1)">
    <path id="Path_48046" data-name="Path 48046" d="M29.806,13.619h-.387V12.458a.387.387,0,0,0-.387-.387H27.484v-.387a.387.387,0,1,0-.774,0v.387H25.161a.387.387,0,0,0-.387.387v1.161h-.387a.387.387,0,1,0,0,.774h1.548a.387.387,0,1,0,0-.774h-.387v-.774H26.71v2.323H25.548a.387.387,0,1,0,0,.774h3.1a.387.387,0,1,0,0-.774H27.484V12.845h1.161v.774h-.387a.387.387,0,1,0,0,.774h1.548a.387.387,0,1,0,0-.774Z" transform="translate(-14.71 -6.311)" fill="#048e81"/>
    <path id="Path_48047" data-name="Path 48047" d="M24,21.975V20.742a.387.387,0,0,0-.387-.387V19.194a.387.387,0,0,0-.387-.387V15.825a.353.353,0,0,0,0-.044l-.531-4.6h.783a.388.388,0,0,0,.322-.172l.912-1.361A.387.387,0,0,0,24.6,9.11l-12-8.044a.389.389,0,0,0-.431,0L.172,9.11a.387.387,0,0,0-.106.537l.912,1.361a.388.388,0,0,0,.322.172h.783l-.531,4.6a.353.353,0,0,0,0,.044v2.982a.387.387,0,0,0-.387.387v1.161a.387.387,0,0,0-.387.387v1.233A1.159,1.159,0,0,0,0,23.065v1.548A.387.387,0,0,0,.387,25h24a.387.387,0,0,0,.387-.387V23.065A1.159,1.159,0,0,0,24,21.975Zm-1.161-2.394v.774h-3.1v-.774Zm-5.548-.774V15.825a.353.353,0,0,0,0-.044l-.531-4.6h3.132l-.531,4.6a.354.354,0,0,0,0,.044v2.982a.387.387,0,0,0-.387.387v1.161h-1.29V19.194A.387.387,0,0,0,17.291,18.807Zm-5.936,0V15.825a.346.346,0,0,0,0-.044l-.531-4.6h3.132l-.531,4.6a.346.346,0,0,0,0,.044v2.982a.387.387,0,0,0-.387.387v1.161H11.742V19.194A.387.387,0,0,0,11.355,18.807Zm-5.935,0V15.825a.354.354,0,0,0,0-.044l-.531-4.6H8.017l-.531,4.6a.353.353,0,0,0,0,.044v2.982a.387.387,0,0,0-.387.387v1.161H5.806V19.194A.387.387,0,0,0,5.419,18.807Zm-2.86-8.4,9.828-6.667,9.828,6.667Zm2.086,5.442v2.96H2.323v-2.96l.538-4.667H4.107Zm17.807,0v2.96H20.129v-2.96l.538-4.667h1.246Zm-5.935,0v2.96H14.194v-2.96l.538-4.667h1.246Zm-5.936,0v2.96H8.258v-2.96L8.8,11.18h1.246Zm-2.71,3.734h3.1v.774h-3.1Zm5.936,0h3.1v.774h-3.1ZM1.4,10.254l-.48-.716L12.387,1.853,23.85,9.538l-.48.716L12.6,2.951a.386.386,0,0,0-.435,0Zm.531,9.327h3.1v.774h-3.1Zm-.387,1.548H23.226V21.9H1.548ZM24,24.226H.774V23.065a.387.387,0,0,1,.387-.387H23.613a.387.387,0,0,1,.387.387Z" fill="#048e81"/>
  </g>
</svg>
