<svg xmlns="http://www.w3.org/2000/svg" xmlns:xlink="http://www.w3.org/1999/xlink" width="21.201" height="21.201" viewBox="0 0 21.201 21.201">
  <defs>
    <linearGradient id="linear-gradient" x1="0.5" x2="0.5" y2="1" gradientUnits="objectBoundingBox">
      <stop offset="0" stop-color="#048e81"/>
      <stop offset="1" stop-color="#0491e8"/>
    </linearGradient>
  </defs>
  <g id="Layer_35" data-name="Layer 35" transform="translate(-3.4 -3.4)">
    <path id="Path_48094" data-name="Path 48094" d="M14,3.4A10.6,10.6,0,1,0,24.6,14,10.6,10.6,0,0,0,14,3.4Zm0,18.236a1.6,1.6,0,1,1,1.6-1.6A1.6,1.6,0,0,1,14,21.636Zm1.938-13.2-.6,8.154a.222.222,0,0,1-.222.208H12.889a.222.222,0,0,1-.222-.208l-.6-8.154a1.942,1.942,0,1,1,3.877,0Z" transform="translate(0 0)" fill="url(#linear-gradient)"/>
  </g>
</svg>
