<svg xmlns="http://www.w3.org/2000/svg" width="25.817" height="24" viewBox="0 0 25.817 24">
  <g id="shake-hands" transform="translate(0 -10.455)">
    <path id="Path_48056" data-name="Path 48056" d="M25.372,16.96,19.326,10.9a1.531,1.531,0,0,0-1.982-.159l-.168.1L9.4,11.911a2.186,2.186,0,0,0-.516.082l-.273-.257-.034-.031a1.531,1.531,0,0,0-2.083.08L.446,17.84a1.536,1.536,0,0,0-.131,2.014c.016.021.033.041.05.061l2.594,2.9A8.379,8.379,0,0,0,3.3,23.892a1.933,1.933,0,0,0,.12,2.6l0,0,.008.008a1.917,1.917,0,0,0,1.328.561,1.972,1.972,0,0,0-.016.235,1.919,1.919,0,0,0,.563,1.363l.008.008,0,0a1.919,1.919,0,0,0,1.366.566c.06,0,.119,0,.178-.009l.018.02c0,.026,0,.052,0,.078a1.918,1.918,0,0,0,.564,1.363l.008.008,0,0a1.919,1.919,0,0,0,1.366.566h0l.184.184a1.916,1.916,0,0,0,.562,1.279l.007.007.007.007a1.916,1.916,0,0,0,1.274.557l.509.509a2.209,2.209,0,0,0,3.291-.193,2.164,2.164,0,0,0,.435-.966l.32.32a2.279,2.279,0,0,0,1.6.664,2.185,2.185,0,0,0,1.352-.468,2.209,2.209,0,0,0,.8-1.337,2.28,2.28,0,0,0,1.472.547,2.186,2.186,0,0,0,1.352-.468,2.209,2.209,0,0,0,.286-3.192,2.179,2.179,0,0,0,.972-.434,2.209,2.209,0,0,0,.193-3.292l-.82-.82a1.032,1.032,0,0,0,.085-.094,12.937,12.937,0,0,0,2.667-4.7,1.044,1.044,0,0,0,.063-.131l.169-.427A1.537,1.537,0,0,0,25.372,16.96ZM4.8,26.022a.886.886,0,0,1-.628-.26l-.009-.009a.888.888,0,0,1,0-1.256l.695-.695a.888.888,0,0,1,1.256,0l.009.009a.888.888,0,0,1,0,1.256l-.695.695A.886.886,0,0,1,4.8,26.022Zm2.518,1.914a.888.888,0,0,1-1.256,0l-.009-.009a.888.888,0,0,1,0-1.256l1.644-1.644a.888.888,0,0,1,1.256,0l.009.009a.888.888,0,0,1,0,1.256Zm2.132,2.03a.888.888,0,0,1-1.256,0l-.009-.009a.888.888,0,0,1,0-1.256l1.064-1.064a.889.889,0,0,1,1.256,0l.009.009a.888.888,0,0,1,0,1.256Zm1.5,2.3a.885.885,0,0,1-.628-.26l-.009-.009a.888.888,0,0,1,0-1.256l.484-.484a.888.888,0,0,1,1.256,0l.009.009a.888.888,0,0,1,0,1.256L11.573,32A.886.886,0,0,1,10.945,32.263Zm2.9.707a1.166,1.166,0,0,1-1.736.1l-.09-.09a1.949,1.949,0,0,0,.3-.243l.484-.484a1.922,1.922,0,0,0,.558-1.225l.372.372A1.187,1.187,0,0,1,13.841,32.97ZM22.7,25.729a1.166,1.166,0,0,1-.1,1.736,1.129,1.129,0,0,1-.7.242,1.224,1.224,0,0,1-.862-.359l-4.217-4.217a.56.56,0,0,0-.793,0h0a.567.567,0,0,0,0,.8l5.421,5.421a1.166,1.166,0,0,1-.1,1.736,1.129,1.129,0,0,1-.7.242,1.224,1.224,0,0,1-.862-.359l-5.4-5.4a.568.568,0,0,0-.8,0,.56.56,0,0,0,0,.792l4.242,4.242a1.166,1.166,0,0,1-.1,1.736,1.129,1.129,0,0,1-.7.242,1.224,1.224,0,0,1-.862-.359L11.766,27.85a1.918,1.918,0,0,0-.516-.942l-.009-.009a1.915,1.915,0,0,0-1.1-.546A1.927,1.927,0,0,0,9.7,24.3l0,0-.008-.008a1.928,1.928,0,0,0-2.32-.309,1.916,1.916,0,0,0-.5-.9l-.006-.006-.007-.007a1.931,1.931,0,0,0-2.731,0l0,0c-.067-.21-.125-.417-.169-.622a.5.5,0,0,0-.091-.2L1.143,19.219a.488.488,0,0,1,.041-.642L7.23,12.522a.488.488,0,0,1,.664-.025l.048.045A2.193,2.193,0,0,0,9.472,16.3l3.851.049Zm1.97-7.39-.208.524a.5.5,0,0,0-.091.2,12.311,12.311,0,0,1-2.49,4.374l-8.12-8.123L9.48,15.256a1.151,1.151,0,1,1,0-2.3l8.038-1.106h0l.4-.23a.488.488,0,0,1,.664.025L24.634,17.7A.488.488,0,0,1,24.675,18.339Z" transform="translate(0)" fill="#048e81"/>
  </g>
</svg>
