<svg xmlns="http://www.w3.org/2000/svg" width="75" height="75" viewBox="0 0 75 75">
  <g id="Group_7" data-name="Group 7" transform="translate(-1704 -1597)">
    <rect id="Rectangle_12" data-name="Rectangle 12" width="75" height="75" rx="27" transform="translate(1704 1597)" fill="#fbfdff"/>
    <g id="share" transform="translate(1727 1619)">
      <path id="Path_46616" data-name="Path 46616" d="M323.335,20.333A4.333,4.333,0,1,1,319,16a4.333,4.333,0,0,1,4.333,4.333Zm0,0" transform="translate(-295.001 -15)" fill="#56658f"/>
      <path id="Path_46617" data-name="Path 46617" d="M304,10.667a5.333,5.333,0,1,1,5.333-5.333A5.339,5.339,0,0,1,304,10.667ZM304,2a3.333,3.333,0,1,0,3.333,3.333A3.337,3.337,0,0,0,304,2Zm0,0" transform="translate(-280.001 0)" fill="#56658f"/>
      <path id="Path_46618" data-name="Path 46618" d="M323.335,361.666A4.333,4.333,0,1,1,319,357.332,4.333,4.333,0,0,1,323.335,361.666Zm0,0" transform="translate(-295.001 -334.999)" fill="#56658f"/>
      <path id="Path_46619" data-name="Path 46619" d="M304,352a5.333,5.333,0,1,1,5.333-5.333A5.339,5.339,0,0,1,304,352Zm0-8.667a3.333,3.333,0,1,0,3.333,3.333A3.337,3.337,0,0,0,304,343.332Zm0,0" transform="translate(-280.001 -319.999)" fill="#56658f"/>
      <path id="Path_46620" data-name="Path 46620" d="M24.667,191a4.333,4.333,0,1,1-4.333-4.333A4.333,4.333,0,0,1,24.667,191Zm0,0" transform="translate(-15 -175.001)" fill="#56658f"/>
      <path id="Path_46621" data-name="Path 46621" d="M5.333,181.335A5.333,5.333,0,1,1,10.667,176a5.339,5.339,0,0,1-5.333,5.333Zm0-8.667A3.333,3.333,0,1,0,8.667,176a3.337,3.337,0,0,0-3.333-3.333Zm0,0" transform="translate(0 -160.001)" fill="#56658f"/>
      <path id="Path_46622" data-name="Path 46622" d="M115.683,99.936a1.333,1.333,0,0,1-.661-2.492l12.372-7.053a1.333,1.333,0,1,1,1.32,2.317l-12.372,7.053A1.325,1.325,0,0,1,115.683,99.936Zm0,0" transform="translate(-107.202 -84.576)" fill="#56658f"/>
      <path id="Path_46623" data-name="Path 46623" d="M128.075,275.94a1.325,1.325,0,0,1-.659-.175l-12.372-7.053a1.333,1.333,0,0,1,1.32-2.317l12.372,7.053a1.334,1.334,0,0,1-.661,2.492Zm0,0" transform="translate(-107.223 -249.58)" fill="#56658f"/>
    </g>
  </g>
</svg>
