<svg xmlns="http://www.w3.org/2000/svg" xmlns:xlink="http://www.w3.org/1999/xlink" width="50.887" height="50.887" viewBox="0 0 50.887 50.887">
  <defs>
    <linearGradient id="linear-gradient" x1="0.5" x2="0.5" y2="1" gradientUnits="objectBoundingBox">
      <stop offset="0" stop-color="#048e81"/>
      <stop offset="1" stop-color="#0491e8"/>
    </linearGradient>
  </defs>
  <g id="surface1" transform="translate(0 -0.001)">
    <path id="Path_48039" data-name="Path 48039" d="M1.491,375.1H28.526a1.491,1.491,0,0,0,1.491-1.491v-3.18a4.48,4.48,0,0,0-2.982-4.216v-1.94a4.285,4.285,0,0,0-4.28-4.28H7.262a4.285,4.285,0,0,0-4.28,4.28v1.94A4.48,4.48,0,0,0,0,370.432v3.18A1.491,1.491,0,0,0,1.491,375.1Zm5.771-12.126H22.754a1.3,1.3,0,0,1,1.3,1.3v1.684H5.964v-1.684A1.3,1.3,0,0,1,7.262,362.978Zm-4.28,7.454a1.492,1.492,0,0,1,1.491-1.491H25.544a1.493,1.493,0,0,1,1.491,1.491v1.69H2.982Zm0,0" transform="translate(0 -324.216)" fill="url(#linear-gradient)"/>
    <path id="Path_48040" data-name="Path 48040" d="M99.622,31.038a4.471,4.471,0,0,0,8.012-3.219,17.592,17.592,0,0,0,3.7-1.056L125.292,45.3a4.473,4.473,0,1,0,7.146-5.38L118.48,21.383a17.616,17.616,0,0,0,2.037-3.262,4.472,4.472,0,0,0,5.309-6.811l-7.174-9.528A4.471,4.471,0,0,0,110.639,5a17.555,17.555,0,0,0-12.881,9.7,4.473,4.473,0,0,0-5.31,6.813Zm16.786-7.449,1.991,2.644-2.382,1.793-1.991-2.644A17.557,17.557,0,0,0,116.408,23.589ZM129.762,43.8a1.492,1.492,0,0,1-2.088-.294l-9.864-13.1,2.382-1.793,9.864,13.1A1.493,1.493,0,0,1,129.762,43.8ZM114.182,3.281a1.493,1.493,0,0,1,2.088.294l7.173,9.528a1.491,1.491,0,0,1-2.382,1.793l-7.174-9.528A1.492,1.492,0,0,1,114.182,3.281ZM112,7.819l6.184,8.214A14.6,14.6,0,0,1,106.274,25l-6.184-8.214A14.59,14.59,0,0,1,112,7.819ZM95.125,17.628a1.49,1.49,0,0,1,2.088.294l7.174,9.528h0A1.491,1.491,0,0,1,102,29.245L94.83,19.716A1.49,1.49,0,0,1,95.125,17.628Zm0,0" transform="translate(-82.449 0)" fill="url(#linear-gradient)"/>
  </g>
</svg>
