<svg xmlns="http://www.w3.org/2000/svg" xmlns:xlink="http://www.w3.org/1999/xlink" width="27.996" height="28" viewBox="0 0 27.996 28">
  <defs>
    <linearGradient id="linear-gradient" x1="0.5" x2="0.5" y2="1" gradientUnits="objectBoundingBox">
      <stop offset="0" stop-color="#048e81"/>
      <stop offset="1" stop-color="#0491e8"/>
    </linearGradient>
  </defs>
  <g id="successful" transform="translate(-2.001 -1.995)">
    <path id="Path_48227" data-name="Path 48227" d="M13.6,25.541a4.694,4.694,0,0,0,2.146,2.977l-.336,1.7L8.675,31.915a1.279,1.279,0,0,0-.882.751L6.1,36.754a1.288,1.288,0,0,0,1.185,1.778h21.7a1.288,1.288,0,0,0,1.185-1.778l-1.694-4.088a1.279,1.279,0,0,0-.877-.751l-6.743-1.694-.336-1.7a4.694,4.694,0,0,0,2.146-2.977,1.176,1.176,0,0,0,.6-1.008v-.467a1.171,1.171,0,0,0-.467-.933v-.467a4.666,4.666,0,1,0-9.332,0v.467a1.171,1.171,0,0,0-.467.933v.467a1.176,1.176,0,0,0,.6,1.008Zm2,5.828,1.675,4.484-3.1-3.336Zm2.426,1.563h.215l.359,1.307-.467,1.246-.467-1.241Zm1.507,1.493v-.037l1.134-3.019L22.1,32.517l-3.1,3.336ZM20,30.562l-.817,2.174-.061-.224.387-.77a.509.509,0,0,0,0-.42l-.261-.513.728-.364Zm-1.461.971L18.311,32h-.355l-.229-.467.229-.467h.355Zm-1.755.21.387.775-.061.229L16.3,30.562l.023-.117.728.364-.261.513a.509.509,0,0,0,0,.42Zm-9.8,5.7a.355.355,0,0,1-.023-.313l1.694-4.088a.355.355,0,0,1,.243-.2l4.96-1.246-.663.527a.464.464,0,0,0-.047.681L17.62,37.6H7.285A.345.345,0,0,1,7,37.444ZM27.6,33.021l1.7,4.111a.355.355,0,0,1-.033.336.345.345,0,0,1-.289.154H18.647l4.47-4.816a.464.464,0,0,0-.047-.681l-.663-.527,4.965,1.223a.355.355,0,0,1,.238.2Zm-7.844-3.528-1.269.639h-.709l-1.269-.639.107-.56a4.456,4.456,0,0,0,3.033,0Zm2.576-4.96a.229.229,0,0,1-.173.224.467.467,0,0,0-.345.378,3.7,3.7,0,0,1-7.317,0,.467.467,0,0,0-.345-.378.229.229,0,0,1-.173-.224v-.467a.238.238,0,0,1,.154-.219.467.467,0,0,0,.308-.439V23.3a4.6,4.6,0,0,0,1.624.3,4.13,4.13,0,0,0,3.406-1.615,2.492,2.492,0,0,0,2.3-.145,3.7,3.7,0,0,1,.093.826v.742a.467.467,0,0,0,.308.439.238.238,0,0,1,.159.219ZM14.457,22.2h.2a4,4,0,0,0,3.654-2.025,2.87,2.87,0,0,0,.294-1.083l.126.163a1.866,1.866,0,0,1,.145,1.9,3.1,3.1,0,0,1-2.8,1.507,3.514,3.514,0,0,1-1.6-.373q-.009-.046-.014-.093ZM21.4,20.93a1.526,1.526,0,0,1-.933.336,1.577,1.577,0,0,1-.593-.117A2.688,2.688,0,0,0,20,20.333a2.8,2.8,0,0,0-.191-1A3.733,3.733,0,0,1,21.4,20.93Zm-3.733-1.964a1.792,1.792,0,0,1-.2.793,3.077,3.077,0,0,1-2.776,1.507A3.733,3.733,0,0,1,17.667,18.966Z" transform="translate(-2.134 -8.537)" fill="url(#linear-gradient)"/>
    <path id="Path_48228" data-name="Path 48228" d="M26.368,6.2l-.289,1.792a.469.469,0,0,0,.686.495l1.5-.845,1.5.835A.5.5,0,0,0,30,8.53a.466.466,0,0,0,.457-.551L30.166,6.2,31.4,4.928a.466.466,0,0,0-.266-.784l-1.689-.28-.756-1.6a.467.467,0,0,0-.849,0l-.756,1.6L25.4,4.12a.466.466,0,0,0-.266.784Zm1.106-1.428a.467.467,0,0,0,.35-.261l.443-.933.467.933a.467.467,0,0,0,.35.261l1.041.159-.793.8a.467.467,0,0,0-.126.4l.177,1.078-.891-.49a.467.467,0,0,0-.467,0l-.891.49.2-1.1a.467.467,0,0,0-.126-.4l-.775-.784Z" transform="translate(-12.268 0)" fill="url(#linear-gradient)"/>
    <path id="Path_48229" data-name="Path 48229" d="M49.368,14.175l-.289,1.792a.469.469,0,0,0,.686.495l1.5-.845,1.5.835a.5.5,0,0,0,.229.056.466.466,0,0,0,.457-.551l-.289-1.783L54.4,12.906a.466.466,0,0,0-.266-.784l-1.689-.28-.756-1.615a.467.467,0,0,0-.849,0l-.756,1.615L48.4,12.1a.466.466,0,0,0-.266.784Zm1.106-1.428a.467.467,0,0,0,.35-.261l.467-.933.467.933a.467.467,0,0,0,.35.261l1.041.159-.817.8a.467.467,0,0,0-.126.4l.177,1.078-.891-.49a.467.467,0,0,0-.467,0l-.891.49.2-1.1a.467.467,0,0,0-.126-.4l-.77-.784Z" transform="translate(-24.535 -4.246)" fill="url(#linear-gradient)"/>
    <path id="Path_48230" data-name="Path 48230" d="M3.368,14.2l-.289,1.792a.469.469,0,0,0,.686.495l1.5-.845,1.5.835A.5.5,0,0,0,7,16.53a.466.466,0,0,0,.457-.551L7.166,14.2,8.4,12.928a.466.466,0,0,0-.266-.784l-1.689-.28-.756-1.6a.467.467,0,0,0-.849,0l-.756,1.6L2.4,12.12a.466.466,0,0,0-.266.784Zm1.106-1.428a.467.467,0,0,0,.35-.261l.443-.933.443.933a.467.467,0,0,0,.35.261l1.041.159-.77.8a.467.467,0,0,0-.126.4l.177,1.078L5.491,14.7a.467.467,0,0,0-.467,0l-.873.49.182-1.078A.467.467,0,0,0,4.2,13.73l-.77-.8Z" transform="translate(0 -4.267)" fill="url(#linear-gradient)"/>
    <path id="Path_48231" data-name="Path 48231" d="M3.368,35.2l-.289,1.792a.469.469,0,0,0,.686.495l1.5-.845,1.5.835A.5.5,0,0,0,7,37.53a.466.466,0,0,0,.457-.551L7.166,35.2,8.4,33.928a.466.466,0,0,0-.266-.784l-1.689-.28-.756-1.6a.467.467,0,0,0-.849,0l-.756,1.6L2.4,33.12a.466.466,0,0,0-.266.784Zm1.106-1.428a.467.467,0,0,0,.35-.261l.443-.933.443.933a.467.467,0,0,0,.35.261l1.041.159-.77.8a.467.467,0,0,0-.126.4l.177,1.078L5.491,35.7a.467.467,0,0,0-.467,0l-.873.49.182-1.078A.467.467,0,0,0,4.2,34.73l-.77-.8Z" transform="translate(0 -15.468)" fill="url(#linear-gradient)"/>
    <path id="Path_48232" data-name="Path 48232" d="M49.368,35.175l-.289,1.792a.469.469,0,0,0,.686.495l1.5-.845,1.5.835a.5.5,0,0,0,.229.056.466.466,0,0,0,.457-.551l-.289-1.783L54.4,33.906a.466.466,0,0,0-.266-.784l-1.689-.28-.756-1.615a.467.467,0,0,0-.849,0l-.756,1.615L48.4,33.1a.466.466,0,0,0-.266.784Zm1.106-1.428a.467.467,0,0,0,.35-.261l.467-.933.467.933a.467.467,0,0,0,.35.261l1.041.159-.817.8a.467.467,0,0,0-.126.4l.177,1.078-.891-.49a.467.467,0,0,0-.467,0l-.891.49.2-1.1a.467.467,0,0,0-.126-.4l-.77-.784Z" transform="translate(-24.535 -15.447)" fill="url(#linear-gradient)"/>
  </g>
</svg>
