<svg id="Layer_2" data-name="Layer 2" xmlns="http://www.w3.org/2000/svg" width="24" height="24" viewBox="0 0 24 24">
  <g id="invisible_box" data-name="invisible box">
    <rect id="Rectangle_1566" data-name="Rectangle 1566" width="24" height="24" fill="none"/>
    <rect id="Rectangle_1567" data-name="Rectangle 1567" width="24" height="24" fill="none"/>
  </g>
  <g id="icons_Q2" data-name="icons Q2" transform="translate(1 2.5)">
    <path id="Path_48023" data-name="Path 48023" d="M23,5H7A1,1,0,0,0,6,6v5H3a1,1,0,0,0-1,1v9a3,3,0,0,0,3,3H21a3,3,0,0,0,3-3V6A1,1,0,0,0,23,5ZM6,21a1,1,0,0,1-2,0V13H6Zm4-10.6a.9.9,0,0,1,.9-.9h2.2a.9.9,0,0,1,.9.9v4.2a.9.9,0,0,1-.9.9H10.9a.9.9,0,0,1-.9-.9Zm9.7,8.8a1,1,0,0,1-.7.3H11a1,1,0,0,1-1-1,1.05,1.05,0,0,1,1-1h8a.99.99,0,0,1,.7,1.7Zm0-4a1,1,0,0,1-.7.3H17a1,1,0,0,1-1-1,1.05,1.05,0,0,1,1-1h2a.99.99,0,0,1,.7,1.7Zm0-4a1,1,0,0,1-.7.3H17a1,1,0,0,1-1-1,1.05,1.05,0,0,1,1-1h2a.99.99,0,0,1,.7,1.7Z" transform="translate(-2 -5)" fill="#fff"/>
  </g>
</svg>
