<svg xmlns="http://www.w3.org/2000/svg" xmlns:xlink="http://www.w3.org/1999/xlink" width="383.356" height="543.871" viewBox="0 0 383.356 543.871">
  <defs>
    <filter id="Ellipse_66" x="95.766" y="120.694" width="32" height="32" filterUnits="userSpaceOnUse">
      <feOffset input="SourceAlpha"/>
      <feGaussianBlur stdDeviation="2.5" result="blur"/>
      <feFlood flood-color="#048e81"/>
      <feComposite operator="in" in2="blur"/>
      <feComposite in="SourceGraphic"/>
    </filter>
    <filter id="Ellipse_66-2" x="269.745" y="329.923" width="32" height="32" filterUnits="userSpaceOnUse">
      <feOffset input="SourceAlpha"/>
      <feGaussianBlur stdDeviation="2.5" result="blur-2"/>
      <feFlood flood-color="#048e81"/>
      <feComposite operator="in" in2="blur-2"/>
      <feComposite in="SourceGraphic"/>
    </filter>
    <filter id="Ellipse_66-3" x="212.922" y="263.547" width="32" height="32" filterUnits="userSpaceOnUse">
      <feOffset input="SourceAlpha"/>
      <feGaussianBlur stdDeviation="2.5" result="blur-3"/>
      <feFlood flood-color="#048e81"/>
      <feComposite operator="in" in2="blur-3"/>
      <feComposite in="SourceGraphic"/>
    </filter>
  </defs>
  <g id="Group_1160" data-name="Group 1160" transform="translate(-137.867 -488.806)">
    <g id="Group_1159" data-name="Group 1159">
      <g id="Group_1158" data-name="Group 1158">
        <path id="Path_47119" data-name="Path 47119" d="M-8604.937,857.556h-135.356" transform="translate(8881.133 -368)" fill="none" stroke="#048e81" stroke-width="1.5"/>
        <path id="Path_47116" data-name="Path 47116" d="M-8563.461,1017.824l104.557-15.952" transform="matrix(0.848, 0.53, -0.53, 0.848, 8225.203, 4510.217)" fill="none" stroke="#048e81" stroke-width="1.5" stroke-dasharray="2 3"/>
        <g id="Group_259" data-name="Group 259" transform="translate(140.133 596)">
          <g id="Group_185" data-name="Group 185">
            <path id="Path_46888" data-name="Path 46888" d="M383.487,249.13a14.858,14.858,0,0,0-13.891,9.653A148.318,148.318,0,0,1,336.049,298.1l.052.038a14.791,14.791,0,1,0,19.332,22.324,179.275,179.275,0,0,0,39.989-47.187,14.7,14.7,0,0,0,2.869-8.748v-.607A14.8,14.8,0,0,0,383.487,249.13Z" transform="translate(-271.605 112.015)" fill="#0091ea"/>
            <path id="Path_46889" data-name="Path 46889" d="M350.8,259.5V244.443a14.8,14.8,0,0,0-29.593,0V275.5a14.8,14.8,0,0,0,29.593,0Z" transform="translate(-321.209 5.613)" fill="#0091ea"/>
            <path id="Path_46890" data-name="Path 46890" d="M386.359,231.714a14.782,14.782,0,0,0-14.777,14.816V311.5a14.793,14.793,0,0,0,29.586,0V246.53A14.784,14.784,0,0,0,386.359,231.714Z" transform="translate(-46.11 16.902)" fill="#0091ea"/>
            <path id="Path_46891" data-name="Path 46891" d="M361.713,245.3a14.771,14.771,0,0,0-14.77,14.79v64.987a14.79,14.79,0,0,0,29.579,0V260.086A14.8,14.8,0,0,0,361.713,245.3Z" transform="translate(-180.67 91.076)" fill="#0091ea"/>
            <path id="Path_46892" data-name="Path 46892" d="M376.923,243.7a14.786,14.786,0,0,0-14.783,14.79v.588a14.793,14.793,0,0,0,29.586,0v-.588A14.79,14.79,0,0,0,376.923,243.7Z" transform="translate(-97.675 82.376)" fill="#0091ea"/>
            <path id="Path_46893" data-name="Path 46893" d="M673.844,341.172C659.732,257.228,586.7,193.236,498.751,193.236A177.428,177.428,0,0,0,321.209,370.765v27.854a14.8,14.8,0,1,0,29.593,0V370.765a147.94,147.94,0,1,1,295.879,0V400.37a14.8,14.8,0,0,0,29.605,0V370.765A179.8,179.8,0,0,0,673.844,341.172Z" transform="translate(-321.209 -193.236)" fill="#0091ea"/>
            <path id="Path_46894" data-name="Path 46894" d="M398.667,211.559a59.16,59.16,0,0,0-59.14,59.114V396.04a14.65,14.65,0,0,0,1.544,6.565c0,.026.02.039.033.058v.09a14.94,14.94,0,0,0,5.337,5.8A14.788,14.788,0,0,0,369.12,396.04V364.981c0-.1-.032-.207-.032-.31V321.936a56.277,56.277,0,0,0,15.585,6.119,53.614,53.614,0,0,0,13.995,1.757,57.919,57.919,0,0,0,29.573-7.876,58.9,58.9,0,0,0,29.547-51.264,57.633,57.633,0,0,0-4.9-23.254A58.611,58.611,0,0,0,398.667,211.559Zm29.573,59.295a39.449,39.449,0,0,1-.723,6.642A30,30,0,0,1,410.2,297.972a32.333,32.333,0,0,1-11.533,2.274,29.605,29.605,0,0,1-29.579-29.392v-.181a29.576,29.576,0,0,1,59.152,0Z" transform="translate(-221.17 -93.17)" fill="#0091ea"/>
            <path id="Path_46895" data-name="Path 46895" d="M474.153,202.394A118.219,118.219,0,0,0,355.8,320.751V439.115a88.436,88.436,0,0,1-24.378,61.1l.1.123a14.787,14.787,0,1,0,19.494,22.149,117.955,117.955,0,0,0,34.374-83.376V320.751a88.765,88.765,0,1,1,177.529,0V439.115a14.79,14.79,0,0,0,29.58.052V320.751A118.164,118.164,0,0,0,474.153,202.394Z" transform="translate(-296.611 -143.222)" fill="#0091ea"/>
          </g>
          <path id="Path_46896" data-name="Path 46896" d="M403.873,290.79a14.835,14.835,0,0,0-4.755-16.192c-11.469-13.123-14.816-16.812-21.051-32.959l-.058.032a14.783,14.783,0,1,0-27.273,11.269c7.521,19.3,12.742,25.884,26.472,41.533a14.937,14.937,0,0,0,7.4,5.518h.019l.239.071.246.077.045.026A14.838,14.838,0,0,0,403.873,290.79Z" transform="translate(-168.18 16.649)" fill="#028e80"/>
        </g>
        <g id="Group_260" data-name="Group 260" transform="translate(0.133)">
          <circle id="Ellipse_65" data-name="Ellipse 65" cx="9.5" cy="9.5" r="9.5" transform="translate(240 616)" fill="#fff"/>
          <g transform="matrix(1, 0, 0, 1, 137.73, 488.81)" filter="url(#Ellipse_66)">
            <circle id="Ellipse_66-4" data-name="Ellipse 66" cx="8.5" cy="8.5" r="8.5" transform="translate(103.27 128.19)" fill="#048e81"/>
          </g>
        </g>
        <g id="Group_263" data-name="Group 263" transform="translate(174.112 209.229)">
          <circle id="Ellipse_65-2" data-name="Ellipse 65" cx="9.5" cy="9.5" r="9.5" transform="translate(240 616)" fill="#fff"/>
          <g transform="matrix(1, 0, 0, 1, -36.25, 279.58)" filter="url(#Ellipse_66-2)">
            <circle id="Ellipse_66-5" data-name="Ellipse 66" cx="8.5" cy="8.5" r="8.5" transform="translate(277.25 337.42)" fill="#048e81"/>
          </g>
        </g>
      </g>
      <path id="Path_47118" data-name="Path 47118" d="M-8634.339,964.365l31.416-92.257,6.082-13.646-7.914-10.128h-138.511" transform="translate(8881.133 -358.779)" fill="none" stroke="#048e81" stroke-width="1" stroke-dasharray="5 3"/>
    </g>
    <path id="Path_47114" data-name="Path 47114" d="M-8563.46,1114.77l87.961-151.188" transform="translate(8930.289 -349.174)" fill="none" stroke="#048e81" stroke-width="1.5" stroke-dasharray="2 3"/>
    <g id="Group_261" data-name="Group 261" transform="translate(117.289 142.853)">
      <circle id="Ellipse_65-3" data-name="Ellipse 65" cx="9.5" cy="9.5" r="9.5" transform="translate(240 616)" fill="#fff"/>
      <g transform="matrix(1, 0, 0, 1, 20.58, 345.95)" filter="url(#Ellipse_66-3)">
        <circle id="Ellipse_66-6" data-name="Ellipse 66" cx="8.5" cy="8.5" r="8.5" transform="translate(220.42 271.05)" fill="#048e81"/>
      </g>
    </g>
  </g>
</svg>
