<svg id="Layer_2" data-name="Layer 2" xmlns="http://www.w3.org/2000/svg" width="24" height="24" viewBox="0 0 24 24">
  <g id="invisible_box" data-name="invisible box">
    <rect id="Rectangle_1533" data-name="Rectangle 1533" width="24" height="24" fill="none"/>
  </g>
  <g id="Q3_icons" data-name="Q3 icons" transform="translate(4.492 5.001)">
    <path id="Path_48012" data-name="Path 48012" d="M15.242,10.3l-5.95,6a.95.95,0,0,0,0,1.4l5.95,6a1.05,1.05,0,0,0,1.35.1.95.95,0,0,0,.1-1.5l-4.3-4.3h10.6a1,1,0,0,0,0-2h-10.6l4.3-4.3a.95.95,0,0,0-.1-1.5,1.05,1.05,0,0,0-1.35.1Z" transform="translate(-8.985 -10.001)" fill="#484848"/>
  </g>
</svg>
