<svg xmlns="http://www.w3.org/2000/svg" width="32.727" height="24" viewBox="0 0 32.727 24">
  <g id="Layer_2" data-name="Layer 2" transform="translate(-1 -5)">
    <path id="Path_47479" data-name="Path 47479" d="M30.095,5H25.731a3.567,3.567,0,0,0-1.985.6L21.782,6.931,20.287,5.764A3.578,3.578,0,0,0,18.105,5H4.633A3.633,3.633,0,0,0,1,8.633V25.367A3.633,3.633,0,0,0,4.633,29H18.084a3.633,3.633,0,0,0,2.182-.764l1.484-1.167L23.735,28.4a3.567,3.567,0,0,0,1.985.6h4.364a3.633,3.633,0,0,0,3.644-3.633V8.633A3.633,3.633,0,0,0,30.095,5Zm1.451,20.367a1.462,1.462,0,0,1-1.451,1.451H25.731a1.407,1.407,0,0,1-.775-.24L22.884,25.2a2.04,2.04,0,0,0-1.091-.349,2.1,2.1,0,0,0-1.265.436l-1.56,1.233a1.418,1.418,0,0,1-.862.295H4.633a1.462,1.462,0,0,1-1.451-1.451V8.633A1.462,1.462,0,0,1,4.633,7.182H18.084a1.44,1.44,0,0,1,.862.295l1.56,1.233a2.051,2.051,0,0,0,2.4.087L25,7.422a1.331,1.331,0,0,1,.753-.24h4.364a1.462,1.462,0,0,1,1.429,1.451Z" transform="translate(0 0)" fill="#fff"/>
    <circle id="Ellipse_138" data-name="Ellipse 138" cx="1.091" cy="1.091" r="1.091" transform="translate(20.625 15.909)" fill="#fff"/>
    <circle id="Ellipse_139" data-name="Ellipse 139" cx="1.091" cy="1.091" r="1.091" transform="translate(20.625 10.782)" fill="#fff"/>
    <circle id="Ellipse_140" data-name="Ellipse 140" cx="1.091" cy="1.091" r="1.091" transform="translate(20.625 21.036)" fill="#fff"/>
  </g>
</svg>
