<svg xmlns="http://www.w3.org/2000/svg" xmlns:xlink="http://www.w3.org/1999/xlink" width="15.82" height="18" viewBox="0 0 15.82 18">
  <defs>
    <linearGradient id="linear-gradient" x1="0.5" y1="1" x2="0.5" gradientUnits="objectBoundingBox">
      <stop offset="0" stop-color="#c3ffe8"/>
      <stop offset="0.997" stop-color="#f0fff4"/>
    </linearGradient>
    <linearGradient id="linear-gradient-2" x1="0.5" y1="1" x2="0.5" gradientUnits="objectBoundingBox">
      <stop offset="0" stop-color="#00b59c"/>
      <stop offset="1" stop-color="#9cffac"/>
    </linearGradient>
  </defs>
  <g id="protection_1_" data-name="protection (1)" transform="translate(-31)">
    <path id="Path_47486" data-name="Path 47486" d="M82.33,59.714a1.05,1.05,0,0,1-.381-.071,12.018,12.018,0,0,1-3.51-2.091A6.645,6.645,0,0,1,76,52.453V47.6a1.058,1.058,0,0,1,.525-.912,3.2,3.2,0,0,0,1.16-1.16A1.058,1.058,0,0,1,78.6,45h7.46a1.058,1.058,0,0,1,.912.525,3.2,3.2,0,0,0,1.16,1.16,1.058,1.058,0,0,1,.525.912v4.855a6.646,6.646,0,0,1-2.43,5.1,11.941,11.941,0,0,1-3.517,2.09A1.051,1.051,0,0,1,82.33,59.714Z" transform="translate(-43.418 -43.418)" fill="url(#linear-gradient)"/>
    <g id="Group_905" data-name="Group 905" transform="translate(31)">
      <g id="Group_904" data-name="Group 904">
        <path id="Path_47487" data-name="Path 47487" d="M46.293,2.109A1.584,1.584,0,0,1,44.711.527.527.527,0,0,0,44.184,0H33.637a.527.527,0,0,0-.527.527,1.584,1.584,0,0,1-1.582,1.582A.527.527,0,0,0,31,2.637v6.4a7.832,7.832,0,0,0,1.236,4.271,10.049,10.049,0,0,0,2.676,2.75,12.724,12.724,0,0,0,4,1.944,12.7,12.7,0,0,0,4-1.944,10.048,10.048,0,0,0,2.676-2.75A7.832,7.832,0,0,0,46.82,9.035v-6.4A.527.527,0,0,0,46.293,2.109ZM44.711,9.035a6.14,6.14,0,0,1-2.253,4.707A11.4,11.4,0,0,1,39.1,15.734a.527.527,0,0,1-.38,0A11.479,11.479,0,0,1,35.37,13.74a6.139,6.139,0,0,1-2.261-4.7V4.18a.527.527,0,0,1,.263-.456,3.729,3.729,0,0,0,1.352-1.352.527.527,0,0,1,.456-.263h7.46a.527.527,0,0,1,.456.263,3.729,3.729,0,0,0,1.352,1.352.527.527,0,0,1,.263.456Zm-5.8-4.219A3.691,3.691,0,1,0,42.6,8.508,3.7,3.7,0,0,0,38.91,4.816ZM40.443,8.09,38.861,9.672a.527.527,0,0,1-.746,0l-.791-.791a.527.527,0,0,1,.746-.746l.418.418L39.7,7.344a.527.527,0,1,1,.746.746Z" transform="translate(-31)" fill="url(#linear-gradient-2)"/>
      </g>
    </g>
  </g>
</svg>
