<svg xmlns="http://www.w3.org/2000/svg" width="24.011" height="24" viewBox="0 0 24.011 24">
  <path id="Path_48008" data-name="Path 48008" d="M19.375,1.958h-.9V1.051a.938.938,0,0,0-1.875,0v.906h-9.2V1.051a.937.937,0,1,0-1.875,0v.906h-.9A4.641,4.641,0,0,0,0,6.593V19.478a4.641,4.641,0,0,0,4.636,4.636H19.375a4.641,4.641,0,0,0,4.636-4.636V6.593a4.641,4.641,0,0,0-4.636-4.636ZM4.636,3.833h.9V5.661a.937.937,0,0,0,1.875,0V3.833h9.2V5.661a.938.938,0,0,0,1.875,0V3.833h.9a2.764,2.764,0,0,1,2.761,2.761v.9H1.875v-.9A2.764,2.764,0,0,1,4.636,3.833ZM19.375,22.239H4.636a2.764,2.764,0,0,1-2.761-2.761V9.364H22.136V19.478A2.764,2.764,0,0,1,19.375,22.239ZM8.328,13.051a.937.937,0,0,1-.937.938H5.547a.938.938,0,0,1,0-1.875H7.391A.938.938,0,0,1,8.328,13.051Zm11.073,0a.937.937,0,0,1-.937.938H16.62a.937.937,0,0,1,0-1.875h1.844A.938.938,0,0,1,19.4,13.051Zm-5.542,0a.937.937,0,0,1-.937.938H11.078a.937.937,0,0,1,0-1.875h1.844A.938.938,0,0,1,13.859,13.051ZM8.328,18.583a.937.937,0,0,1-.937.938H5.547a.938.938,0,0,1,0-1.875H7.391A.938.938,0,0,1,8.328,18.583Zm11.073,0a.937.937,0,0,1-.937.938H16.62a.938.938,0,0,1,0-1.875h1.844A.938.938,0,0,1,19.4,18.583Zm-5.542,0a.937.937,0,0,1-.937.938H11.078a.938.938,0,0,1,0-1.875h1.844A.938.938,0,0,1,13.859,18.583Z" transform="translate(0 -0.114)" fill="#363848"/>
</svg>
