<svg version="1.2" xmlns="http://www.w3.org/2000/svg" viewBox="0 0 7 7" width="7" height="7"><defs><clipPath clipPathUnits="userSpaceOnUse" id="cp1"><path d="m-516-171h640v360h-640z" /></clipPath></defs><style>.s0{opacity: .5;fill:#03014c}</style><g clip-path="url(#cp1)"><path fill-rule="evenodd" class="s0" d="m6.3 6q0 0 0 0q-0.1 0-0.1 0q0 0.1 0 0.1q0 0 0 0h-0.5q0 0 0-0.1c0-0.6-0.3-1.1-0.7-1.5c-0.4-0.4-0.9-0.7-1.5-0.7c-0.6 0-1.2 0.3-1.6 0.7c-0.4 0.4-0.6 0.9-0.7 1.5q0 0.1 0 0.1h-0.5q0 0 0 0q0 0 0-0.1q0 0 0 0q0 0 0 0q0-0.5 0.2-1q0.2-0.5 0.6-0.9q0.4-0.4 0.9-0.6q0 0 0 0c-0.5-0.3-0.8-0.9-0.8-1.5c0-1 0.8-1.8 1.9-1.8c1 0 1.8 0.8 1.8 1.8c0 0.6-0.3 1.2-0.8 1.5q0 0 0.1 0q0.5 0.2 0.8 0.6q0.4 0.4 0.6 0.9q0.2 0.5 0.3 1zm-1.9-3.1c0.2-0.2 0.3-0.6 0.3-0.9c0-0.3-0.1-0.7-0.3-0.9c-0.3-0.3-0.6-0.4-0.9-0.4c-0.4 0-0.7 0.1-0.9 0.4c-0.3 0.2-0.4 0.6-0.4 0.9c0 0.3 0.1 0.7 0.4 0.9c0.2 0.2 0.5 0.4 0.9 0.4c0.3 0 0.6-0.2 0.9-0.4z" /></g></svg>