<svg xmlns="http://www.w3.org/2000/svg" width="16.875" height="24" viewBox="0 0 16.875 24">
  <g id="location_7_" data-name="location (7)" transform="translate(-76)">
    <path id="Path_47054" data-name="Path 47054" d="M83.852,23.687a.7.7,0,0,0,1.17,0c1.664-2.5,4.115-5.578,5.823-8.714a13.969,13.969,0,0,0,2.03-6.536A8.438,8.438,0,0,0,76,8.438a13.969,13.969,0,0,0,2.03,6.536C79.736,18.106,82.192,21.2,83.852,23.687Zm.585-22.281a7.039,7.039,0,0,1,7.031,7.031A12.653,12.653,0,0,1,89.611,14.3a88.435,88.435,0,0,1-5.173,7.748A88.44,88.44,0,0,1,79.264,14.3a12.653,12.653,0,0,1-1.858-5.863,7.039,7.039,0,0,1,7.031-7.031Z" fill="#048e81"/>
    <path id="Path_47055" data-name="Path 47055" d="M170.219,98.438A4.219,4.219,0,1,0,166,94.219,4.224,4.224,0,0,0,170.219,98.438Zm0-7.031a2.813,2.813,0,1,1-2.812,2.813A2.816,2.816,0,0,1,170.219,91.406Z" transform="translate(-85.781 -85.781)" fill="#048e81"/>
  </g>
</svg>
