<svg xmlns="http://www.w3.org/2000/svg" width="16.875" height="24" viewBox="0 0 16.875 24">
  <g id="notification" transform="translate(-76)">
    <path id="Path_47217" data-name="Path 47217" d="M196.938,473.875h3.75a.938.938,0,0,0,0-1.875h-3.75a.938.938,0,0,0,0,1.875Z" transform="translate(-114.375 -449.875)" fill="#2b7b74"/>
    <path id="Path_47218" data-name="Path 47218" d="M84.438,0A.937.937,0,0,0,83.5.937v1a6.572,6.572,0,0,0-5.625,6.5V14.2a.842.842,0,0,1-.37.748,2.812,2.812,0,0,0,1.308,5.3h11.25a2.812,2.812,0,0,0,1.308-5.3A.842.842,0,0,1,91,14.2V8.437a6.572,6.572,0,0,0-5.625-6.5v-1A.937.937,0,0,0,84.438,0Zm4.688,8.437V14.2a2.679,2.679,0,0,0,1.37,2.406.937.937,0,0,1-.432,1.768H78.813a.937.937,0,0,1-.432-1.768A2.679,2.679,0,0,0,79.75,14.2V8.437a4.688,4.688,0,0,1,9.375,0Z" fill="#2b7b74"/>
  </g>
</svg>
