<svg id="clock_1_" data-name="clock (1)" xmlns="http://www.w3.org/2000/svg" width="12" height="12" viewBox="0 0 12 12">
  <path id="Path_47264" data-name="Path 47264" d="M6,0a6,6,0,1,0,6,6A6.013,6.013,0,0,0,6,0ZM6,11.3A5.3,5.3,0,1,1,11.3,6,5.3,5.3,0,0,1,6,11.3Z" fill="#0995eb"/>
  <circle id="Ellipse_101" data-name="Ellipse 101" cx="0.352" cy="0.352" r="0.352" transform="translate(2.665 8.632)" fill="#0995eb"/>
  <circle id="Ellipse_102" data-name="Ellipse 102" cx="0.352" cy="0.352" r="0.352" transform="translate(8.632 2.665)" fill="#0995eb"/>
  <path id="Path_47265" data-name="Path 47265" d="M113.823,113.823a.352.352,0,1,0,.5,0A.352.352,0,0,0,113.823,113.823Z" transform="translate(-111.055 -111.055)" fill="#0995eb"/>
  <path id="Path_47266" data-name="Path 47266" d="M368.383,368.383a.352.352,0,1,0,.5,0A.352.352,0,0,0,368.383,368.383Z" transform="translate(-359.648 -359.648)" fill="#0995eb"/>
  <path id="Path_47267" data-name="Path 47267" d="M241.352,62.406a.352.352,0,0,0,.352-.352v-.7a.352.352,0,0,0-.7,0v.7A.352.352,0,0,0,241.352,62.406Z" transform="translate(-235.352 -59.57)" fill="#0995eb"/>
  <path id="Path_47268" data-name="Path 47268" d="M241.352,391a.352.352,0,0,0-.352.352v.7a.352.352,0,0,0,.7,0v-.7A.352.352,0,0,0,241.352,391Z" transform="translate(-235.352 -381.836)" fill="#0995eb"/>
  <path id="Path_47269" data-name="Path 47269" d="M62.406,241.352a.352.352,0,0,0-.352-.352h-.7a.352.352,0,0,0,0,.7h.7A.352.352,0,0,0,62.406,241.352Z" transform="translate(-59.57 -235.352)" fill="#0995eb"/>
  <path id="Path_47270" data-name="Path 47270" d="M391,241.352a.352.352,0,0,0,.352.352h.7a.352.352,0,0,0,0-.7h-.7A.352.352,0,0,0,391,241.352Z" transform="translate(-381.836 -235.352)" fill="#0995eb"/>
  <path id="Path_47271" data-name="Path 47271" d="M241.7,153.315v-1.964a.352.352,0,0,0-.7,0v2.109a.352.352,0,0,0,.1.249l2.109,2.109a.352.352,0,0,0,.5-.5Z" transform="translate(-235.352 -147.461)" fill="#0995eb"/>
</svg>
