<svg xmlns="http://www.w3.org/2000/svg" xmlns:xlink="http://www.w3.org/1999/xlink" width="353" height="114" viewBox="0 0 353 114">
  <defs>
    <clipPath id="clip-path">
      <rect id="Rectangle_1546" data-name="Rectangle 1546" width="353" height="114" rx="12" transform="translate(-14375 13984)" fill="#2b7b74" stroke="#707070" stroke-width="1"/>
    </clipPath>
  </defs>
  <g id="Group_987" data-name="Group 987" transform="translate(14375 -13984)">
    <rect id="Rectangle_1544" data-name="Rectangle 1544" width="353" height="114" rx="12" transform="translate(-14375 13984)" fill="#2b7b74"/>
    <g id="Mask_Group_30" data-name="Mask Group 30" clip-path="url(#clip-path)">
      <g id="_0ac920ce-a620-4aca-a4e1-9ec65bbfb0d4" data-name="0ac920ce-a620-4aca-a4e1-9ec65bbfb0d4" transform="matrix(0.899, -0.438, 0.438, 0.899, -14415.188, 14024.421)">
        <path id="Path_2" data-name="Path 2" d="M356.789,266.571c-2.285-.2-2.589-1.824-2.589-3.652V223.593c0-4.367.038-8.758,0-13.106-.019-2.38,1.078-3.488,3.446-3.488q22.61.023,45.221,0c1,0,2.056-.061,2.7.967-1.321,3.271-.906,6.709-.914,10.094-.023,14.291,0,28.585-.038,42.875,0,1.078.487,2.467-1.078,3.046-.83-1.047-.617-2.285-.617-3.477q-.023-23.3,0-46.592c0-3.686,0-3.69-3.614-3.69h-38.8c-3.02,0-3.046.019-3.046,3.1v46.972c0,2.917.061,2.978,2.978,2.981h39.368c1.12,0,2.285-.206,3.309.544.286,1.047-.617.922-1.142,1.047a10.968,10.968,0,0,1-2.646.126h-38.31C359.393,265.006,357.882,265.151,356.789,266.571Z" transform="translate(-309.898 -193.64)" fill="#fff"/>
        <path id="Path_3" data-name="Path 3" d="M407.817,265.555c.784-.567.426-1.4.43-2.106q.034-24.926,0-49.843a4.764,4.764,0,0,1,1.576-4.036c1.032.621.762,1.672.762,2.57.019,17.478,0,34.955.034,52.436,0,2.544-.956,3.678-3.587,3.667-15.326-.072-30.656-.061-45.982-.08,0-1.854,1.043-2.258,2.707-2.25q20.764.061,41.523,0c.735,0,1.523.236,2.193-.308a.206.206,0,0,1,.343-.049Z" transform="translate(-314.14 -195.233)" fill="#fff"/>
        <path id="Path_4" data-name="Path 4" d="M538.212,403.852c-2.136-1.443-4.546.628-6.972.061-.811-.19-1.238.267-1.615.944a3.7,3.7,0,0,1-2.566,1.8c-.914.2-2.132.624-2.422-.594s1.12-.5,1.671-.88c.472-.354,1.47-.347,1.455-.975s-.91-.259-1.4-.407c-1.991-.613-3.2-1.763-2.894-4.006.282-2.06,1.462-3.233,3.572-3.1,2.193.141,2.955,1.653,3.046,3.652.038.918-.43,2.174,1.344,1.961,1.576-.187,3.709.651,3.861-2.068.091-1.626.7-2.818,2.311-3.29a3.045,3.045,0,0,1,3.575,1.032,3.808,3.808,0,0,1,.3,4.288A3.044,3.044,0,0,1,538.212,403.852Z" transform="translate(-414.686 -311.098)" fill="#fff"/>
        <path id="Path_5" data-name="Path 5" d="M483.151,403.849c-2.018.19-4.592-.83-6.024,2.03-.228.461-1.207.628-1.873.761-.762.171-1.862.461-2.136-.548-.381-1.375,1.043-.571,1.55-.963s1.557-.628,1.546-.895c-.042-.891-.96-.381-1.477-.537-1.938-.624-3.008-1.8-2.783-3.922A3.138,3.138,0,0,1,475.1,396.6a2.969,2.969,0,0,1,3.389,3.237c0,2.319,1.169,2.616,3.046,2.4a15.794,15.794,0,0,1,3.427,0c2.285.24,3.762-.278,3.3-3.023-.072-.426-.217-1.1.613-1.1a1.253,1.253,0,0,1,1.272.937,3.432,3.432,0,0,1-3.355,4.783C485.66,403.864,484.518,403.849,483.151,403.849Z" transform="translate(-382.795 -311.041)" fill="#fff"/>
        <path id="Path_6" data-name="Path 6" d="M453.484,401.1c-.046,4.569-1.637,6.351-5,6.2a4.465,4.465,0,0,1-4.4-5.06,2.752,2.752,0,0,1,.419-1.428c.274-.347.921-.739,1.245-.632.522.171.076.762,0,1.142-.476,2.985,1.165,4.866,3.777,4.219.571-.141,1.462-.613,1.489-.982.053-.849-.841-.35-1.306-.48-2.106-.594-3.427-1.828-2.959-4.116s2.064-3.343,4.356-2.719C453.335,397.844,453.442,399.8,453.484,401.1Z" transform="translate(-365.545 -311.334)" fill="#fff"/>
        <path id="Path_7" data-name="Path 7" d="M272,396.7a8.712,8.712,0,0,1,.023-1.9c.232-1.017-.88-2.6,1.051-2.936,2-.343,4.082-.67,5.575,1.257.575.742.868,1.931.244,2.479-2.056,1.8-.423,3.294.114,4.927.145.442,1,.982.19,1.42a1.341,1.341,0,0,1-1.9-.735c-.407-.754-.731-1.6-1.142-2.391a1.409,1.409,0,0,0-1.611-.762c-.678.126-.381.8-.518,1.253-.244.88.861,2.505-.838,2.525s-1.116-1.645-1.188-2.7C271.942,398.335,272,397.508,272,396.7Z" transform="translate(-258.94 -307.953)" fill="#fff"/>
        <path id="Path_8" data-name="Path 8" d="M362.617,395.07c0-.952-.042-1.9.019-2.844.034-.537-.381-1.428.685-1.416a1.192,1.192,0,0,1,1.215,1.405c-.187,1.668.24,1.866,1.934,1.561,2.064-.381,3.229,1.142,3.518,3.138a3.992,3.992,0,0,1-3.313,4.741,3.4,3.4,0,0,1-3.941-2.993,18.2,18.2,0,0,1-.042-3.591Z" transform="translate(-315.09 -307.46)" fill="#fff"/>
        <path id="Path_9" data-name="Path 9" d="M447.939,445.735c-3.229,0-6.473.042-9.691-.019-1.458-.027-2.479-.72-2.25-2.372.213-1.523,1.337-1.8,2.665-1.748,1.416.061,1.2,1.085,1.142,1.923-.076,1.142.282,1.626,1.489,1.523,1.066-.1,2.151,0,3.229-.027,1.268-.027,2.909.655,2.578-1.9-.137-1.043,1.074-1.618,2.239-1.523a1.48,1.48,0,0,1,1.493,1.8c-.381,2.2,1.2,1.455,2.228,1.615,1.557.24,1.58-.693,1.546-1.816,0-.491-.324-1.409.381-1.4s.381.933.381,1.424c-.061,1.188.114,1.854,1.6,1.835s1.409-.762,1.458-1.793c.057-1.142-.423-2.357.308-3.446.952,1.07.232,2.353.449,3.518.339,1.847-.293,2.57-2.307,2.441-2.966-.194-5.952-.049-8.929-.049Z" transform="translate(-360.53 -337.803)" fill="#fff"/>
        <path id="Path_10" data-name="Path 10" d="M402.259,398.35a2.806,2.806,0,0,1,2.81,2.723c.145,1.832-1.3,1.824-2.559,2.079-.647.133-1.965-.339-1.828.541.164,1.066,1.443,1.108,2.528,1,.506-.05,1.238-1.017,1.523-.023.225.8-.567,1.3-1.356,1.546a3.807,3.807,0,0,1-4.135-1.146,4.113,4.113,0,0,1-.552-4.623A3.468,3.468,0,0,1,402.259,398.35Z" transform="translate(-337.167 -312.13)" fill="#fff"/>
        <path id="Path_11" data-name="Path 11" d="M294.129,402.463c-.046-2.749,1.98-4.642,4.425-4.063a2.728,2.728,0,0,1,2.38,2.757c0,1.653-1.306,1.695-2.5,1.972-.663.156-2.026-.56-1.881.655.1.861,1.424.979,2.437.906.518-.038,1.215-1.005,1.523-.065.324,1.009-.655,1.378-1.455,1.607a3.891,3.891,0,0,1-4.931-3.77Z" transform="translate(-272.7 -312.096)" fill="#fff"/>
        <path id="Path_12" data-name="Path 12" d="M347.534,402.51c.1,2.361-.91,3.808-3.385,3.739-1.55-.034-2.959-.674-3.046-2.441-.091-1.679,1.318-2.041,2.643-2.429.579-.164,1.873.6,1.641-.7-.187-1.043-1.405-.762-2.285-.735-.533,0-1.249.91-1.523.072s.575-1.283,1.325-1.55C345.657,397.488,347.553,399.144,347.534,402.51Z" transform="translate(-301.785 -312.03)" fill="#fff"/>
        <path id="Path_13" data-name="Path 13" d="M532.6,445.787c-2.212,0-4.436-.133-6.637.038-1.9.149-2.532-.529-2.235-2.323.2-1.2-.381-2.475.343-3.633,1,1.055.423,2.346.427,3.5,0,1.325.381,1.816,1.721,1.71a30.907,30.907,0,0,1,3.983,0c1.839.088,3.656.255,3.115-2.547-.05-.259-.057-.727.381-.67.164.019.32.438.381.7.244.8-.51,2.041.51,2.365s2.688.762,2.471-1.5c-.027-.267-.678-1.839.841-.792.1.072.526-.282.762-.48a1.859,1.859,0,0,1,2.285-.259c1.142.8.761,2.049.67,3.153s-1.02.724-1.641.735C537.533,445.806,535.065,445.784,532.6,445.787Z" transform="translate(-414.829 -337.84)" fill="#fff"/>
        <path id="Path_14" data-name="Path 14" d="M386.9,396.406c0-1.013-.061-2.026.027-3.027.042-.495-.484-1.447.655-1.367a1.268,1.268,0,0,1,1.272,1.367c0,1.576-.034,3.157,0,4.733.034,1.1-.487,2.536,1.413,2.723a.438.438,0,0,1,.255.735c-.263.312-.651.7-1,.72a2.251,2.251,0,0,1-2.627-2.479C386.867,398.676,386.9,397.541,386.9,396.406Z" transform="translate(-330.113 -308.202)" fill="#fff"/>
        <path id="Path_15" data-name="Path 15" d="M318.75,396.779c.518,1.333-1.085,3.427,1.565,4.318.564.187-.156,1.184-.8,1.23-1.523.11-2.639-.465-2.665-2.178-.049-2.285-.042-4.569,0-6.823,0-.476-.32-1.279.636-1.257a1.226,1.226,0,0,1,1.272,1.169C318.807,394.368,318.75,395.511,318.75,396.779Z" transform="translate(-286.736 -308.24)" fill="#fff"/>
        <path id="Path_16" data-name="Path 16" d="M347.615,444.549c-.091.415.381,1.059-.308,1.116-.586.049-.453-.628-.537-1.028-.038-.183,0-.381-.034-.567-.156-.666-.331-1.333-.5-2-.286.613-.583,1.226-.861,1.843s-.206,1.862-1.028,1.771c-.94-.1-.8-1.417-1.226-2.151-.263-.453.027-1.215-.762-1.378-.061.487-.1.979-.183,1.462s-.194.99-.312,1.481c-.072.286-.1.7-.533.59-.129-.034-.274-.419-.247-.617.194-1.435.43-2.867.655-4.3.061-.381.145-.762.659-.762s.556.426.685.762q.613,1.649,1.23,3.3c.438-1.1.841-2.22,1.325-3.3.133-.3.476-.678.762-.7.575-.057.628.495.7.933C347.272,442.211,347.444,443.4,347.615,444.549Z" transform="translate(-301.775 -337.927)" fill="#fff"/>
        <path id="Path_17" data-name="Path 17" d="M329.693,402.569c.647-.842-.971-2.784.918-2.8,1.729,0,.811,1.881,1.04,2.936s-.64,2.494,1.165,2.959c.461.118.381.6.179.952a1.1,1.1,0,0,1-1.3.476C328.913,406.54,330.086,404.263,329.693,402.569Z" transform="translate(-294.701 -313.009)" fill="#fff"/>
        <path id="Path_18" data-name="Path 18" d="M375.72,439.25c.59.476.236,1.161.381,1.74.088.381-.35,1.1.487,1.051.541-.03.5-1.295,1.413-.762-.286.468-.605.922-.845,1.409a.975.975,0,0,0,0,.7c.244.678,1.436,1.443.956,1.79-.762.548-1.017-.762-1.55-1.2-.232-.187-.415-.289-.525.072s.286,1.257-.506,1.108c-.636-.122-.343-.971-.358-1.5-.038-1.2-.023-2.391,0-3.587C375.16,439.7,375.141,439.277,375.72,439.25Z" transform="translate(-322.85 -337.456)" fill="#fff"/>
        <path id="Path_19" data-name="Path 19" d="M513.888,451.357c-2.041.046-2.772-1.074-1.733-2.86.381-.674-.168-.891-.259-1.318a1.9,1.9,0,0,1,1.3-2.544,2.453,2.453,0,0,1,1.39.053c.167.914-.644.327-.99.506-.575.3-.94.662-.91,1.287.038.9.636,1.3,1.466,1.458.286.053.788.228.781.32-.03.533-.51.4-.86.442-.716.084-1.736-.137-1.691.971.038.819.861.952,1.607.967a5.278,5.278,0,0,1,1.005.217C514.8,451.418,514.3,451.3,513.888,451.357Z" transform="translate(-407.417 -340.749)" fill="#fff"/>
        <path id="Path_20" data-name="Path 20" d="M365.31,446.373c-.289.43.586,1.6-.883,1.477-.838-.072-1.984.842-2.4-.567-.381-1.272.6-1.634,1.6-1.847.335-.072.682-.194.583-.564-.061-.221-.4-.4-.647-.533-.32-.171-1.062.289-.982-.35.068-.548.822-.495,1.306-.4C365.432,443.883,365.291,445.128,365.31,446.373Z" transform="translate(-314.691 -340.105)" fill="#fff"/>
        <path id="Path_21" data-name="Path 21" d="M298.242,446.412c-.316.624.381,1.95-.556,1.82s-2.136,1.142-2.768-.308a5.217,5.217,0,0,1-.069-3.511c.122-.434.506-.1.575.228s-.023.647.065.941c.221.731-.621,2.056.8,2.083.929.019,1.078-1.032,1.12-1.9.023-.518-.168-1.584.3-1.455C298.71,444.565,297.937,445.684,298.242,446.412Z" transform="translate(-272.979 -340.525)" fill="#fff"/>
        <path id="Path_22" data-name="Path 22" d="M387.957,448.218a1.988,1.988,0,0,1-1.927-2.235,2.013,2.013,0,0,1,1.809-2.258,1.531,1.531,0,0,1,1.717,1.405c.236,1.142-.7.7-1.211.845s-1.31-.381-1.352.514c-.034.762.605.99,1.333.986.289,0,.9-.255.838.293S388.475,448.169,387.957,448.218Z" transform="translate(-329.608 -340.218)" fill="#fff"/>
        <path id="Path_23" data-name="Path 23" d="M275.945,439.66c.762.183,1.653-.274,1.862.381s-1,.187-1.047.59c-.168,1.291-.16,2.608-.24,3.911-.023.339.13.876-.381.9s-.4-.525-.4-.857c-.03-1.005,0-2.011-.027-3.016a2.184,2.184,0,0,0-.16-.91c-.251-.491-1.375.206-1.184-.739C274.384,439.721,275.484,439.729,275.945,439.66Z" transform="translate(-260.449 -337.71)" fill="#fff"/>
        <path id="Path_24" data-name="Path 24" d="M320.641,442c-1.554,1.386-1.755,2.608-.171,3.827-.16.145-.3.381-.476.411a.964.964,0,0,1-1.181-.682c-.354-1.093.518-2.5-.853-3.336.381-.571.761-1.6,1.165-1.611C319.8,440.579,319.365,442.121,320.641,442Z" transform="translate(-287.457 -338.298)" fill="#fff"/>
        <path id="Path_25" data-name="Path 25" d="M410.151,443.957a2.513,2.513,0,0,1-.5.331c-1.938.632-.647,1,.114,1.39a1.058,1.058,0,0,1,.491,1.694,1.714,1.714,0,0,1-1.992.689c-.4-.1-.457-.518-.038-.605,2.89-.617.762-1.093,0-1.664a1.032,1.032,0,0,1-.187-1.523,1.557,1.557,0,0,1,1.649-.655C409.823,443.652,409.945,443.8,410.151,443.957Z" transform="translate(-343.078 -340.134)" fill="#fff"/>
        <path id="Path_26" data-name="Path 26" d="M310.667,446.927c-.282,1.081-1.1,1.344-2.151,1.192-.137-.019-.248-.221-.381-.339.126-.107.244-.278.381-.3,2.285-.381,1.188-.933.1-1.5a1,1,0,0,1-.525-1.424,1.523,1.523,0,0,1,1.55-.876c.187,0,.358.232.537.358-2.962,1.375.609,1.565.446,2.433a1.977,1.977,0,0,0,.049.461Z" transform="translate(-281.265 -340.191)" fill="#fff"/>
        <path id="Path_27" data-name="Path 27" d="M399.237,446.4v-1.356c.03-.438.027-.9.731-.762.381.065,1.04-.217,1.18-.034.457.6-.48.51-.583.887s-.232.826-.381,1.234c-.213.636.407,1.877-.567,1.82C398.829,448.109,399.492,446.837,399.237,446.4Z" transform="translate(-337.773 -340.512)" fill="#fff"/>
        <path id="Path_28" data-name="Path 28" d="M285.945,446.274v-1.462c0-.537.164-.842.807-.647.316.1.887-.107.982.049.289.461-.354.529-.514.823a7.14,7.14,0,0,0-.468,1.188c-.217.655.381,1.9-.457,1.9C285.583,448.109,286.113,446.826,285.945,446.274Z" transform="translate(-267.612 -340.463)" fill="#fff"/>
        <path id="Path_29" data-name="Path 29" d="M501.843,443.049c-.381,1.005.483,2.517-.606,2.7-.575.1-.3-1.732-.3-2.665s-.133-2.833.282-2.7C502.421,440.753,501.344,442.211,501.843,443.049Z" transform="translate(-400.721 -338.152)" fill="#fff"/>
        <path id="Path_30" data-name="Path 30" d="M331.649,392.669a1.057,1.057,0,1,1-2.1-.049,1,1,0,0,1,1.1-1.017C331.36,391.618,331.619,392.025,331.649,392.669Z" transform="translate(-294.627 -307.949)" fill="#fff"/>
        <path id="Path_32" data-name="Path 32" d="M517.807,392.54c.8,0,1.481.289,1.26,1.142s-.937,1.047-1.694.411C516.989,393.439,517.049,392.894,517.807,392.54Z" transform="translate(-410.795 -308.532)" fill="#fff"/>
        <path id="Path_46608" data-name="Path 46608" d="M517.807,392.54c.8,0,1.481.289,1.26,1.142s-.937,1.047-1.694.411C516.989,393.439,517.049,392.894,517.807,392.54Z" transform="translate(-432.835 -309.508)" fill="#fff"/>
        <path id="Path_34" data-name="Path 34" d="M513.368,394.2c-.689.476-1.348.495-1.6-.381s.3-1.245,1.142-1.2C513.726,392.958,513.726,393.521,513.368,394.2Z" transform="translate(-407.434 -308.577)" fill="#fff"/>
        <path id="Path_46607" data-name="Path 46607" d="M513.368,394.2c-.689.476-1.348.495-1.6-.381s.3-1.245,1.142-1.2C513.726,392.958,513.726,393.521,513.368,394.2Z" transform="translate(-429.473 -309.552)" fill="#fff"/>
        <path id="Path_35" data-name="Path 35" d="M514.882,389.268c-.164-.689-.106-1.378.762-1.378s.872.72.727,1.39C515.845,390.091,515.354,390.125,514.882,389.268Z" transform="translate(-409.351 -305.653)" fill="#fff"/>
        <path id="Path_38" data-name="Path 38" d="M531.265,402.979c0,.925.213,1.809-1.028,1.691-1.31-.122-2.327-.556-2.307-2.132,0-1.116.286-2.11,1.626-2.026C531.2,400.619,531.151,401.993,531.265,402.979Z" transform="translate(-417.476 -313.466)" fill="#fff"/>
        <path id="Path_39" data-name="Path 39" d="M562.278,402.755c-.255.921-.183,2.1-1.634,2.128-1.359.03-1.714-.887-1.748-1.988s.354-2.087,1.607-2.189C561.874,400.593,562.072,401.7,562.278,402.755Z" transform="translate(-436.65 -313.584)" fill="#fff"/>
        <path id="Path_40" data-name="Path 40" d="M479.645,403.143c-.137.605.4,1.637-.963,1.523s-2.334-.617-2.285-2.17c.027-1.013.247-1.991,1.523-1.976C479.672,400.546,479.6,401.894,479.645,403.143Z" transform="translate(-385.564 -313.473)" fill="#fff"/>
        <path id="Path_41" data-name="Path 41" d="M458.964,403.277c-.1.6.434,1.63-.9,1.554s-2.407-.51-2.422-2.064c0-1.02.339-1.98,1.565-1.957C458.736,400.84,458.934,402.024,458.964,403.277Z" transform="translate(-372.712 -313.653)" fill="#fff"/>
        <path id="Path_42" data-name="Path 42" d="M278.583,399.289c-.986.156-1.207-.381-1.2-1.318s.213-1.557,1.359-1.466c.918.072,1.58.286,1.614,1.375C280.392,399.122,279.623,399.32,278.583,399.289Z" transform="translate(-262.329 -310.982)" fill="#fff"/>
        <path id="Path_43" data-name="Path 43" d="M367.878,405.117c-.023-1.215.358-2.247,1.733-2.228s1.733,1.047,1.7,2.266-.308,2.239-1.74,2.224S367.871,406.3,367.878,405.117Z" transform="translate(-318.367 -314.941)" fill="#fff"/>
        <path id="Path_44" data-name="Path 44" d="M440.393,447.768c-.034.605.118,1.34-.883,1.26a1.278,1.278,0,0,1-1.333-1.458,1.169,1.169,0,0,1,1.3-1.26C440.568,446.314,440.366,447.11,440.393,447.768Z" transform="translate(-361.897 -341.828)" fill="#fff"/>
        <path id="Path_45" data-name="Path 45" d="M468.1,449.042a1.351,1.351,0,0,1-1.089-1.523c.069-.693.434-1.2,1.211-1.161.94.038,1.074.7,1.036,1.458S468.921,449.023,468.1,449.042Z" transform="translate(-379.745 -341.856)" fill="#fff"/>
        <path id="Path_46" data-name="Path 46" d="M405.08,404.467c-.419-.126-1.257.324-1.108-.7a1.37,1.37,0,0,1,1.462-1.188c.712-.023,1.321.259,1.272,1.032C406.637,404.608,405.773,404.4,405.08,404.467Z" transform="translate(-340.707 -314.747)" fill="#fff"/>
        <path id="Path_47" data-name="Path 47" d="M300.649,404.469c-.381-.251-1.34.442-1.142-.647a1.477,1.477,0,0,1,1.645-1.26c.605.023,1.2.2,1.2.929C302.344,404.705,301.338,404.336,300.649,404.469Z" transform="translate(-276.014 -314.731)" fill="#fff"/>
        <path id="Path_48" data-name="Path 48" d="M348.876,410.874a1.2,1.2,0,0,1-1.413,1.112c-.628-.034-1.142-.381-1.043-1.051.118-.891.94-.849,1.6-.929S348.99,410.17,348.876,410.874Z" transform="translate(-305.073 -319.339)" fill="#fff"/>
        <path id="Path_49" data-name="Path 49" d="M564.339,448.143c.175,1.059-.685,1.089-1.554.971-.457-.065-1.39.381-1.256-.552s.525-2.041,1.809-2.117C564.4,446.38,564.275,447.225,564.339,448.143Z" transform="translate(-438.274 -341.909)" fill="#fff"/>
        <path id="Path_51" data-name="Path 51" d="M389.579,445.51c.564.034.96.168.864.643-.038.19-.43.4-.685.438-.381.053-.823-.061-.708-.583C389.1,445.784,389.446,445.628,389.579,445.51Z" transform="translate(-331.467 -341.333)" fill="#fff"/>
        <path id="Path_52" data-name="Path 52" d="M407.222,251.977c-5-6.892-13.875-4.531-16.092,1.755a18.111,18.111,0,0,0-.544,5.255c-.217,4.352.506,8.739-.5,13.061a10.281,10.281,0,0,1-2.7,4.7,1.436,1.436,0,0,1-2.174.278,1.378,1.378,0,0,1-.137-2.167c2.327-2.452,2.566-5.449,2.665-8.625.137-4.649-.933-9.417.8-13.933a11.792,11.792,0,0,1,20.531-2.551A2.6,2.6,0,0,1,407.222,251.977Z" transform="translate(-328.727 -217.07)" fill="#fff"/>
        <path id="Path_53" data-name="Path 53" d="M406.512,237.688c-4.763-5.27-10.513-6.953-17.268-4.6a14.734,14.734,0,0,0-9.378,13.08v1.71c-.072,1.321.442,3.244-1.573,3.244-1.9,0-1.424-1.9-1.432-3.126-.057-9.375,4.763-15.836,13.731-18.483,5.868-1.729,13.967.944,17.557,5.8A3.076,3.076,0,0,1,406.512,237.688Z" transform="translate(-323.9 -207.255)" fill="#fff"/>
        <path id="Path_54" data-name="Path 54" d="M408.147,279.7a59.052,59.052,0,0,1,.168-15.2c.438-2.612,2.757-4.013,5.517-3.979a5.6,5.6,0,0,1,5.712,4.268c-1.249.617-1.4,2.483-3.046,2.665-.339-.434-.213-.975-.339-1.458a2.257,2.257,0,0,0-2.467-1.9,2.334,2.334,0,0,0-2.155,2.09,2.173,2.173,0,0,0,1.611,2.475c.522.209,1.142.187,1.569.621,0,.061.068.145.042.179-.929,1.348-.674,2.22,1.005,2.536a2.609,2.609,0,0,1-2.688.335c-2.464-1.123-2.2.533-2.262,1.969A28.035,28.035,0,0,0,408.147,279.7Z" transform="translate(-343.051 -226.781)" fill="#fff"/>
        <path id="Path_55" data-name="Path 55" d="M444,259.968l1.851-2.228a9.113,9.113,0,0,1,2.285,6.024c.057,4.1,0,8.206.038,12.31,0,1.119-.331,1.976-1.477,1.972s-1.523-.944-1.523-2c0-3.282-.053-6.564,0-9.847A12.277,12.277,0,0,0,444,259.968Z" transform="translate(-365.504 -225.061)" fill="#fff"/>
        <path id="Path_56" data-name="Path 56" d="M454.81,247.97c.183-1.04,1.024-1.626,1.622-2.38,4.006,4.124,4.76,9.234,4.428,14.66a1.325,1.325,0,0,1-1.523,1.318c-1.237-.088-1.523-.971-1.428-2.011A17.182,17.182,0,0,0,454.81,247.97Z" transform="translate(-372.198 -217.537)" fill="#fff"/>
        <path id="Path_57" data-name="Path 57" d="M465.9,299.423c0,1.142.034,2.285,0,3.4a1.375,1.375,0,0,1-1.42,1.458,1.39,1.39,0,0,1-1.554-1.5c-.042-2.144-.019-4.288,0-6.431a1.5,1.5,0,0,1,3,.038c.023,1,0,2.018,0,3.046Z" transform="translate(-377.207 -248.067)" fill="#fff"/>
        <path id="Path_58" data-name="Path 58" d="M420.787,322.517v-3.046a1.428,1.428,0,0,1,1.462-1.622,1.486,1.486,0,0,1,1.523,1.592c.053,2.083.038,4.169,0,6.252a1.4,1.4,0,0,1-1.489,1.592c-1.081,0-1.523-.693-1.523-1.748S420.783,323.526,420.787,322.517Z" transform="translate(-351.114 -262.281)" fill="#fff"/>
        <path id="Path_59" data-name="Path 59" d="M393.9,331.961a1.2,1.2,0,0,1-1.173-.605,1.542,1.542,0,0,1,.251-1.9,17.463,17.463,0,0,0,3.594-4.31,1.329,1.329,0,0,1,1.645-.6,1.424,1.424,0,0,1,1.051,1.207C399.486,327.182,395.515,331.869,393.9,331.961Z" transform="translate(-333.624 -266.371)" fill="#fff"/>
        <path id="Path_60" data-name="Path 60" d="M424.582,278.907c-.883-.168-2.231.518-2.555-.267s.8-1.634,1.466-2.338c.255-1.043,1.142-1.451,1.95-1.938,1.032-.815.99-2.806,2.905-2.665C428.919,275.544,427.841,277.608,424.582,278.907Z" transform="translate(-351.863 -233.7)" fill="#fff"/>
        <path id="Path_61" data-name="Path 61" d="M426.467,294.55c.32.251.88.468,1.051.857a15.074,15.074,0,0,0,2.353,3.625,1.428,1.428,0,0,1-.2,2.182,1.411,1.411,0,0,1-2.033-.244,10.925,10.925,0,0,1-2.761-4.249C424.465,295.525,425.062,294.8,426.467,294.55Z" transform="translate(-353.584 -247.854)" fill="#fff"/>
        <path id="Path_62" data-name="Path 62" d="M376.8,294.38c.183-1.119-.476-2.86,1.592-2.723s1.348,1.9,1.435,3.092c.1,1.268.149,2.9-1.614,2.791C376.271,297.423,376.975,295.591,376.8,294.38Z" transform="translate(-323.892 -246.059)" fill="#fff"/>
        <path id="Path_63" data-name="Path 63" d="M408.758,302.1a5.794,5.794,0,0,1,2.665-5.411c.034,1.451.065,2.905.1,4.36a1.626,1.626,0,0,1-1,1.683,1.321,1.321,0,0,1-1.767-.632Z" transform="translate(-343.662 -249.179)" fill="#fff"/>
        <path id="Path_64" data-name="Path 64" d="M449.835,316.889a1.5,1.5,0,0,1-1.637,1.47,1.367,1.367,0,0,1-1.386-1.489c.023-1.039.628-1.455,1.592-1.432S449.724,316.033,449.835,316.889Z" transform="translate(-367.242 -260.788)" fill="#fff"/>
        <path id="Path_65" data-name="Path 65" d="M421.671,272.16c-.251,1.047-1.219,1.371-1.95,1.938-3.092-.149-4.706-2.193-3.37-4.39a2.644,2.644,0,0,1,3.316-1.4C421.576,268.969,422.067,270.325,421.671,272.16Z" transform="translate(-348.091 -231.496)" fill="#fff"/>
        <circle id="Ellipse_1" data-name="Ellipse 1" cx="0.952" cy="0.952" r="0.952" transform="translate(48.011 105.75)" fill="#fff"/>
        <path id="Path_46609" data-name="Path 46609" d="M517.624,392.54c.58,0,1.073.21.913.828s-.679.759-1.228.3C517.031,393.191,517.075,392.8,517.624,392.54Z" transform="translate(-397.899 -290.38)" fill="#fff"/>
        <path id="Path_46613" data-name="Path 46613" d="M517.471,392.54c.4,0,.732.143.623.565s-.463.518-.838.2C517.066,392.984,517.1,392.715,517.471,392.54Z" transform="translate(-428.734 -290.207)" fill="#fff"/>
        <path id="Path_46610" data-name="Path 46610" d="M512.913,393.762c-.5.345-.977.359-1.156-.276s.218-.9.828-.872C513.172,392.862,513.172,393.271,512.913,393.762Z" transform="translate(-393.969 -290.432)" fill="#fff"/>
        <path id="Path_46612" data-name="Path 46612" d="M512.531,393.4c-.341.235-.666.245-.789-.188s.149-.616.565-.595C512.708,392.783,512.708,393.061,512.531,393.4Z" transform="translate(-424.328 -290.265)" fill="#fff"/>
        <path id="Path_46611" data-name="Path 46611" d="M514.862,388.889c-.119-.5-.077-1,.552-1s.632.522.527,1.007C515.56,389.485,515.2,389.51,514.862,388.889Z" transform="translate(-396.21 -287.013)" fill="#fff"/>
        <path id="Path_46614" data-name="Path 46614" d="M517.471,392.54c.4,0,.732.143.623.565s-.463.518-.838.2C517.066,392.984,517.1,392.715,517.471,392.54Z" transform="translate(-422.749 -290.207)" fill="#fff"/>
        <path id="Path_46615" data-name="Path 46615" d="M512.531,393.4c-.341.235-.666.245-.789-.188s.149-.616.565-.595C512.708,392.783,512.708,393.061,512.531,393.4Z" transform="translate(-418.343 -290.265)" fill="#fff"/>
      </g>
    </g>
    <rect id="Rectangle_1547" data-name="Rectangle 1547" width="353" height="114" rx="12" transform="translate(-14375 13984)" fill="#2b7b74" opacity="0.89"/>
  </g>
</svg>
