<svg xmlns="http://www.w3.org/2000/svg" width="23.67" height="24" viewBox="0 0 23.67 24">
  <g id="box" transform="translate(-3.507)">
    <path id="Path_47506" data-name="Path 47506" d="M27.177,16.235l-2.965-4.941H19.33a6.353,6.353,0,1,0-7.976,0H6.472L3.507,16.235H6.165V24H24.518V16.235Zm-2.493-1.412H17.859l-1.271-2.118h6.824ZM10.4,6.353a4.941,4.941,0,1,1,4.941,4.941A4.947,4.947,0,0,1,10.4,6.353Zm-3.13,6.353H14.1l-1.271,2.118H6Zm6.353,3.529,1.012-1.687v5.216H7.577V16.235ZM7.577,22.588V21.176h7.059v1.412Zm8.471,0V21.176h7.059v1.412Zm7.059-2.824H16.048V14.549l1.012,1.687h6.047Z" fill="#fff"/>
    <path id="Path_47507" data-name="Path 47507" d="M191.039,80.393l-1-1-3.03,3.03-1.619-1.618-1,1,2.617,2.617Z" transform="translate(-172.375 -75.659)" fill="#fff"/>
  </g>
</svg>
