<svg xmlns="http://www.w3.org/2000/svg" xmlns:xlink="http://www.w3.org/1999/xlink" width="32" height="32" viewBox="0 0 32 32">
  <defs>
    <clipPath id="clip-path">
      <rect width="32" height="32" fill="none"/>
    </clipPath>
  </defs>
  <g id="execution" clip-path="url(#clip-path)">
    <g id="execution-2" data-name="execution" transform="translate(-1 -1)">
      <path id="Path_47253" data-name="Path 47253" d="M28.629,13.549a.516.516,0,0,0,.73,0l2.189-2.189a.516.516,0,0,0,0-.73l-.252-.252a6.185,6.185,0,0,0,.249-.6H31.9a.516.516,0,0,0,.516-.516v-3.1a.516.516,0,0,0-.516-.516h-.358a6.185,6.185,0,0,0-.249-.6l.252-.252a.516.516,0,0,0,0-.73L29.359,1.871a.516.516,0,0,0-.73,0l-.252.252a6.185,6.185,0,0,0-.6-.249V1.516A.516.516,0,0,0,27.258,1h-3.1a.516.516,0,0,0-.516.516v.358a6.185,6.185,0,0,0-.6.249l-.252-.252a.516.516,0,0,0-.73,0L19.871,4.06a.516.516,0,0,0,0,.73l.252.252a6.185,6.185,0,0,0-.249.6h-.358A.516.516,0,0,0,19,6.161v3.1a.516.516,0,0,0,.516.516h.358a6.185,6.185,0,0,0,.249.6l-.252.252a.516.516,0,0,0,0,.73l2.189,2.189a.516.516,0,0,0,.73,0l.252-.252a6.185,6.185,0,0,0,.6.249V13.9a.516.516,0,0,0,.516.516h3.1a.516.516,0,0,0,.516-.516v-.358a6.185,6.185,0,0,0,.6-.249Zm-1.512-.877a.516.516,0,0,0-.375.5v.219H24.677v-.219a.516.516,0,0,0-.375-.5,5.145,5.145,0,0,1-1.107-.456.516.516,0,0,0-.616.086l-.155.155L20.964,11l.155-.155a.516.516,0,0,0,.086-.616,5.145,5.145,0,0,1-.456-1.107.516.516,0,0,0-.5-.376h-.219V6.677h.219a.516.516,0,0,0,.5-.375A5.145,5.145,0,0,1,21.2,5.2a.516.516,0,0,0-.086-.616l-.155-.155,1.46-1.46.155.155a.516.516,0,0,0,.616.086A5.145,5.145,0,0,1,24.3,2.749a.516.516,0,0,0,.376-.5V2.032h2.065v.219a.516.516,0,0,0,.375.5,5.145,5.145,0,0,1,1.107.456.516.516,0,0,0,.616-.086L29,2.964l1.46,1.46-.155.155a.516.516,0,0,0-.086.616A5.145,5.145,0,0,1,30.671,6.3a.516.516,0,0,0,.5.375h.22V8.741h-.219a.516.516,0,0,0-.5.375,5.145,5.145,0,0,1-.456,1.107.516.516,0,0,0,.086.616l.155.155L29,12.454l-.155-.155a.516.516,0,0,0-.616-.086,5.145,5.145,0,0,1-1.108.457Z" transform="translate(-8.71)" fill="#aeaeae"/>
      <path id="Path_47254" data-name="Path 47254" d="M32.258,10.129a4.129,4.129,0,1,0-4.129,4.129A4.129,4.129,0,0,0,32.258,10.129Zm-4.129,3.1a3.1,3.1,0,1,1,3.1-3.1,3.1,3.1,0,0,1-3.1,3.1Z" transform="translate(-11.129 -2.419)" fill="#aeaeae"/>
      <path id="Path_47255" data-name="Path 47255" d="M13.9,41.645h-.358a6.185,6.185,0,0,0-.249-.6l.252-.252a.516.516,0,0,0,0-.73l-2.189-2.189a.516.516,0,0,0-.73,0l-.252.252a6.184,6.184,0,0,0-.6-.249v-.358A.516.516,0,0,0,9.258,37h-3.1a.516.516,0,0,0-.516.516v.358a6.183,6.183,0,0,0-.6.249l-.252-.252a.516.516,0,0,0-.73,0L1.871,40.06a.516.516,0,0,0,0,.73l.252.252a6.185,6.185,0,0,0-.249.6H1.516A.516.516,0,0,0,1,42.161v3.1a.516.516,0,0,0,.516.516h.358a6.185,6.185,0,0,0,.249.6l-.252.252a.516.516,0,0,0,0,.73L4.06,49.549a.516.516,0,0,0,.73,0l.252-.252a6.185,6.185,0,0,0,.6.249V49.9a.516.516,0,0,0,.516.516h3.1a.516.516,0,0,0,.516-.516v-.358a6.186,6.186,0,0,0,.6-.249l.252.252a.516.516,0,0,0,.73,0l2.189-2.189a.516.516,0,0,0,0-.73l-.252-.252a6.185,6.185,0,0,0,.249-.6H13.9a.516.516,0,0,0,.516-.516v-3.1A.516.516,0,0,0,13.9,41.645Zm-.516,3.1h-.219a.516.516,0,0,0-.5.375,5.145,5.145,0,0,1-.456,1.107.516.516,0,0,0,.086.616l.155.155L11,48.455l-.155-.155a.516.516,0,0,0-.616-.086,5.145,5.145,0,0,1-1.107.456.516.516,0,0,0-.375.5v.22H6.677v-.219a.516.516,0,0,0-.375-.5A5.145,5.145,0,0,1,5.2,48.215a.516.516,0,0,0-.616.086l-.155.155L2.965,46.994l.155-.155a.516.516,0,0,0,.086-.616,5.145,5.145,0,0,1-.456-1.107.516.516,0,0,0-.5-.374H2.032V42.677h.219a.516.516,0,0,0,.5-.375A5.145,5.145,0,0,1,3.2,41.2a.516.516,0,0,0-.086-.616l-.155-.155,1.46-1.46.155.155a.516.516,0,0,0,.616.086A5.145,5.145,0,0,1,6.3,38.749a.516.516,0,0,0,.376-.5v-.219H8.742v.219a.516.516,0,0,0,.375.5,5.145,5.145,0,0,1,1.107.456.516.516,0,0,0,.616-.086L11,38.964l1.46,1.46-.155.155a.516.516,0,0,0-.086.616,5.145,5.145,0,0,1,.456,1.107.516.516,0,0,0,.5.375h.22Z" transform="translate(0 -17.419)" fill="#aeaeae"/>
      <path id="Path_47256" data-name="Path 47256" d="M10.129,42a4.129,4.129,0,1,0,4.129,4.129A4.129,4.129,0,0,0,10.129,42Zm0,7.226a3.1,3.1,0,1,1,3.1-3.1,3.1,3.1,0,0,1-3.1,3.1Z" transform="translate(-2.419 -19.839)" fill="#aeaeae"/>
      <path id="Path_47257" data-name="Path 47257" d="M49.9,41.645h-.358a6.187,6.187,0,0,0-.249-.6l.252-.252a.516.516,0,0,0,0-.73l-2.189-2.189a.516.516,0,0,0-.73,0l-.252.252a6.184,6.184,0,0,0-.6-.249v-.358A.516.516,0,0,0,45.258,37h-3.1a.516.516,0,0,0-.516.516v.358a6.184,6.184,0,0,0-.6.249l-.252-.252a.516.516,0,0,0-.73,0L37.871,40.06a.516.516,0,0,0,0,.73l.252.252a6.184,6.184,0,0,0-.249.6h-.358a.516.516,0,0,0-.516.516v3.1a.516.516,0,0,0,.516.516h.358a6.183,6.183,0,0,0,.249.6l-.252.252a.516.516,0,0,0,0,.73l2.189,2.189a.516.516,0,0,0,.73,0l.252-.252a6.186,6.186,0,0,0,.6.249V49.9a.516.516,0,0,0,.516.516h3.1a.516.516,0,0,0,.516-.516v-.358a6.187,6.187,0,0,0,.6-.249l.252.252a.516.516,0,0,0,.73,0l2.189-2.189a.516.516,0,0,0,0-.73l-.252-.252a6.186,6.186,0,0,0,.249-.6H49.9a.516.516,0,0,0,.516-.516v-3.1A.516.516,0,0,0,49.9,41.645Zm-.516,3.1h-.219a.516.516,0,0,0-.5.375,5.145,5.145,0,0,1-.456,1.107.516.516,0,0,0,.086.616l.155.155L47,48.455l-.155-.155a.516.516,0,0,0-.616-.086,5.145,5.145,0,0,1-1.107.456.516.516,0,0,0-.375.5v.22H42.677v-.219a.516.516,0,0,0-.375-.5,5.145,5.145,0,0,1-1.107-.456.516.516,0,0,0-.616.086l-.155.155L38.964,47l.155-.155a.516.516,0,0,0,.086-.616,5.145,5.145,0,0,1-.456-1.107.516.516,0,0,0-.5-.376h-.219V42.677h.219a.516.516,0,0,0,.5-.375A5.145,5.145,0,0,1,39.2,41.2a.516.516,0,0,0-.086-.616l-.155-.155,1.46-1.46.155.155a.516.516,0,0,0,.616.086,5.144,5.144,0,0,1,1.107-.456.516.516,0,0,0,.376-.5v-.219h2.065v.219a.516.516,0,0,0,.375.5,5.145,5.145,0,0,1,1.107.456.516.516,0,0,0,.616-.086L47,38.964l1.46,1.46-.155.155a.516.516,0,0,0-.086.616,5.145,5.145,0,0,1,.456,1.107.516.516,0,0,0,.5.375h.22Z" transform="translate(-17.419 -17.419)" fill="#aeaeae"/>
      <path id="Path_47258" data-name="Path 47258" d="M46.129,42a4.129,4.129,0,1,0,4.129,4.129A4.129,4.129,0,0,0,46.129,42Zm0,7.226a3.1,3.1,0,1,1,3.1-3.1,3.1,3.1,0,0,1-3.1,3.1Z" transform="translate(-19.839 -19.839)" fill="#aeaeae"/>
      <path id="Path_47259" data-name="Path 47259" d="M42.023,26.293l-.73.73,2.732,2.732H42.69v1.032h2.581a.516.516,0,0,0,.516-.516V27.69H44.755v1.335Z" transform="translate(-19.497 -12.239)" fill="#aeaeae"/>
      <path id="Path_47260" data-name="Path 47260" d="M15.023,31.494l2.732-2.732V30.1h1.032V27.516A.516.516,0,0,0,18.271,27H15.69v1.032h1.335l-2.732,2.732Z" transform="translate(-6.432 -12.581)" fill="#aeaeae"/>
      <path id="Path_47261" data-name="Path 47261" d="M47.63,48.9l-.6-.9-.859.573L47.2,50.118a.516.516,0,0,0,.859,0l2.065-3.1-.859-.573Z" transform="translate(-21.855 -21.991)" fill="#aeaeae"/>
    </g>
  </g>
</svg>
