<svg xmlns="http://www.w3.org/2000/svg" width="32.354" height="32" viewBox="0 0 32.354 32">
  <g id="negotiation" transform="translate(0 -1.003)">
    <g id="Line_13_" transform="translate(0 1.003)">
      <path id="Path_47251" data-name="Path 47251" d="M66.286,7.642a.735.735,0,0,0,.485-.184l5.882-5.147a.735.735,0,0,0-.923-1.145q-.025.02-.048.042l-5.4,4.75-2.5-1.846A.735.735,0,1,0,62.9,5.289L65.845,7.5A.734.734,0,0,0,66.286,7.642Z" transform="translate(-51.579 -1.003)" fill="#048e81"/>
      <path id="Path_47252" data-name="Path 47252" d="M31.618,52.527H28.677a.735.735,0,0,0-.735.735v.529L17.089,51.057a.735.735,0,0,0-.434,0L13.1,52.4,4.412,53.77v-.507a.735.735,0,0,0-.735-.735H.735A.735.735,0,0,0,0,53.263v12.5a.735.735,0,0,0,.735.735H3.677a.735.735,0,0,0,.735-.735v-.088l.309.213-.463.456a2.294,2.294,0,0,0,1.625,3.919,2.208,2.208,0,0,0,.735-.14,2.252,2.252,0,0,0,2.941,1.471,2.206,2.206,0,0,0,2.206,1.61,2.331,2.331,0,0,0,.926-.2,2.058,2.058,0,0,0,.735.868,2.037,2.037,0,0,0,1.125.338,2.007,2.007,0,0,0,1.471-.6l.7-.735h.037a2.088,2.088,0,0,0,1.265-.419l.537-.4a2.059,2.059,0,0,0,.809-1.426,1.928,1.928,0,0,0,.4.044,2.1,2.1,0,0,0,1.169-.353,2.029,2.029,0,0,0,.868-1.257,1.828,1.828,0,0,0,.346,0,2.089,2.089,0,0,0,1.162-.353,2.066,2.066,0,0,0,.9-1.478V67.2h.051a2.089,2.089,0,0,0,1.824-2.588l1.853-1.191v2.346a.735.735,0,0,0,.735.735h2.941a.735.735,0,0,0,.735-.735v-12.5a.736.736,0,0,0-.736-.735ZM2.941,65.028H1.471V54H2.941ZM5.3,68.55A.816.816,0,0,1,5.294,67.4l.008-.008.735-.735A.824.824,0,0,1,7.2,67.814l-.735.735a.831.831,0,0,1-1.162,0Zm2.941,1.47a.816.816,0,0,1-.008-1.154l.008-.008.735-.735a.824.824,0,0,1,1.162,1.162L9.4,70.02A.831.831,0,0,1,8.243,70.02Zm2.941,1.471a.816.816,0,0,1-.008-1.154l.008-.008.735-.735a.824.824,0,0,1,1.162,1.162l-.735.735A.831.831,0,0,1,11.184,71.491Zm3.757,1.088a.559.559,0,0,1-.735.066.545.545,0,0,1-.235-.412.581.581,0,0,1,.162-.456l.7-.735a.573.573,0,0,1,.4-.162h.059a.544.544,0,0,1,.412.25.559.559,0,0,1-.066.735Zm9.632-7.132a.632.632,0,0,1-.879.165.646.646,0,0,1-.084-.069l-2.5-2.507a.738.738,0,0,0-1.044,1.044l2.507,2.5a.632.632,0,0,1-.011.894.646.646,0,0,1-.084.069.632.632,0,0,1-.735,0l-2.9-2.324a.735.735,0,0,0-1.034.114l0,0a.735.735,0,0,0,.118,1.029l2.206,1.779a.625.625,0,0,1-.044,1.007.632.632,0,0,1-.625.044L18.2,68.564l-2.441-1.221a.735.735,0,0,0-.662,1.309l2.449,1.228a.6.6,0,0,1,.338.5.588.588,0,0,1-.235.529l-.4.309a2.074,2.074,0,0,0-.331-.868,2.022,2.022,0,0,0-1.471-.912,2.141,2.141,0,0,0-.735.073,2.322,2.322,0,0,0-.566-.978,2.353,2.353,0,0,0-2.382-.515,2.206,2.206,0,0,0-2.708-1.548,2.175,2.175,0,0,0-.233.078A2.206,2.206,0,0,0,6.1,65.023l-.014,0L4.412,63.9V55.263l5.64-.868L8.339,58.248a2.206,2.206,0,0,0,2.015,3.1h1.221a3.677,3.677,0,0,0,3.132-1.787l.971-1.618,6.618,3.971,2.243,2.794a.633.633,0,0,1,.037.736Zm.735-2.118L23.353,60.9a.572.572,0,0,0-.2-.177L15.8,56.307a.735.735,0,0,0-1.007.257l-1.346,2.243a2.206,2.206,0,0,1-1.875,1.074H10.353a.742.742,0,0,1-.676-1.037l1.9-4.265,5.382-2.015,10.985,2.743v6.375Zm5.574,1.7H29.412V54h1.471Z" transform="translate(0 -42.212)" fill="#048e81"/>
    </g>
  </g>
</svg>
