<svg xmlns="http://www.w3.org/2000/svg" width="20.572" height="24" viewBox="0 0 20.572 24">
  <g id="shopping-bag_3_" data-name="shopping-bag (3)" transform="translate(-4 -2)">
    <path id="XMLID_1124_" d="M14.286,2A5.148,5.148,0,0,0,9.143,7.143V8.857H4.857a.857.857,0,0,0-.852.951l1.46,13.141A3.426,3.426,0,0,0,8.873,26H19.7a3.424,3.424,0,0,0,3.407-3.051L24.566,9.809a.857.857,0,0,0-.852-.951H19.429V7.143A5.148,5.148,0,0,0,14.286,2ZM10.857,7.143a3.429,3.429,0,0,1,6.857,0V8.857H10.857Zm11.9,3.429L21.4,22.761a1.712,1.712,0,0,1-1.7,1.525H8.873a1.713,1.713,0,0,1-1.7-1.525L5.815,10.571H9.143v1.714a.857.857,0,0,0,0,1.714h1.714a.857.857,0,1,0,0-1.714V10.571h6.857v1.714a.857.857,0,1,0,0,1.714h1.714a.857.857,0,1,0,0-1.714V10.571Z" fill="#fff"/>
    <path id="XMLID_108_" d="M19.393,18.188a.857.857,0,0,1,.134,1.205L16.1,23.679a.857.857,0,0,1-1.144.177l-2.571-1.714a.857.857,0,0,1,.951-1.426l1.917,1.278,2.937-3.672A.857.857,0,0,1,19.393,18.188Z" transform="translate(-1.143 -2.286)" fill="#fff"/>
  </g>
</svg>
