<svg id="Layer_2" data-name="Layer 2" xmlns="http://www.w3.org/2000/svg" width="68" height="68" viewBox="0 0 68 68">
  <g id="invisible_box" data-name="invisible box">
    <rect id="Rectangle_1557" data-name="Rectangle 1557" width="68" height="68" fill="none"/>
  </g>
  <g id="icons_Q2" data-name="icons Q2" transform="translate(8.498 2.833)">
    <path id="Path_48022" data-name="Path 48022" d="M31.5,2S6,9.224,6,10.5V36.277C6,49.308,24.838,60.78,30.079,63.9a2.55,2.55,0,0,0,2.833,0c5.382-2.974,24.079-14.589,24.079-27.62V10.5C56.99,9.224,31.5,2,31.5,2ZM44.809,25.229l-15.58,15.58a2.691,2.691,0,0,1-3.966,0l-6.94-6.94a3.116,3.116,0,0,1-.567-3.824,2.833,2.833,0,0,1,4.391-.283l5.1,5.1,13.6-13.6a2.833,2.833,0,0,1,3.966,3.966Z" transform="translate(-6 -2)" fill="#fff"/>
  </g>
</svg>
