<svg xmlns="http://www.w3.org/2000/svg" width="22.125" height="24" viewBox="0 0 22.125 24">
  <path id="order_1_" data-name="order (1)" d="M12.084,1.426V9.559h4.078V1.426a2.039,2.039,0,0,0-4.078,0ZM2.054,4.976a.7.7,0,0,1,.995-.994l.385.385L4.679,3.122a2.176,2.176,0,1,0,.784,1.2L3.931,5.859a.7.7,0,0,1-.994,0ZM5.678,2.123l.883-.883a.7.7,0,0,1,.994.994l-1,1a3.584,3.584,0,1,1-.873-1.115Zm-6.719,14.7a.7.7,0,0,0-.7.7.7.7,0,0,0,.7.7.7.7,0,0,0,.7-.7A.7.7,0,0,0-1.041,16.825Zm2.812,1.406a.7.7,0,0,1,0-1.406h6.8a.7.7,0,0,1,0,1.406Zm-2.812-4.219a.7.7,0,0,0-.7.7.7.7,0,0,0,.7.7.7.7,0,0,0,.7-.7A.7.7,0,0,0-1.041,14.012Zm2.812,1.406a.7.7,0,1,1,0-1.406h6.8a.7.7,0,0,1,0,1.406Zm10.313-4.453V21.278a.7.7,0,0,1-.7.7H-3.854a.7.7,0,0,1-.7-.7V1.356A3.38,3.38,0,0,1-1.182-2.019h15.3a3.454,3.454,0,0,1,3.445,3.445v8.836a.7.7,0,0,1-.7.7ZM11.349-.613a3.425,3.425,0,0,0-.672,2.039V20.575H-3.151V1.356A1.974,1.974,0,0,1-1.182-.613ZM-1.041,11.2a.7.7,0,0,0-.7.7.7.7,0,0,0,.7.7.7.7,0,0,0,.7-.7A.7.7,0,0,0-1.041,11.2Zm2.812,1.406h6.8a.7.7,0,0,0,0-1.406h-6.8a.7.7,0,0,0,0,1.406Zm0,0" transform="translate(4.557 2.019)" fill="#fff" fill-rule="evenodd"/>
</svg>
