<svg id="Layer_2" data-name="Layer 2" xmlns="http://www.w3.org/2000/svg" xmlns:xlink="http://www.w3.org/1999/xlink" width="26" height="26" viewBox="0 0 26 26">
  <defs>
    <linearGradient id="linear-gradient" x1="0.239" y1="0.096" x2="1.306" y2="1.401" gradientUnits="objectBoundingBox">
      <stop offset="0" stop-color="#048e81"/>
      <stop offset="1" stop-color="#0995eb"/>
    </linearGradient>
  </defs>
  <g id="invisible_box" data-name="invisible box">
    <rect id="Rectangle_1554" data-name="Rectangle 1554" width="26" height="26" fill="none"/>
    <rect id="Rectangle_1555" data-name="Rectangle 1555" width="26" height="26" fill="none"/>
  </g>
  <g id="icons_Q2" data-name="icons Q2" transform="translate(1.083 4.333)">
    <path id="Path_48020" data-name="Path 48020" d="M25.346,10.6a2.979,2.979,0,0,0-2.113-2.112C21.392,8,13.917,8,13.917,8S6.442,8,4.6,8.488A2.979,2.979,0,0,0,2.487,10.6,31.614,31.614,0,0,0,2,16.342a31.614,31.614,0,0,0,.487,5.742A2.979,2.979,0,0,0,4.6,24.2c1.842.487,9.317.487,9.317.487s7.475,0,9.317-.488a2.979,2.979,0,0,0,2.112-2.112,31.615,31.615,0,0,0,.487-5.742A31.615,31.615,0,0,0,25.346,10.6ZM11.533,19.917v-7.15l6.175,3.575Z" transform="translate(-2 -8)" fill="url(#linear-gradient)"/>
  </g>
</svg>
