<svg xmlns="http://www.w3.org/2000/svg" xmlns:xlink="http://www.w3.org/1999/xlink" width="31.414" height="24" viewBox="0 0 31.414 24">
  <defs>
    <linearGradient id="linear-gradient" x1="0.5" x2="0.5" y2="1" gradientUnits="objectBoundingBox">
      <stop offset="0" stop-color="#048e81"/>
      <stop offset="1" stop-color="#0995eb"/>
    </linearGradient>
  </defs>
  <g id="open-book_1_" data-name="open-book (1)" transform="translate(0 0)">
    <g id="Group_744" data-name="Group 744" transform="translate(0 0)">
      <g id="Group_743" data-name="Group 743" transform="translate(0 0)">
        <path id="Path_47143" data-name="Path 47143" d="M35.954,35.049h0a1.108,1.108,0,0,0-.788.326,1.119,1.119,0,0,0-.331.8V53.03a1.128,1.128,0,0,0,1.126,1.124c2.617.006,7,.552,10.025,3.716V40.229a1.077,1.077,0,0,0-.155-.569C43.347,35.662,38.577,35.055,35.954,35.049Z" transform="translate(-31.148 -35.049)" fill="url(#linear-gradient)"/>
        <path id="Path_47144" data-name="Path 47144" d="M167.9,53.029V36.172a1.119,1.119,0,0,0-.331-.8,1.108,1.108,0,0,0-.787-.326h0c-2.622.006-7.392.614-9.875,4.611a1.077,1.077,0,0,0-.154.569V57.869c3.024-3.165,7.408-3.71,10.025-3.716A1.128,1.128,0,0,0,167.9,53.029Z" transform="translate(-140.171 -35.048)" fill="url(#linear-gradient)"/>
        <path id="Path_47145" data-name="Path 47145" d="M183.634,71.8h-.815V85.894a2.876,2.876,0,0,1-2.867,2.869c-2.219.005-5.879.439-8.471,2.892a27.061,27.061,0,0,1,11.9.23,1.124,1.124,0,0,0,1.376-1.1V72.925A1.125,1.125,0,0,0,183.634,71.8Z" transform="translate(-153.344 -67.914)" fill="url(#linear-gradient)"/>
        <path id="Path_47146" data-name="Path 47146" d="M1.939,85.894V71.8H1.124A1.125,1.125,0,0,0,0,72.925V90.789a1.124,1.124,0,0,0,1.376,1.1,27.059,27.059,0,0,1,11.9-.23c-2.592-2.453-6.251-2.887-8.471-2.892A2.876,2.876,0,0,1,1.939,85.894Z" transform="translate(0 -67.914)" fill="url(#linear-gradient)"/>
      </g>
    </g>
  </g>
</svg>
