<svg xmlns="http://www.w3.org/2000/svg" width="20.434" height="28" viewBox="0 0 20.434 28">
  <g id="silver-medal_1_" data-name="silver-medal (1)" transform="translate(-69.144)">
    <path id="Path_48096" data-name="Path 48096" d="M170.474,273.12l-.018,13.042,4.669-3.049,4.661,3.063.018-13.043Z" transform="translate(-95.769 -258.177)" fill="#4b9fd8"/>
    <path id="Path_48097" data-name="Path 48097" d="M217.206,283.983a.781.781,0,0,0-.792-.713h-.4a.752.752,0,0,1,.024-1.5l1.126,0a.627.627,0,0,0,.629-.631v-.053a.594.594,0,0,0-.593-.634l-3.369-.005a.783.783,0,0,1-.8-.711.754.754,0,0,1,.755-.79l3.123,0a.635.635,0,0,0,.634-.632l0-.044v-.01a.66.66,0,0,0-.661-.667l-1.753,0a.784.784,0,0,1-.8-.716.757.757,0,0,1,.755-.79l1.936,0a.638.638,0,0,0,.629-.665V275.4a.638.638,0,0,0-.627-.667l-2.087,0a.782.782,0,0,1-.791-.711.754.754,0,0,1,.755-.79l5.151.008-.019,13.043-2.921-1.92A.748.748,0,0,0,217.206,283.983Z" transform="translate(-136.018 -258.283)" fill="#3789c9"/>
    <circle id="Ellipse_173" data-name="Ellipse 173" cx="10.217" cy="10.217" r="10.217" transform="translate(69.144 0)" fill="#d8d9d8"/>
    <path id="Path_48098" data-name="Path 48098" d="M81.261,22.294H74.786a.92.92,0,0,1-.917-.917c.083-.742.457-1.043.966-1.043h4.487A1.135,1.135,0,0,0,80.477,19.3a1.1,1.1,0,0,0-1.092-1.148H74.632a.982.982,0,0,1,0-1.959h4.974a1.133,1.133,0,0,0,1.148-1.029,1.093,1.093,0,0,0-1.092-1.148H76.02a10.216,10.216,0,0,0,0,18.9h4.625a1.133,1.133,0,0,0,1.148-1.029A1.092,1.092,0,0,0,80.7,30.738H75.44a1.089,1.089,0,0,1-1.087-1.148,1.131,1.131,0,0,1,1.149-1.03h2.04a1.09,1.09,0,0,0-.032-2.18H74.418a.909.909,0,0,1-.91-.917c0-.677.391-.994.861-.994H81.2a1.134,1.134,0,0,0,1.155-1.029A1.093,1.093,0,0,0,81.261,22.294Z" transform="translate(-0.514 -13.249)" fill="#e5e5e5"/>
    <path id="Path_48099" data-name="Path 48099" d="M129.877,68.026a7.293,7.293,0,1,1,7.293-7.293A7.3,7.3,0,0,1,129.877,68.026Z" transform="translate(-50.516 -50.516)" fill="#f3f3f3"/>
    <path id="Path_48100" data-name="Path 48100" d="M236.146,61.1a7.3,7.3,0,0,0-6.875-7.272h-.679a.864.864,0,0,0-.875.784.834.834,0,0,0,.833.875h4.013a.83.83,0,0,1,.829.875.862.862,0,0,1-.876.786h-1.556a.831.831,0,0,0,.024,1.662h2.358a.693.693,0,0,1,.693.7v.058a.656.656,0,0,1-.657.7H228.17a.866.866,0,0,0-.881.784.834.834,0,0,0,.833.875h4.937a.7.7,0,0,1,.7.7l-.005.048v.011a.73.73,0,0,1-.731.736H229.6a.866.866,0,0,0-.881.79.837.837,0,0,0,.833.875h3.625a.705.705,0,0,1,.693.736v.021a.705.705,0,0,1-.693.736h-3.793a.864.864,0,0,0-.875.784.834.834,0,0,0,.833.875h1A7.3,7.3,0,0,0,236.146,61.1Z" transform="translate(-149.492 -50.879)" fill="#fff" opacity="0.5"/>
    <path id="Path_48101" data-name="Path 48101" d="M164.855,93.311h-3.547l-1.1-3.374a.471.471,0,0,0-.9,0l-1.1,3.374h-3.547a.471.471,0,0,0-.277.852l2.87,2.085-1.1,3.374a.471.471,0,0,0,.725.526l2.87-2.085,2.87,2.085a.471.471,0,0,0,.725-.526l-1.1-3.374,2.87-2.085A.471.471,0,0,0,164.855,93.311Z" transform="translate(-80.403 -84.709)" fill="#3789c9"/>
  </g>
</svg>
