<svg xmlns="http://www.w3.org/2000/svg" width="25.999" height="26" viewBox="0 0 25.999 26">
  <g id="outline" transform="translate(-16.009 -16)">
    <path id="Path_46795" data-name="Path 46795" d="M41.963,29.24l-3.424-6.847a2.169,2.169,0,0,0-2.164-2.059H30.74a2.187,2.187,0,0,0-.432-.432v-.868h.867a.433.433,0,0,0,.305-.741L29.3,16.126A.433.433,0,0,0,28.991,16h0a.433.433,0,0,0-.306.128l-2.149,2.167a.433.433,0,0,0,.308.739h.867V19.9a2.186,2.186,0,0,0-.432.432H21.642a2.166,2.166,0,0,0-2.164,2.059L16.054,29.24a.466.466,0,0,0-.045.212v0a3.9,3.9,0,0,0,7.8,0,.616.616,0,0,0-.045-.214l-3.153-6.306h6.667a2.186,2.186,0,0,0,.432.432V33.776a1.926,1.926,0,0,0-1.733,1.914V36.8h-.1a1.632,1.632,0,0,0-1.63,1.63v.97H22.508a2.169,2.169,0,0,0-2.167,2.167.433.433,0,0,0,.433.433H37.242a.433.433,0,0,0,.433-.433A2.169,2.169,0,0,0,35.508,39.4H33.775v-.97a1.632,1.632,0,0,0-1.63-1.63h-.1V35.69a1.926,1.926,0,0,0-1.733-1.914V23.365a2.186,2.186,0,0,0,.432-.432h6.667L34.254,29.24a.575.575,0,0,0-.045.214,3.9,3.9,0,0,0,7.8,0,.533.533,0,0,0-.045-.214ZM19.908,32.467a3.038,3.038,0,0,1-3-2.6h6.005A3.038,3.038,0,0,1,19.908,32.467ZM22.674,29H17.143l2.766-5.531Zm4.211-6.933h-6.47a1.3,1.3,0,0,1,1.226-.867h5.243A2.176,2.176,0,0,0,26.885,22.067Zm2.108-5.02,1.13,1.12h-.248a.433.433,0,0,0-.433.433v.91a2.176,2.176,0,0,0-.867,0V18.6a.433.433,0,0,0-.433-.433h-.26Zm4.348,23.22h2.167a1.3,1.3,0,0,1,1.226.867H21.283a1.3,1.3,0,0,1,1.226-.867Zm-1.733-2.6h.537a.764.764,0,0,1,.763.763v.97h-7.8v-.97a.764.764,0,0,1,.763-.763Zm-.433-1.977V36.8H26.842V35.69A1.058,1.058,0,0,1,27.9,34.633h2.22A1.058,1.058,0,0,1,31.175,35.69Zm-2.6-1.923V23.757a2.176,2.176,0,0,0,.867,0v10.01Zm.433-10.833a1.3,1.3,0,1,1,1.3-1.3A1.3,1.3,0,0,1,29.008,22.933Zm2.123-.867a2.174,2.174,0,0,0,0-.867h5.244a1.3,1.3,0,0,1,1.226.867Zm6.977,1.4L40.874,29H35.343Zm0,9a3.038,3.038,0,0,1-3-2.6h6.005A3.038,3.038,0,0,1,38.108,32.467Z" transform="translate(0 0)"/>
  </g>
</svg>
