<svg xmlns="http://www.w3.org/2000/svg" width="52.009" height="52" viewBox="0 0 52.009 52">
  <g id="Line" transform="translate(-1.998 -2.001)">
    <path id="Path_46748" data-name="Path 46748" d="M34.91,13.745V8.286a3.542,3.542,0,0,0-2.149-3.258L25.92,2.1a1.18,1.18,0,0,0-.931,0L18.149,5.028A3.541,3.541,0,0,0,16,8.286v5.459a17.3,17.3,0,0,0,9.455,15.437A17.051,17.051,0,0,0,34.91,13.745ZM25.455,26.621a15.275,15.275,0,0,1-7.091-12.876V8.286A1.181,1.181,0,0,1,19.08,7.2l6.375-2.732L31.83,7.2a1.18,1.18,0,0,1,.716,1.086v5.459A15.27,15.27,0,0,1,25.455,26.621Z" transform="translate(2.546 0)" fill="#0995eb"/>
    <path id="Path_46749" data-name="Path 46749" d="M27.35,9.445l-3.9,4.877-1.43-1.43a1.182,1.182,0,0,0-1.671,1.671l2.364,2.364a1.192,1.192,0,0,0,1.759-.1L29.2,10.92A1.182,1.182,0,1,0,27.35,9.445Z" transform="translate(3.275 1.273)" fill="#0995eb"/>
    <path id="Path_46750" data-name="Path 46750" d="M36.223,34.119l1.13-1.412a3.492,3.492,0,0,0-4.993-4.825l-5.3,4.539A5.9,5.9,0,0,0,25,36.907V48.914A1.182,1.182,0,0,0,26.182,50.1h8.273a1.182,1.182,0,0,0,1.182-1.182V45.978l7.778-5.556a1.181,1.181,0,0,0,.37-.434l5.34-10.678c2.676-5.865-3.067-7.145-4.7-4.577l-5.958,8.936Zm3.943,1.269,6.23-9.342c.26-.524,1.952-.552.616,2.209L41.8,38.67l-8.034,5.738a1.177,1.177,0,0,0-.5.961v2.364H27.364V36.907A3.543,3.543,0,0,1,28.6,34.215l5.3-4.539a1.125,1.125,0,0,1,1.608,1.555l-3.157,3.945a1.183,1.183,0,0,0,1.156,1.9l5.909-1.182A1.179,1.179,0,0,0,40.165,35.388Z" transform="translate(4.183 3.905)" fill="#0995eb"/>
    <path id="Path_46751" data-name="Path 46751" d="M13.352,33.67,7.394,24.734C5.766,22.166.022,23.446,2.7,29.311l5.34,10.678a1.2,1.2,0,0,0,.37.434l7.778,5.556v2.936A1.182,1.182,0,0,0,17.367,50.1H25.64a1.182,1.182,0,0,0,1.182-1.182V36.907a5.9,5.9,0,0,0-2.064-4.486l-5.3-4.539a3.492,3.492,0,0,0-4.993,4.825l1.13,1.412Zm-.944,2.221,5.909,1.182a1.184,1.184,0,0,0,1.156-1.9L16.316,31.23a1.125,1.125,0,0,1,1.608-1.555l5.3,4.539a3.541,3.541,0,0,1,1.237,2.692V47.732H18.549V45.369a1.182,1.182,0,0,0-.5-.962l-8.034-5.738L4.812,28.253c-1.337-2.761.356-2.732.616-2.209l6.23,9.342a1.174,1.174,0,0,0,.75.5Z" transform="translate(0 3.905)" fill="#0995eb"/>
  </g>
</svg>
