<svg xmlns="http://www.w3.org/2000/svg" width="24" height="24" viewBox="0 0 24 24">
  <g id="surface1" transform="translate(0 -0.001)">
    <path id="Path_47049" data-name="Path 47049" d="M.7,367.121H13.454a.7.7,0,0,0,.7-.7v-1.5a2.113,2.113,0,0,0-1.406-1.989v-.915A2.021,2.021,0,0,0,10.732,360H3.425a2.021,2.021,0,0,0-2.019,2.019v.915A2.113,2.113,0,0,0,0,364.918v1.5A.7.7,0,0,0,.7,367.121ZM3.425,361.4h7.307a.613.613,0,0,1,.613.612v.794H2.813v-.794A.613.613,0,0,1,3.425,361.4Zm-2.019,3.516a.7.7,0,0,1,.7-.7h9.938a.7.7,0,0,1,.7.7v.8H1.406Zm0,0" transform="translate(0 -343.12)" fill="#048e81"/>
    <path id="Path_47050" data-name="Path 47050" d="M95.356,14.639a2.109,2.109,0,0,0,3.779-1.518,8.3,8.3,0,0,0,1.744-.5l6.583,8.744a2.109,2.109,0,1,0,3.37-2.537l-6.583-8.744a8.308,8.308,0,0,0,.961-1.538,2.109,2.109,0,0,0,2.5-3.212L104.331.841a2.109,2.109,0,0,0-3.779,1.518,8.28,8.28,0,0,0-6.075,4.573,2.11,2.11,0,0,0-2.5,3.213Zm7.917-3.513.939,1.247-1.124.846-.939-1.247A8.28,8.28,0,0,0,103.273,11.126Zm6.3,9.534a.7.7,0,0,1-.985-.139l-4.652-6.179,1.124-.846,4.652,6.179A.7.7,0,0,1,109.571,20.66ZM102.223,1.548a.7.7,0,0,1,.985.139l3.383,4.494a.7.7,0,1,1-1.123.846l-3.383-4.494A.7.7,0,0,1,102.223,1.548Zm-1.029,2.14,2.917,3.874a6.888,6.888,0,0,1-5.618,4.229L95.576,7.918A6.881,6.881,0,0,1,101.194,3.688ZM93.235,8.315a.7.7,0,0,1,.985.139L97.6,12.947h0a.7.7,0,0,1-1.124.846L93.1,9.3A.7.7,0,0,1,93.235,8.315Zm0,0" transform="translate(-87.256 0)" fill="#048e81"/>
  </g>
</svg>
