<svg id="XMLID_2337_" xmlns="http://www.w3.org/2000/svg" width="68" height="68" viewBox="0 0 68 68">
  <g id="XMLID_2175_" transform="translate(0 0)">
    <g id="XMLID_350_">
      <path id="XMLID_605_" d="M304.389,254.509a1.327,1.327,0,1,0,.939-.389A1.336,1.336,0,0,0,304.389,254.509Z" transform="translate(-263.625 -220.37)" fill="#2b7b74"/>
      <path id="XMLID_606_" d="M410.247,164.387a1.327,1.327,0,1,0-.939.389A1.338,1.338,0,0,0,410.247,164.387Z" transform="translate(-353.795 -140.588)" fill="#2b7b74"/>
      <path id="XMLID_609_" d="M14.344,22.578V20.984h1.441q.853.587,1.746,1.116V32.923a3.487,3.487,0,0,0,3.483,3.483H35.727a1.328,1.328,0,0,0,0-2.656H25.913a7.091,7.091,0,0,0-5.725-5.726V23.519a31.939,31.939,0,0,0,8.194,2.61l4.8.834a4.558,4.558,0,0,0,1.862-.061,7.792,7.792,0,1,0,.519-8.841l-6.2-3.43a1.429,1.429,0,0,1,.691-2.679H57.493a7.091,7.091,0,0,0,5.725,5.726V28.025a7.09,7.09,0,0,0-5.725,5.726H47.68a1.328,1.328,0,0,0,0,2.656H62.392a3.487,3.487,0,0,0,3.483-3.483V12.78A3.487,3.487,0,0,0,62.392,9.3H44.945L38.312,4.183a9.939,9.939,0,0,0-6.038-2.058H14.344v-.8A1.328,1.328,0,0,0,13.016,0H1.328A1.328,1.328,0,0,0,0,1.328v21.25a1.328,1.328,0,0,0,1.328,1.328H13.016a1.328,1.328,0,0,0,1.328-1.328ZM23.19,33.75H21.014a.828.828,0,0,1-.827-.827V30.748A4.435,4.435,0,0,1,23.19,33.75ZM41.7,17.723a5.137,5.137,0,1,1-4.368,7.839,4.583,4.583,0,0,0,.32-5.86A5.125,5.125,0,0,1,41.7,17.723ZM62.392,33.75H60.217a4.435,4.435,0,0,1,3-3v2.175A.828.828,0,0,1,62.392,33.75Zm.827-20.97v2.175a4.435,4.435,0,0,1-3-3h2.175A.828.828,0,0,1,63.219,12.78Zm-30.945-8a7.269,7.269,0,0,1,4.416,1.5l3.9,3.011H30.05a4.085,4.085,0,0,0-1.977,7.66l6.833,3.779a1.941,1.941,0,0,1-1.272,3.611l-4.8-.834a29.326,29.326,0,0,1-11.865-4.939,1.328,1.328,0,0,0-.768-.245H14.344V4.781ZM11.688,21.25H2.656V2.656h9.031Z" transform="translate(0 0)" fill="#2b7b74"/>
      <path id="XMLID_748_" d="M113.535,331.089H101.847a1.327,1.327,0,0,0-1.314,1.144,12.689,12.689,0,0,0-15.264,3.23l-1.336,1.587H76.165a4.615,4.615,0,0,0-4.46,5.8,10.194,10.194,0,0,1-3.313-2.22l-6.456-6.458a4.625,4.625,0,1,0-6.541,6.54l7.215,7.215A18.556,18.556,0,0,0,75.818,353.4h24.7v.266a1.328,1.328,0,0,0,1.328,1.328h11.688a1.328,1.328,0,0,0,1.328-1.328v-21.25A1.328,1.328,0,0,0,113.535,331.089ZM75.818,350.745a15.917,15.917,0,0,1-11.33-4.693l-7.215-7.215a1.969,1.969,0,1,1,2.784-2.784l6.456,6.458a12.781,12.781,0,0,0,9.1,3.769H90.627a1.328,1.328,0,1,0,0-2.656H76.165a1.96,1.96,0,1,1,0-3.919H84.55a1.328,1.328,0,0,0,1.016-.473l1.735-2.059a10.031,10.031,0,0,1,13.219-1.895v15.466Zm36.389,1.594h-9.031V333.745h9.031Z" transform="translate(-46.863 -286.995)" fill="#2b7b74"/>
    </g>
  </g>
</svg>
