<svg id="interview" xmlns="http://www.w3.org/2000/svg" width="26" height="26" viewBox="0 0 26 26">
  <path id="Path_46792" data-name="Path 46792" d="M23.8,167.945a3.554,3.554,0,1,0-4.295.748,3.8,3.8,0,0,0-1.127,2.7v.762H16.1a2.284,2.284,0,0,0-2.154,3.047H12.056A2.284,2.284,0,0,0,9.9,172.156H7.617v-.762a3.8,3.8,0,0,0-1.127-2.7,3.556,3.556,0,1,0-4.295-.748A3.813,3.813,0,0,0,0,171.395v7.617a.762.762,0,0,0,.762.762H25.238a.762.762,0,0,0,.762-.762v-7.617a3.813,3.813,0,0,0-2.2-3.449Zm-4.66-2.391a2.031,2.031,0,1,1,2.031,2.031A2.034,2.034,0,0,1,19.145,165.555Zm-14.32-2.031a2.031,2.031,0,1,1-2.031,2.031A2.034,2.034,0,0,1,4.824,163.523Zm-1.016,8.633a.762.762,0,0,0-.762.762v1.016a2.8,2.8,0,0,0,2.031,2.687v1.63H1.523v-6.855a2.285,2.285,0,0,1,4.57,0v1.523a.762.762,0,0,0,.762.762H9.9a.762.762,0,0,1,0,1.523H5.84a1.271,1.271,0,0,1-1.27-1.27v-1.016A.762.762,0,0,0,3.809,172.156ZM19.4,178.25H6.6v-1.523H19.4Zm5.078,0H20.922v-1.63a2.8,2.8,0,0,0,2.031-2.687v-1.016a.762.762,0,0,0-1.523,0v1.016a1.271,1.271,0,0,1-1.27,1.27H16.1a.762.762,0,1,1,0-1.523h3.047a.762.762,0,0,0,.762-.762v-1.523a2.285,2.285,0,0,1,4.57,0Z" transform="translate(0 -153.773)" fill="#404040"/>
  <path id="Path_46793" data-name="Path 46793" d="M142.777,7.617h.254v1.27a.762.762,0,0,0,1.238.595l2.33-1.864h.481l2.33,1.864a.762.762,0,0,0,1.238-.595V7.617h.254A1.779,1.779,0,0,0,152.68,5.84V1.777A1.779,1.779,0,0,0,150.9,0h-8.125A1.779,1.779,0,0,0,141,1.777V5.84A1.779,1.779,0,0,0,142.777,7.617Zm-.254-5.84a.254.254,0,0,1,.254-.254H150.9a.254.254,0,0,1,.254.254V5.84a.254.254,0,0,1-.254.254h-1.016a.762.762,0,0,0-.762.762V7.3l-1.3-1.041a.762.762,0,0,0-.476-.167h-1.016a.762.762,0,0,0-.476.167l-1.3,1.041V6.855a.762.762,0,0,0-.762-.762h-1.016a.254.254,0,0,1-.254-.254Z" transform="translate(-133.84)" fill="#404040"/>
  <path id="Path_46794" data-name="Path 46794" d="M201.762,61.523h4.063a.762.762,0,0,0,0-1.523h-4.062a.762.762,0,0,0,0,1.523Z" transform="translate(-190.793 -56.953)" fill="#404040"/>
</svg>
