<svg xmlns="http://www.w3.org/2000/svg" width="21.008" height="21" viewBox="0 0 21.008 21">
  <path id="Path_48026" data-name="Path 48026" d="M16.45,22H13V18.55l3.2-3.2,3.45,3.45Zm4.6-4.6L17.6,13.95l1.5-1.55,3.5,3.5Zm3.65-2.2-2.8-2.8a1.45,1.45,0,0,0,.1-.45V4a1,1,0,0,0-1-1H5A1,1,0,0,0,4,4V23a1,1,0,0,0,1,1H16.9a1,1,0,0,0,.7-.3l7.1-7.1a.95.95,0,0,0,0-1.4ZM10.1,18.5H9.5a1,1,0,0,1,0-2h2.6Zm4-4H9.5a1,1,0,0,1,0-2h6.6Zm3.1-4.3a1,1,0,0,1-.7.3h-7a1,1,0,0,1-1-1,1.05,1.05,0,0,1,1-1h7a.99.99,0,0,1,.7,1.7Z" transform="translate(-4 -3)" fill="#fff"/>
</svg>
