<svg xmlns="http://www.w3.org/2000/svg" width="36.918" height="24" viewBox="0 0 36.918 24">
  <path id="Path_47473" data-name="Path 47473" d="M39.44,23.321a1.936,1.936,0,0,0,.058-3.181c-.065,0,.691.5-8.473-6.118a3.227,3.227,0,0,0-2.852-.471l-23.4,7.241a1.936,1.936,0,0,0-.5,3.472,1.936,1.936,0,0,0,0,3.227,1.936,1.936,0,0,0-.052,3.181c9.035,6.511,8.951,6.731,10.364,6.731.723,0-.794.407,24.355-7.383a1.936,1.936,0,0,0,.5-3.472,1.936,1.936,0,0,0,0-3.227ZM20.423,25.257l-4.517,1.4a3.227,3.227,0,0,0-1.613-.432c-.942,0,.1.581-4.059-2.42a1.368,1.368,0,0,0,.11-.645l5.008-1.549Zm-6.144-6.034,4.395-1.362,10.28,7.428-4.24,1.291c-.213.116.865.761-10.435-7.376Zm8.557.052,4.969-1.536a3.227,3.227,0,0,0,2.233.368l3.433,2.465a1.291,1.291,0,0,0-.11.645l-5.46,1.7Zm8.054,8.654V26.05l7.1-2.194c.826.6,1.1.716,1.026,1.187S39.279,25.341,30.89,27.928ZM28.554,14.789a1.936,1.936,0,0,1,1.691.29c9.106,6.576,8.822,6.182,8.731,6.75s.355.265-8.473,2.994l-1.291-.942c5.7-1.768,5.608-1.6,5.7-2.142a.645.645,0,0,0-.265-.645.645.645,0,0,0,.452-.516c.084-.529.129-.348-4.556-3.724-.536-.387-1.175.426-2.265-.374-.368-.265-.129-.232-6.757,1.82l-1.291-.949ZM4.709,22.533c.09-.549-.084-.348,8.021-2.859l1.291.949-4.8,1.484a.645.645,0,0,0-.181,1.136.645.645,0,0,0-.187,1.142c4.556,3.291,4.433,3.323,4.859,3.227,1.155-.361,1.607.4,2.078.4.142,0-.361.142,5.924-1.807L23,27.154l-7.847,2.414a1.936,1.936,0,0,1-1.691-.29c-9.131-6.563-8.847-6.169-8.757-6.737Zm19.082,5.718v1.871l-8.635,2.672a1.936,1.936,0,0,1-1.691-.29L4.973,26.4a.645.645,0,0,1,.181-1.142c.5-.155-.452-.684,7.531,5.079C14.369,31.555,14.982,30.974,23.791,28.251Zm-8.635,7.744a1.936,1.936,0,0,1-1.691-.265l-8.493-6.1a.645.645,0,0,1,.181-1.142c.5-.155-.452-.684,7.531,5.079a3.356,3.356,0,0,0,1.9.645c.645,0,.181.1,9.209-2.7v1.871Zm9.97-8.157L29.6,26.457v5.1l-4.517,1.394c0-5.569,0-5.092.045-5.111ZM39,28.27c-.1.568.045.361-8.112,2.885V29.277l7.1-2.194C38.8,27.683,39.079,27.8,39,28.27Z" transform="translate(-3.396 -13.405)" fill="#fff"/>
</svg>
