<svg xmlns="http://www.w3.org/2000/svg" width="26.776" height="24" viewBox="0 0 26.776 24">
  <g id="project" transform="translate(0 -26.54)">
    <g id="Group_894" data-name="Group 894" transform="translate(0 26.54)">
      <g id="Group_893" data-name="Group 893" transform="translate(0 0)">
        <path id="Path_47474" data-name="Path 47474" d="M25.417,32.092a.434.434,0,0,0,0,.868.492.492,0,0,1,.492.492v15.73a.492.492,0,0,1-.492.492H3.21a2.342,2.342,0,0,1,0-4.684.434.434,0,0,0,.434-.434v-11.6H5.986a.434.434,0,0,0,0-.867H3.643V26.974a.434.434,0,0,0-.434-.434A3.213,3.213,0,0,0,0,29.75V47.33a3.213,3.213,0,0,0,3.21,3.21H25.417a1.361,1.361,0,0,0,1.359-1.359V33.451A1.361,1.361,0,0,0,25.417,32.092ZM.867,29.75a2.346,2.346,0,0,1,1.908-2.3v16.7a3.206,3.206,0,0,0-1.908.988V29.75Z" transform="translate(0 -26.54)" fill="#fff"/>
      </g>
    </g>
    <g id="Group_896" data-name="Group 896" transform="translate(12.029 32.092)">
      <g id="Group_895" data-name="Group 895" transform="translate(0 0)">
        <path id="Path_47475" data-name="Path 47475" d="M237.848,132.7h-7.4a.434.434,0,0,0,0,.867h7.4a.434.434,0,0,0,0-.867Z" transform="translate(-230.012 -132.7)" fill="#fff"/>
      </g>
    </g>
    <g id="Group_898" data-name="Group 898" transform="translate(7.402 29.316)">
      <g id="Group_897" data-name="Group 897" transform="translate(0 0)">
        <path id="Path_47476" data-name="Path 47476" d="M154.354,95.521,142.325,79.79a.434.434,0,0,0-.778.263v15.73a.434.434,0,0,0,.434.434H154.01a.434.434,0,0,0,.345-.7Zm-11.94-.17V81.335L153.132,95.35Z" transform="translate(-141.547 -79.62)" fill="#fff"/>
      </g>
    </g>
    <g id="Group_900" data-name="Group 900" transform="translate(9.716 36.149)">
      <g id="Group_899" data-name="Group 899" transform="translate(0 0)">
        <path id="Path_47477" data-name="Path 47477" d="M191.593,217.035l-5.035-6.584a.434.434,0,0,0-.778.263V217.3a.434.434,0,0,0,.434.434h5.035a.434.434,0,0,0,.344-.7Zm-4.945-.17V212l3.723,4.869Z" transform="translate(-185.78 -210.281)" fill="#fff"/>
      </g>
    </g>
    <g id="Group_902" data-name="Group 902" transform="translate(21.282 27.465)">
      <g id="Group_901" data-name="Group 901" transform="translate(0 0)">
        <path id="Path_47478" data-name="Path 47478" d="M409.633,46.819l-.925-2.313a.434.434,0,0,0-.805,0l-.925,2.313a.433.433,0,0,0-.031.161V63.635a.9.9,0,0,0,.9.9h.925a.9.9,0,0,0,.9-.9V46.98A.432.432,0,0,0,409.633,46.819Zm-1.328-.984.47,1.174h-.94Zm.492,17.8a.029.029,0,0,1-.029.029h-.925a.029.029,0,0,1-.029-.029v-.954h.983Zm0-1.822h-.983V47.876h.983Z" transform="translate(-406.946 -44.233)" fill="#fff"/>
      </g>
    </g>
  </g>
</svg>
