<svg xmlns="http://www.w3.org/2000/svg" width="27.733" height="26" viewBox="0 0 27.733 26">
  <g id="id" transform="translate(0 -16)">
    <g id="Group_261" data-name="Group 261" transform="translate(3.25 27.375)">
      <g id="Group_260" data-name="Group 260">
        <path id="Path_46787" data-name="Path 46787" d="M66.334,231.571a3.25,3.25,0,1,0-4.544,0A4.062,4.062,0,0,0,60,234.938v1.625a.813.813,0,0,0,.813.813h6.5a.813.813,0,0,0,.813-.812v-1.625A4.062,4.062,0,0,0,66.334,231.571Zm-2.272-3.946a1.625,1.625,0,1,1-1.625,1.625A1.627,1.627,0,0,1,64.063,227.625ZM66.5,235.75H61.625v-.812a2.437,2.437,0,1,1,4.875,0Z" transform="translate(-60 -226)" fill="#404040"/>
      </g>
    </g>
    <g id="Group_263" data-name="Group 263" transform="translate(17.983 30.625)">
      <g id="Group_262" data-name="Group 262">
        <circle id="Ellipse_52" data-name="Ellipse 52" cx="0.812" cy="0.812" r="0.812" fill="#404040"/>
      </g>
    </g>
    <g id="Group_265" data-name="Group 265" transform="translate(21.233 30.625)">
      <g id="Group_264" data-name="Group 264">
        <circle id="Ellipse_53" data-name="Ellipse 53" cx="0.812" cy="0.812" r="0.812" fill="#404040"/>
      </g>
    </g>
    <g id="Group_267" data-name="Group 267" transform="translate(14.733 30.625)">
      <g id="Group_266" data-name="Group 266">
        <circle id="Ellipse_54" data-name="Ellipse 54" cx="0.812" cy="0.812" r="0.812" fill="#404040"/>
      </g>
    </g>
    <g id="Group_269" data-name="Group 269" transform="translate(14.733 33.875)">
      <g id="Group_268" data-name="Group 268">
        <path id="Path_46788" data-name="Path 46788" d="M279.313,346h-6.5a.813.813,0,0,0,0,1.625h6.5a.812.812,0,0,0,0-1.625Z" transform="translate(-272 -346)" fill="#404040"/>
      </g>
    </g>
    <g id="Group_271" data-name="Group 271" transform="translate(14.733 37.125)">
      <g id="Group_270" data-name="Group 270">
        <path id="Path_46789" data-name="Path 46789" d="M279.313,406h-6.5a.813.813,0,0,0,0,1.625h6.5a.812.812,0,0,0,0-1.625Z" transform="translate(-272 -406)" fill="#404040"/>
      </g>
    </g>
    <g id="Group_273" data-name="Group 273" transform="translate(17.983 20.062)">
      <g id="Group_272" data-name="Group 272" transform="translate(0 0)">
        <path id="Path_46790" data-name="Path 46790" d="M338.262,91.238a.812.812,0,0,0-1.149,0l-2.675,2.676-1.05-1.051a.813.813,0,0,0-1.149,1.149l1.625,1.625a.813.813,0,0,0,1.149,0l3.25-3.25A.813.813,0,0,0,338.262,91.238Z" transform="translate(-331.999 -91)" fill="#404040"/>
      </g>
    </g>
    <g id="Group_275" data-name="Group 275" transform="translate(0 16)">
      <g id="Group_274" data-name="Group 274" transform="translate(0 0)">
        <path id="Path_46791" data-name="Path 46791" d="M21.233,16a6.507,6.507,0,0,0-6.5,6.5H2.437A2.44,2.44,0,0,0,0,24.938V39.563A2.44,2.44,0,0,0,2.437,42H23.671a2.44,2.44,0,0,0,2.438-2.437V26.794A6.5,6.5,0,0,0,21.233,16Zm3.25,23.563a.813.813,0,0,1-.812.813H2.437a.813.813,0,0,1-.812-.812V24.938a.813.813,0,0,1,.812-.812h12.5a6.5,6.5,0,0,0,9.544,4Zm-3.25-12.187A4.875,4.875,0,1,1,26.108,22.5,4.881,4.881,0,0,1,21.233,27.375Z" transform="translate(0 -16)" fill="#404040"/>
      </g>
    </g>
  </g>
</svg>
