<svg xmlns="http://www.w3.org/2000/svg" width="24" height="24" viewBox="0 0 24 24">
  <g id="Group_828" data-name="Group 828" transform="translate(0)">
    <path id="Path_47219" data-name="Path 47219" d="M21.963,14.371a.938.938,0,0,0-1.738.7l1.1,2.731-3.279-1.446a.938.938,0,0,0-.746,0,9.039,9.039,0,0,1-3.568.721c-5.019,0-8.391-3.93-8.391-7.6,0-4.191,3.764-7.6,8.391-7.6s8.391,3.409,8.391,7.6a7.645,7.645,0,0,1-.083,1.074.937.937,0,1,0,1.854.277A9.46,9.46,0,0,0,24,9.475a9.061,9.061,0,0,0-3.037-6.729A10.654,10.654,0,0,0,13.735,0,10.655,10.655,0,0,0,6.506,2.746a9.112,9.112,0,0,0-3,5.922A7.579,7.579,0,0,0,0,14.978a7.273,7.273,0,0,0,1.438,4.346L.069,22.711A.937.937,0,0,0,1.316,23.92l3.948-1.74a8.922,8.922,0,0,0,3.127.557c.023,0,.046,0,.069,0a8.873,8.873,0,0,0,4.411-1.2,8.07,8.07,0,0,0,2.836-2.762,10.788,10.788,0,0,0,1.948-.541l5.03,2.217a.938.938,0,0,0,1.247-1.209ZM8.391,20.859l-.038,0a7.031,7.031,0,0,1-2.739-.56.937.937,0,0,0-.746,0l-2.2.968.708-1.752a.938.938,0,0,0-.156-.96,5.472,5.472,0,0,1-1.35-3.584,5.578,5.578,0,0,1,1.733-3.994,9.464,9.464,0,0,0,2.773,5.068A10.479,10.479,0,0,0,13.2,18.938,6.89,6.89,0,0,1,8.391,20.859Z" transform="translate(0 0)" fill="#0995eb"/>
    <circle id="Ellipse_84" data-name="Ellipse 84" cx="0.937" cy="0.937" r="0.937" transform="translate(12.75 8.578)" fill="#0995eb"/>
    <circle id="Ellipse_85" data-name="Ellipse 85" cx="0.937" cy="0.937" r="0.937" transform="translate(16.5 8.578)" fill="#0995eb"/>
    <circle id="Ellipse_86" data-name="Ellipse 86" cx="0.937" cy="0.937" r="0.937" transform="translate(9 8.578)" fill="#0995eb"/>
  </g>
</svg>
