<svg xmlns="http://www.w3.org/2000/svg" width="28.241" height="18" viewBox="0 0 28.241 18">
  <g id="view_2_" data-name="view (2)" transform="translate(0 -92.835)">
    <g id="Group_947" data-name="Group 947" transform="translate(0 92.835)">
      <g id="Group_946" data-name="Group 946" transform="translate(0 0)">
        <path id="Path_47878" data-name="Path 47878" d="M28.062,101.286c-.252-.345-6.264-8.451-13.941-8.451S.431,100.941.179,101.285a.932.932,0,0,0,0,1.1c.252.345,6.264,8.451,13.941,8.451s13.689-8.106,13.941-8.45A.931.931,0,0,0,28.062,101.286Zm-13.941,7.687c-5.655,0-10.554-5.38-12-7.139,1.448-1.76,6.336-7.137,12-7.137s10.553,5.379,12,7.139C24.676,103.6,19.788,108.973,14.121,108.973Z" transform="translate(0 -92.835)" fill="#2b7b74"/>
      </g>
    </g>
    <g id="Group_949" data-name="Group 949" transform="translate(8.534 96.249)">
      <g id="Group_948" data-name="Group 948" transform="translate(0 0)">
        <path id="Path_47879" data-name="Path 47879" d="M160.308,154.725a5.586,5.586,0,1,0,5.586,5.586A5.593,5.593,0,0,0,160.308,154.725Zm0,9.31a3.724,3.724,0,1,1,3.724-3.724A3.728,3.728,0,0,1,160.308,164.035Z" transform="translate(-154.722 -154.725)" fill="#2b7b74"/>
      </g>
    </g>
  </g>
</svg>
