<svg id="icons_Q2" data-name="icons Q2" xmlns="http://www.w3.org/2000/svg" xmlns:xlink="http://www.w3.org/1999/xlink" width="21.667" height="21.612" viewBox="0 0 21.667 21.612">
  <defs>
    <linearGradient id="linear-gradient" x1="0.239" y1="0.096" x2="1.306" y2="1.401" gradientUnits="objectBoundingBox">
      <stop offset="0" stop-color="#048e81"/>
      <stop offset="1" stop-color="#0995eb"/>
    </linearGradient>
  </defs>
  <path id="Path_48018" data-name="Path 48018" d="M25.667,5.183V24.575a.163.163,0,0,1-.054.108,1.029,1.029,0,0,1-.975.975H18.95V17.317H21.6c.163,0,.163,0,.217-.162l.162-1.354c.054-.542.108-1.083.217-1.625s0-.162-.108-.162H18.95V11.9c0-.163.054-.379.054-.542a.975.975,0,0,1,.867-.867l.7-.108H22.2c.108,0,.108,0,.108-.108V7.513c0-.054,0-.108-.108-.108H19.708a3.9,3.9,0,0,0-1.787.379,3.25,3.25,0,0,0-1.9,1.679,3.954,3.954,0,0,0-.433,1.95c-.054.812,0,1.679,0,2.546H12.829c-.108,0-.108.054-.108.108v3.087c0,.108,0,.108.108.108h2.762V25.6a.163.163,0,0,0-.054.108H5.029a1.029,1.029,0,0,1-.975-.975C4,24.737,4,24.683,4,24.629V5.183c0-.054,0-.108.054-.108A1.029,1.029,0,0,1,5.029,4.1H24.637a1.029,1.029,0,0,1,.975.975Z" transform="translate(-4 -4.1)" fill="url(#linear-gradient)"/>
</svg>
