<svg xmlns="http://www.w3.org/2000/svg" width="12.656" height="18" viewBox="0 0 12.656 18">
  <g id="location_9_" data-name="location (9)" transform="translate(-76)">
    <path id="Path_47317" data-name="Path 47317" d="M81.889,17.765a.527.527,0,0,0,.878,0c1.248-1.872,3.086-4.184,4.367-6.535a10.476,10.476,0,0,0,1.522-4.9A6.328,6.328,0,0,0,76,6.328a10.476,10.476,0,0,0,1.522,4.9C78.8,13.579,80.644,15.9,81.889,17.765Zm.439-16.71A5.279,5.279,0,0,1,87.6,6.328a9.49,9.49,0,0,1-1.394,4.4,66.327,66.327,0,0,1-3.88,5.811,66.33,66.33,0,0,1-3.88-5.811,9.49,9.49,0,0,1-1.394-4.4,5.279,5.279,0,0,1,5.273-5.273Z" fill="#2b7b74"/>
    <path id="Path_47318" data-name="Path 47318" d="M169.164,96.328A3.164,3.164,0,1,0,166,93.164,3.168,3.168,0,0,0,169.164,96.328Zm0-5.273a2.109,2.109,0,1,1-2.109,2.109A2.112,2.112,0,0,1,169.164,91.055Z" transform="translate(-86.836 -86.836)" fill="#2b7b74"/>
  </g>
</svg>
