<svg id="paypal" xmlns="http://www.w3.org/2000/svg" width="25.144" height="24" viewBox="0 0 25.144 24">
  <path id="Path_47206" data-name="Path 47206" d="M170.529,75.2a2.03,2.03,0,0,0-2.077-.443.571.571,0,0,0-.384.457l-.16,1.1a3.391,3.391,0,0,1-3.342,2.9h-2.286a.571.571,0,0,0-.554.433L160.012,86.5a.571.571,0,0,0,.554.71h2.857a.571.571,0,0,0,.554-.433l1.034-4.138h2.229a3.706,3.706,0,0,0,3.611-2.822l.422-1.69A3.005,3.005,0,0,0,170.529,75.2Z" transform="translate(-151.424 -71.211)" fill="#03a9f4"/>
  <g id="Group_824" data-name="Group 824" transform="translate(0 17.143)">
    <path id="Path_47207" data-name="Path 47207" d="M.571,336.391a.571.571,0,0,1-.554-.71l.571-2.274v-.024l.571-2.273a.571.571,0,0,1,.554-.433H3.168a1.429,1.429,0,0,1,1.386,1.775l-.143.571a1.429,1.429,0,0,1-1.386,1.082H1.59l-.463,1.853A.571.571,0,0,1,.571,336.391Zm1.3-3.429h1.15a.286.286,0,0,0,.277-.217l.143-.571a.284.284,0,0,0-.277-.355H2.161Z" transform="translate(0 -330.677)" fill="#283593"/>
    <path id="Path_47208" data-name="Path 47208" d="M82.367,376.75h-.814a1.584,1.584,0,0,1-1.537-1.968h0l.075-.3a1.525,1.525,0,0,1,1.486-1.158h.814a1.584,1.584,0,0,1,1.534,1.969l-.075.3A1.525,1.525,0,0,1,82.367,376.75Zm-1.241-1.69a.441.441,0,0,0,.427.547h.814a.383.383,0,0,0,.373-.29l.075-.3a.441.441,0,0,0-.427-.547h-.814a.383.383,0,0,0-.373.29Z" transform="translate(-75.685 -371.035)" fill="#283593"/>
    <path id="Path_47209" data-name="Path 47209" d="M128.571,376.761a.571.571,0,0,1-.554-.71l.571-2.286a.572.572,0,0,1,1.11.277l-.571,2.286A.571.571,0,0,1,128.571,376.761Z" transform="translate(-121.143 -371.046)" fill="#283593"/>
  </g>
  <g id="Group_825" data-name="Group 825" transform="translate(13.714 17.143)">
    <path id="Path_47210" data-name="Path 47210" d="M256.571,336.39a.571.571,0,0,1-.554-.71l.571-2.274v-.024l.571-2.273a.571.571,0,0,1,.554-.433h1.454a1.429,1.429,0,0,1,1.386,1.775l-.143.571a1.429,1.429,0,0,1-1.386,1.082H257.59l-.463,1.853A.572.572,0,0,1,256.571,336.39Zm1.3-3.429h1.151a.286.286,0,0,0,.277-.217l.143-.571a.284.284,0,0,0-.277-.355h-1.008Z" transform="translate(-256 -330.676)" fill="#03a9f4"/>
    <path id="Path_47211" data-name="Path 47211" d="M338.367,376.75h-.814a1.584,1.584,0,0,1-1.537-1.968h0l.075-.3a1.525,1.525,0,0,1,1.486-1.158h.814a1.584,1.584,0,0,1,1.537,1.968l-.075.3A1.525,1.525,0,0,1,338.367,376.75Zm-1.241-1.69a.441.441,0,0,0,.427.547h.814a.383.383,0,0,0,.373-.29l.075-.3a.441.441,0,0,0-.427-.547h-.814a.383.383,0,0,0-.373.29Z" transform="translate(-331.685 -371.035)" fill="#03a9f4"/>
    <path id="Path_47212" data-name="Path 47212" d="M384.571,376.761a.571.571,0,0,1-.554-.71l.571-2.286a.572.572,0,0,1,1.11.277h0l-.571,2.286A.571.571,0,0,1,384.571,376.761Z" transform="translate(-377.143 -371.046)" fill="#03a9f4"/>
  </g>
  <g id="Group_826" data-name="Group 826" transform="translate(9.143 19.428)">
    <path id="Path_47213" data-name="Path 47213" d="M172.376,376.187a.572.572,0,0,1-.475-.255l-1.143-1.714a.572.572,0,1,1,.951-.634l1.143,1.714a.571.571,0,0,1-.475.889Z" transform="translate(-170.661 -373.329)" fill="#283593"/>
    <path id="Path_47214" data-name="Path 47214" d="M171.238,377.92a.571.571,0,0,1-.439-.937l2.857-3.429a.572.572,0,1,1,.878.733h0l-2.857,3.429A.571.571,0,0,1,171.238,377.92Z" transform="translate(-170.667 -373.348)" fill="#283593"/>
  </g>
  <path id="Path_47215" data-name="Path 47215" d="M427.237,336.38a.571.571,0,0,1-.554-.71l1.143-4.571a.572.572,0,1,1,1.11.277h0l-1.143,4.571A.571.571,0,0,1,427.237,336.38Z" transform="translate(-403.809 -313.523)" fill="#03a9f4"/>
  <path id="Path_47216" data-name="Path 47216" d="M118.166,11.665a2.888,2.888,0,0,0-2.178-.989h-6.469a.571.571,0,0,0-.562.47l-2.286,12.571a.571.571,0,0,0,.562.673h3.429a.571.571,0,0,0,.554-.433l1.035-4.138h1.839a4.539,4.539,0,0,0,4.474-3.886l.286-1.953h0A2.911,2.911,0,0,0,118.166,11.665Z" transform="translate(-100.947 -10.676)" fill="#283593"/>
</svg>
