<svg xmlns="http://www.w3.org/2000/svg" xmlns:xlink="http://www.w3.org/1999/xlink" width="68.005" height="68" viewBox="0 0 68.005 68">
  <defs>
    <linearGradient id="linear-gradient" x1="0.5" y1="-0.369" x2="0.5" y2="1.927" gradientUnits="objectBoundingBox">
      <stop offset="0" stop-color="#048e81"/>
      <stop offset="1" stop-color="#0995eb"/>
    </linearGradient>
    <filter id="Path_47148" x="0" y="0" width="68.005" height="68" filterUnits="userSpaceOnUse">
      <feOffset input="SourceAlpha"/>
      <feGaussianBlur stdDeviation="5" result="blur"/>
      <feFlood flood-color="#fff" flood-opacity="0.471"/>
      <feComposite operator="in" in2="blur"/>
      <feComposite in="SourceGraphic"/>
    </filter>
  </defs>
  <g id="play-button" transform="translate(15 15)">
    <path id="Path_47147" data-name="Path 47147" d="M21.95,15.677,14.058,9.94a.952.952,0,0,0-1.511.768V22.177a.949.949,0,0,0,1.511.766l7.892-5.732a.944.944,0,0,0,0-1.535Z" transform="translate(3.32 2.58)" fill="url(#linear-gradient)"/>
    <g transform="matrix(1, 0, 0, 1, -15, -15)" filter="url(#Path_47148)">
      <path id="Path_47148-2" data-name="Path 47148" d="M19,0a19,19,0,1,0,19,19A19,19,0,0,0,19,0Zm0,34.829A15.829,15.829,0,1,1,34.829,19.005,15.826,15.826,0,0,1,19,34.831Z" transform="translate(15 15)" fill="url(#linear-gradient)"/>
    </g>
  </g>
</svg>
