<svg xmlns="http://www.w3.org/2000/svg" width="21.094" height="24" viewBox="0 0 21.094 24">
  <g id="trust_2_" data-name="trust (2)" transform="translate(-31)">
    <path id="Path_48039" data-name="Path 48039" d="M160.844,125.922a4.922,4.922,0,1,0-4.922,4.922A4.927,4.927,0,0,0,160.844,125.922Zm-8.227.492.984-.984,1.617,1.6,3.023-3.009.984.984-4.008,4.022Z" transform="translate(-114.375 -115.328)" fill="#26a25c"/>
    <path id="Path_48040" data-name="Path 48040" d="M41.547,24l.2-.056c.422-.112,10.35-3.169,10.35-20.381v-.7h-.7c-4.683,0-9.45-2.648-9.506-2.677L41.547,0l-.338.183c-.056.028-4.823,2.677-9.506,2.677H31v.7c0,17.213,9.928,20.269,10.35,20.381ZM35.219,10.594a6.328,6.328,0,1,1,6.328,6.328A6.338,6.338,0,0,1,35.219,10.594Z" fill="#26a25c"/>
  </g>
</svg>
