<svg id="money_7_" data-name="money (7)" xmlns="http://www.w3.org/2000/svg" width="24" height="24" viewBox="0 0 24 24">
  <path id="Path_47493" data-name="Path 47493" d="M135.261,13.456a6.728,6.728,0,1,0-6.728-6.728A6.736,6.736,0,0,0,135.261,13.456Zm0-12.05a5.322,5.322,0,1,1-5.322,5.322,5.328,5.328,0,0,1,5.322-5.322Z" transform="translate(-122.508)" fill="#fff"/>
  <path id="Path_47494" data-name="Path 47494" d="M226.767,68.685h.753a.427.427,0,1,1,0,.853h-1.13a.7.7,0,0,0,0,1.406h.05v.05a.7.7,0,0,0,1.406,0v-.08a1.833,1.833,0,0,0-.327-3.636h-.753a.427.427,0,0,1,0-.853h1.13a.7.7,0,0,0,0-1.406h-.05v-.05a.7.7,0,0,0-1.406,0v.08a1.833,1.833,0,0,0,.327,3.636Z" transform="translate(-214.39 -61.254)" fill="#fff"/>
  <path id="Path_47495" data-name="Path 47495" d="M17.033,307.194l-.949.949a2.213,2.213,0,0,0-2.023-1.322H9.139a2.965,2.965,0,0,0-2.879,2.259H5.172v-.8a.7.7,0,0,0-.7-.7H.7a.7.7,0,0,0-.7.7v6.778a.7.7,0,0,0,.7.7H4.469a.7.7,0,0,0,.7-.7v-.8h9.7a3.254,3.254,0,0,0,2.315-.959l5.1-5.105a.7.7,0,0,0,0-.994A3.72,3.72,0,0,0,17.033,307.194ZM3.766,314.352H1.406V308.98H3.766v5.372ZM16.189,312.3a1.856,1.856,0,0,1-1.321.547h-9.7v-2.359H6.88a.7.7,0,0,0,.7-.7,1.555,1.555,0,0,1,1.556-1.556h4.922a.8.8,0,0,1,.014,1.606H11.49a.7.7,0,0,0,0,1.406h2.572a2.2,2.2,0,0,0,1.562-.647l2.4-2.4a2.314,2.314,0,0,1,2.691-.42Z" transform="translate(0 -291.759)" fill="#fff"/>
  <path id="Path_47496" data-name="Path 47496" d="M450.878,50.283l1.506-.753a.7.7,0,0,0-.629-1.258l-1.506.753a.7.7,0,0,0,.629,1.258Z" transform="translate(-428.773 -45.938)" fill="#fff"/>
  <path id="Path_47497" data-name="Path 47497" d="M452.384,193.625l-1.506-.753a.7.7,0,0,0-.629,1.258l1.506.753a.7.7,0,0,0,.629-1.258Z" transform="translate(-428.773 -183.76)" fill="#fff"/>
  <path id="Path_47498" data-name="Path 47498" d="M32.522,49.529l1.506.753a.7.7,0,0,0,.629-1.258l-1.506-.753a.7.7,0,0,0-.629,1.258Z" transform="translate(-30.627 -45.937)" fill="#fff"/>
  <path id="Path_47499" data-name="Path 47499" d="M33.151,194.883l1.506-.753a.7.7,0,0,0-.629-1.258l-1.506.753a.7.7,0,0,0,.629,1.258Z" transform="translate(-30.627 -183.761)" fill="#fff"/>
</svg>
