<svg xmlns="http://www.w3.org/2000/svg" width="54.844" height="52" viewBox="0 0 54.844 52">
  <path id="trust_1_" data-name="trust (1)" d="M.428,45.925l6.039,3.487A.857.857,0,0,0,7.637,49.1l.218-.377,3.5,2.048a3.408,3.408,0,0,0-.125.913A3.367,3.367,0,0,0,14.6,55.055c.065,0,.13,0,.2-.006,0,.064-.006.129-.006.194a3.365,3.365,0,0,0,3.372,3.372c.065,0,.13,0,.2-.006,0,.065-.006.13-.006.2a3.365,3.365,0,0,0,3.372,3.372,3.419,3.419,0,0,0,.706-.074,2.83,2.83,0,0,0,3.779,2.186l.17.17a2.825,2.825,0,0,0,4.787-1.538,3.406,3.406,0,0,0,.706.075,3.369,3.369,0,0,0,3.367-3.568c.064,0,.129.006.194.006A3.367,3.367,0,0,0,38.8,55.865c.064,0,.129.006.194.006a3.375,3.375,0,0,0,2.756-5.319l4.727-2.718L47.2,49.1a.857.857,0,0,0,1.171.314l6.039-3.486a.857.857,0,0,0,.314-1.171l-7.92-13.718a.857.857,0,0,0-1.17-.314L39.6,34.209a.857.857,0,0,0-.314,1.171l.7,1.213-1,.379A2.037,2.037,0,0,1,37.548,37l-6.675-2.225a2.943,2.943,0,0,0-2.275.155l-1.328.655-.038-.022-1.582-.836a2.972,2.972,0,0,0-2.775-.017l-2.112,1.082a1.1,1.1,0,0,1-.524.14l-5.034.058.353-.611a.857.857,0,0,0-.314-1.171L9.2,30.722a.857.857,0,0,0-1.17.314L.114,44.754a.857.857,0,0,0,.314,1.171Zm13,6.932a1.668,1.668,0,0,1,0-2.349l3.013-3.013a1.661,1.661,0,1,1,2.349,2.349l-3.013,3.013a1.663,1.663,0,0,1-2.349,0Zm3.561,3.561a1.668,1.668,0,0,1,0-2.349h0L20,51.055A1.661,1.661,0,1,1,22.348,53.4l-3.013,3.013a1.663,1.663,0,0,1-2.349,0Zm3.561,3.561a1.663,1.663,0,0,1,0-2.349l3.013-3.013a1.661,1.661,0,0,1,2.349,2.349.857.857,0,0,0-.08.093,2.836,2.836,0,0,0-.256.226l-2.358,2.358a2.857,2.857,0,0,0-.227.257.862.862,0,0,0-.093.079,1.663,1.663,0,0,1-2.349,0Zm3.881,2.45a1.114,1.114,0,0,1,0-1.575L26.785,58.5a1.113,1.113,0,0,1,1.575,1.575L26,62.429A1.119,1.119,0,0,1,24.428,62.429Zm4.736.818a1.114,1.114,0,0,1-1.564.009l1.573-1.573a1.114,1.114,0,0,1-.01,1.564Zm3.881-2.45a1.663,1.663,0,0,1-2.349,0,.846.846,0,0,0-.093-.08,2.835,2.835,0,0,0-.226-.256l-.164-.164a2.823,2.823,0,0,0-2.178-3.8,3.4,3.4,0,0,0,.015-1.338,1.663,1.663,0,0,1,1.982.276l3.014,3.013a1.663,1.663,0,0,1,0,2.349Zm3.561-3.561a1.669,1.669,0,0,1-2.349,0l-3.014-3.013a1.661,1.661,0,1,1,2.348-2.35h0L36.6,54.886a1.663,1.663,0,0,1,0,2.349Zm3.561-3.561a1.663,1.663,0,0,1-2.349,0L34.8,50.661a1.661,1.661,0,1,1,2.349-2.349l3.013,3.014a1.668,1.668,0,0,1,0,2.349Zm5.586-21.039,7.063,12.234L48.261,47.5,41.2,35.265Zm-16.4,3.833a1.214,1.214,0,0,1,.975-.066l6.675,2.225a3.765,3.765,0,0,0,2.585-.052l1.262-.478,4.766,8.254-5.081,2.922L38.365,47.1a3.362,3.362,0,0,0-.779-.58L30.755,41.4a2.83,2.83,0,0,0-1.493-.557l-1-.089A2.963,2.963,0,0,0,25.419,42.2L24.088,44.39a.2.2,0,0,1-.21.1l-2.024-.255a.214.214,0,0,1-.179-.271l1.06-3.76a1.222,1.222,0,0,1,.669-.8Zm-9.1,1.178a2.8,2.8,0,0,0,1.285-.329l2.112-1.082a1.246,1.246,0,0,1,1.194.007l.524.276-2.728,1.345a2.925,2.925,0,0,0-1.561,1.876l-1.06,3.76a1.928,1.928,0,0,0,1.615,2.436l2.025.255a1.9,1.9,0,0,0,1.888-.91l1.331-2.188a1.264,1.264,0,0,1,1.223-.633l1,.089a1.121,1.121,0,0,1,.616.221l4.859,3.643a3.365,3.365,0,0,0-1.98,3.074c0,.065,0,.13.006.194a3.367,3.367,0,0,0-3.567,3.367c0,.065,0,.13.006.194a3.383,3.383,0,0,0-1.742.368c-.06-.07-.121-.139-.188-.2a3.367,3.367,0,0,0-2.582-.981c0-.064.006-.129.006-.194a3.367,3.367,0,0,0-3.565-3.368,3.375,3.375,0,0,0-5.754-2.58L12.218,49.29,8.712,47.237l5.5-9.521ZM9.09,32.635l4.555,2.63L6.581,47.5l-4.555-2.63Zm18.331.736A10.042,10.042,0,1,0,17.379,23.329,10.042,10.042,0,0,0,27.421,33.372Zm0-18.37a8.328,8.328,0,1,1-8.328,8.328A8.328,8.328,0,0,1,27.421,15ZM23.609,23.37A.857.857,0,1,1,25,22.362l1.312,1.805,4.366-3.577a.857.857,0,1,1,1.086,1.326L26.69,26.068a.857.857,0,0,1-1.236-.159Z" transform="translate(0.001 -13.287)" fill="#0995eb"/>
</svg>
