<svg xmlns="http://www.w3.org/2000/svg" width="28.22" height="20.388" viewBox="0 0 28.22 20.388">
  <g id="_0ac920ce-a620-4aca-a4e1-9ec65bbfb0d4" data-name="0ac920ce-a620-4aca-a4e1-9ec65bbfb0d4" transform="translate(-12.967 -13.358)">
    <path id="Path_2" data-name="Path 2" d="M354.838,221.7c-.564-.049-.639-.45-.639-.9v-9.705c0-1.078.009-2.161,0-3.234a.743.743,0,0,1,.85-.861q5.58.006,11.16,0c.247,0,.507-.015.667.239a6.47,6.47,0,0,0-.226,2.491c-.006,3.527,0,7.054-.009,10.581,0,.266.12.609-.266.752a1.256,1.256,0,0,1-.152-.858q-.006-5.749,0-11.5c0-.91,0-.911-.892-.911h-9.574c-.745,0-.752,0-.752.764V220.15c0,.72.015.735.735.736h9.715a1.259,1.259,0,0,1,.817.134c.07.258-.152.227-.282.258a2.706,2.706,0,0,1-.653.031h-9.454A1.187,1.187,0,0,0,354.838,221.7Z" transform="translate(-333.5 -193.64)" fill="#fff"/>
    <path id="Path_3" data-name="Path 3" d="M372.591,223.386c.194-.14.105-.346.106-.52q.008-6.151,0-12.3a1.176,1.176,0,0,1,.389-1c.255.153.188.413.188.634,0,4.313,0,8.626.008,12.94,0,.628-.236.908-.885.9-3.782-.018-7.565-.015-11.348-.02,0-.458.257-.557.668-.555q5.124.015,10.247,0c.181,0,.376.058.541-.076a.051.051,0,0,1,.085-.012Z" transform="translate(-339.706 -195.97)" fill="#fff"/>
    <path id="Path_4" data-name="Path 4" d="M527.074,398.452c-.527-.356-1.122.155-1.721.015-.2-.047-.305.066-.4.233a.913.913,0,0,1-.633.444c-.226.049-.526.154-.6-.147s.276-.123.412-.217c.117-.087.363-.086.359-.241s-.225-.064-.345-.1c-.491-.151-.79-.435-.714-.989a.777.777,0,0,1,.881-.765c.541.035.729.408.752.9.009.226-.106.537.332.484.389-.046.915.161.953-.51a.787.787,0,0,1,.57-.812.752.752,0,0,1,.882.255.94.94,0,0,1,.074,1.058A.751.751,0,0,1,527.074,398.452Z" transform="translate(-486.823 -365.5)" fill="#fff"/>
    <path id="Path_5" data-name="Path 5" d="M474.693,398.383c-.5.047-1.133-.2-1.487.5-.056.114-.3.155-.462.188-.188.042-.46.114-.527-.135-.094-.339.257-.141.382-.238s.384-.155.382-.221c-.01-.22-.237-.094-.365-.132a.845.845,0,0,1-.687-.968.775.775,0,0,1,.776-.784.733.733,0,0,1,.836.8c0,.572.288.646.752.593a3.894,3.894,0,0,1,.846,0c.564.059.928-.069.815-.746-.018-.105-.054-.271.151-.273a.309.309,0,0,1,.314.231.847.847,0,0,1-.828,1.18C475.313,398.387,475.031,398.383,474.693,398.383Z" transform="translate(-440.16 -365.418)" fill="#fff"/>
    <path id="Path_6" data-name="Path 6" d="M446.39,398.059c-.011,1.128-.4,1.567-1.234,1.531a1.1,1.1,0,0,1-1.085-1.249.679.679,0,0,1,.1-.352c.068-.086.227-.182.307-.156.129.042.019.188,0,.282-.117.737.288,1.2.932,1.041.141-.035.361-.151.367-.242.013-.21-.208-.086-.322-.118-.52-.147-.846-.451-.73-1.016a.79.79,0,0,1,1.075-.671C446.353,397.257,446.38,397.739,446.39,398.059Z" transform="translate(-414.921 -365.846)" fill="#fff"/>
    <path id="Path_7" data-name="Path 7" d="M271.929,392.863a2.15,2.15,0,0,1,.006-.47c.057-.251-.217-.643.259-.725.494-.085,1.007-.165,1.376.31.142.183.214.476.06.612-.507.445-.1.813.028,1.216.036.109.246.242.047.35a.331.331,0,0,1-.47-.181c-.1-.186-.18-.4-.282-.59a.348.348,0,0,0-.4-.188c-.167.031-.094.2-.128.309-.06.217.212.618-.207.623s-.275-.406-.293-.665C271.916,393.265,271.93,393.061,271.929,392.863Z" transform="translate(-258.94 -360.899)" fill="#fff"/>
    <path id="Path_8" data-name="Path 8" d="M362.593,391.86c0-.235-.01-.47,0-.7.008-.132-.094-.352.169-.35a.294.294,0,0,1,.3.347c-.046.412.059.46.477.385.509-.094.8.282.868.774a.985.985,0,0,1-.818,1.17.839.839,0,0,1-.973-.739,4.492,4.492,0,0,1-.01-.886Z" transform="translate(-341.097 -360.178)" fill="#fff"/>
    <path id="Path_10" data-name="Path 10" d="M399.23,398.35a.693.693,0,0,1,.694.672c.036.452-.321.45-.631.513-.16.033-.485-.084-.451.133.04.263.356.273.624.247.125-.012.305-.251.376-.006.055.2-.14.321-.335.382a.94.94,0,0,1-1.02-.283,1.015,1.015,0,0,1-.136-1.141A.856.856,0,0,1,399.23,398.35Z" transform="translate(-373.399 -367.011)" fill="#fff"/>
    <path id="Path_11" data-name="Path 11" d="M294.128,399.324a.908.908,0,0,1,1.092-1,.673.673,0,0,1,.587.68c0,.408-.322.418-.616.487-.164.039-.5-.138-.464.162.025.212.351.241.6.224.128-.009.3-.248.376-.016.08.249-.162.34-.359.4a.96.96,0,0,1-1.217-.93Z" transform="translate(-279.073 -366.962)" fill="#fff"/>
    <path id="Path_12" data-name="Path 12" d="M342.687,399.255c.025.583-.225.94-.835.923-.382-.008-.73-.166-.752-.6-.023-.414.325-.5.652-.6.143-.04.462.148.4-.173-.046-.258-.347-.188-.564-.181-.132,0-.308.225-.376.018s.142-.317.327-.382C342.224,398.015,342.692,398.424,342.687,399.255Z" transform="translate(-321.63 -366.864)" fill="#fff"/>
    <path id="Path_14" data-name="Path 14" d="M386.861,393.093c0-.25-.015-.5.007-.747.01-.122-.119-.357.162-.337a.313.313,0,0,1,.314.337c0,.389-.008.779,0,1.168.008.272-.12.626.349.672a.108.108,0,0,1,.063.181c-.065.077-.161.174-.247.178a.556.556,0,0,1-.648-.612C386.851,393.653,386.861,393.373,386.861,393.093Z" transform="translate(-363.078 -361.264)" fill="#fff"/>
    <path id="Path_15" data-name="Path 15" d="M317.278,393.23c.128.329-.268.846.386,1.066.139.046-.039.292-.2.3-.376.027-.651-.115-.658-.538-.012-.564-.01-1.128,0-1.684,0-.117-.079-.316.157-.31a.3.3,0,0,1,.314.288C317.292,392.635,317.278,392.917,317.278,393.23Z" transform="translate(-299.61 -361.319)" fill="#fff"/>
    <path id="Path_17" data-name="Path 17" d="M329.667,400.461c.16-.208-.24-.687.226-.691.427,0,.2.464.257.724s-.158.616.288.73c.114.029.094.148.044.235a.273.273,0,0,1-.321.117C329.475,401.441,329.764,400.879,329.667,400.461Z" transform="translate(-311.265 -368.297)" fill="#fff"/>
    <path id="Path_30" data-name="Path 30" d="M330.06,391.862a.261.261,0,1,1-.518-.012.247.247,0,0,1,.271-.251C329.988,391.6,330.052,391.7,330.06,391.862Z" transform="translate(-311.157 -360.893)" fill="#fff"/>
    <path id="Path_32" data-name="Path 32" d="M517.306,392.54c.2,0,.366.071.311.282s-.231.258-.418.1C517.1,392.762,517.119,392.627,517.306,392.54Z" transform="translate(-481.13 -361.747)" fill="#fff"/>
    <path id="Path_46608" data-name="Path 46608" d="M517.306,392.54c.2,0,.366.071.311.282s-.231.258-.418.1C517.1,392.762,517.119,392.627,517.306,392.54Z" transform="translate(-486.569 -361.988)" fill="#fff"/>
    <path id="Path_34" data-name="Path 34" d="M512.122,393c-.17.117-.333.122-.394-.094s.074-.307.282-.3C512.21,392.7,512.21,392.836,512.122,393Z" transform="translate(-476.212 -361.812)" fill="#fff"/>
    <path id="Path_46607" data-name="Path 46607" d="M512.122,393c-.17.117-.333.122-.394-.094s.074-.307.282-.3C512.21,392.7,512.21,392.836,512.122,393Z" transform="translate(-481.651 -362.052)" fill="#fff"/>
    <path id="Path_35" data-name="Path 35" d="M514.827,388.23c-.04-.17-.026-.34.188-.34s.215.178.18.343C515.065,388.433,514.943,388.442,514.827,388.23Z" transform="translate(-479.017 -357.534)" fill="#fff"/>
    <path id="Path_38" data-name="Path 38" d="M528.753,401.117c0,.228.053.446-.254.417-.323-.03-.574-.137-.569-.526,0-.275.07-.521.4-.5C528.737,400.535,528.724,400.874,528.753,401.117Z" transform="translate(-490.904 -368.965)" fill="#2b7a73"/>
    <path id="Path_39" data-name="Path 39" d="M559.73,401.206c-.063.227-.045.518-.4.525-.336.008-.423-.219-.431-.491s.087-.515.4-.54C559.63,400.672,559.679,400.945,559.73,401.206Z" transform="translate(-518.96 -369.139)" fill="#2b7a73"/>
    <path id="Path_40" data-name="Path 40" d="M477.2,401.167c-.034.149.1.4-.238.376s-.576-.152-.564-.536c.007-.25.061-.491.376-.488C477.2,400.526,477.185,400.859,477.2,401.167Z" transform="translate(-444.213 -368.976)" fill="#2b7a73"/>
    <path id="Path_41" data-name="Path 41" d="M456.46,401.418c-.025.148.107.4-.223.383s-.594-.126-.6-.509c0-.252.084-.489.386-.483C456.4,400.817,456.453,401.109,456.46,401.418Z" transform="translate(-425.408 -369.239)" fill="#2b7a73"/>
    <path id="Path_42" data-name="Path 42" d="M277.677,397.186c-.243.039-.3-.094-.3-.325s.053-.384.335-.362c.226.018.39.07.4.339C278.123,397.144,277.933,397.193,277.677,397.186Z" transform="translate(-263.899 -365.332)" fill="#2b7a73"/>
    <path id="Path_43" data-name="Path 43" d="M367.878,403.439c-.006-.3.088-.554.428-.55s.428.258.419.559-.076.553-.429.549S367.876,403.73,367.878,403.439Z" transform="translate(-345.892 -371.124)" fill="#2b7a73"/>
    <path id="Path_46" data-name="Path 46" d="M404.232,403.043c-.1-.031-.31.08-.273-.173a.338.338,0,0,1,.361-.293c.176-.006.326.064.314.255C404.616,403.078,404.4,403.027,404.232,403.043Z" transform="translate(-378.579 -370.84)" fill="#2b7a73"/>
    <path id="Path_47" data-name="Path 47" d="M299.769,403.024c-.094-.062-.331.109-.282-.16a.365.365,0,0,1,.406-.311c.149.006.3.05.3.229C300.187,403.082,299.939,402.991,299.769,403.024Z" transform="translate(-283.922 -370.816)" fill="#2b7a73"/>
    <path id="Path_48" data-name="Path 48" d="M347.017,410.21a.3.3,0,0,1-.349.274c-.155-.008-.282-.094-.257-.259.029-.22.232-.21.395-.229S347.045,410.036,347.017,410.21Z" transform="translate(-326.44 -377.559)" fill="#2b7a73"/>
    <path id="Path_52" data-name="Path 52" d="M390.188,246.6a2.226,2.226,0,0,0-3.971.433,4.469,4.469,0,0,0-.134,1.3,17.768,17.768,0,0,1-.124,3.223,2.537,2.537,0,0,1-.667,1.16.354.354,0,0,1-.537.069.34.34,0,0,1-.034-.535,2.971,2.971,0,0,0,.658-2.128,10.107,10.107,0,0,1,.2-3.438,2.91,2.91,0,0,1,5.067-.63A.642.642,0,0,1,390.188,246.6Z" transform="translate(-361.05 -227.923)" fill="#fff"/>
    <path id="Path_53" data-name="Path 53" d="M384.142,231.133A3.7,3.7,0,0,0,379.88,230a3.636,3.636,0,0,0-2.314,3.228v.422c-.018.326.109.8-.388.8-.47,0-.351-.47-.353-.771a4.389,4.389,0,0,1,7.721-3.131A.759.759,0,0,1,384.142,231.133Z" transform="translate(-353.988 -213.561)" fill="#fff"/>
    <path id="Path_54" data-name="Path 54" d="M407.84,265.253a14.573,14.573,0,0,1,.041-3.752,1.247,1.247,0,0,1,1.362-.982,1.381,1.381,0,0,1,1.41,1.053c-.308.152-.346.613-.752.658-.084-.107-.053-.241-.084-.36a.557.557,0,0,0-.609-.47.576.576,0,0,0-.532.516.536.536,0,0,0,.4.611c.129.052.282.046.387.153,0,.015.017.036.01.044-.229.333-.166.548.248.626a.644.644,0,0,1-.663.083c-.608-.277-.543.132-.558.486A6.921,6.921,0,0,0,407.84,265.253Z" transform="translate(-382.009 -242.131)" fill="#fff"/>
    <path id="Path_55" data-name="Path 55" d="M444,258.29l.457-.55a2.249,2.249,0,0,1,.564,1.487c.014,1.013,0,2.025.009,3.038,0,.276-.082.488-.365.487s-.376-.233-.376-.493c0-.81-.013-1.62,0-2.43A3.03,3.03,0,0,0,444,258.29Z" transform="translate(-414.862 -239.614)" fill="#fff"/>
    <path id="Path_56" data-name="Path 56" d="M454.81,246.177c.045-.257.253-.4.4-.587a4.47,4.47,0,0,1,1.093,3.618.327.327,0,0,1-.376.325c-.305-.022-.376-.24-.352-.5A4.24,4.24,0,0,0,454.81,246.177Z" transform="translate(-424.656 -228.605)" fill="#fff"/>
    <path id="Path_57" data-name="Path 57" d="M463.638,296.011c0,.282.008.564,0,.84a.339.339,0,0,1-.35.36.343.343,0,0,1-.383-.369c-.01-.529,0-1.058,0-1.587a.37.37,0,0,1,.74.009c.006.247,0,.5,0,.752Z" transform="translate(-431.984 -273.275)" fill="#fff"/>
    <path id="Path_58" data-name="Path 58" d="M420.767,319v-.752a.352.352,0,0,1,.361-.4.367.367,0,0,1,.376.393c.013.514.009,1.029,0,1.543a.346.346,0,0,1-.367.393c-.267,0-.376-.171-.376-.431S420.766,319.25,420.767,319Z" transform="translate(-393.806 -294.074)" fill="#fff"/>
    <path id="Path_59" data-name="Path 59" d="M392.858,326.306a.3.3,0,0,1-.289-.149.38.38,0,0,1,.062-.47,4.31,4.31,0,0,0,.887-1.064.328.328,0,0,1,.406-.148.351.351,0,0,1,.259.3A2.555,2.555,0,0,1,392.858,326.306Z" transform="translate(-368.216 -300.058)" fill="#fff"/>
    <path id="Path_60" data-name="Path 60" d="M422.615,273.472c-.218-.041-.551.128-.631-.066s.2-.4.362-.577c.063-.257.282-.358.481-.478.255-.2.244-.693.717-.658A1.4,1.4,0,0,1,422.615,273.472Z" transform="translate(-394.902 -252.254)" fill="#fff"/>
    <path id="Path_61" data-name="Path 61" d="M425.174,294.55c.079.062.217.116.259.211a3.72,3.72,0,0,0,.581.895.352.352,0,0,1-.049.538.348.348,0,0,1-.5-.06,2.7,2.7,0,0,1-.681-1.049C424.68,294.791,424.827,294.612,425.174,294.55Z" transform="translate(-397.421 -272.965)" fill="#fff"/>
    <path id="Path_62" data-name="Path 62" d="M376.8,292.324c.045-.276-.117-.706.393-.672s.333.47.354.763c.024.313.037.715-.4.689C376.669,293.075,376.843,292.623,376.8,292.324Z" transform="translate(-353.976 -270.337)" fill="#fff"/>
    <path id="Path_63" data-name="Path 63" d="M408.734,298.025a1.43,1.43,0,0,1,.658-1.335c.008.358.016.717.025,1.076a.4.4,0,0,1-.247.415.326.326,0,0,1-.436-.156Z" transform="translate(-382.902 -274.904)" fill="#fff"/>
    <path id="Path_64" data-name="Path 64" d="M447.553,315.8a.371.371,0,0,1-.4.363.337.337,0,0,1-.342-.367c.006-.257.155-.359.393-.353S447.526,315.584,447.553,315.8Z" transform="translate(-417.404 -291.89)" fill="#fff"/>
    <path id="Path_65" data-name="Path 65" d="M417.308,269.126c-.062.258-.3.338-.481.478-.763-.037-1.161-.541-.832-1.083a.652.652,0,0,1,.818-.346A.72.72,0,0,1,417.308,269.126Z" transform="translate(-389.383 -249.029)" fill="#2b7a73"/>
  </g>
</svg>
