<svg id="Page-1" xmlns="http://www.w3.org/2000/svg" width="24" height="24" viewBox="0 0 24 24">
  <g id="_019---Law-Writing" data-name="019---Law-Writing" transform="translate(0 0)">
    <path id="Shape" d="M7.214,16a1.191,1.191,0,0,0,.76-.269l3.56-2.873a1.2,1.2,0,0,0,.714.322c.036,0,.073,0,.109,0a1.2,1.2,0,0,0,.792-.3l.355-.308.154.194a.8.8,0,0,0,.088.851l.4.5a.79.79,0,0,0,.535.3.875.875,0,0,0,.091,0,.786.786,0,0,0,.5-.175l3.238-2.6a.8.8,0,0,0,.126-1.12l-.4-.5a.772.772,0,0,0-.749-.289L14.23,5.629a.8.8,0,0,0-.1-.824l-.4-.5a.8.8,0,0,0-1.12-.127l-3.238,2.6A.8.8,0,0,0,9.251,7.9l.394.5a.79.79,0,0,0,.536.3.76.76,0,0,0,.09,0,.781.781,0,0,0,.153-.016l.218.276-.426.344A1.213,1.213,0,0,0,10,10.974L6.454,13.832a1.226,1.226,0,0,0-.189,1.712A1.2,1.2,0,0,0,7.214,16Zm7.556-2.372-.4-.5,2.08-1.67,1.152-.925,0,0,.391.5Zm-.535-1.416-.373-.471-2.342-2.96s0-.006-.005-.009-.005,0-.007-.006l-.4-.509L13.664,6.2l3.13,3.957ZM13.11,4.8l.393.5-.028.022L10.293,7.882c-.006,0-.008.012-.014.017l-.007.006-.4-.5ZM10.717,9.929l.421-.34,1.87,2.364-.382.332a.411.411,0,0,1-.591-.052l-1.38-1.712a.423.423,0,0,1-.092-.313.414.414,0,0,1,.154-.28Zm-3.76,4.524L10.5,11.6l.524.649L7.47,15.111a.4.4,0,0,1-.256.09.407.407,0,0,1-.32-.157.423.423,0,0,1,.063-.592Z" transform="translate(-3.601 -2.402)" fill="#048e81"/>
    <path id="Shape-2" data-name="Shape" d="M6.4,37.8h9.2a.4.4,0,1,0,0-.8H6.4a.4.4,0,1,0,0,.8Z" transform="translate(-3.6 -22.2)" fill="#048e81"/>
    <path id="Shape-3" data-name="Shape" d="M6.4,42.8h7.2a.4.4,0,0,0,0-.8H6.4a.4.4,0,1,0,0,.8Z" transform="translate(-3.6 -25.2)" fill="#048e81"/>
    <path id="Shape-4" data-name="Shape" d="M6.4,47.8h6a.4.4,0,0,0,0-.8h-6a.4.4,0,0,0,0,.8Z" transform="translate(-3.6 -28.2)" fill="#048e81"/>
    <path id="Shape-5" data-name="Shape" d="M22.97,8.324a1.617,1.617,0,0,0-2.277.013L18.726,10.3,17.6,11.432V1.2A1.2,1.2,0,0,0,16.4,0H3.2a.4.4,0,0,0-.283.117l-2.8,2.8A.4.4,0,0,0,0,3.2V22.8A1.2,1.2,0,0,0,1.2,24H16.4a1.2,1.2,0,0,0,1.2-1.2V17.085l3.948-3.948.007,0s0-.005,0-.007l1.12-1.12a.012.012,0,0,0,.007,0s0,0,0-.007l.831-.831a1.607,1.607,0,0,0,.013-2.274Zm-1.7,3.96-.847-.847-.848-.848.566-.566,1.7,1.7Zm-7.354,7.353-.564-.564,6.788-6.788.565.565Zm-2.723,1.156a.094.094,0,0,1-.1-.023.092.092,0,0,1-.027-.095l.751-2.01,1.381,1.381Zm7.816-9.64.566.567-6.788,6.787-.564-.564ZM2.8,1.366V2.4a.4.4,0,0,1-.4.4H1.366ZM16.8,22.8a.4.4,0,0,1-.4.4H1.2a.4.4,0,0,1-.4-.4V3.6H2.4A1.2,1.2,0,0,0,3.6,2.4V.8H16.4a.4.4,0,0,1,.4.4V12.232l-5.3,5.3a1.134,1.134,0,0,0-.282.433l-.912,2.442a.9.9,0,0,0-.036.394H2.8a.4.4,0,0,0,0,.8h8.4a1.567,1.567,0,0,0,.264-.054l2.431-.906a1.127,1.127,0,0,0,.428-.276L16.8,17.885Zm6.16-12.2-.558.556-1.7-1.7.553-.553a.824.824,0,0,1,.583-.242.8.8,0,0,1,.564.23l.563.563a.8.8,0,0,1,.232.57.808.808,0,0,1-.24.572Z" transform="translate(0 0)" fill="#048e81"/>
  </g>
</svg>
