<svg xmlns="http://www.w3.org/2000/svg" width="25.7" height="26" viewBox="0 0 25.7 26">
  <g id="gavel" transform="translate(-2.631 0)">
    <path id="Path_46784" data-name="Path 46784" d="M18.259,13.073a1.464,1.464,0,0,0,.839,2.088.95.95,0,0,1,.61.61,1.476,1.476,0,0,0,.4.624,1.45,1.45,0,0,0,.993.384,1.51,1.51,0,0,0,1.069-.44l4.167-4.167a1.5,1.5,0,0,0,.056-2.061,1.475,1.475,0,0,0-.624-.4.95.95,0,0,1-.61-.61,1.464,1.464,0,0,0-2.087-.839L18.512,3.706a1.464,1.464,0,0,0-.839-2.087.95.95,0,0,1-.61-.61,1.476,1.476,0,0,0-.4-.624A1.5,1.5,0,0,0,14.6.44L10.436,4.607a1.5,1.5,0,0,0-.056,2.061,1.475,1.475,0,0,0,.624.4.95.95,0,0,1,.61.61,1.475,1.475,0,0,0,.4.624,1.451,1.451,0,0,0,.993.384,1.523,1.523,0,0,0,.7-.169L14.984,9.8,3.09,21.692a1.568,1.568,0,0,0,2.217,2.217L17.2,12.015Zm7.589-2.457h0a.75.75,0,0,1-.037,1.032l-4.167,4.167a.75.75,0,0,1-1.032.037.723.723,0,0,1-.2-.31,1.678,1.678,0,0,0-.18-.383l4.922-4.922a1.681,1.681,0,0,0,.383.18A.723.723,0,0,1,25.848,10.616Zm-1.6-1.6a.723.723,0,0,1,.2.31,1.68,1.68,0,0,0,.18.383L19.71,14.636a1.681,1.681,0,0,0-.383-.18.723.723,0,0,1-.31-.2.75.75,0,0,1,.037-1.032l2.084-2.084,2.083-2.083a.77.77,0,0,1,.544-.225A.712.712,0,0,1,24.253,9.021ZM10.923,6.163a.75.75,0,0,1,.037-1.032L15.127.964a.77.77,0,0,1,.544-.225.713.713,0,0,1,.488.188.723.723,0,0,1,.2.31,1.68,1.68,0,0,0,.18.383L11.615,6.542a1.68,1.68,0,0,0-.383-.18A.723.723,0,0,1,10.923,6.163Zm1.6,1.6a.722.722,0,0,1-.2-.31,1.68,1.68,0,0,0-.18-.383l4.922-4.922a1.681,1.681,0,0,0,.383.18.723.723,0,0,1,.31.2h0a.75.75,0,0,1-.037,1.032L13.55,7.721A.75.75,0,0,1,12.518,7.758Zm5.52-3.478,4.456,4.456-1.881,1.881L18.733,12.5,14.277,8.042ZM4.783,23.385a.827.827,0,0,1-1.169-1.169L15.508,10.322l1.169,1.169Z" transform="translate(0 0)" fill="#404040"/>
    <path id="Path_46785" data-name="Path 46785" d="M217.171,364.558a.37.37,0,0,0-.076-.225l-1.508-1.97v-.9a.371.371,0,0,0-.371-.371H204.843a.371.371,0,0,0-.371.371v.9l-1.508,1.97a.37.37,0,0,0-.076.225v1.579a.371.371,0,0,0,.371.371H216.8a.371.371,0,0,0,.371-.371Zm-11.958-2.725h9.634v.285h-9.634Zm-.188,1.026h10.009l1.017,1.328H204.009Zm-1.4,2.907v-.838h12.8v.838Z" transform="translate(-188.841 -340.507)" fill="#404040"/>
    <path id="Path_46786" data-name="Path 46786" d="M270.79,95.733a.371.371,0,1,0,.524-.524l-3.048-3.048a.371.371,0,0,0-.524.524Z" transform="translate(-249.896 -86.805)" fill="#404040"/>
  </g>
</svg>
