<svg xmlns="http://www.w3.org/2000/svg" width="24.285" height="24" viewBox="0 0 24.285 24">
  <g id="money_6_" data-name="money (6)" transform="translate(0 -3)">
    <g id="Group_921" data-name="Group 921" transform="translate(14.227 15.01)">
      <g id="Group_920" data-name="Group 920" transform="translate(0 0)">
        <path id="Path_47500" data-name="Path 47500" d="M301.946,259.623a.913.913,0,1,1,1.043-.9.474.474,0,1,0,.949,0,1.887,1.887,0,0,0-1.518-1.8v-.247a.474.474,0,0,0-.949,0v.247a1.887,1.887,0,0,0-1.518,1.8,1.928,1.928,0,0,0,1.992,1.852.913.913,0,1,1-1.043.9.474.474,0,0,0-.949,0,1.887,1.887,0,0,0,1.518,1.8v.2a.474.474,0,0,0,.949,0v-.2a1.887,1.887,0,0,0,1.518-1.8A1.928,1.928,0,0,0,301.946,259.623Z" transform="translate(-299.954 -256.201)" fill="#fff"/>
      </g>
    </g>
    <g id="Group_923" data-name="Group 923" transform="translate(18.21 13.33)">
      <g id="Group_922" data-name="Group 922">
        <path id="Path_47501" data-name="Path 47501" d="M387.129,223.066a6.18,6.18,0,0,0-2.524-2.234.474.474,0,1,0-.411.855,5.222,5.222,0,0,1,2.352,7.152.474.474,0,1,0,.837.446,6.173,6.173,0,0,0-.254-6.219Z" transform="translate(-383.924 -220.785)" fill="#fff"/>
      </g>
    </g>
    <g id="Group_925" data-name="Group 925" transform="translate(16.458 12.771)">
      <g id="Group_924" data-name="Group 924" transform="translate(0 0)">
        <path id="Path_47502" data-name="Path 47502" d="M347.506,209h-.032a.474.474,0,0,0,0,.949h.03a.474.474,0,0,0,0-.949Z" transform="translate(-347 -209.001)" fill="#fff"/>
      </g>
    </g>
    <g id="Group_927" data-name="Group 927" transform="translate(10.055 15.793)">
      <g id="Group_926" data-name="Group 926" transform="translate(0 0)">
        <path id="Path_47503" data-name="Path 47503" d="M215.911,280.561a5.222,5.222,0,0,1-2.352-7.152.474.474,0,0,0-.837-.446,6.169,6.169,0,0,0,2.778,8.453.474.474,0,1,0,.411-.855Z" transform="translate(-212.002 -272.711)" fill="#fff"/>
      </g>
    </g>
    <g id="Group_929" data-name="Group 929" transform="translate(15.006 24.154)">
      <g id="Group_928" data-name="Group 928">
        <path id="Path_47504" data-name="Path 47504" d="M316.882,449h-.027a.474.474,0,0,0,0,.949h.032a.474.474,0,0,0,0-.949Z" transform="translate(-316.378 -448.999)" fill="#fff"/>
      </g>
    </g>
    <g id="Group_931" data-name="Group 931" transform="translate(0 3)">
      <g id="Group_930" data-name="Group 930">
        <path id="Path_47505" data-name="Path 47505" d="M18.375,11.166a2.177,2.177,0,0,0-.211-.387H19.4a2.182,2.182,0,1,0,0-4.364H15.6A2.18,2.18,0,0,0,13.8,3H2.182a2.182,2.182,0,1,0,0,4.364h3.8a2.176,2.176,0,0,0,0,2.466H4.743a2.181,2.181,0,0,0-1.356,3.889,2.178,2.178,0,0,0,0,3.415,2.178,2.178,0,0,0,0,3.415,2.181,2.181,0,0,0,1.356,3.889h5.59a8.061,8.061,0,1,0,8.042-13.273Zm1.024-3.8a1.233,1.233,0,1,1,0,2.466H7.779a1.233,1.233,0,1,1,0-2.466ZM2.182,6.415a1.233,1.233,0,0,1,0-2.466H13.8a1.233,1.233,0,0,1,0,2.466Zm2.561,4.364H16.364a1.233,1.233,0,0,1,.538.124c-.224-.019-.451-.029-.68-.029a8.038,8.038,0,0,0-5.706,2.371H4.743a1.233,1.233,0,1,1,0-2.466Zm0,3.415H9.705A8.04,8.04,0,0,0,8.486,16.66H4.743a1.233,1.233,0,1,1,0-2.466Zm0,3.415H8.268a8.07,8.07,0,0,0-.029,2.466h-3.5a1.233,1.233,0,0,1,0-2.466Zm0,5.881a1.233,1.233,0,1,1,0-2.466H8.433A8.031,8.031,0,0,0,9.571,23.49Zm11.478,2.561a7.115,7.115,0,1,1,7.115-7.115A7.123,7.123,0,0,1,16.221,26.051Z" transform="translate(0 -3)" fill="#fff"/>
      </g>
    </g>
  </g>
</svg>
