<svg xmlns="http://www.w3.org/2000/svg" width="22.672" height="26" viewBox="0 0 22.672 26">
  <g id="Layer_2" data-name="Layer 2" transform="translate(-2.92 -1)">
    <path id="Path_46781" data-name="Path 46781" d="M23.824,27H9.411A2.331,2.331,0,0,1,7.08,24.669V3.331A2.331,2.331,0,0,1,9.411,1h6.613a2.409,2.409,0,0,1,1.6.615l7.713,6.933a2.418,2.418,0,0,1,.806,1.8V24.669A2.331,2.331,0,0,1,23.824,27ZM9.411,2.733a.6.6,0,0,0-.6.6V24.669a.6.6,0,0,0,.6.6H23.824a.6.6,0,0,0,.6-.6V10.308a.676.676,0,0,0-.225-.5L16.483,2.872a.676.676,0,0,0-.459-.139Z" transform="translate(-0.555 0)" fill="#404040"/>
    <path id="Path_46782" data-name="Path 46782" d="M26.613,10.689H18.978a1.9,1.9,0,0,1-1.9-1.9V2.56h1.733V8.791a.165.165,0,0,0,.165.165h7.635Z" transform="translate(-1.888 -0.208)" fill="#404040"/>
    <rect id="Rectangle_36" data-name="Rectangle 36" width="8.667" height="1.733" rx="0.867" transform="translate(12.02 20.933)" fill="#404040"/>
    <rect id="Rectangle_37" data-name="Rectangle 37" width="3.467" height="1.733" rx="0.867" transform="translate(12.02 17.198)" fill="#404040"/>
    <path id="Path_46783" data-name="Path 46783" d="M5.078,23.819A2.184,2.184,0,0,1,2.92,21.643V7.517a2.167,2.167,0,0,1,2.6-2.123l1.863.312L7.1,7.439,5.217,7.1a.459.459,0,0,0-.4.078.433.433,0,0,0-.165.338V21.643a.442.442,0,0,0,.529.425l1.959-.26.225,1.733-1.9.251a1.829,1.829,0,0,1-.39.026Z" transform="translate(0 -0.58)" fill="#404040"/>
  </g>
</svg>
