<svg id="_5" data-name="5" xmlns="http://www.w3.org/2000/svg" width="23.309" height="24" viewBox="0 0 23.309 24">
  <g id="Group_787" data-name="Group 787" transform="translate(0 1.465)">
    <g id="Group_784" data-name="Group 784" transform="translate(0)">
      <path id="Path_47167" data-name="Path 47167" d="M9.038,47.928a11.676,11.676,0,0,1-.845-10.693q.073-.173.151-.342c1.846-4,5.893-6.04,10.589-6.04,2.908,0,5.568.326,7.609,2.088A11.655,11.655,0,0,1,26.1,50.955" transform="translate(-7.279 -30.852)" fill="#508dca"/>
    </g>
    <g id="Group_786" data-name="Group 786" transform="translate(0.704 0.372)">
      <g id="Group_785" data-name="Group 785">
        <path id="Path_47168" data-name="Path 47168" d="M25.968,58.443H38.474a9.561,9.561,0,0,0,.911-4.108c0-.091,0-.18,0-.269A7.611,7.611,0,0,0,37.4,48.79,7.153,7.153,0,0,0,31.958,46.7c-.1,0-.191,0-.284,0l-.051,0-.233.009-.034,0-.247.016H31.1q-.131.01-.258.023h0a5.251,5.251,0,0,0-2.148.629,5.184,5.184,0,0,0-1.66,1.438h-.205l.24-5.305H37.982V39.44a11.635,11.635,0,0,0-1.344-.747H28.079a11.7,11.7,0,0,0-5.617,5.668L22.1,52.452l5.237.069a3.426,3.426,0,0,1,1.01-1.438,3.193,3.193,0,0,1,2.173-.65,3.2,3.2,0,0,1,2.636,1.1,4.257,4.257,0,0,1,.89,2.773s0,.008,0,.012h0a4.373,4.373,0,0,1-.89,2.812,3.056,3.056,0,0,1-2.533,1.112,3.462,3.462,0,0,1-2.191-.719A3.532,3.532,0,0,1,27.2,55.4H23.156a11.716,11.716,0,0,0,2.753,3.05c.019,0,.039,0,.059,0Z" transform="translate(-22.1 -38.693)" fill="#305689"/>
      </g>
    </g>
  </g>
  <path id="Path_47169" data-name="Path 47169" d="M76.968,15.5a8.013,8.013,0,0,0-2.092-5.528,7.565,7.565,0,0,0-5.73-2.219q-.147,0-.289,0l-.052,0-.239.009-.035,0q-.129.007-.255.016h-.012c-.089.007-.179.015-.268.024a5.726,5.726,0,0,0-2.34.7,8.039,8.039,0,0,0-.77.518l.139-3.068H75.615V.894A.894.894,0,0,0,74.722,0H60.446a.894.894,0,0,0-.893.854l-.615,13.732,6.19.081.152-.437a2.7,2.7,0,0,1,.8-1.121,2.506,2.506,0,0,1,1.678-.468,2.468,2.468,0,0,1,2.052.823,3.454,3.454,0,0,1,.717,2.245v.044a3.581,3.581,0,0,1-.72,2.321,2.33,2.33,0,0,1-1.95.836,2.7,2.7,0,0,1-1.726-.561,2.777,2.777,0,0,1-.959-1.684l-.111-.5H58.621l.086.718a9.477,9.477,0,0,0,1.348,3.852,5.091,5.091,0,0,0,.662.878,11.618,11.618,0,0,0,3.875,1.969l1.258.285,4.414-.09,1-.248a11.624,11.624,0,0,0,3.749-1.957,5.54,5.54,0,0,0,.973-1.441,9.93,9.93,0,0,0,.991-4.352C76.973,15.689,76.971,15.6,76.968,15.5Z" transform="translate(-56.184 0)" fill="#e48868"/>
  <g id="Group_799" data-name="Group 799" transform="translate(3.16 0.641)">
    <path id="Path_47170" data-name="Path 47170" d="M88.676,23.571A6.374,6.374,0,0,0,83.7,21.4c-.386,0-1.134-.1-1.134-.1a5.077,5.077,0,0,0-2.078.609,15.69,15.69,0,0,0-1.8,1.391l-.414-2.774.646-2.359H89.48L88.96,14,74.711,13.5l-.6,13.312,2.892-.5,2.174.57a3.315,3.315,0,0,1,.977-1.391,3.695,3.695,0,0,1,4.653.43,4.118,4.118,0,0,1,.861,2.682c.246.48.608,1.928.035,2.646a5.579,5.579,0,0,1-3.363,1.623,3.972,3.972,0,0,1-2.328-.7,4.291,4.291,0,0,1-1.479-2.245l-4.687-.267a8.8,8.8,0,0,0,1.258,3.593A7.371,7.371,0,0,0,77,35.318c.058.043.16.108.29.185s.275.162.416.243a8.524,8.524,0,0,0,3.1,1.051l.037,0a8.08,8.08,0,0,0,1.031.062h.931a8.356,8.356,0,0,0,1.14-.075l.087-.012a8.525,8.525,0,0,0,3.225-1.167c.177-.108.35-.219.52-.332a4.524,4.524,0,0,0,.441-.318,7.18,7.18,0,0,0,1.692-2.249,9.253,9.253,0,0,0,.927-4.073,6.913,6.913,0,0,0-2.162-5.066Z" transform="translate(-73.85 -13.504)" fill="#d52242"/>
    <g id="Group_798" data-name="Group 798" transform="translate(0)">
      <g id="Group_789" data-name="Group 789" transform="translate(0.861)">
        <g id="Group_788" data-name="Group 788">
          <path id="Path_47171" data-name="Path 47171" d="M93.389,14.976h11.89V16.7l1.472,1.472V13.5H91.982Z" transform="translate(-91.982 -13.504)" fill="#e48868"/>
        </g>
      </g>
      <g id="Group_791" data-name="Group 791" transform="translate(0.265 11.86)">
        <g id="Group_790" data-name="Group 790">
          <path id="Path_47172" data-name="Path 47172" d="M83.6,263.342l-2.638-.035-1.538,1.452,5.066.066A14.656,14.656,0,0,0,83.6,263.342Z" transform="translate(-79.428 -263.307)" fill="#e48868"/>
        </g>
      </g>
      <g id="Group_793" data-name="Group 793" transform="translate(3.295 3.197)">
        <g id="Group_792" data-name="Group 792">
          <path id="Path_47173" data-name="Path 47173" d="M144.787,87.454l.232-5.133-1.407-1.472-.063,1.405-.3,6.671Z" transform="translate(-143.247 -80.85)" fill="#e48868"/>
        </g>
      </g>
      <g id="Group_795" data-name="Group 795" transform="translate(8.718 7.749)">
        <g id="Group_794" data-name="Group 794">
          <path id="Path_47174" data-name="Path 47174" d="M263.815,178.732a6.92,6.92,0,0,0-5.265-2.02,10.418,10.418,0,0,0-1.084.054v1.481a8.559,8.559,0,0,1,1.084-.063,5.471,5.471,0,0,1,4.2,1.562A5.96,5.96,0,0,1,264.262,184h1.472A7.428,7.428,0,0,0,263.815,178.732Z" transform="translate(-257.466 -176.712)" fill="#e48868"/>
        </g>
      </g>
      <g id="Group_797" data-name="Group 797" transform="translate(0 15.112)">
        <g id="Group_796" data-name="Group 796">
          <path id="Path_47175" data-name="Path 47175" d="M85.67,331.788a4.231,4.231,0,0,1-.861,2.721,2.957,2.957,0,0,1-2.45,1.076,3.349,3.349,0,0,1-2.119-.7,3.417,3.417,0,0,1-1.192-2.053h-5.2l1.856,1.472h2.281a4.509,4.509,0,0,0,1.35,1.743,4.8,4.8,0,0,0,3.023,1.006,4.43,4.43,0,0,0,3.6-1.629,5.681,5.681,0,0,0,1.183-3.64H85.67Z" transform="translate(-73.848 -331.788)" fill="#e48868"/>
        </g>
      </g>
    </g>
  </g>
  <g id="Group_808" data-name="Group 808" transform="translate(5.139 2.814)">
    <g id="Group_807" data-name="Group 807" transform="translate(0)">
      <path id="Path_47179" data-name="Path 47179" d="M122.043,79.01a5.832,5.832,0,0,1-3.769-1.4,6.241,6.241,0,0,1-2.053-3.481l.4-.083A5.828,5.828,0,0,0,118.54,77.3a5.422,5.422,0,0,0,3.5,1.3,5.773,5.773,0,0,0,0-11.537,5.4,5.4,0,0,0-3.917,1.687l-.061.063h-2.537l.517-9.556h11.746v.41H116.434l-.473,8.735h1.93a5.8,5.8,0,0,1,4.151-1.75,6.183,6.183,0,0,1,0,12.358Z" transform="translate(-115.528 -59.256)" fill="#e48868"/>
    </g>
  </g>
</svg>
