<svg xmlns="http://www.w3.org/2000/svg" width="29.883" height="26" viewBox="0 0 29.883 26">
  <path id="briefcase" d="M26.908,37.571H20.469V34.976a2.243,2.243,0,0,0-2.241-2.24H11.654a2.243,2.243,0,0,0-2.241,2.24v2.595H2.975A2.978,2.978,0,0,0,0,40.546V55.761a2.978,2.978,0,0,0,2.975,2.975H26.908a2.978,2.978,0,0,0,2.975-2.975V40.546A2.978,2.978,0,0,0,26.908,37.571Zm-15.6-2.595a.343.343,0,0,1,.343-.343h6.574a.343.343,0,0,1,.343.343v2.595h-7.26ZM1.9,40.546a1.078,1.078,0,0,1,1.077-1.077H26.908a1.078,1.078,0,0,1,1.077,1.077v1.4a3,3,0,0,1-2.148,2.863L15.913,47.7a3.468,3.468,0,0,1-1.943,0l-9.924-2.89A3,3,0,0,1,1.9,41.95Zm25.01,16.292H2.975A1.078,1.078,0,0,1,1.9,55.761V45.814a4.858,4.858,0,0,0,1.617.821c10.963,3.192,10.4,3.1,11.426,3.1s.45.092,11.426-3.1a4.857,4.857,0,0,0,1.617-.821v9.947a1.078,1.078,0,0,1-1.077,1.077Z" transform="translate(0 -32.736)" fill="#404040"/>
</svg>
