<svg xmlns="http://www.w3.org/2000/svg" width="260.004" height="75.157" viewBox="0 0 260.004 75.157">
  <g id="Group_702" data-name="Group 702" transform="translate(-0.974 -0.969)">
    <path id="Path_1042" data-name="Path 1042" d="M251.925,75.962H9.7A8.886,8.886,0,0,1,.809,67.075V9.692A8.886,8.886,0,0,1,9.7.8h242.23a8.886,8.886,0,0,1,8.887,8.887V67.075a8.886,8.886,0,0,1-8.887,8.887" transform="translate(0.165 0.164)"/>
    <path id="Path_1045" data-name="Path 1045" d="M76.663,18l-1-3.122c-.244-.771-.451-1.632-.639-2.365h-.038c-.183.734-.376,1.613-.6,2.365L73.414,18Zm-3.625,1.744-1.091,3.592H69.559l4.063-12.667h2.948l4.114,12.667H78.206l-1.147-3.592" transform="translate(14.171 2.174)" fill="#fff"/>
    <path id="Path_1046" data-name="Path 1046" d="M82.1,13.594l1.486,4.636c.263.809.447,1.542.616,2.295h.056c.169-.752.376-1.467.621-2.295l1.467-4.636h2.422l-3.494,9.15H83l-3.4-9.15" transform="translate(16.215 2.77)" fill="#fff"/>
    <path id="Path_1047" data-name="Path 1047" d="M93.933,18.3c-1.636-.019-3.2.32-3.2,1.711a1.214,1.214,0,0,0,1.317,1.317,1.893,1.893,0,0,0,1.82-1.26,1.447,1.447,0,0,0,.061-.508Zm2.252,2.276a12.269,12.269,0,0,0,.15,2.2H94.248l-.165-1.011h-.061a3.342,3.342,0,0,1-2.7,1.218,2.711,2.711,0,0,1-2.873-2.722c0-2.295,2.045-3.475,5.426-3.456v-.15c0-.6-.24-1.6-1.857-1.6a4.851,4.851,0,0,0-2.464.677l-.451-1.5a6.6,6.6,0,0,1,3.31-.8c2.929,0,3.776,1.857,3.776,3.87" transform="translate(18.019 2.734)" fill="#fff"/>
    <path id="Path_1048" data-name="Path 1048" d="M97.612,14.24h2.309v9.15H97.612Zm1.143-1.317a1.306,1.306,0,1,1,.023,0" transform="translate(19.859 2.123)" fill="#fff"/>
    <path id="Path_1049" data-name="Path 1049" d="M102.27,23.457h2.312V10.094H102.27Zm0,0" transform="translate(20.835 2.056)" fill="#fff"/>
    <path id="Path_1050" data-name="Path 1050" d="M111.925,18.3c-1.636-.019-3.2.32-3.2,1.711a1.214,1.214,0,0,0,1.317,1.317,1.9,1.9,0,0,0,1.824-1.26,1.558,1.558,0,0,0,.057-.508Zm2.252,2.276a12.236,12.236,0,0,0,.15,2.2h-2.082l-.17-1.011h-.057a3.358,3.358,0,0,1-2.708,1.218,2.713,2.713,0,0,1-2.872-2.722c0-2.295,2.05-3.475,5.43-3.456v-.15c0-.6-.244-1.6-1.862-1.6a4.821,4.821,0,0,0-2.459.677l-.451-1.5a6.582,6.582,0,0,1,3.305-.8c2.93,0,3.776,1.857,3.776,3.87" transform="translate(21.684 2.734)" fill="#fff"/>
    <path id="Path_1051" data-name="Path 1051" d="M117.908,19.676a2.572,2.572,0,0,0,.057.545,2.112,2.112,0,0,0,2.045,1.618c1.448,0,2.333-1.147,2.333-3,0-1.618-.772-2.934-2.314-2.934a2.146,2.146,0,0,0-2.046,1.693,2.785,2.785,0,0,0-.075.6Zm-2.314-9.583h2.314v5.468h.037a3.3,3.3,0,0,1,2.93-1.462c2.238,0,3.831,1.857,3.813,4.641,0,3.287-2.084,4.923-4.152,4.923a3.145,3.145,0,0,1-2.893-1.58h-.037l-.113,1.373H115.52c.037-.621.075-1.636.075-2.558" transform="translate(23.534 2.056)" fill="#fff"/>
    <path id="Path_1052" data-name="Path 1052" d="M125.4,23.457h2.309V10.094H125.4Zm0,0" transform="translate(25.547 2.056)" fill="#fff"/>
    <path id="Path_1053" data-name="Path 1053" d="M135.849,17.235A1.968,1.968,0,0,0,133.954,15a2.263,2.263,0,0,0-2.126,2.238Zm-4.02,1.613c.057,1.655,1.354,2.37,2.822,2.37a7.362,7.362,0,0,0,2.534-.414l.339,1.575a8.14,8.14,0,0,1-3.193.583c-2.971,0-4.721-1.82-4.721-4.617,0-2.539,1.543-4.923,4.477-4.923,2.967,0,3.945,2.44,3.945,4.453a5.629,5.629,0,0,1-.075.973" transform="translate(26.404 2.734)" fill="#fff"/>
    <path id="Path_1054" data-name="Path 1054" d="M146.93,21.312c1.311,0,2.233-1.279,2.233-3.136,0-1.429-.639-3.085-2.215-3.085-1.636,0-2.294,1.6-2.294,3.122,0,1.763.884,3.1,2.252,3.1Zm-.076,1.674a4.423,4.423,0,0,1-4.584-4.716A4.514,4.514,0,0,1,147,13.422a4.389,4.389,0,0,1,4.546,4.7,4.53,4.53,0,0,1-4.678,4.867" transform="translate(28.983 2.734)" fill="#fff"/>
    <path id="Path_1055" data-name="Path 1055" d="M152.25,16.351c0-1.053-.033-1.937-.07-2.727h2.008L154.3,15h.057a3.361,3.361,0,0,1,2.935-1.575c1.594,0,3.249,1.03,3.249,3.926v5.426h-2.314V17.611c0-1.317-.489-2.313-1.744-2.313a1.941,1.941,0,0,0-1.806,1.354,2.132,2.132,0,0,0-.113.733v5.389H152.25" transform="translate(31.002 2.734)" fill="#fff"/>
    <path id="Path_1056" data-name="Path 1056" d="M168.578,11.641v2.346h2.2v1.73h-2.2v4.02c0,1.128.3,1.693,1.18,1.693a3.013,3.013,0,0,0,.9-.094l.037,1.744a4.945,4.945,0,0,1-1.673.245,2.663,2.663,0,0,1-1.99-.748A3.614,3.614,0,0,1,166.3,20V15.717H165v-1.73h1.3V12.28" transform="translate(33.615 2.372)" fill="#fff"/>
    <path id="Path_1057" data-name="Path 1057" d="M171.934,10.094h2.312v5.45h.039a3.037,3.037,0,0,1,1.147-1.034,3.29,3.29,0,0,1,1.594-.409c1.561,0,3.192,1.03,3.192,3.964v5.393h-2.309V18.308c0-1.317-.489-2.332-1.767-2.332a1.928,1.928,0,0,0-1.8,1.3,2.063,2.063,0,0,0-.1.7v5.487h-2.312" transform="translate(35.026 2.056)" fill="#fff"/>
    <path id="Path_1058" data-name="Path 1058" d="M187.3,17.235A1.969,1.969,0,0,0,185.4,15a2.259,2.259,0,0,0-2.121,2.238Zm-4.02,1.613c.057,1.655,1.349,2.37,2.817,2.37a7.333,7.333,0,0,0,2.535-.414l.343,1.575a8.148,8.148,0,0,1-3.2.583,4.326,4.326,0,0,1-4.715-4.617c0-2.539,1.542-4.923,4.471-4.923,2.967,0,3.946,2.44,3.946,4.453a5.6,5.6,0,0,1-.076.973" transform="translate(36.887 2.734)" fill="#fff"/>
    <path id="Path_1059" data-name="Path 1059" d="M54.272,33.839a11.258,11.258,0,0,1,5.37-9.46,11.543,11.543,0,0,0-9.1-4.918c-3.823-.4-7.533,2.295-9.479,2.295-1.989,0-4.994-2.252-8.224-2.186a12.118,12.118,0,0,0-10.194,6.216c-4.4,7.631-1.119,18.841,3.1,25.01,2.116,3.019,4.58,6.395,7.81,6.272,3.16-.132,4.34-2.013,8.153-2.013,3.78,0,4.89,2.013,8.186,1.937,3.39-.056,5.525-3.033,7.561-6.084a24.793,24.793,0,0,0,3.461-7.044,10.9,10.9,0,0,1-6.649-10.025" transform="translate(4.188 3.956)" fill="#fff"/>
    <path id="Path_1060" data-name="Path 1060" d="M44.652,17.432a11.087,11.087,0,0,0,2.539-7.956,11.325,11.325,0,0,0-7.307,3.78,10.554,10.554,0,0,0-2.6,7.66,9.326,9.326,0,0,0,7.373-3.484" transform="translate(7.583 1.931)" fill="#fff"/>
    <path id="Path_1061" data-name="Path 1061" d="M82.656,43.885l-2.182-6.738q-.346-1.03-1.3-4.857H79.1c-.254,1.1-.668,2.718-1.227,4.857l-2.144,6.738ZM90.2,54.649H85.793l-2.412-7.58H75l-2.3,7.58H68.414l8.313-25.8h5.125" transform="translate(13.938 5.876)" fill="#fff"/>
    <path id="Path_1062" data-name="Path 1062" d="M103.082,44.115a7.66,7.66,0,0,0-1.228-4.481,4.236,4.236,0,0,0-3.6-1.838,4.291,4.291,0,0,0-2.774,1.016,4.758,4.758,0,0,0-1.632,2.666,5.366,5.366,0,0,0-.188,1.255v3.1A4.974,4.974,0,0,0,94.9,49.264a4.12,4.12,0,0,0,3.235,1.4,4.206,4.206,0,0,0,3.635-1.8,7.868,7.868,0,0,0,1.307-4.744m4.213-.155a10.57,10.57,0,0,1-2.568,7.5,7.5,7.5,0,0,1-5.7,2.45,5.708,5.708,0,0,1-5.285-2.643h-.075v9.8H89.525V41.012q0-2.984-.15-6.127H93.01l.23,2.953h.08a7.349,7.349,0,0,1,11.77-.729,10.27,10.27,0,0,1,2.205,6.851" transform="translate(18.208 7.029)" fill="#fff"/>
    <path id="Path_1063" data-name="Path 1063" d="M120.858,44.115a7.667,7.667,0,0,0-1.227-4.481,4.239,4.239,0,0,0-3.6-1.838,4.3,4.3,0,0,0-2.773,1.016,4.692,4.692,0,0,0-1.623,2.666,5.19,5.19,0,0,0-.193,1.255v3.1a4.973,4.973,0,0,0,1.236,3.428,4.125,4.125,0,0,0,3.24,1.4,4.218,4.218,0,0,0,3.634-1.8,7.927,7.927,0,0,0,1.3-4.744m4.208-.155a10.568,10.568,0,0,1-2.563,7.5,7.491,7.491,0,0,1-5.7,2.45,5.719,5.719,0,0,1-5.286-2.643h-.07v9.8h-4.138V41.012q0-2.984-.15-6.127h3.635l.23,2.953h.081a7.349,7.349,0,0,1,11.769-.729,10.259,10.259,0,0,1,2.2,6.851" transform="translate(21.83 7.029)" fill="#fff"/>
    <path id="Path_1064" data-name="Path 1064" d="M144.628,47.477a6.884,6.884,0,0,1-2.294,5.36,10.166,10.166,0,0,1-7.025,2.257,12.34,12.34,0,0,1-6.7-1.608l.959-3.442a11.367,11.367,0,0,0,5.981,1.641,5.653,5.653,0,0,0,3.639-1.049,3.454,3.454,0,0,0,1.3-2.821,3.6,3.6,0,0,0-1.066-2.647,10.054,10.054,0,0,0-3.564-1.994q-6.778-2.532-6.776-7.4a6.547,6.547,0,0,1,2.375-5.215,9.374,9.374,0,0,1,6.315-2.036,12.561,12.561,0,0,1,5.858,1.227L142.6,33.122a10.167,10.167,0,0,0-4.936-1.19,4.983,4.983,0,0,0-3.4,1.072,3.078,3.078,0,0,0-1.035,2.337,3.141,3.141,0,0,0,1.186,2.525,13.467,13.467,0,0,0,3.752,1.994,12.718,12.718,0,0,1,4.9,3.136,6.588,6.588,0,0,1,1.571,4.481" transform="translate(26.201 5.811)" fill="#fff"/>
    <path id="Path_1065" data-name="Path 1065" d="M155.188,38.707h-4.557V47.74q0,3.449,2.417,3.447A7.437,7.437,0,0,0,154.882,51l.112,3.136a9.174,9.174,0,0,1-3.212.461,4.974,4.974,0,0,1-3.831-1.491q-1.376-1.5-1.378-5.017V38.707h-2.718V35.6h2.718V32.2l4.058-1.227V35.6h4.557" transform="translate(29.307 6.31)" fill="#fff"/>
    <path id="Path_1066" data-name="Path 1066" d="M169.147,44.171a8.381,8.381,0,0,0-1.115-4.415,4.074,4.074,0,0,0-3.71-2.229,4.142,4.142,0,0,0-3.789,2.229,8.545,8.545,0,0,0-1.105,4.5,8.35,8.35,0,0,0,1.105,4.41,4.173,4.173,0,0,0,3.757,2.229A4.128,4.128,0,0,0,168,48.624a8.355,8.355,0,0,0,1.147-4.453m4.289-.132a10.19,10.19,0,0,1-2.451,7.044,8.74,8.74,0,0,1-6.813,2.831A8.332,8.332,0,0,1,157.64,51.2a9.9,9.9,0,0,1-2.425-6.851,10.091,10.091,0,0,1,2.506-7.081,8.658,8.658,0,0,1,6.752-2.76,8.505,8.505,0,0,1,6.588,2.718,9.819,9.819,0,0,1,2.375,6.818" transform="translate(31.621 7.029)" fill="#fff"/>
    <path id="Path_1067" data-name="Path 1067" d="M183.2,38.524a7.193,7.193,0,0,0-1.3-.113,3.916,3.916,0,0,0-3.372,1.646,6.217,6.217,0,0,0-1.03,3.672V53.5h-4.132l.033-12.747q0-3.223-.15-5.863h3.6l.15,3.564h.108a6.393,6.393,0,0,1,2.069-2.948,5.023,5.023,0,0,1,2.99-1,6.84,6.84,0,0,1,1.035.075" transform="translate(35.294 7.029)" fill="#fff"/>
    <path id="Path_1068" data-name="Path 1068" d="M195.729,42.245a5.632,5.632,0,0,0-.8-3.179,3.624,3.624,0,0,0-3.3-1.726,3.932,3.932,0,0,0-3.291,1.688,6.111,6.111,0,0,0-1.218,3.216Zm3.94,1.072a10.1,10.1,0,0,1-.146,1.876h-12.4a5.372,5.372,0,0,0,1.8,4.213,6.131,6.131,0,0,0,4.059,1.3,13.719,13.719,0,0,0,5.016-.879l.65,2.873A15.651,15.651,0,0,1,192.4,53.85a9.011,9.011,0,0,1-6.794-2.553,9.4,9.4,0,0,1-2.469-6.832,10.637,10.637,0,0,1,2.3-7.006,7.909,7.909,0,0,1,6.5-2.986,6.933,6.933,0,0,1,6.094,2.986,10.039,10.039,0,0,1,1.636,5.859" transform="translate(37.309 7.023)" fill="#fff"/>
  </g>
</svg>
