<svg xmlns="http://www.w3.org/2000/svg" width="65.873" height="68" viewBox="0 0 65.873 68">
  <g id="wallet_2_" data-name="wallet (2)" transform="translate(-8.008 0)">
    <g id="Group_961" data-name="Group 961" transform="translate(8.008 0)">
      <g id="Group_960" data-name="Group 960" transform="translate(0 0)">
        <path id="Path_47956" data-name="Path 47956" d="M71.7,39.83H70.685V30.664a4.3,4.3,0,0,0-1.825-3.517V25.9a3.287,3.287,0,0,0-3.283-3.283h-.76l2.907-4.266A3.142,3.142,0,0,0,66.9,13.99L47.171.546a3.138,3.138,0,0,0-4.361.826L25.784,26.357H21.046l1.143-11.572A.343.343,0,0,1,22.4,14.5,7.366,7.366,0,0,0,26,11.578a.341.341,0,0,1,.322-.151l7.432.734a.969.969,0,1,0,.19-1.928L26.511,9.5a2.268,2.268,0,0,0-2.147,1.039,5.416,5.416,0,0,1-2.642,2.147,2.265,2.265,0,0,0-1.461,1.911L19.1,26.357H17.863l1.808-18.3a1.2,1.2,0,0,1,1.313-1.077L36,8.462a.969.969,0,1,0,.19-1.928L21.174,5.05a3.142,3.142,0,0,0-3.432,2.815L16.285,22.616H13.8A3.287,3.287,0,0,0,10.52,25.9v.851a4.311,4.311,0,0,0-2.512,3.913v33.03A4.311,4.311,0,0,0,12.315,68H66.378a4.311,4.311,0,0,0,4.307-4.307V54.528H71.7a2.181,2.181,0,0,0,2.178-2.178V42.008A2.181,2.181,0,0,0,71.7,39.83ZM65.577,24.554h0A1.347,1.347,0,0,1,66.922,25.9v.494a4.318,4.318,0,0,0-.543-.035H62.267l1.229-1.8ZM44.412,2.463a1.193,1.193,0,0,1,.769-.5,1.218,1.218,0,0,1,.226-.021,1.193,1.193,0,0,1,.673.209L65.807,15.591a1.2,1.2,0,0,1,.316,1.668l-6.2,9.1H58.434l3.04-4.461a2.265,2.265,0,0,0,.106-2.4,5.415,5.415,0,0,1-.649-3.342,2.266,2.266,0,0,0-.98-2.175L49.724,7.007a2.266,2.266,0,0,0-2.383-.117,5.416,5.416,0,0,1-3.348.618,2.294,2.294,0,0,0-2.2.977L29.617,26.357H28.129Zm.427,16.454a8,8,0,0,0-7.966,7.439H31.962L43.4,9.577h0a.346.346,0,0,1,.283-.152.33.33,0,0,1,.044,0,7.367,7.367,0,0,0,4.553-.841.342.342,0,0,1,.355.022l10.226,6.969a.343.343,0,0,1,.15.322,7.365,7.365,0,0,0,.883,4.546.344.344,0,0,1-.019.359l-3.784,5.552H52.8A8,8,0,0,0,44.839,18.918Zm6.023,7.44H38.816a6.047,6.047,0,0,1,12.045,0Zm-38.4-.458A1.347,1.347,0,0,1,13.8,24.554h2.29l-.178,1.8H12.458ZM9.946,30.664A2.371,2.371,0,0,1,12.315,28.3H66.378a2.371,2.371,0,0,1,2.369,2.369v2.689H9.946Zm58.8,33.03a2.371,2.371,0,0,1-2.369,2.369H12.315a2.371,2.371,0,0,1-2.369-2.369V61.005h5.225a.969.969,0,0,0,0-1.938H9.946V35.29h58.8v4.54H59.534a7.357,7.357,0,0,0-6.61,4.141L52.911,44c-.01.021-.019.042-.029.063a7.307,7.307,0,0,0-.366.937v0a7.351,7.351,0,0,0,7.019,9.529h9.213v4.54H21.375a.969.969,0,0,0,0,1.938H68.747Zm3.2-11.344a.241.241,0,0,1-.241.24H59.534a5.416,5.416,0,0,1-4.757-2.834q-.063-.115-.12-.233-.114-.236-.205-.485a5.417,5.417,0,0,1,0-3.717q.091-.248.205-.485.057-.118.12-.233a5.416,5.416,0,0,1,4.757-2.834H71.7a.241.241,0,0,1,.241.24Z" transform="translate(-8.008 0)" fill="#2b7b74"/>
      </g>
    </g>
    <g id="Group_963" data-name="Group 963" transform="translate(55.83 43.248)">
      <g id="Group_962" data-name="Group 962">
        <path id="Path_47957" data-name="Path 47957" d="M372.012,325.627a3.931,3.931,0,1,0,3.931,3.931A3.936,3.936,0,0,0,372.012,325.627Zm0,5.924a1.993,1.993,0,1,1,1.993-1.993A2,2,0,0,1,372.012,331.552Z" transform="translate(-368.081 -325.627)" fill="#2b7b74"/>
      </g>
    </g>
  </g>
</svg>
