<svg xmlns="http://www.w3.org/2000/svg" width="93.169" height="68" viewBox="0 0 93.169 68">
  <g id="money_5_" data-name="money (5)" transform="translate(0 -6.482)">
    <path id="Path_47951" data-name="Path 47951" d="M74.627,63.567H1.941A1.941,1.941,0,0,1,0,61.626v-41.6a1.941,1.941,0,0,1,1.941-1.941H74.627a1.941,1.941,0,0,1,1.941,1.941v41.6A1.941,1.941,0,0,1,74.627,63.567ZM3.882,59.685h68.8V21.963H3.882Z" transform="translate(0 10.915)" fill="#2b7b74"/>
    <path id="Path_47952" data-name="Path 47952" d="M58.871,54.834H11.225a1.941,1.941,0,0,1-1.941-1.941,3.9,3.9,0,0,0-3.9-3.9,1.941,1.941,0,0,1-1.941-1.941V28.891A1.941,1.941,0,0,1,5.386,26.95a3.9,3.9,0,0,0,3.9-3.9,1.941,1.941,0,0,1,1.941-1.941H58.871a1.941,1.941,0,0,1,1.941,1.941,3.9,3.9,0,0,0,3.882,3.9,1.941,1.941,0,0,1,1.941,1.941V47.057A1.941,1.941,0,0,1,64.694,49a3.9,3.9,0,0,0-3.9,3.9,1.941,1.941,0,0,1-1.927,1.941ZM12.929,50.952H57.184a7.813,7.813,0,0,1,5.569-5.6V30.585a7.809,7.809,0,0,1-5.592-5.592H12.919a7.8,7.8,0,0,1-5.592,5.592V45.352a7.809,7.809,0,0,1,5.592,5.6Z" transform="translate(3.242 13.766)" fill="#2b7b74"/>
    <path id="Path_47953" data-name="Path 47953" d="M24.912,45.684a10.7,10.7,0,1,1,10.7-10.7A10.7,10.7,0,0,1,24.912,45.684Zm0-17.514a6.817,6.817,0,1,0,6.815,6.819,6.817,6.817,0,0,0-6.815-6.819Z" transform="translate(13.373 16.754)" fill="#2b7b74"/>
    <path id="Path_47954" data-name="Path 47954" d="M73.072,57.942a1.941,1.941,0,0,1-.194-3.872l2.24-.235-3.94-37.514L8.69,22.881a1.942,1.942,0,1,1-.406-3.863L72.7,12.256a1.941,1.941,0,0,1,2.135,1.728l4.346,41.377A1.941,1.941,0,0,1,77.449,57.5l-4.171.439c-.07,0-.138.008-.206.008Z" transform="translate(6.159 5.424)" fill="#2b7b74"/>
    <path id="Path_47955" data-name="Path 47955" d="M78.99,51.836a1.941,1.941,0,0,1-.365-3.847l1.264-.243L72.781,10.7,11.947,22.369a1.944,1.944,0,0,1-.732-3.818L73.957,6.517a1.941,1.941,0,0,1,2.271,1.539l7.838,40.861a1.941,1.941,0,0,1-1.541,2.271l-3.168.608A1.987,1.987,0,0,1,78.99,51.836Z" transform="translate(9.069 0)" fill="#2b7b74"/>
  </g>
</svg>
