<svg id="bank" xmlns="http://www.w3.org/2000/svg" width="24.059" height="24" viewBox="0 0 24.059 24">
  <path id="Path_47180" data-name="Path 47180" d="M75.035,175.3H92.14v12.444H75.035Zm0,0" transform="translate(-71.51 -167.067)" fill="#95a5a5"/>
  <path id="Path_47181" data-name="Path 47181" d="M406.07,190.754h2.9v10.854h-2.9Zm0,0" transform="translate(-386.989 -181.791)" fill="#d1d4d1"/>
  <path id="Path_47182" data-name="Path 47182" d="M47.041,209.121h-2.9V198.84h2.9Zm0,0" transform="translate(-42.063 -189.497)" fill="#d1d4d1"/>
  <g id="Group_809" data-name="Group 809" transform="translate(1.244 8.03)">
    <path id="Path_47183" data-name="Path 47183" d="M388.414,170.891h4.563v1.037a.829.829,0,0,1-.829.829h-2.9a.829.829,0,0,1-.83-.829Zm0,0" transform="translate(-371.407 -170.891)" fill="#bdc3c7"/>
    <path id="Path_47184" data-name="Path 47184" d="M389.243,404.82h2.9a.83.83,0,0,1,.829.83v1.037h-4.563V405.65a.83.83,0,0,1,.83-.83Zm0,0" transform="translate(-371.407 -393.828)" fill="#bdc3c7"/>
    <path id="Path_47185" data-name="Path 47185" d="M30.218,172.757h-2.9a.829.829,0,0,1-.829-.829V170.89h4.563v1.037A.829.829,0,0,1,30.218,172.757Zm0,0" transform="translate(-26.485 -170.89)" fill="#bdc3c7"/>
    <path id="Path_47186" data-name="Path 47186" d="M31.047,406.687H26.484V405.65a.83.83,0,0,1,.829-.83h2.9a.83.83,0,0,1,.83.83Zm0,0" transform="translate(-26.484 -393.828)" fill="#bdc3c7"/>
  </g>
  <path id="Path_47187" data-name="Path 47187" d="M17.656,128.52H40.47V130.3a.415.415,0,0,1-.415.415H18.071a.415.415,0,0,1-.415-.415Zm0,0" transform="translate(-16.827 -122.481)" fill="#285680"/>
  <path id="Path_47188" data-name="Path 47188" d="M18.07,440.133H40.055a.415.415,0,0,1,.415.415v2.074H17.656v-2.074a.415.415,0,0,1,.415-.415Zm0,0" transform="translate(-16.826 -419.451)" fill="#285680"/>
  <path id="Path_47189" data-name="Path 47189" d="M23.644,6.577H.415A.415.415,0,0,1,0,6.163V3.979a.415.415,0,0,1,.29-.4L11.66.055a1.241,1.241,0,0,1,.738,0l11.37,3.528a.415.415,0,0,1,.29.4V6.163a.415.415,0,0,1-.415.415Zm0,0" transform="translate(0 0.001)" fill="#4482c3"/>
  <path id="Path_47190" data-name="Path 47190" d="M35.309,39.361v-.022l10.246-3.18a.415.415,0,0,1,.246,0l10.249,3.18v.022Zm0,0" transform="translate(-33.649 -34.442)" fill="#285680"/>
  <path id="Path_47191" data-name="Path 47191" d="M168.024,215.176a4.563,4.563,0,1,1-4.563-4.563A4.563,4.563,0,0,1,168.024,215.176Zm0,0" transform="translate(-151.432 -200.717)" fill="#7ed09e"/>
  <path id="Path_47192" data-name="Path 47192" d="M222.351,249.244a1.659,1.659,0,1,1,1.659-1.659.415.415,0,1,1-.829,0,.83.83,0,1,0-.83.83.415.415,0,0,1,0,.83Zm0,0" transform="translate(-210.321 -234.37)" fill="#24ae5f"/>
  <path id="Path_47193" data-name="Path 47193" d="M222.351,302.209a1.659,1.659,0,0,1-1.659-1.659.415.415,0,1,1,.829,0,.83.83,0,1,0,.83-.83.415.415,0,0,1,0-.83,1.659,1.659,0,0,1,0,3.318Zm0,0" transform="translate(-210.321 -284.846)" fill="#24ae5f"/>
  <path id="Path_47194" data-name="Path 47194" d="M247.587,243.735a.415.415,0,0,1-.415-.415v-5.807a.415.415,0,1,1,.83,0v5.807A.415.415,0,0,1,247.587,243.735Zm0,0" transform="translate(-235.557 -225.957)" fill="#24ae5f"/>
  <path id="Path_47195" data-name="Path 47195" d="M.415,475.441H23.644a.415.415,0,0,1,.415.415v.83a.415.415,0,0,1-.415.415H.415A.415.415,0,0,1,0,476.685v-.83a.415.415,0,0,1,.415-.415Zm0,0" transform="translate(0 -453.101)" fill="#4482c3"/>
</svg>
