<svg xmlns="http://www.w3.org/2000/svg" width="33.069" height="32" viewBox="0 0 33.069 32">
  <path id="gavel" d="M21.175,27.223l-.188.188a1.478,1.478,0,0,0,0,2.085L22.44,30.95a1.476,1.476,0,0,0,2.085,0l7.044-7.044a1.477,1.477,0,0,0,0-2.085l-1.454-1.454a1.477,1.477,0,0,0-2.085,0l-.188.188c-4.341-3.09-5.031-3.78-8.122-8.121l.188-.188a1.478,1.478,0,0,0,0-2.085L18.456,8.707a1.477,1.477,0,0,0-2.085,0L9.326,15.751a1.478,1.478,0,0,0,0,2.085L10.78,19.29a1.477,1.477,0,0,0,2.085,0l.188-.188c1.176.837,2.087,1.5,2.847,2.1L.562,35.827A1.759,1.759,0,0,0,0,37.017a1.544,1.544,0,0,0,.452,1.211l1.592,1.592a1.533,1.533,0,0,0,1.111.455l.1,0a1.759,1.759,0,0,0,1.191-.559L19.07,24.376c.6.76,1.267,1.67,2.1,2.847Zm7.9-6.393a.577.577,0,0,1,.411.169l1.454,1.454a.582.582,0,0,1,0,.821l-7.044,7.044a.582.582,0,0,1-.822,0l-1.454-1.454a.582.582,0,0,1,0-.821L28.663,21A.576.576,0,0,1,29.073,20.83ZM11.412,18.658,9.958,17.2a.584.584,0,0,1,0-.821L17,9.339a.581.581,0,0,1,.822,0l1.454,1.454a.583.583,0,0,1,0,.821L12.7,18.191h0l-.466.466a.582.582,0,0,1-.822,0Zm7.668-5.583c3.042,4.265,3.856,5.08,8.121,8.121l-5.386,5.386c-3.042-4.266-3.856-5.08-8.121-8.121ZM3.8,39.1a.857.857,0,0,1-.593.283.65.65,0,0,1-.529-.192L1.088,37.6A.648.648,0,0,1,.9,37.067a.855.855,0,0,1,.283-.594L16.594,21.78a17.079,17.079,0,0,1,1.9,1.9Zm29.249.605-.785-2.674a1.476,1.476,0,0,0-1.426-1.068H19.617a1.476,1.476,0,0,0-1.426,1.068L17.406,39.7a.447.447,0,0,0,.429.573H32.623a.447.447,0,0,0,.429-.573Zm-14.62-.321.617-2.1a.581.581,0,0,1,.569-.425H30.84a.581.581,0,0,1,.569.426l.617,2.1Z" transform="translate(0 -8.276)" fill="#0491e8"/>
</svg>
