<svg id="Layer_2" data-name="Layer 2" xmlns="http://www.w3.org/2000/svg" width="24" height="24" viewBox="0 0 24 24">
  <g id="invisible_box" data-name="invisible box">
    <rect id="Rectangle_50" data-name="Rectangle 50" width="24" height="24" fill="none"/>
  </g>
  <g id="icons_Q2" data-name="icons Q2" transform="translate(1 1.046)">
    <path id="Path_46796" data-name="Path 46796" d="M2.1,13.046a11,11,0,0,0,21.95,1H11.5l2.3,2.3a.95.95,0,0,1-.1,1.5,1,1,0,0,1-1.35-.15L8.4,13.746a.95.95,0,0,1,0-1.4l3.95-4A1.15,1.15,0,0,1,13.7,8.2a1,1,0,0,1,.1,1.55l-2.3,2.3H24.05a11,11,0,0,0-21.95,1Z" transform="translate(-2.1 -2.093)" fill="#0995eb"/>
  </g>
</svg>
