<svg xmlns="http://www.w3.org/2000/svg" width="35.584" height="36" viewBox="0 0 35.584 36">
  <g id="gavel" transform="translate(-2.631 0)">
    <path id="Path_46784" data-name="Path 46784" d="M24.27,18.1a2.027,2.027,0,0,0,1.162,2.89,1.315,1.315,0,0,1,.845.845,2.043,2.043,0,0,0,.551.864,2.008,2.008,0,0,0,1.375.532,2.091,2.091,0,0,0,1.48-.609l5.769-5.769A2.073,2.073,0,0,0,35.529,14a2.043,2.043,0,0,0-.864-.551,1.315,1.315,0,0,1-.845-.845,2.027,2.027,0,0,0-2.89-1.162l-6.31-6.31a2.027,2.027,0,0,0-1.162-2.89,1.315,1.315,0,0,1-.845-.845,2.043,2.043,0,0,0-.551-.864,2.073,2.073,0,0,0-2.854.077L13.438,6.379a2.073,2.073,0,0,0-.077,2.854,2.043,2.043,0,0,0,.864.551,1.316,1.316,0,0,1,.845.845,2.042,2.042,0,0,0,.551.864A2.009,2.009,0,0,0,17,12.025a2.109,2.109,0,0,0,.965-.234l1.775,1.775L3.266,30.035a2.171,2.171,0,0,0,3.07,3.07L22.8,16.636Zm10.508-3.4h0a1.039,1.039,0,0,1-.052,1.429L28.957,21.9a1.039,1.039,0,0,1-1.429.052,1,1,0,0,1-.274-.429,2.324,2.324,0,0,0-.25-.53l6.815-6.815a2.327,2.327,0,0,0,.53.25A1,1,0,0,1,34.778,14.7Zm-2.209-2.209a1,1,0,0,1,.274.429,2.326,2.326,0,0,0,.25.53l-6.815,6.815a2.327,2.327,0,0,0-.53-.25,1,1,0,0,1-.429-.274,1.039,1.039,0,0,1,.051-1.429l2.885-2.885,2.885-2.885a1.067,1.067,0,0,1,.753-.312A.986.986,0,0,1,32.569,12.491ZM14.111,8.534A1.039,1.039,0,0,1,14.163,7.1l5.769-5.769a1.066,1.066,0,0,1,.753-.312.987.987,0,0,1,.676.26,1,1,0,0,1,.274.429,2.326,2.326,0,0,0,.25.53L15.071,9.057a2.327,2.327,0,0,0-.53-.25A1,1,0,0,1,14.111,8.534Zm2.209,2.209a1,1,0,0,1-.274-.429,2.326,2.326,0,0,0-.25-.53l6.815-6.815a2.327,2.327,0,0,0,.53.25,1,1,0,0,1,.429.274h0a1.039,1.039,0,0,1-.052,1.429L17.749,10.69A1.039,1.039,0,0,1,16.32,10.742Zm7.644-4.815,6.17,6.17-2.6,2.6-2.6,2.6-6.17-6.17ZM5.61,32.379a1.144,1.144,0,1,1-1.619-1.619L20.461,14.292l1.619,1.619Z" transform="translate(0 0)" fill="#048e81"/>
    <path id="Path_46785" data-name="Path 46785" d="M222.665,365.891a.512.512,0,0,0-.1-.312l-2.088-2.727v-1.247a.513.513,0,0,0-.513-.513H205.594a.513.513,0,0,0-.513.513v1.247l-2.088,2.727a.512.512,0,0,0-.1.312v2.186a.513.513,0,0,0,.513.513h18.752a.513.513,0,0,0,.513-.513Zm-16.558-3.773h13.339v.395H206.107Zm-.26,1.421h13.859l1.408,1.839H204.44Zm-1.934,4.026V366.4H221.64v1.16Z" transform="translate(-184.45 -332.59)" fill="#048e81"/>
    <path id="Path_46786" data-name="Path 46786" d="M272,97.149a.513.513,0,0,0,.726-.726l-4.22-4.22a.513.513,0,0,0-.726.726Z" transform="translate(-244.085 -84.786)" fill="#048e81"/>
  </g>
</svg>
