<svg id="icons_Q2" data-name="icons Q2" xmlns="http://www.w3.org/2000/svg" xmlns:xlink="http://www.w3.org/1999/xlink" width="33" height="33" viewBox="0 0 33 33">
  <defs>
    <linearGradient id="linear-gradient" x1="0.5" x2="0.5" y2="1" gradientUnits="objectBoundingBox">
      <stop offset="0" stop-color="#048e81"/>
      <stop offset="1" stop-color="#0995eb"/>
    </linearGradient>
  </defs>
  <path id="Path_47152" data-name="Path 47152" d="M18.5,5A13.5,13.5,0,1,1,5,18.5,13.5,13.5,0,0,1,18.5,5m0-3A16.425,16.425,0,1,0,30.189,6.811,16.5,16.5,0,0,0,18.5,2Z" transform="translate(-2 -2)" fill="url(#linear-gradient)"/>
  <path id="Path_47153" data-name="Path 47153" d="M8.849,6.781l4.2-4.125A1.575,1.575,0,0,0,13.2.631a1.425,1.425,0,0,0-2.25-.15l-4.2,4.2-4.2-4.2A1.425,1.425,0,0,0,.3.631a1.575,1.575,0,0,0,.15,2.025l4.2,4.125-4.2,4.125A1.575,1.575,0,0,0,.3,12.931a1.425,1.425,0,0,0,2.25.15l4.2-4.2,4.2,4.2a1.425,1.425,0,0,0,2.25-.15,1.575,1.575,0,0,0-.15-2.025Z" transform="translate(16.522 6.933) rotate(45)" fill="url(#linear-gradient)"/>
</svg>
