<svg version="1.2" xmlns="http://www.w3.org/2000/svg" viewBox="0 0 23 19" width="23" height="19"><defs><clipPath clipPathUnits="userSpaceOnUse" id="cp1"><path d="m-446-64h640v360h-640z" /></clipPath></defs><style>.s0{fill:#37a499}.s1{fill:#048e81}.s2{fill:#088e7e}.s3{fill:#088e81}.s4{fill:#0a8e81}.s5{fill:#098f80}.s6{fill:#8d8d8e}.s7{fill:#0c8e81}.s8{fill:#0d8e81}.s9{fill:#0b8e80}.s10{fill:#8e8f90}.s11{fill:#098d80}.s12{fill:#0c8e82}.s13{fill:#8c8c8e}.s14{fill:#138e83}.s15{fill:#939394}.s16{fill:#99989a}.s17{fill:#909091}.s18{fill:#909092}.s19{fill:#919193}.s20{fill:#8b8b8d}.s21{fill:#939393}.s22{fill:#929394}.s23{fill:#189481}.s24{fill:#1d8a82}.s25{fill:#228d7e}.s26{fill:#1d9587}.s27{fill:#ecf8f6}.s28{fill:#f2fafa}.s29{fill:#f4fafa}.s30{fill:#e9f5f5}.s31{fill:#effaf9}.s32{fill:#f8f9f9}.s33{fill:#f9f9fa}.s34{fill:#e8f9f9}.s35{fill:#e0f4f4}.s36{fill:#ddf4f3}.s37{fill:#dededf}.s38{fill:#34a6ec}.s39{fill:#34a7ec}.s40{fill:#0491e8}.s41{fill:#0592e9}.s42{fill:#0892e7}.s43{fill:#0693e8}.s44{fill:#0791e6}.s45{fill:#0792e9}.s46{fill:#3aa8ec}.s47{fill:#0e90df}.s48{fill:#1696e3}.s49{fill:#f9fcfc}.s50{fill:#ffffff}</style><g clip-path="url(#cp1)"><path class="s0" d="m6.8 11.8c-0.4-0.1-0.5-0.4-0.5-0.7q0-3.8 0-7.6q0-1.3 0-2.5q0-0.7 0.7-0.7q4.3 0 8.7 0c0.2 0 0.4 0 0.5 0.2c-0.3 0.6-0.2 1.3-0.2 1.9q0 4.2 0 8.3c0 0.2 0.1 0.4-0.2 0.6c-0.1-0.2-0.1-0.5-0.1-0.7q0-4.5 0-9c0-0.7 0-0.7-0.7-0.7q-3.7 0-7.4 0c-0.6 0-0.6 0-0.6 0.6q0 4.5 0 9c0 0.6 0 0.6 0.5 0.6q3.8 0 7.6 0c0.2 0 0.4 0 0.6 0.1c0.1 0.2-0.1 0.2-0.2 0.2q-0.2 0.1-0.5 0.1q-3.7 0-7.3 0c-0.4 0-0.6 0-0.9 0.3z" /><path class="s1" d="m15.8 11.3c0.2-0.2 0.1-0.3 0.1-0.5q0-4.7 0-9.5c0-0.3 0.1-0.6 0.3-0.8c0.2 0.1 0.2 0.3 0.2 0.5q0 5 0 10.1c0 0.5-0.2 0.7-0.7 0.7q-4.4 0-8.9 0c0-0.4 0.2-0.5 0.6-0.5q3.9 0 7.9 0c0.2 0 0.3 0.1 0.5 0q0-0.1 0-0.1q0 0 0 0.1z" /><path class="s2" d="m21.5 15.6c-0.4-0.3-0.8 0.1-1.3 0c-0.1-0.1-0.2 0-0.3 0.2q-0.2 0.2-0.5 0.3c-0.2 0-0.4 0.1-0.5-0.1c0-0.3 0.3-0.1 0.4-0.2c0.1-0.1 0.2-0.1 0.2-0.2c0-0.1-0.1 0-0.2-0.1c-0.4-0.1-0.6-0.3-0.6-0.7c0.1-0.4 0.3-0.6 0.7-0.6c0.4 0 0.6 0.3 0.6 0.7c0 0.2-0.1 0.4 0.2 0.4c0.4-0.1 0.8 0.1 0.8-0.4c0-0.3 0.1-0.6 0.4-0.7c0.3 0 0.6 0 0.7 0.2c0.2 0.3 0.2 0.6 0.1 0.9q-0.2 0.3-0.7 0.3z" /><path class="s3" d="m17.1 15.6c-0.4 0-0.9-0.2-1.2 0.4c0 0-0.2 0.1-0.3 0.1c-0.2 0-0.4 0.1-0.4-0.1c-0.1-0.3 0.2-0.1 0.3-0.2c0.1-0.1 0.3-0.1 0.3-0.2c0-0.1-0.2 0-0.3-0.1c-0.4-0.1-0.6-0.3-0.5-0.7c0-0.4 0.2-0.6 0.6-0.6c0.4 0 0.6 0.2 0.6 0.6c0 0.4 0.2 0.5 0.6 0.5q0.3-0.1 0.6 0c0.5 0 0.8-0.1 0.7-0.6c0-0.1-0.1-0.2 0.1-0.2c0.1 0 0.2 0 0.2 0.1c0.2 0.5-0.1 1-0.6 1q-0.3 0-0.7 0z" /><path class="s4" d="m14.7 15c0 0.9-0.3 1.2-0.9 1.2c-0.6 0-0.9-0.5-0.9-1q0-0.1 0.1-0.3c0 0 0.2-0.1 0.2-0.1c0.1 0 0 0.2 0 0.2c-0.1 0.6 0.3 1 0.8 0.8c0.1 0 0.2-0.1 0.2-0.2c0.1-0.1-0.1 0-0.2 0c-0.4-0.2-0.7-0.4-0.6-0.8c0.1-0.5 0.4-0.7 0.9-0.6c0.4 0.2 0.4 0.5 0.4 0.8z" /><path class="s5" d="m0.3 14.8q0-0.2 0.1-0.4c0-0.2-0.2-0.5 0.2-0.5c0.3-0.1 0.7-0.2 1 0.2c0.1 0.1 0.2 0.4 0.1 0.5c-0.4 0.3-0.1 0.6 0 0.9c0 0.1 0.2 0.2 0 0.3c-0.1 0.1-0.3 0-0.3-0.1q-0.1-0.3-0.3-0.5c0-0.1-0.1-0.2-0.3-0.1c-0.1 0 0 0.1-0.1 0.2c0 0.2 0.2 0.5-0.1 0.5c-0.4 0-0.2-0.3-0.3-0.5q0-0.3 0-0.5z" /><path class="s3" d="m7 14.6q0-0.3 0-0.6c0-0.1-0.1-0.2 0.1-0.2q0.1 0 0.2 0q0 0.1 0 0.2c0 0.3 0.1 0.4 0.4 0.3c0.4 0 0.6 0.2 0.7 0.6c0 0.5-0.2 0.9-0.7 0.9c-0.4 0.1-0.6-0.1-0.7-0.5c-0.1-0.3 0-0.5 0-0.7z" /><path class="s6" d="m14.6 18.5q-0.9 0-1.8 0c-0.3 0-0.5-0.2-0.5-0.5c0.1-0.3 0.3-0.3 0.5-0.3c0.3 0 0.3 0.2 0.3 0.3c-0.1 0.3 0 0.4 0.2 0.3q0.4 0 0.7 0c0.2 0 0.5 0.2 0.5-0.3c-0.1-0.2 0.2-0.3 0.4-0.3c0.2 0 0.3 0.1 0.3 0.3c-0.1 0.4 0.2 0.3 0.4 0.3c0.3 0.1 0.3-0.1 0.3-0.3c0-0.1-0.1-0.3 0.1-0.3c0.1 0 0 0.2 0 0.3c0 0.2 0.1 0.3 0.4 0.3c0.2 0 0.2-0.1 0.2-0.3c0-0.2-0.1-0.5 0.1-0.7c0.2 0.2 0 0.5 0.1 0.7c0 0.4-0.1 0.5-0.5 0.5c-0.5-0.1-1.1 0-1.7 0z" /><path class="s7" d="m10.3 14.3c0.3 0 0.5 0.2 0.6 0.5c0 0.4-0.3 0.4-0.5 0.4c-0.1 0.1-0.4 0-0.4 0.1c0.1 0.2 0.3 0.2 0.5 0.2c0.1 0 0.3-0.2 0.3 0c0.1 0.2-0.1 0.3-0.3 0.3c-0.2 0.1-0.6 0-0.7-0.2c-0.3-0.3-0.3-0.6-0.2-0.9q0.2-0.4 0.7-0.4z" /><path class="s8" d="m2 15.1c-0.1-0.5 0.3-0.9 0.8-0.8c0.3 0.1 0.5 0.3 0.5 0.6c0 0.3-0.3 0.3-0.5 0.3c-0.1 0.1-0.4-0.1-0.4 0.2c0 0.1 0.3 0.1 0.5 0.1c0.1 0 0.2-0.2 0.3 0c0 0.2-0.1 0.3-0.3 0.3c-0.2 0.1-0.5 0-0.7-0.1c-0.1-0.1-0.2-0.4-0.2-0.6z" /><path class="s9" d="m6.6 15.1c0 0.5-0.2 0.8-0.6 0.7c-0.3 0-0.6-0.1-0.6-0.4c0-0.4 0.2-0.4 0.5-0.5c0.1 0 0.4 0.1 0.3-0.1c0-0.2-0.3-0.2-0.4-0.2c-0.1 0-0.3 0.2-0.3 0c-0.1-0.1 0.1-0.2 0.2-0.3c0.6-0.1 0.9 0.2 0.9 0.8z" /><path class="s10" d="m20.4 18.5c-0.4 0-0.8 0-1.2 0c-0.4 0-0.5-0.1-0.5-0.5c0.1-0.2 0-0.4 0.1-0.7c0.2 0.2 0.1 0.5 0.1 0.7c0 0.3 0.1 0.4 0.3 0.3q0.4 0 0.8 0c0.3 0.1 0.7 0.1 0.6-0.4c0-0.1 0-0.2 0.1-0.2c0 0 0 0.1 0 0.2c0.1 0.1-0.1 0.3 0.1 0.4c0.2 0.1 0.5 0.2 0.5-0.3c0 0-0.1-0.3 0.2-0.1c0 0 0.1-0.1 0.1-0.1c0.1-0.1 0.3-0.2 0.4-0.1c0.3 0.2 0.2 0.4 0.2 0.6c0 0.2-0.2 0.2-0.3 0.2q-0.7 0-1.5 0z" /><path class="s11" d="m8.7 14.7q0-0.3 0-0.6c0.1-0.1 0-0.3 0.2-0.3q0.1 0 0.2 0.1q0 0.1 0 0.2q0 0.5 0 0.9c0 0.2-0.1 0.5 0.3 0.5q0 0 0.1 0.1q0 0-0.1 0.1c0 0-0.1 0.1-0.2 0.1q-0.4 0-0.5-0.5q0-0.3 0-0.6z" /><path class="s12" d="m4 14.8c0.1 0.2-0.2 0.6 0.3 0.8c0.1 0 0 0.2-0.2 0.2c-0.3 0-0.5-0.1-0.5-0.4q0-0.7 0-1.3c0-0.1 0-0.3 0.1-0.3c0.2 0 0.3 0.1 0.3 0.3q0 0.3 0 0.7z" /><path class="s13" d="m6.6 18.2c0 0.1 0.1 0.2 0 0.2c-0.1 0-0.1-0.1-0.1-0.2q0 0 0-0.1q-0.1-0.2-0.1-0.4q-0.1 0.2-0.2 0.4c0 0.1 0 0.4-0.2 0.3c-0.2 0-0.1-0.2-0.2-0.4c-0.1-0.1 0-0.2-0.2-0.2q0 0.1 0 0.2q0 0.2-0.1 0.3c0 0.1 0 0.2-0.1 0.1c0 0 0 0 0-0.1q0-0.4 0.1-0.8c0-0.1 0-0.2 0.1-0.2c0.1 0 0.1 0.1 0.2 0.2q0.1 0.3 0.2 0.6q0.1-0.3 0.3-0.6c0-0.1 0.1-0.1 0.1-0.1c0.1 0 0.1 0.1 0.1 0.1q0.1 0.4 0.1 0.7z" /><path class="s14" d="m4.6 14.9c0.1-0.1-0.2-0.5 0.1-0.5c0.4 0 0.2 0.4 0.2 0.6c0.1 0.2-0.1 0.5 0.3 0.5c0 0.1 0 0.2 0 0.2c-0.1 0.1-0.2 0.1-0.3 0.1c-0.5-0.1-0.3-0.5-0.3-0.9z" /><path class="s13" d="m8 17.3c0.1 0.1 0 0.2 0.1 0.3c0 0.1-0.1 0.2 0.1 0.2c0.1 0 0-0.2 0.2-0.1q-0.1 0.1-0.1 0.3q-0.1 0 0 0.1c0 0.1 0.2 0.3 0.1 0.3c-0.1 0.1-0.1-0.1-0.3-0.2c0 0 0-0.1-0.1 0c0 0.1 0.1 0.3 0 0.2c-0.2 0-0.1-0.2-0.1-0.3q0-0.3 0-0.6c0-0.1 0-0.2 0.1-0.2z" /><path class="s15" d="m18.3 19c-0.4 0-0.6-0.2-0.4-0.6c0.1-0.1 0-0.1 0-0.2c-0.1-0.3 0-0.4 0.2-0.5c0.1 0 0.3 0 0.3 0c0 0.2-0.1 0.1-0.2 0.1q-0.2 0.1-0.2 0.3c0.1 0.1 0.2 0.2 0.3 0.2c0.1 0 0.2 0.1 0.2 0.1c0 0.1-0.1 0.1-0.2 0.1c-0.1 0-0.3 0-0.3 0.2c0 0.1 0.2 0.1 0.3 0.1q0.1 0.1 0.2 0.1c0 0.1-0.1 0.1-0.2 0.1z" /><path class="s16" d="m7.6 18.2c-0.1 0 0.1 0.3-0.2 0.2c-0.2 0-0.4 0.2-0.5-0.1c0-0.2 0.1-0.3 0.3-0.3c0.1 0 0.2-0.1 0.1-0.1c0-0.1 0-0.1-0.1-0.1c0-0.1-0.2 0-0.2-0.1c0-0.1 0.2-0.1 0.3-0.1c0.3 0.1 0.3 0.3 0.3 0.6z" /><path class="s17" d="m2.7 18.1c-0.1 0.1 0.1 0.4-0.1 0.3c-0.2 0-0.4 0.2-0.5 0q-0.2-0.4-0.1-0.7c0.1-0.1 0.1 0 0.1 0c0.1 0.1 0 0.2 0.1 0.2c0 0.2-0.2 0.4 0.1 0.4c0.2 0 0.2-0.2 0.2-0.3c0-0.1 0-0.3 0.1-0.3c0.2 0 0 0.2 0.1 0.4z" /><path class="s18" d="m9 18.5q-0.3-0.1-0.3-0.4q0-0.4 0.3-0.5c0.2 0 0.3 0.1 0.3 0.3c0.1 0.2-0.1 0.1-0.2 0.2c-0.1 0-0.2-0.1-0.2 0.1c-0.1 0.1 0.1 0.1 0.2 0.1c0.1 0 0.2 0 0.2 0.1c0 0.1-0.2 0.1-0.3 0.1z" /><path class="s19" d="m0.8 17.3c0.2 0.1 0.3 0 0.4 0.1c0 0.1-0.2 0-0.2 0.1q-0.1 0.4-0.1 0.8c0 0 0 0.1 0 0.1c-0.1 0-0.1-0.1-0.1-0.1q0-0.3 0-0.6q0-0.1-0.1-0.2c0-0.1-0.2 0.1-0.2-0.1c0-0.1 0.2-0.1 0.3-0.1z" /><path class="s20" d="m4.2 17.7c-0.3 0.2-0.3 0.5 0 0.7q-0.1 0.1-0.1 0.1c-0.1 0-0.2-0.1-0.2-0.2c-0.1-0.2 0.1-0.4-0.2-0.6c0.1-0.1 0.1-0.3 0.2-0.3c0.1 0 0.1 0.3 0.3 0.3z" /><path class="s21" d="m10.7 17.7q0 0-0.1 0c-0.4 0.2-0.1 0.2 0 0.3q0.3 0.1 0.1 0.3c0 0.2-0.2 0.2-0.3 0.2c-0.1 0-0.1-0.1-0.1-0.1c0.6-0.2 0.2-0.3 0-0.4q0 0 0-0.1q0-0.1 0-0.2c0.1-0.1 0.2-0.1 0.3-0.1q0.1 0 0.1 0.1z" /><path class="s22" d="m3.5 18.2c-0.1 0.3-0.2 0.3-0.4 0.3q-0.1 0-0.1-0.1q0 0 0.1-0.1c0.4 0 0.2-0.1 0-0.2q-0.1-0.1-0.1-0.2q-0.1 0 0-0.1c0-0.1 0.2-0.2 0.3-0.2c0 0 0.1 0.1 0.1 0.1c-0.6 0.3 0.1 0.3 0.1 0.5q0 0 0 0z" /><path class="s13" d="m9.6 18.1q0-0.2 0-0.3c0-0.1 0-0.2 0.2-0.1c0.1 0 0.2-0.1 0.2 0c0.1 0.1-0.1 0.1-0.1 0.1q0 0.2-0.1 0.3c0 0.1 0.1 0.3-0.1 0.3c-0.1 0 0-0.2-0.1-0.3z" /><path class="s18" d="m1.4 18.1q0-0.2 0-0.3c0-0.1 0-0.2 0.1-0.1c0.1 0 0.2-0.1 0.2 0c0.1 0.1-0.1 0.1-0.1 0.1q-0.1 0.1-0.1 0.3c0 0.1 0.1 0.3-0.1 0.3c-0.1 0 0-0.2 0-0.3z" /><path class="s15" d="m17.2 17.9c0 0.2 0.1 0.5-0.1 0.5c-0.1 0 0-0.3 0-0.5c0-0.2-0.1-0.5 0-0.5c0.3 0 0.1 0.3 0.1 0.5z" /><path class="s23" d="m4.9 14q0 0.2-0.1 0.2q-0.1 0-0.2 0q-0.1-0.1-0.1-0.2q0-0.1 0.1-0.1q0.1-0.1 0.2-0.1q0.1 0 0.1 0.2z" /><path class="s24" d="m18.4 13.9c0.1 0 0.3 0 0.2 0.2c0 0.2-0.2 0.2-0.3 0.1q-0.1-0.2 0.1-0.3z" /><path class="s24" d="m14.1 13.7c0.2 0 0.3 0 0.3 0.2c-0.1 0.2-0.2 0.2-0.3 0.1q-0.2-0.2 0-0.3z" /><path class="s25" d="m18.2 14.2c-0.2 0.1-0.3 0.1-0.3-0.1c-0.1-0.2 0-0.2 0.2-0.2c0.1 0.1 0.1 0.2 0.1 0.3z" /><path class="s25" d="m13.9 14c-0.1 0.1-0.2 0.1-0.3-0.1c0-0.1 0.1-0.2 0.3-0.2c0.1 0.1 0.1 0.2 0 0.3z" /><path class="s26" d="m18.1 13.8c0-0.1 0-0.3 0.1-0.3c0.2 0 0.2 0.2 0.2 0.3q-0.2 0.2-0.3 0z" /><path class="s27" d="m19.7 14.9c0 0.2 0 0.4-0.2 0.4c-0.3-0.1-0.5-0.1-0.5-0.4c0-0.3 0.1-0.5 0.4-0.4c0.3 0 0.3 0.2 0.3 0.4z" /><path class="s28" d="m22 14.9c-0.1 0.1-0.1 0.4-0.4 0.4c-0.2 0-0.3-0.2-0.3-0.4c0-0.2 0.1-0.4 0.3-0.4c0.3 0 0.3 0.2 0.4 0.4z" /><path class="s29" d="m15.9 15c0 0.1 0.1 0.3-0.2 0.3c-0.2-0.1-0.4-0.2-0.4-0.5c0-0.2 0-0.3 0.3-0.3c0.3 0 0.3 0.2 0.3 0.5z" /><path class="s30" d="m14.4 15c0 0.1 0.1 0.3-0.2 0.3c-0.2-0.1-0.4-0.1-0.4-0.4c0-0.2 0-0.4 0.3-0.4c0.3 0 0.3 0.2 0.3 0.5z" /><path class="s30" d="m1 14.7c-0.2 0-0.3-0.1-0.3-0.2c0-0.2 0.1-0.3 0.3-0.3c0.2 0 0.3 0 0.3 0.2c0 0.3-0.1 0.3-0.3 0.3z" /><path class="s31" d="m7.3 15.1c0-0.3 0.1-0.5 0.4-0.5c0.2 0 0.3 0.2 0.3 0.5c0 0.2-0.1 0.4-0.3 0.4c-0.3 0-0.4-0.2-0.4-0.4z" /><path class="s32" d="m12.9 18.1c0 0.1 0 0.2-0.2 0.2q-0.2 0-0.2-0.2q0-0.3 0.2-0.3c0.2 0 0.2 0.2 0.2 0.3z" /><path class="s33" d="m14.8 18.3q-0.2 0-0.2-0.3c0-0.1 0.1-0.2 0.2-0.2c0.2 0 0.2 0.1 0.2 0.3q0 0.2-0.2 0.2z" /><path class="s34" d="m10.2 15c-0.1 0-0.2 0-0.2-0.2q0-0.2 0.3-0.2c0.1 0 0.2 0.1 0.2 0.2c0 0.2-0.2 0.2-0.3 0.2z" /><path class="s35" d="m2.6 15c-0.1-0.1-0.3 0.1-0.3-0.1c0.1-0.2 0.2-0.3 0.4-0.3c0.1 0 0.2 0.1 0.2 0.2c0 0.2-0.2 0.2-0.3 0.2z" /><path class="s36" d="m6.2 15.3q0 0.1 0 0.2q-0.1 0.1-0.2 0c-0.1 0-0.2 0-0.2-0.2c0-0.1 0.2-0.1 0.3-0.1q0.2-0.1 0.1 0.1z" /><path class="s32" d="m22 18.1c0.1 0.2-0.1 0.3-0.3 0.2c0 0-0.2 0.1-0.2-0.1c0-0.2 0.1-0.4 0.3-0.4c0.2 0 0.2 0.2 0.2 0.3z" /><path class="s37" d="m9 17.8c0.1 0 0.2 0 0.2 0.1c0 0-0.1 0.1-0.2 0.1c0 0-0.1-0.1-0.1-0.2c0 0 0.1 0 0.1 0z" /><path class="s38" d="m12.9 4.5c-1-1.4-2.7-0.9-3.1 0.3c-0.1 0.3-0.1 0.7-0.1 1c0 0.8 0.1 1.7-0.1 2.5q-0.1 0.5-0.5 0.9c-0.1 0.1-0.3 0.2-0.4 0.1q-0.1-0.1-0.1-0.2q0-0.2 0.1-0.3c0.4-0.4 0.4-1 0.5-1.6c0-0.9-0.2-1.8 0.1-2.7c0.4-0.8 1-1.3 1.9-1.4c0.9-0.1 1.6 0.2 2.1 0.9c-0.1 0.2-0.2 0.4-0.4 0.5z" /><path class="s38" d="m13.7 3.6c-0.9-1-2-1.3-3.3-0.9c-1 0.4-1.8 1.4-1.8 2.5q0 0.2 0 0.4c0 0.2 0.1 0.6-0.3 0.6c-0.4 0-0.3-0.4-0.3-0.6c0-1.8 0.9-3.1 2.6-3.6c1.2-0.3 2.7 0.2 3.4 1.1c0 0.2-0.1 0.4-0.3 0.5z" /><path class="s39" d="m10.3 7.9c-0.1-1-0.1-1.9 0.1-2.9c0.1-0.5 0.5-0.8 1-0.8q0.9 0 1.1 0.9c-0.2 0.1-0.2 0.4-0.6 0.5c0-0.1 0-0.2 0-0.3c-0.1-0.3-0.3-0.4-0.5-0.4c-0.2 0-0.4 0.2-0.4 0.4c-0.1 0.3 0.1 0.4 0.3 0.5c0.1 0 0.2 0 0.3 0.1q0 0 0 0q-0.3 0.4 0.2 0.5c-0.2 0.1-0.3 0.2-0.5 0.1c-0.5-0.2-0.4 0.1-0.5 0.4q-0.3 0.5-0.5 1z" /><path class="s40" d="m12.9 4.5l0.4-0.5c0.2 0.3 0.4 0.8 0.4 1.2q0 1.2 0 2.3c0 0.3-0.1 0.4-0.3 0.4c-0.2 0-0.3-0.2-0.3-0.4q0-0.9 0-1.8c0-0.5 0-0.9-0.2-1.2z" /><path class="s41" d="m13.7 3.6c0-0.2 0.2-0.3 0.3-0.5c0.8 0.8 0.9 1.8 0.9 2.9q0 0.1-0.1 0.1q-0.1 0.1-0.2 0.1c-0.3 0-0.3-0.2-0.3-0.4c0-0.8-0.1-1.5-0.6-2.2z" /><path class="s42" d="m14.9 7.6q0 0.3 0 0.7q0 0.1-0.1 0.2q-0.1 0-0.2 0q-0.3 0-0.3-0.2q0-0.7 0-1.3q0-0.1 0.1-0.2q0.1-0.1 0.2-0.1q0.2 0 0.3 0.3q0 0.3 0 0.6z" /><path class="s43" d="m11.2 9.3q0-0.3 0-0.6q0-0.3 0.3-0.3c0.2 0 0.3 0.2 0.3 0.3q0 0.6 0 1.2c0 0.2-0.1 0.3-0.3 0.3c-0.2 0-0.3-0.1-0.3-0.3q0-0.3 0-0.6z" /><path class="s44" d="m9.4 10.3c-0.1 0-0.2 0-0.2-0.1c-0.1-0.1-0.1-0.2 0-0.3q0.4-0.4 0.7-0.9c0.1-0.1 0.2-0.1 0.3-0.1q0.2 0.1 0.2 0.3c0.1 0.2-0.7 1.1-1 1.1z" /><path class="s45" d="m11.8 6.4c-0.2 0-0.4 0.1-0.5 0c-0.1-0.2 0.2-0.3 0.3-0.5c0-0.2 0.2-0.2 0.4-0.3c0.2-0.2 0.2-0.6 0.5-0.6c0.1 0.8-0.1 1.2-0.7 1.4z" /><path class="s4" d="m11.8 6.7c0.1 0.1 0.2 0.1 0.2 0.2q0.2 0.4 0.5 0.7q0.1 0.1 0.1 0.2q-0.1 0.1-0.2 0.2q-0.2 0.1-0.3 0q-0.4-0.4-0.6-0.9q-0.1-0.3 0.3-0.4z" /><path class="s46" d="m8 7c0-0.2-0.1-0.5 0.3-0.5c0.4 0 0.3 0.4 0.3 0.6c0 0.2 0 0.6-0.3 0.5c-0.4 0-0.3-0.3-0.3-0.6z" /><path class="s47" d="m10.3 7.9c0-0.4 0.2-0.8 0.5-1q0.1 0.4 0.1 0.8c0 0.2-0.1 0.3-0.2 0.3q-0.1 0.1-0.2 0q-0.1 0-0.2-0.1z" /><path class="s48" d="m13.7 8.5q-0.1 0.3-0.3 0.3q-0.1 0-0.2-0.1q-0.1-0.1-0.1-0.2q0-0.3 0.3-0.3c0.2 0 0.3 0.2 0.3 0.3z" /><path class="s49" d="m12 5.6c-0.1 0.2-0.3 0.2-0.4 0.3c-0.6 0-0.9-0.4-0.7-0.8c0.2-0.2 0.4-0.4 0.7-0.3c0.3 0.1 0.4 0.4 0.4 0.8z" /><path class="s50" d="m7.2 18.4c-0.1 0-0.1-0.1-0.1-0.2c0-0.1 0-0.1 0.1-0.1c0.1 0 0.2 0 0.2 0.1c0 0.1-0.1 0.2-0.2 0.2z" /><path class="s10" d="m20.8 17.4c0.1 0 0.2 0 0.2 0.1c0 0.1-0.1 0.2-0.2 0.1q-0.1-0.2 0-0.2z" /><path class="s10" d="m14.9 17.4c0 0 0.1 0 0.1 0.1q-0.1 0.1-0.2 0q0 0 0.1-0.1z" /><path class="s10" d="m20.7 17.6c-0.1 0.1-0.2 0.1-0.3-0.1c0-0.1 0.1-0.1 0.2-0.1c0.1 0 0.1 0.1 0.1 0.2z" /><path class="s10" d="m14.8 17.6q-0.1 0-0.2-0.1q0-0.1 0.1-0.1q0.1 0.1 0.1 0.2z" /><path class="s10" d="m20.6 17.3c0-0.1 0-0.2 0.1-0.2c0.1 0 0.1 0.1 0.1 0.2q-0.1 0.2-0.2 0z" /><path class="s10" d="m16 17.4c0.1 0 0.2 0 0.1 0.1q0 0.1-0.1 0q-0.1 0 0-0.1z" /><path class="s10" d="m15.9 17.6q-0.1 0-0.1-0.1q-0.1-0.1 0.1-0.1q0.1 0.1 0 0.2z" /></g></svg>