<svg version="1.2" xmlns="http://www.w3.org/2000/svg" viewBox="0 0 10 10" width="10" height="10"><defs><clipPath clipPathUnits="userSpaceOnUse" id="cp1"><path d="m-478-284h640v360h-640z" /></clipPath></defs><style>.s0{fill:#193ff6}</style><g clip-path="url(#cp1)"><path class="s0" d="m9.2 5.1c0 2.3-1.7 4.2-3.9 4.5v-3.2h1.1l0.2-1.3h-1.2v-0.8c0-0.4 0.1-0.7 0.7-0.7h0.6v-1.2c0 0-0.6-0.1-1-0.1c-1.1 0-1.8 0.7-1.8 1.8v1h-1.1v1.3h1.1v3.2c-2.1-0.3-3.8-2.2-3.8-4.5c0-2.5 2.1-4.6 4.6-4.5c2.5 0 4.5 2 4.5 4.5z" /></g></svg>