<svg version="1.2" xmlns="http://www.w3.org/2000/svg" viewBox="0 0 5 7" width="5" height="7"><defs><clipPath clipPathUnits="userSpaceOnUse" id="cp1"><path d="m-517-206h640v360h-640z" /></clipPath></defs><style>.s0{opacity: .5;fill:#03014c}</style><g clip-path="url(#cp1)"><path fill-rule="evenodd" class="s0" d="m4.9 3.1v2.9c0 0.3-0.2 0.6-0.6 0.6h-3.5c-0.3 0-0.5-0.3-0.5-0.6v-2.9c0-0.3 0.2-0.6 0.5-0.6h2.7v-0.6c0-0.5-0.4-0.9-0.9-0.9c-0.5 0-0.9 0.4-0.9 0.9h-0.6c0-0.8 0.7-1.4 1.5-1.4c0.8 0 1.5 0.6 1.5 1.4v0.6h0.2c0.4 0 0.6 0.3 0.6 0.6zm-0.6 0h-3.5v2.9h3.5zm-2.3 1.5c0-0.3 0.3-0.6 0.6-0.6c0.3 0 0.6 0.3 0.6 0.6c0 0.3-0.3 0.6-0.6 0.6c-0.3 0-0.6-0.3-0.6-0.6z" /></g></svg>