<svg version="1.2" xmlns="http://www.w3.org/2000/svg" viewBox="0 0 6 6" width="6" height="6"><defs><clipPath clipPathUnits="userSpaceOnUse" id="cp1"><path d="m-372-229h640v360h-640z" /></clipPath></defs><style>.s0{fill:#2b7b74}</style><g clip-path="url(#cp1)"><path class="s0" d="m2 4.4l-0.8-0.8c0 0-0.1-0.2 0-0.3q0.1-0.1 0.2-0.1q0.1 0 0.2 0.1l0.6 0.6l1.5-1.6c0.1-0.1 0.3-0.1 0.4 0c0.1 0.1 0.1 0.2 0 0.3l-1.8 1.8q0 0.1-0.1 0.1q-0.1 0-0.2-0.1z" /><path fill-rule="evenodd" class="s0" d="m5.2 1.1v4.5c0 0.1-0.1 0.2-0.3 0.2h-4.5c-0.1 0-0.2-0.1-0.2-0.2v-4.5c0-0.2 0.1-0.3 0.2-0.3h4.5c0.2 0 0.3 0.1 0.3 0.3zm-4.5 0.2v4h4v-4z" /></g></svg>