<svg xmlns="http://www.w3.org/2000/svg" width="65.846" height="56" viewBox="0 0 65.846 56">
  <g id="_0ac920ce-a620-4aca-a4e1-9ec65bbfb0d4" data-name="0ac920ce-a620-4aca-a4e1-9ec65bbfb0d4" transform="translate(-12.967 -13.358)">
    <path id="Path_2" data-name="Path 2" d="M355.69,241.3c-1.316-.114-1.491-1.05-1.491-2.1V216.554c0-2.515.022-5.043,0-7.547A1.733,1.733,0,0,1,356.184,207q13.02.013,26.039,0c.577,0,1.184-.035,1.557.557-.761,1.883-.522,3.863-.526,5.813-.013,8.229,0,16.46-.022,24.689,0,.62.281,1.421-.62,1.754a2.931,2.931,0,0,1-.355-2q-.013-13.414,0-26.829c0-2.122,0-2.125-2.081-2.125h-22.34c-1.739,0-1.754.011-1.754,1.783v27.048c0,1.68.035,1.715,1.715,1.717h22.669a2.938,2.938,0,0,1,1.905.314c.164.6-.355.531-.658.6a6.317,6.317,0,0,1-1.524.072h-22.06A2.769,2.769,0,0,0,355.69,241.3Z" transform="translate(-323.189 -193.64)" fill="#37a499"/>
    <path id="Path_3" data-name="Path 3" d="M387.979,241.808c.452-.327.246-.807.248-1.213q.02-14.353,0-28.7a2.743,2.743,0,0,1,.908-2.324c.594.357.439.963.439,1.48.011,10.064,0,20.128.02,30.194,0,1.465-.55,2.118-2.065,2.111-8.825-.042-17.653-.035-26.478-.046,0-1.068.6-1.3,1.559-1.3q11.956.035,23.91,0c.423,0,.877.136,1.263-.178a.118.118,0,0,1,.2-.029Z" transform="translate(-328.538 -195.648)" fill="#048e81"/>
    <path id="Path_4" data-name="Path 4" d="M531.94,400.811c-1.23-.831-2.618.362-4.015.035-.467-.11-.713.154-.93.544a2.131,2.131,0,0,1-1.478,1.035c-.526.114-1.228.36-1.394-.342s.645-.287.962-.507c.272-.2.846-.2.838-.561s-.524-.149-.8-.235c-1.147-.353-1.844-1.015-1.666-2.307a1.812,1.812,0,0,1,2.057-1.785c1.263.081,1.7.952,1.754,2.1.022.528-.248,1.252.774,1.129.908-.107,2.136.375,2.223-1.191a1.836,1.836,0,0,1,1.331-1.894,1.754,1.754,0,0,1,2.059.594,2.193,2.193,0,0,1,.173,2.469A1.753,1.753,0,0,1,531.94,400.811Z" transform="translate(-455.31 -341.735)" fill="#088e7e"/>
    <path id="Path_5" data-name="Path 5" d="M478.388,400.771c-1.162.11-2.644-.478-3.469,1.169-.132.265-.7.362-1.079.438-.439.1-1.072.265-1.23-.316-.219-.792.6-.329.892-.555s.9-.362.89-.515c-.024-.513-.553-.219-.851-.309a1.971,1.971,0,0,1-1.6-2.258,1.807,1.807,0,0,1,1.811-1.829,1.71,1.71,0,0,1,1.951,1.864c0,1.335.673,1.506,1.754,1.384a9.1,9.1,0,0,1,1.973,0c1.316.138,2.166-.16,1.9-1.741-.042-.246-.125-.631.353-.636a.721.721,0,0,1,.732.539,1.976,1.976,0,0,1-1.932,2.754C479.833,400.779,479.175,400.771,478.388,400.771Z" transform="translate(-415.1 -341.664)" fill="#088e81"/>
    <path id="Path_6" data-name="Path 6" d="M449.489,399.386c-.026,2.631-.943,3.657-2.879,3.572a2.571,2.571,0,0,1-2.532-2.914,1.585,1.585,0,0,1,.241-.822c.158-.2.531-.425.717-.364.3.1.044.439,0,.658-.274,1.719.671,2.8,2.175,2.429.329-.081.842-.353.857-.566.031-.489-.485-.2-.752-.276-1.212-.342-1.973-1.052-1.7-2.37a1.844,1.844,0,0,1,2.508-1.565C449.4,397.513,449.465,398.638,449.489,399.386Z" transform="translate(-393.351 -342.033)" fill="#0a8e81"/>
    <path id="Path_7" data-name="Path 7" d="M271.958,394.541a5.016,5.016,0,0,1,.013-1.1c.134-.585-.507-1.5.605-1.691,1.153-.2,2.35-.386,3.21.724.331.428.5,1.112.14,1.427-1.184,1.039-.243,1.9.066,2.837.083.254.574.566.11.818a.772.772,0,0,1-1.1-.423c-.235-.434-.421-.923-.658-1.377a.811.811,0,0,0-.927-.439c-.39.072-.219.46-.3.721-.14.506.5,1.443-.482,1.454s-.642-.947-.684-1.552C271.927,395.48,271.96,395,271.958,394.541Z" transform="translate(-258.94 -337.769)" fill="#098f80"/>
    <path id="Path_8" data-name="Path 8" d="M362.6,393.262c0-.548-.024-1.1.011-1.638.02-.309-.219-.822.395-.816a.686.686,0,0,1,.7.809c-.107.96.138,1.074,1.114.9,1.188-.219,1.859.658,2.026,1.807a2.3,2.3,0,0,1-1.908,2.73,1.957,1.957,0,0,1-2.269-1.723,10.481,10.481,0,0,1-.024-2.068Z" transform="translate(-329.736 -337.148)" fill="#088e81"/>
    <path id="Path_9" data-name="Path 9" d="M442.86,443.222c-1.859,0-3.727.024-5.58-.011-.84-.015-1.427-.414-1.3-1.366.123-.877.77-1.039,1.535-1.006.816.035.688.625.658,1.107-.044.658.162.936.857.877.614-.055,1.239,0,1.859-.015.73-.015,1.675.377,1.484-1.1-.079-.6.618-.932,1.289-.877a.852.852,0,0,1,.859,1.039c-.219,1.267.691.838,1.283.93.9.138.91-.4.89-1.046,0-.283-.186-.811.219-.807s.219.537.219.82c-.035.684.066,1.068.921,1.057s.811-.439.84-1.033c.033-.658-.243-1.357.178-1.984.548.616.134,1.355.259,2.026.2,1.063-.169,1.48-1.329,1.405-1.708-.112-3.427-.029-5.142-.029Z" transform="translate(-387.027 -375.406)" fill="#8d8d8e"/>
    <path id="Path_10" data-name="Path 10" d="M400.553,398.35a1.616,1.616,0,0,1,1.618,1.568c.083,1.055-.75,1.05-1.473,1.2-.373.077-1.131-.2-1.052.311.094.614.831.638,1.456.577.292-.029.713-.585.877-.013.129.458-.327.75-.781.89a2.193,2.193,0,0,1-2.381-.66,2.368,2.368,0,0,1-.318-2.662A2,2,0,0,1,400.553,398.35Z" transform="translate(-357.571 -343.036)" fill="#0c8e81"/>
    <path id="Path_11" data-name="Path 11" d="M294.128,400.7a2.119,2.119,0,0,1,2.548-2.34,1.571,1.571,0,0,1,1.37,1.587c0,.952-.752.976-1.438,1.136-.382.09-1.166-.322-1.083.377.059.5.82.564,1.4.522.3-.022.7-.579.877-.037.186.581-.377.794-.838.925a2.241,2.241,0,0,1-2.839-2.171Z" transform="translate(-276.289 -342.994)" fill="#0d8e81"/>
    <path id="Path_12" data-name="Path 12" d="M344.8,400.677c.059,1.359-.524,2.193-1.949,2.153-.892-.02-1.7-.388-1.754-1.405-.053-.967.759-1.175,1.522-1.4.333-.094,1.079.344.945-.4-.107-.6-.809-.439-1.316-.423-.307,0-.719.524-.877.042s.331-.739.763-.892C343.724,397.785,344.816,398.739,344.8,400.677Z" transform="translate(-312.961 -342.909)" fill="#0b8e80"/>
    <path id="Path_13" data-name="Path 13" d="M528.805,443.277c-1.274,0-2.554-.077-3.822.022-1.1.086-1.458-.3-1.287-1.337.114-.691-.219-1.425.2-2.092.574.607.243,1.351.246,2.017,0,.763.219,1.046.991.984a17.8,17.8,0,0,1,2.293,0c1.059.05,2.1.147,1.794-1.467-.029-.149-.033-.419.219-.386.094.011.184.252.219.4.14.458-.294,1.175.294,1.362s1.548.439,1.423-.862c-.015-.153-.39-1.059.485-.456.057.042.3-.162.439-.276a1.07,1.07,0,0,1,1.316-.149c.658.458.438,1.18.386,1.815s-.588.417-.945.423C531.647,443.288,530.226,443.275,528.805,443.277Z" transform="translate(-455.491 -375.452)" fill="#8e8f90"/>
    <path id="Path_14" data-name="Path 14" d="M386.88,394.541c0-.583-.035-1.166.015-1.743.024-.285-.278-.833.377-.787a.73.73,0,0,1,.732.787c0,.908-.02,1.818,0,2.725.02.634-.281,1.46.813,1.568a.252.252,0,0,1,.147.423c-.151.18-.375.406-.577.414a1.3,1.3,0,0,1-1.513-1.427C386.858,395.847,386.88,395.194,386.88,394.541Z" transform="translate(-348.678 -338.084)" fill="#098d80"/>
    <path id="Path_15" data-name="Path 15" d="M317.921,394.78c.3.767-.625,1.973.9,2.486.324.107-.09.682-.463.708-.877.064-1.519-.268-1.535-1.254-.029-1.316-.024-2.631,0-3.929,0-.274-.184-.737.366-.724a.706.706,0,0,1,.732.673C317.954,393.392,317.921,394.05,317.921,394.78Z" transform="translate(-293.986 -338.131)" fill="#0c8e82"/>
    <path id="Path_16" data-name="Path 16" d="M344.844,442.624c-.053.239.219.61-.178.642-.338.029-.261-.362-.309-.592-.022-.105,0-.219-.02-.327-.09-.384-.191-.767-.287-1.151-.164.353-.335.706-.5,1.061s-.118,1.072-.592,1.02c-.542-.059-.463-.816-.706-1.239-.151-.261.015-.7-.439-.794-.035.281-.059.563-.105.842s-.112.57-.18.853c-.042.164-.057.4-.307.34-.075-.02-.158-.241-.143-.355.112-.827.248-1.651.377-2.475.035-.219.083-.439.379-.439s.32.246.395.439q.353.949.708,1.9c.252-.636.485-1.278.763-1.9.077-.173.274-.39.439-.406.331-.033.362.285.4.537C344.646,441.277,344.745,441.959,344.844,442.624Z" transform="translate(-312.947 -375.562)" fill="#8c8c8e"/>
    <path id="Path_17" data-name="Path 17" d="M329.679,401.382c.373-.485-.559-1.6.528-1.612,1,0,.467,1.083.6,1.69s-.368,1.436.671,1.7c.265.068.219.344.1.548a.636.636,0,0,1-.75.274C329.229,403.668,329.9,402.357,329.679,401.382Z" transform="translate(-304.029 -344.145)" fill="#138e83"/>
    <path id="Path_18" data-name="Path 18" d="M375.464,439.25c.34.274.136.669.219,1,.05.219-.2.631.281.605.311-.018.287-.745.813-.439-.164.27-.349.531-.487.811a.561.561,0,0,0,0,.4c.14.39.827.831.55,1.031-.439.316-.585-.439-.892-.689-.134-.107-.239-.167-.3.042s.164.724-.292.638c-.366-.07-.2-.559-.206-.864-.022-.688-.013-1.377,0-2.065C375.142,439.509,375.131,439.265,375.464,439.25Z" transform="translate(-339.52 -374.968)" fill="#8c8c8e"/>
    <path id="Path_19" data-name="Path 19" d="M512.954,448.477c-1.175.026-1.6-.618-1-1.647.219-.388-.1-.513-.149-.759a1.091,1.091,0,0,1,.748-1.465,1.413,1.413,0,0,1,.8.031c.1.526-.371.189-.57.292-.331.173-.542.382-.524.741.022.52.366.748.844.84.164.031.454.132.449.184-.018.307-.294.232-.5.254-.412.048-1-.079-.974.559.022.471.5.548.925.557a3.04,3.04,0,0,1,.579.125C513.478,448.512,513.193,448.442,512.954,448.477Z" transform="translate(-446.145 -379.119)" fill="#939394"/>
    <path id="Path_20" data-name="Path 20" d="M363.88,445.166c-.167.248.338.921-.509.851-.482-.042-1.142.485-1.384-.327-.219-.732.346-.941.919-1.063.193-.042.392-.112.335-.324-.035-.127-.23-.23-.373-.307-.184-.1-.612.167-.566-.2.039-.316.474-.285.752-.232C363.95,443.732,363.869,444.449,363.88,445.166Z" transform="translate(-329.232 -378.308)" fill="#99989a"/>
    <path id="Path_21" data-name="Path 21" d="M296.688,445.476c-.182.36.219,1.123-.32,1.048s-1.23.658-1.594-.178a3,3,0,0,1-.039-2.022c.07-.25.292-.059.331.132s-.013.373.037.542c.127.421-.357,1.184.46,1.2.535.011.62-.594.645-1.1.013-.3-.1-.912.175-.838C296.958,444.412,296.513,445.057,296.688,445.476Z" transform="translate(-276.64 -378.837)" fill="#909091"/>
    <path id="Path_22" data-name="Path 22" d="M387.139,446.306a1.145,1.145,0,0,1-1.109-1.287,1.159,1.159,0,0,1,1.041-1.3.882.882,0,0,1,.989.809c.136.658-.4.4-.7.487s-.754-.219-.778.3c-.02.439.349.57.767.568.167,0,.517-.147.482.169S387.438,446.277,387.139,446.306Z" transform="translate(-348.04 -378.45)" fill="#909092"/>
    <path id="Path_23" data-name="Path 23" d="M275.266,439.66c.439.105.952-.158,1.072.219s-.574.107-.6.34c-.1.743-.092,1.5-.138,2.252-.013.2.075.5-.219.52s-.232-.3-.232-.493c-.018-.579,0-1.158-.015-1.737a1.258,1.258,0,0,0-.092-.524c-.145-.283-.792.118-.682-.425C274.367,439.7,275,439.7,275.266,439.66Z" transform="translate(-260.842 -375.289)" fill="#919193"/>
    <path id="Path_24" data-name="Path 24" d="M319.5,441.409c-.895.8-1.011,1.5-.1,2.2-.092.083-.173.219-.274.237a.555.555,0,0,1-.68-.392c-.2-.629.3-1.441-.491-1.921.219-.329.438-.919.671-.927C319.017,440.592,318.769,441.48,319.5,441.409Z" transform="translate(-294.895 -376.029)" fill="#8b8b8d"/>
    <path id="Path_25" data-name="Path 25" d="M409.147,443.795a1.446,1.446,0,0,1-.289.191c-1.116.364-.373.577.066.8a.609.609,0,0,1,.283.976.987.987,0,0,1-1.147.4c-.232-.057-.263-.3-.022-.349,1.664-.355.439-.629,0-.958a.594.594,0,0,1-.107-.877.9.9,0,0,1,.949-.377C408.958,443.619,409.028,443.707,409.147,443.795Z" transform="translate(-365.024 -378.344)" fill="#939393"/>
    <path id="Path_26" data-name="Path 26" d="M309.519,445.544c-.162.623-.636.774-1.239.686-.079-.011-.143-.127-.219-.2.072-.061.14-.16.219-.173,1.316-.219.684-.537.055-.866a.577.577,0,0,1-.3-.82.877.877,0,0,1,.892-.5c.107,0,.206.134.309.206-1.706.792.351.9.257,1.4a1.138,1.138,0,0,0,.028.265Z" transform="translate(-287.088 -378.416)" fill="#929394"/>
    <path id="Path_27" data-name="Path 27" d="M399.228,445.46v-.781c.018-.252.015-.517.421-.439.219.037.6-.125.68-.02.263.344-.276.294-.335.511s-.134.476-.219.71c-.123.366.235,1.081-.327,1.048C398.994,446.445,399.375,445.712,399.228,445.46Z" transform="translate(-358.336 -378.822)" fill="#8c8c8e"/>
    <path id="Path_28" data-name="Path 28" d="M285.931,445.354v-.842c0-.309.094-.485.465-.373.182.055.511-.061.566.028.167.265-.2.3-.3.474a4.108,4.108,0,0,0-.27.684c-.125.377.219,1.1-.263,1.1C285.722,446.411,286.027,445.672,285.931,445.354Z" transform="translate(-269.874 -378.759)" fill="#909092"/>
    <path id="Path_29" data-name="Path 29" d="M501.431,441.914c-.219.579.278,1.449-.349,1.555-.331.057-.171-1-.173-1.535s-.077-1.631.162-1.557C501.764,440.592,501.144,441.432,501.431,441.914Z" transform="translate(-437.703 -375.845)" fill="#939394"/>
    <path id="Path_30" data-name="Path 30" d="M330.754,392.215a.609.609,0,1,1-1.208-.029.577.577,0,0,1,.631-.585C330.587,391.609,330.737,391.844,330.754,392.215Z" transform="translate(-303.936 -337.765)" fill="#189481"/>
    <path id="Path_32" data-name="Path 32" d="M517.525,392.54c.46,0,.853.167.726.658s-.539.6-.976.237C517.053,393.057,517.088,392.744,517.525,392.54Z" transform="translate(-450.404 -338.5)" fill="#1d8a82"/>
    <path id="Path_46608" data-name="Path 46608" d="M517.525,392.54c.46,0,.853.167.726.658s-.539.6-.976.237C517.053,393.057,517.088,392.744,517.525,392.54Z" transform="translate(-463.095 -339.062)" fill="#1d8a82"/>
    <path id="Path_34" data-name="Path 34" d="M512.666,393.526c-.4.274-.776.285-.919-.219s.173-.717.658-.693C512.872,392.811,512.872,393.135,512.666,393.526Z" transform="translate(-446.166 -338.556)" fill="#228d7e"/>
    <path id="Path_46607" data-name="Path 46607" d="M512.666,393.526c-.4.274-.776.285-.919-.219s.173-.717.658-.693C512.872,392.811,512.872,393.135,512.666,393.526Z" transform="translate(-458.857 -339.118)" fill="#228d7e"/>
    <path id="Path_35" data-name="Path 35" d="M514.851,388.684c-.094-.4-.061-.794.439-.794s.5.414.419.8C515.406,389.157,515.123,389.177,514.851,388.684Z" transform="translate(-448.583 -334.87)" fill="#1d9587"/>
    <path id="Path_38" data-name="Path 38" d="M529.85,401.931c0,.533.123,1.041-.592.973-.754-.07-1.34-.32-1.329-1.228,0-.642.164-1.215.936-1.166C529.813,400.571,529.784,401.363,529.85,401.931Z" transform="translate(-458.827 -344.72)" fill="#ecf8f6"/>
    <path id="Path_39" data-name="Path 39" d="M560.843,401.883c-.147.531-.105,1.208-.941,1.226-.783.018-.987-.511-1.006-1.145s.2-1.2.925-1.261C560.61,400.638,560.724,401.273,560.843,401.883Z" transform="translate(-483.003 -344.87)" fill="#f2fafa"/>
    <path id="Path_40" data-name="Path 40" d="M478.267,402.03c-.079.349.23.943-.555.877s-1.344-.355-1.316-1.25c.015-.583.142-1.147.877-1.138C478.282,400.535,478.238,401.311,478.267,402.03Z" transform="translate(-418.592 -344.73)" fill="#f4fafa"/>
    <path id="Path_41" data-name="Path 41" d="M457.554,402.23c-.059.344.25.938-.52.895s-1.386-.294-1.395-1.188c0-.588.2-1.14.9-1.127C457.423,400.827,457.537,401.509,457.554,402.23Z" transform="translate(-402.388 -344.956)" fill="#e9f5f5"/>
    <path id="Path_42" data-name="Path 42" d="M278.073,398.1c-.568.09-.7-.219-.693-.759s.123-.9.783-.844c.528.042.91.164.93.792C279.114,398.008,278.671,398.122,278.073,398.1Z" transform="translate(-263.213 -341.589)" fill="#e9f5f5"/>
    <path id="Path_43" data-name="Path 43" d="M367.878,404.172c-.013-.7.206-1.294,1-1.283s1,.6.978,1.3-.178,1.289-1,1.28S367.874,404.852,367.878,404.172Z" transform="translate(-333.868 -346.58)" fill="#effaf9"/>
    <path id="Path_44" data-name="Path 44" d="M439.452,447.15c-.02.349.068.772-.509.726a.736.736,0,0,1-.767-.84.673.673,0,0,1,.748-.726C439.553,446.312,439.436,446.77,439.452,447.15Z" transform="translate(-388.752 -380.48)" fill="#f8f9f9"/>
    <path id="Path_45" data-name="Path 45" d="M467.629,447.9a.778.778,0,0,1-.627-.877c.039-.4.25-.689.7-.669.542.022.618.4.6.84S468.105,447.891,467.629,447.9Z" transform="translate(-411.255 -380.516)" fill="#f9f9fa"/>
    <path id="Path_46" data-name="Path 46" d="M404.6,403.665c-.241-.072-.724.186-.638-.4a.789.789,0,0,1,.842-.684c.41-.013.761.149.732.594C405.5,403.746,405,403.628,404.6,403.665Z" transform="translate(-362.035 -346.336)" fill="#e8f9f9"/>
    <path id="Path_47" data-name="Path 47" d="M300.153,403.655c-.219-.145-.772.254-.658-.373a.851.851,0,0,1,.947-.726c.349.013.688.116.688.535C301.129,403.791,300.55,403.578,300.153,403.655Z" transform="translate(-280.467 -346.315)" fill="#e0f4f4"/>
    <path id="Path_48" data-name="Path 48" d="M347.829,410.5a.693.693,0,0,1-.813.64c-.362-.02-.658-.219-.6-.605.068-.513.542-.489.921-.535S347.895,410.094,347.829,410.5Z" transform="translate(-317.106 -352.125)" fill="#ddf4f3"/>
    <path id="Path_49" data-name="Path 49" d="M563.142,447.421c.1.61-.395.627-.895.559-.263-.037-.8.219-.724-.318s.3-1.175,1.041-1.219C563.177,446.406,563.1,446.892,563.142,447.421Z" transform="translate(-485.05 -380.583)" fill="#f8f9f9"/>
    <path id="Path_51" data-name="Path 51" d="M389.347,445.51c.324.02.553.1.5.371-.022.11-.248.23-.395.252-.219.031-.474-.035-.408-.335C389.071,445.668,389.27,445.578,389.347,445.51Z" transform="translate(-350.384 -379.856)" fill="#dededf"/>
    <path id="Path_52" data-name="Path 52" d="M397.629,248.948a5.193,5.193,0,0,0-9.266,1.011,10.429,10.429,0,0,0-.314,3.026c-.125,2.506.292,5.032-.289,7.521a5.92,5.92,0,0,1-1.557,2.706.827.827,0,0,1-1.252.16.794.794,0,0,1-.079-1.248c1.34-1.412,1.478-3.138,1.535-4.966.079-2.677-.537-5.422.458-8.023a6.79,6.79,0,0,1,11.822-1.469A1.5,1.5,0,0,1,397.629,248.948Z" transform="translate(-346.929 -223.182)" fill="#34a6ec"/>
    <path id="Path_53" data-name="Path 53" d="M393.914,234c-2.743-3.035-6.054-4-9.943-2.649a8.484,8.484,0,0,0-5.4,7.532v.984c-.042.761.254,1.868-.906,1.868-1.1,0-.82-1.1-.824-1.8-.033-5.4,2.743-9.119,7.906-10.643a10.176,10.176,0,0,1,10.11,3.337A1.772,1.772,0,0,1,393.914,234Z" transform="translate(-340.844 -210.806)" fill="#34a6ec"/>
    <path id="Path_54" data-name="Path 54" d="M407.974,271.565a34,34,0,0,1,.1-8.755,2.91,2.91,0,0,1,3.177-2.291,3.223,3.223,0,0,1,3.289,2.458c-.719.355-.807,1.43-1.754,1.535-.2-.25-.123-.561-.2-.84a1.3,1.3,0,0,0-1.421-1.1,1.344,1.344,0,0,0-1.241,1.2,1.252,1.252,0,0,0,.927,1.425c.3.121.658.107.9.357,0,.035.039.083.024.1-.535.776-.388,1.278.579,1.46a1.5,1.5,0,0,1-1.548.193c-1.419-.647-1.267.307-1.3,1.134A16.146,16.146,0,0,0,407.974,271.565Z" transform="translate(-364.99 -235.425)" fill="#34a7ec"/>
    <path id="Path_55" data-name="Path 55" d="M444,259.023l1.066-1.283a5.247,5.247,0,0,1,1.316,3.469c.033,2.364,0,4.725.022,7.089,0,.645-.191,1.138-.851,1.136s-.877-.544-.877-1.151c0-1.89-.031-3.78,0-5.67A7.069,7.069,0,0,0,444,259.023Z" transform="translate(-393.3 -233.256)" fill="#0491e8"/>
    <path id="Path_56" data-name="Path 56" d="M454.81,246.96c.105-.6.59-.936.934-1.37,2.307,2.375,2.741,5.317,2.55,8.441a.763.763,0,0,1-.877.759c-.713-.05-.877-.559-.822-1.158A9.894,9.894,0,0,0,454.81,246.96Z" transform="translate(-401.74 -223.77)" fill="#0592e9"/>
    <path id="Path_57" data-name="Path 57" d="M464.624,297.5c0,.658.02,1.316,0,1.96a.791.791,0,0,1-.818.84.8.8,0,0,1-.895-.862c-.024-1.234-.011-2.469,0-3.7a.863.863,0,0,1,1.726.022c.013.577,0,1.162,0,1.754Z" transform="translate(-408.054 -262.263)" fill="#0892e7"/>
    <path id="Path_58" data-name="Path 58" d="M420.775,320.537v-1.754a.822.822,0,0,1,.842-.934.856.856,0,0,1,.877.917c.031,1.2.022,2.4,0,3.6a.807.807,0,0,1-.857.917c-.623,0-.877-.4-.877-1.006S420.773,321.118,420.775,320.537Z" transform="translate(-375.156 -280.185)" fill="#0693e8"/>
    <path id="Path_59" data-name="Path 59" d="M393.313,328.776a.692.692,0,0,1-.675-.349.888.888,0,0,1,.145-1.1,10.057,10.057,0,0,0,2.07-2.482.765.765,0,0,1,.947-.344.82.82,0,0,1,.605.7C396.53,326.024,394.243,328.724,393.313,328.776Z" transform="translate(-353.105 -285.342)" fill="#0791e6"/>
    <path id="Path_60" data-name="Path 60" d="M423.474,275.846c-.509-.1-1.285.3-1.471-.154s.463-.941.844-1.346c.147-.6.658-.835,1.123-1.116.594-.469.57-1.616,1.673-1.535C425.971,273.91,425.351,275.1,423.474,275.846Z" transform="translate(-376.1 -244.149)" fill="#0792e9"/>
    <path id="Path_61" data-name="Path 61" d="M425.739,294.55c.184.145.507.27.605.493a8.682,8.682,0,0,0,1.355,2.087.822.822,0,0,1-.114,1.256.813.813,0,0,1-1.171-.14,6.291,6.291,0,0,1-1.59-2.447C424.586,295.111,424.93,294.695,425.739,294.55Z" transform="translate(-378.271 -261.995)" fill="#0a8e81"/>
    <path id="Path_62" data-name="Path 62" d="M376.8,293.222c.105-.645-.274-1.647.917-1.568s.776,1.1.827,1.78c.057.73.086,1.669-.93,1.607C376.5,294.974,376.9,293.919,376.8,293.222Z" transform="translate(-340.834 -259.731)" fill="#3aa8ec"/>
    <path id="Path_63" data-name="Path 63" d="M408.744,299.806a3.336,3.336,0,0,1,1.535-3.116c.02.835.037,1.673.059,2.511a.936.936,0,0,1-.577.969.761.761,0,0,1-1.017-.364Z" transform="translate(-365.76 -263.666)" fill="#0e90df"/>
    <path id="Path_64" data-name="Path 64" d="M448.55,316.274a.865.865,0,0,1-.943.846.787.787,0,0,1-.8-.857c.013-.6.362-.838.917-.824S448.486,315.78,448.55,316.274Z" transform="translate(-395.491 -278.303)" fill="#1696e3"/>
    <path id="Path_65" data-name="Path 65" d="M419.214,270.451c-.145.6-.7.789-1.123,1.116-1.78-.086-2.71-1.263-1.94-2.528a1.522,1.522,0,0,1,1.91-.807A1.68,1.68,0,0,1,419.214,270.451Z" transform="translate(-371.344 -241.37)" fill="#f9fcfc"/>
    <circle id="Ellipse_1" data-name="Ellipse 1" cx="0.548" cy="0.548" r="0.548" transform="translate(33.146 66.56)" fill="#fff"/>
    <path id="Path_46609" data-name="Path 46609" d="M517.419,392.54c.334,0,.618.121.526.477s-.391.437-.707.172C517.078,392.915,517.1,392.688,517.419,392.54Z" transform="translate(-442.978 -328.047)" fill="#8e8f90"/>
    <path id="Path_46613" data-name="Path 46613" d="M517.331,392.54c.228,0,.422.082.359.325s-.267.3-.482.117C517.1,392.8,517.115,392.641,517.331,392.54Z" transform="translate(-460.734 -327.948)" fill="#8e8f90"/>
    <path id="Path_46610" data-name="Path 46610" d="M512.4,393.274c-.288.2-.562.207-.666-.159s.125-.52.477-.5C512.553,392.756,512.553,392.991,512.4,393.274Z" transform="translate(-438.413 -328.108)" fill="#8e8f90"/>
    <path id="Path_46612" data-name="Path 46612" d="M512.184,393.063c-.2.136-.384.141-.454-.108s.086-.354.325-.343C512.286,392.71,512.286,392.871,512.184,393.063Z" transform="translate(-455.894 -328.012)" fill="#8e8f90"/>
    <path id="Path_46611" data-name="Path 46611" d="M514.839,388.465c-.068-.288-.044-.575.318-.575s.364.3.3.58C515.241,388.808,515.036,388.823,514.839,388.465Z" transform="translate(-441.016 -324.136)" fill="#8e8f90"/>
    <path id="Path_46614" data-name="Path 46614" d="M517.331,392.54c.228,0,.422.082.359.325s-.267.3-.482.117C517.1,392.8,517.115,392.641,517.331,392.54Z" transform="translate(-457.288 -327.948)" fill="#8e8f90"/>
    <path id="Path_46615" data-name="Path 46615" d="M512.184,393.063c-.2.136-.384.141-.454-.108s.086-.354.325-.343C512.286,392.71,512.286,392.871,512.184,393.063Z" transform="translate(-452.448 -328.012)" fill="#8e8f90"/>
  </g>
</svg>
