<svg xmlns="http://www.w3.org/2000/svg" xmlns:xlink="http://www.w3.org/1999/xlink" width="26" height="26" viewBox="0 0 26 26">
  <defs>
    <clipPath id="clip-path">
      <rect width="26" height="26" fill="none"/>
    </clipPath>
  </defs>
  <g id="calendar_9_" data-name="calendar (9)" clip-path="url(#clip-path)">
    <g id="calendar_9_2" data-name="calendar (9)">
      <g id="Group_249" data-name="Group 249">
        <g id="Group_248" data-name="Group 248">
          <path id="Path_46775" data-name="Path 46775" d="M23.715,1.523h-.85V.762a.762.762,0,0,0-1.523,0v.762H16.721V.762a.762.762,0,0,0-1.523,0v.762h-4.57V.762A.762.762,0,0,0,9.1.762v.762H4.482V.762a.762.762,0,0,0-1.523,0v.762H2.285A2.288,2.288,0,0,0,0,3.809V23.715A2.288,2.288,0,0,0,2.285,26h21.43A2.288,2.288,0,0,0,26,23.715V3.809A2.288,2.288,0,0,0,23.715,1.523Zm.762,22.191a.763.763,0,0,1-.762.762H20.946l3.53-3.53ZM19.869,23.4V19.906h3.493Zm4.608-5.017H19.107a.762.762,0,0,0-.762.762v5.332H2.285a.763.763,0,0,1-.762-.762V7.617H24.477Zm0-12.69v.4H1.523V3.809a.763.763,0,0,1,.762-.762h.674v.762a.762.762,0,0,0,1.523,0V3.047H9.1v.762a.762.762,0,1,0,1.523,0V3.047H15.2v.762a.762.762,0,0,0,1.523,0V3.047h4.621v.762a.762.762,0,0,0,1.523,0V3.047h.85a.763.763,0,0,1,.762.762Z" fill="#404040"/>
        </g>
      </g>
      <g id="Group_251" data-name="Group 251" transform="translate(4.533 9.141)">
        <g id="Group_250" data-name="Group 250">
          <path id="Path_46776" data-name="Path 46776" d="M93.126,180h-3.1a.762.762,0,0,0-.762.762v3.047a.762.762,0,0,0,.762.762h3.1a.762.762,0,0,0,.762-.762v-3.047A.762.762,0,0,0,93.126,180Zm-.762,3.047H90.79v-1.523h1.574Z" transform="translate(-89.267 -180)" fill="#404040"/>
        </g>
      </g>
      <g id="Group_253" data-name="Group 253" transform="translate(4.533 15.336)">
        <g id="Group_252" data-name="Group 252">
          <path id="Path_46777" data-name="Path 46777" d="M93.126,302h-3.1a.762.762,0,0,0-.762.762v3.047a.762.762,0,0,0,.762.762h3.1a.762.762,0,0,0,.762-.762v-3.047A.762.762,0,0,0,93.126,302Zm-.762,3.047H90.79v-1.523h1.574Z" transform="translate(-89.267 -302)" fill="#404040"/>
        </g>
      </g>
      <g id="Group_255" data-name="Group 255" transform="translate(10.678 9.141)">
        <g id="Group_254" data-name="Group 254">
          <path id="Path_46778" data-name="Path 46778" d="M214.076,180h-3.047a.762.762,0,0,0-.762.762v3.047a.762.762,0,0,0,.762.762h3.047a.762.762,0,0,0,.762-.762v-3.047A.762.762,0,0,0,214.076,180Zm-.762,3.047H211.79v-1.523h1.523Z" transform="translate(-210.267 -180)" fill="#404040"/>
        </g>
      </g>
      <g id="Group_257" data-name="Group 257" transform="translate(10.678 15.336)">
        <g id="Group_256" data-name="Group 256">
          <path id="Path_46779" data-name="Path 46779" d="M214.076,302h-3.047a.762.762,0,0,0-.762.762v3.047a.762.762,0,0,0,.762.762h3.047a.762.762,0,0,0,.762-.762v-3.047A.762.762,0,0,0,214.076,302Zm-.762,3.047H211.79v-1.523h1.523Z" transform="translate(-210.267 -302)" fill="#404040"/>
        </g>
      </g>
      <g id="Group_259" data-name="Group 259" transform="translate(16.771 9.141)">
        <g id="Group_258" data-name="Group 258">
          <path id="Path_46780" data-name="Path 46780" d="M334.126,180h-3.1a.762.762,0,0,0-.762.762v3.047a.762.762,0,0,0,.762.762h3.1a.762.762,0,0,0,.762-.762v-3.047A.762.762,0,0,0,334.126,180Zm-.762,3.047H331.79v-1.523h1.574Z" transform="translate(-330.267 -180)" fill="#404040"/>
        </g>
      </g>
    </g>
  </g>
</svg>
