<svg id="money_2_" data-name="money (2)" xmlns="http://www.w3.org/2000/svg" xmlns:xlink="http://www.w3.org/1999/xlink" width="20.797" height="18" viewBox="0 0 20.797 18">
  <defs>
    <linearGradient id="linear-gradient" x1="0.5" x2="0.5" y2="1" gradientUnits="objectBoundingBox">
      <stop offset="0" stop-color="#048e81"/>
      <stop offset="1" stop-color="#0995eb"/>
    </linearGradient>
  </defs>
  <path id="money_2_2" data-name="money (2)" d="M20.64,5.351l-5.2-5.2a.531.531,0,0,0-.752,0L11.837,3.013a.3.3,0,1,0,.426.426L15.07.632l5.094,5.094-9.179,9.179-1.07-1.069c.043-.049.086-.1.127-.151l.164-.208a.43.43,0,0,0,.319-.037.977.977,0,0,1,.919,0,.434.434,0,0,0,.207.053.426.426,0,0,0,.3-.126l.7-.7a.3.3,0,0,0-.426-.426l-.611.611a1.564,1.564,0,0,0-.819-.121l.213-.269,1.36-1.36h0l1.212-1.212a2.193,2.193,0,1,0-2.1-3.673,2.21,2.21,0,0,0-.55,2.18,3.555,3.555,0,0,0-.671.515l-1.2,1.2a.409.409,0,0,1-.292.12h-.01a.617.617,0,0,1-.464-.355V8.837L14.44,2.684a1.561,1.561,0,0,0,1.259,0L18.112,5.1a1.562,1.562,0,0,0,0,1.259l-4.878,4.878a.3.3,0,0,0,.426.426l4.965-4.966a.428.428,0,0,0,.073-.509.976.976,0,0,1,0-.918.427.427,0,0,0-.073-.509L16.038,2.171a.428.428,0,0,0-.509-.073.975.975,0,0,1-.918,0,.428.428,0,0,0-.509.073L8.288,7.985V7.414l2.956-2.956a.3.3,0,0,0-.18-.512c-.5-.056-1-.1-1.395-.129-.272-.022-.488-.04-.616-.056a1.534,1.534,0,0,0-1.179.417L5.246,6.251l-.005,0a2.64,2.64,0,0,0-.866,1.338,26.006,26.006,0,0,1-1.233,3.514L1.861,12.389l-.048-.048a.666.666,0,0,0-.942,0l-.677.677a.666.666,0,0,0,0,.942L4.04,17.8a.666.666,0,0,0,.942,0l.677-.677a.666.666,0,0,0,0-.942l-.049-.049.319-.319a1.158,1.158,0,0,1,.5-.293l.012,0,1.931-.65a3.638,3.638,0,0,0,1.114-.618l1.128,1.128a.531.531,0,0,0,.752,0L20.64,6.1a.531.531,0,0,0,0-.752Zm-8.484,5.113-.221-.221a.2.2,0,0,1,0-.28l.431-.431a.67.67,0,0,1,.821-.1ZM11.9,6.643a1.591,1.591,0,0,1,2.365,2.122A.87.87,0,0,0,14,8.154a1.228,1.228,0,0,0-.908-.384,3.754,3.754,0,0,0-1.619.345A1.6,1.6,0,0,1,11.9,6.643ZM5.232,16.7l-.677.677a.063.063,0,0,1-.09,0L.621,13.534a.063.063,0,0,1,0-.09l.677-.677a.063.063,0,0,1,.09,0l3.845,3.845a.063.063,0,0,1,0,.09Zm4.679-3.823-.341.431a3.03,3.03,0,0,1-.286.314l0,0,0,0a3.031,3.031,0,0,1-1.106.671l-1.924.648a1.763,1.763,0,0,0-.747.443l-.319.319-2.9-2.9L3.6,11.5a.306.306,0,0,0,.054-.073,25.5,25.5,0,0,0,1.3-3.674,2.04,2.04,0,0,1,.666-1.032L8.251,4.648l.005,0a.95.95,0,0,1,.726-.285c.14.017.36.035.638.058.224.018.479.039.749.064l-2.6,2.6a.3.3,0,0,0-.088.213V9.927a.3.3,0,0,0,.01.078,1.2,1.2,0,0,0,1.056.833h.01a1.008,1.008,0,0,0,.718-.3l1.2-1.2a3.16,3.16,0,0,1,.733-.528h0a.305.305,0,0,0,.036-.02,3.349,3.349,0,0,1,1.607-.418.667.667,0,0,1,.482.173l.022.024a.264.264,0,0,1,.094.255.509.509,0,0,1-.065.157,1.274,1.274,0,0,0-1.654.124l-.431.431a.8.8,0,0,0,0,1.132l.221.221-1.16,1.16a.279.279,0,0,0-.023.026l-.635.8h0Zm0,0" transform="translate(0 0)" fill="url(#linear-gradient)"/>
</svg>
