<svg id="Group_951" data-name="Group 951" xmlns="http://www.w3.org/2000/svg" width="20" height="22" viewBox="0 0 20 22">
  <path id="Path_47882" data-name="Path 47882" d="M15,28H13a1,1,0,0,1,0-2h2a1,1,0,0,1,0,2Z" transform="translate(-8 -14)" fill="#707070"/>
  <path id="Path_47883" data-name="Path 47883" d="M19,20H13a1,1,0,0,1,0-2h6a1,1,0,0,1,0,2Z" transform="translate(-8 -10)" fill="#707070"/>
  <path id="Path_47884" data-name="Path 47884" d="M19,12H13a1,1,0,0,1,0-2h6a1,1,0,0,1,0,2Z" transform="translate(-8 -6)" fill="#707070"/>
  <path id="Path_47885" data-name="Path 47885" d="M23,5H20V3a1,1,0,0,0-1-1H5A1,1,0,0,0,4,3V19a1,1,0,0,0,1,1H7v3a1,1,0,0,0,1,1H23a1,1,0,0,0,1-1V6A1,1,0,0,0,23,5ZM6,4H18V18H6ZM22,22H9V20H19a1,1,0,0,0,1-1V7h2Z" transform="translate(-4 -2)" fill="#707070"/>
</svg>
