<svg id="Layer_2" data-name="Layer 2" xmlns="http://www.w3.org/2000/svg" xmlns:xlink="http://www.w3.org/1999/xlink" width="26" height="26" viewBox="0 0 26 26">
  <defs>
    <linearGradient id="linear-gradient" y1="-0.353" x2="1.378" y2="1.289" gradientUnits="objectBoundingBox">
      <stop offset="0" stop-color="#048e81"/>
      <stop offset="1" stop-color="#0995eb"/>
    </linearGradient>
  </defs>
  <g id="invisible_box" data-name="invisible box">
    <rect id="Rectangle_1556" data-name="Rectangle 1556" width="26" height="26" fill="none"/>
  </g>
  <g id="icons_Q2" data-name="icons Q2" transform="translate(2.167 2.167)">
    <path id="Path_48021" data-name="Path 48021" d="M21.333,8.333V5.083A1.083,1.083,0,0,0,20.25,4H5.083A1.083,1.083,0,0,0,4,5.083V20.25a1.083,1.083,0,0,0,1.083,1.083h3.25v3.25a1.083,1.083,0,0,0,1.083,1.083H24.583a1.083,1.083,0,0,0,1.083-1.083V9.417a1.083,1.083,0,0,0-1.083-1.083ZM6.167,19.167v-13h13v13ZM23.5,23.5h-13V21.333h9.75a1.083,1.083,0,0,0,1.083-1.083V10.5H23.5Z" transform="translate(-4 -4)" fill="url(#linear-gradient)"/>
  </g>
</svg>
