<svg id="clock_1_" data-name="clock (1)" xmlns="http://www.w3.org/2000/svg" width="14" height="14" viewBox="0 0 14 14">
  <path id="Path_47264" data-name="Path 47264" d="M7,0a7,7,0,1,0,7,7A7.015,7.015,0,0,0,7,0ZM7,13.18A6.18,6.18,0,1,1,13.18,7,6.187,6.187,0,0,1,7,13.18Z" fill="#2b7b74"/>
  <circle id="Ellipse_101" data-name="Ellipse 101" cx="0.41" cy="0.41" r="0.41" transform="translate(3.11 10.07)" fill="#2b7b74"/>
  <circle id="Ellipse_102" data-name="Ellipse 102" cx="0.41" cy="0.41" r="0.41" transform="translate(10.07 3.11)" fill="#2b7b74"/>
  <path id="Path_47265" data-name="Path 47265" d="M113.841,113.841a.41.41,0,1,0,.58,0A.41.41,0,0,0,113.841,113.841Z" transform="translate(-110.611 -110.611)" fill="#2b7b74"/>
  <path id="Path_47266" data-name="Path 47266" d="M368.4,368.4a.41.41,0,1,0,.58,0A.41.41,0,0,0,368.4,368.4Z" transform="translate(-358.209 -358.209)" fill="#2b7b74"/>
  <path id="Path_47267" data-name="Path 47267" d="M241.41,62.641a.41.41,0,0,0,.41-.41v-.82a.41.41,0,0,0-.82,0v.82A.41.41,0,0,0,241.41,62.641Z" transform="translate(-234.41 -59.332)" fill="#2b7b74"/>
  <path id="Path_47268" data-name="Path 47268" d="M241.41,391a.41.41,0,0,0-.41.41v.82a.41.41,0,0,0,.82,0v-.82A.41.41,0,0,0,241.41,391Z" transform="translate(-234.41 -380.309)" fill="#2b7b74"/>
  <path id="Path_47269" data-name="Path 47269" d="M62.641,241.41a.41.41,0,0,0-.41-.41h-.82a.41.41,0,0,0,0,.82h.82A.41.41,0,0,0,62.641,241.41Z" transform="translate(-59.332 -234.41)" fill="#2b7b74"/>
  <path id="Path_47270" data-name="Path 47270" d="M391,241.41a.41.41,0,0,0,.41.41h.82a.41.41,0,0,0,0-.82h-.82A.41.41,0,0,0,391,241.41Z" transform="translate(-380.309 -234.41)" fill="#2b7b74"/>
  <path id="Path_47271" data-name="Path 47271" d="M241.82,153.7V151.41a.41.41,0,0,0-.82,0v2.461a.41.41,0,0,0,.12.29l2.461,2.461a.41.41,0,1,0,.58-.58Z" transform="translate(-234.41 -146.871)" fill="#2b7b74"/>
</svg>
