<svg id="Layer_2" data-name="Layer 2" xmlns="http://www.w3.org/2000/svg" xmlns:xlink="http://www.w3.org/1999/xlink" width="26" height="26" viewBox="0 0 26 26">
  <defs>
    <linearGradient id="linear-gradient" x1="0.239" y1="0.096" x2="1.306" y2="1.401" gradientUnits="objectBoundingBox">
      <stop offset="0" stop-color="#048e81"/>
      <stop offset="1" stop-color="#0995eb"/>
    </linearGradient>
  </defs>
  <g id="invisible_box" data-name="invisible box">
    <rect id="Rectangle_1548" data-name="Rectangle 1548" width="26" height="26" fill="none"/>
    <rect id="Rectangle_1549" data-name="Rectangle 1549" width="26" height="26" fill="none"/>
  </g>
  <g id="icons_Q2" data-name="icons Q2" transform="translate(1.083 3.284)">
    <path id="Path_48017" data-name="Path 48017" d="M25.833,8.3a9.912,9.912,0,0,1-2.817.813,5.092,5.092,0,0,0,2.167-2.708A12.567,12.567,0,0,1,22.1,7.6a4.929,4.929,0,0,0-8.5,3.3,4.117,4.117,0,0,0,.163,1.138A13.975,13.975,0,0,1,3.679,6.95a4.6,4.6,0,0,0-.7,2.437A4.821,4.821,0,0,0,5.2,13.45a4.388,4.388,0,0,1-2.221-.6h0a4.821,4.821,0,0,0,3.9,4.821,4.658,4.658,0,0,1-1.3.217l-.921-.108a4.983,4.983,0,0,0,4.6,3.413,9.858,9.858,0,0,1-6.067,2.058H2a13.6,13.6,0,0,0,7.475,2.221A13.843,13.843,0,0,0,23.4,11.554v-.7A9.912,9.912,0,0,0,25.833,8.3Z" transform="translate(-2 -6.063)" fill="url(#linear-gradient)"/>
  </g>
</svg>
