<svg id="add-photo" xmlns="http://www.w3.org/2000/svg" width="20.003" height="20" viewBox="0 0 20.003 20">
  <path id="Path_47983" data-name="Path 47983" d="M2,19.631a.662.662,0,0,1-.331-.087A3.331,3.331,0,0,1,0,16.669V3.331A3.337,3.337,0,0,1,3.331,0H16.669A3.337,3.337,0,0,1,20,3.331V14a.669.669,0,1,1-1.331,0V3.331a2,2,0,0,0-2-2H3.331a2,2,0,0,0-2,2V16.669a1.994,1.994,0,0,0,1,1.725A.669.669,0,0,1,2,19.644Z" fill="#fff"/>
  <path id="Path_47984" data-name="Path 47984" d="M16.4,27.2H8.193A1.794,1.794,0,0,1,6.4,25.406a6.15,6.15,0,0,1,5.056-6.131,6,6,0,0,1,5.188,1.675,3.76,3.76,0,0,1,.262.288.669.669,0,1,1-1.013.862l-.187-.206a4.675,4.675,0,0,0-4.044-1.306A4.806,4.806,0,0,0,7.737,25.4a.462.462,0,0,0,.462.462h8.2a.669.669,0,1,1,0,1.331Z" transform="translate(-2.4 -7.199)" fill="#fff"/>
  <path id="Path_47985" data-name="Path 47985" d="M13.6,12.27a4,4,0,1,1,4-4A4,4,0,0,1,13.6,12.27Zm0-6.669A2.669,2.669,0,1,0,16.269,8.27,2.669,2.669,0,0,0,13.6,5.6Z" transform="translate(-3.6 -1.601)" fill="#fff"/>
  <path id="Path_47986" data-name="Path 47986" d="M26.84,24.763h-.669V24.1a.669.669,0,1,0-1.331,0v.663h-.662a.669.669,0,0,0,0,1.331h.663v.669a.669.669,0,1,0,1.331,0v-.669h.669a.669.669,0,0,0,0-1.331Z" transform="translate(-8.84 -8.763)" fill="#fff"/>
</svg>
