<svg xmlns="http://www.w3.org/2000/svg" width="21.6" height="18" viewBox="0 0 21.6 18">
  <g id="suitcase" transform="translate(0 -2)">
    <path id="Path_48036" data-name="Path 48036" d="M14.3,6.05a.9.9,0,0,1-.9-.9V3.8H9.8V5.15a.9.9,0,1,1-1.8,0V3.8A1.8,1.8,0,0,1,9.8,2h3.6a1.8,1.8,0,0,1,1.8,1.8V5.15A.9.9,0,0,1,14.3,6.05Z" transform="translate(-0.8)" fill="#363848"/>
    <path id="Path_48037" data-name="Path 48037" d="M11.439,15a1.854,1.854,0,0,1-.639.108,1.972,1.972,0,0,1-.693-.126L0,11.62v6.867a2.474,2.474,0,0,0,2.475,2.475h16.65A2.474,2.474,0,0,0,21.6,18.487V11.62Z" transform="translate(0 -0.962)" fill="#363848"/>
    <path id="Path_48038" data-name="Path 48038" d="M21.6,7.475V9.536L11.016,13.064a.666.666,0,0,1-.432,0L0,9.536V7.475A2.474,2.474,0,0,1,2.475,5h16.65A2.474,2.474,0,0,1,21.6,7.475Z" transform="translate(0 -0.3)" fill="#363848"/>
  </g>
</svg>
