<svg xmlns="http://www.w3.org/2000/svg" width="26" height="26" viewBox="0 0 26 26">
  <path id="real-estate" d="M25.762,18.427a4.218,4.218,0,0,0-5.959,0l-1.138,1.138h-1.96A4.5,4.5,0,0,0,12.083,16H4.262a.813.813,0,0,0-.812.812v.805H.812A.813.813,0,0,0,0,18.435v6.752A.813.813,0,0,0,.812,26H19a.813.813,0,0,0,.574-.238l6.186-6.186a.812.812,0,0,0,0-1.149Zm-24.137.821H3.45v5.127H1.625Zm17.04,5.127H5.075V17.63h7.008a2.968,2.968,0,0,1,2.954,1.935H9.359a.812.812,0,1,0,0,1.625H19a.813.813,0,0,0,.574-.238l1.376-1.376a2.593,2.593,0,0,1,2.994-.482ZM6.566,6.425l.6-.433V11.96a1.779,1.779,0,0,0,1.777,1.777h8.1a1.779,1.779,0,0,0,1.777-1.777V5.992l.6.433A.813.813,0,1,0,20.381,5.1L13.473.152a.812.812,0,0,0-.947,0L5.619,5.1a.813.813,0,1,0,.947,1.321ZM13,1.812l4.2,3.015V11.96a.154.154,0,0,1-.152.152h-3.24v-3.1a.812.812,0,1,0-1.625,0v3.1H8.948A.154.154,0,0,1,8.8,11.96V4.827Z" transform="translate(0 0)" fill="#404040"/>
</svg>
