<svg id="Layer_2" data-name="Layer 2" xmlns="http://www.w3.org/2000/svg" width="32" height="32" viewBox="0 0 32 32">
  <g id="invisible_box" data-name="invisible box">
    <rect id="Rectangle_1261" data-name="Rectangle 1261" width="32" height="32" fill="none"/>
  </g>
  <g id="icons_Q2" data-name="icons Q2" transform="translate(1.333 1.333)">
    <path id="Path_47149" data-name="Path 47149" d="M16.667,4.667a12,12,0,1,1-12,12,12,12,0,0,1,12-12m0-2.667A14.6,14.6,0,1,0,27.057,6.276,14.667,14.667,0,0,0,16.667,2Z" transform="translate(-2 -2)" fill="#46954b"/>
    <path id="Path_47150" data-name="Path 47150" d="M16.4,26.667l-4-3.933a1.4,1.4,0,0,1-.133-1.8,1.267,1.267,0,0,1,2-.133l3.067,3.067,8.4-8.4A1.333,1.333,0,0,1,27.6,17.333l-9.333,9.333a1.267,1.267,0,0,1-1.867,0Z" transform="translate(-5.334 -6.4)" fill="#46954b"/>
  </g>
</svg>
