<svg xmlns="http://www.w3.org/2000/svg" width="158.519" height="72" viewBox="0 0 158.519 72">
  <g id="Page-1" transform="translate(-0.578 -0.054)" style="mix-blend-mode: luminosity;isolation: isolate">
    <g id="Artboard" transform="translate(0.578 0.054)">
      <g id="Logo" transform="translate(0 0)">
        <g id="Group_303" data-name="Group 303" transform="translate(0 0)">
          <g id="Group_302" data-name="Group 302" transform="translate(0 51.781)">
            <rect id="Rectangle" width="37.157" height="10.11" transform="translate(43.103 5.777)" fill="#f1da69"/>
            <path id="Rectangle-2" data-name="Rectangle" d="M13.377,12.689H96.609L81.746,32.909H0Z" transform="translate(0 -12.689)" fill="#f1da69" fill-rule="evenodd"/>
            <text id="وزارة-العدل" transform="translate(17.839 10.397)" fill="#242727" font-size="8" font-family="GeezaPro-Bold, Geeza Pro" font-weight="700"><tspan x="0" y="0">العدل</tspan><tspan y="0" font-family="Helvetica-Bold, Helvetica"> </tspan><tspan y="0">وزارة</tspan></text>
          </g>
          <g id="Logos-01" transform="translate(108.97 0)">
            <path id="Path" d="M12.125,11.067V24.485l-11.59-1.4Z" transform="translate(-0.214 5.096)" fill="#0f965f"/>
            <path id="Path-2" data-name="Path" d="M12.229,20.588v2.338L.342,39.891l-.024-.024V19.528l.321-.336Z" transform="translate(-0.318 8.992)" fill="#f1da69"/>
            <path id="Path-3" data-name="Path" d="M12.409,34.045,1.34,39.664.334,38.68,12.221,21.716V33.862Z" transform="translate(-0.31 10.203)" fill="#0f7f4b"/>
            <path id="Path-4" data-name="Path" d="M13.574,31.5,11.028,45.4,1.014,35.668l11.069-5.619Z" transform="translate(0.016 14.199)" fill="#31b574"/>
            <path id="Path-5" data-name="Path" d="M19.1,39.551,9.7,46.784,7.782,44.929l2.546-13.9Z" transform="translate(3.262 14.669)" fill="#0f965f"/>
            <path id="Path-6" data-name="Path" d="M19.364,37.654l-1.024,9.583H12.381l-3.3-3.216,9.4-7.233Z" transform="translate(3.883 17.431)" fill="#31b574"/>
            <path id="Path-7" data-name="Path" d="M26.224,46.957H15.337l1.024-9.583Z" transform="translate(6.885 17.712)" fill="#0f7f4b"/>
            <path id="Path-8" data-name="Path" d="M22.863,26.1,19.814,39.569l-9-8.806v-5.8l11.917-.271v1.278Z" transform="translate(4.718 11.629)" fill="#31b574"/>
            <path id="Path-9" data-name="Path" d="M22.735,13.05V30.273l-11.917.271v-1.82Z" transform="translate(4.718 6.046)" fill="#0f965f"/>
            <path id="Path-10" data-name="Path" d="M22.735,14.466v.783L10.818,30.923V8.5l.042-.041Z" transform="translate(4.718 3.847)" fill="#0f7f4b"/>
            <path id="Path-11" data-name="Path" d="M22.722.143V18.456l-11.875-6Z" transform="translate(4.732 -0.143)" fill="#31b574"/>
            <path id="Path-12" data-name="Path" d="M31.476,33.452l-.7,15.633h-.055L16.9,35.66,30.84,32.839Z" transform="translate(7.634 15.537)" fill="#f1da69"/>
            <path id="Path-13" data-name="Path" d="M37.417,43.4v5.49H26.276l.7-15.633Z" transform="translate(12.132 15.736)" fill="#31b574"/>
            <path id="Path-14" data-name="Path" d="M35.8,20.259V30.82c-1.552-1-4.316-2.774-6.165-3.982Z" transform="translate(13.745 9.504)" fill="#f1da69"/>
            <path id="Path-15" data-name="Path" d="M36.014,28.524V40.51L29.2,33.884Z" transform="translate(13.535 13.468)" fill="#0f7f4b"/>
            <path id="Path-16" data-name="Path" d="M30.84,36.291,16.9,39.112l3.049-13.471L21.6,27.309Z" transform="translate(7.634 12.085)" fill="#0f7f4b"/>
            <path id="Path-17" data-name="Path" d="M37.653,28.688v1.667L30.84,35.721l-5.055-4.912h0l5.716-6.1C33.319,25.913,36.1,27.692,37.653,28.688Z" transform="translate(11.896 11.637)" fill="#31b574"/>
          </g>
          <g id="Group" transform="translate(13.342 2.213)">
            <path id="Combined-Shape" d="M8.466,37.855,9.82,39.5,8.127,40.924,6.7,39.279Zm-3.158,0L6.7,39.5,4.944,40.924l-1.4-1.645ZM71.846,33.3a5.962,5.962,0,0,1,1.253.14L73,34.475a10.532,10.532,0,0,0-1.321-.082,4.488,4.488,0,0,0-.7.058,1.767,1.767,0,0,0,0,.452,1.722,1.722,0,0,0,.432,1.2,6.293,6.293,0,0,0,1.947-.247l.068.041.169,1.053a9.646,9.646,0,0,1-2.336.247H69.2v-1.16l1.058.041a1.674,1.674,0,0,1-.4-1.053,2.99,2.99,0,0,1,.381-1.456A4.887,4.887,0,0,1,71.846,33.3Zm-53.061-9.92v8.275H14.552a4.775,4.775,0,0,1-1.287-.2h0l-.03-.029c-.217-.065-.457-.138-.7-.235h0l-.076.148a13.6,13.6,0,0,1,2.2,2.122h0L14.1,35.338a16.928,16.928,0,0,1-3.386,1.069,18.9,18.9,0,0,1-3.877.411Q0,36.819,0,31.686a7.973,7.973,0,0,1,.61-3.134h0l1.532-.247.127.1a8.535,8.535,0,0,0-.466,2.78,2.956,2.956,0,0,0,1.312,2.7,7.806,7.806,0,0,0,4.14.823,16.332,16.332,0,0,0,5.621-.823,15.1,15.1,0,0,0-4.9-3.685h0l.66-1.645.144-.058a9.211,9.211,0,0,0,4.588,1.053h3.5V23.378Zm7.348-.485.025.033a3.028,3.028,0,0,1,2.353,1.127,6.684,6.684,0,0,1,1.405,2.706,12.48,12.48,0,0,1,.423,3.29q0,6.1-5.079,6.1a6.5,6.5,0,0,1-2.76-.6l-.339-1.793.144-.123a10.094,10.094,0,0,0,3.225.494,3.357,3.357,0,0,0,2.006-.518,2.665,2.665,0,0,0,.889-1.917q-4.622-.4-6.772-3.192a10.113,10.113,0,0,1,1.8-4.022A3.494,3.494,0,0,1,26.133,22.893Zm29.815-6.729.99,1.546L50.454,24.02a16.536,16.536,0,0,1,3.2-.329,6.125,6.125,0,0,1,3.979,1.291,5.689,5.689,0,0,1,1.9,4.047,3.646,3.646,0,0,0,1.972.477h.322l.032.041h2.263V16.189h1.972V31.645H61.823L61.8,31.62h-.379a3.431,3.431,0,0,1-2.4-1.045l-.593,1.045H47.135l-.007-.011-.009.011h-.4a3.85,3.85,0,0,1-2.54-1.234L43.4,31.62H39.33l-.013-.012-.012.012h-.339a3.706,3.706,0,0,1-2.159-.864v.411q0,4.935-3.869,4.935a3.737,3.737,0,0,1-1.591-.354l-.339-1.793.152-.123a6.551,6.551,0,0,0,1.871.247,1.717,1.717,0,0,0,1.414-.584,3.161,3.161,0,0,0,.474-1.95V24.061h1.888v5.034a4.608,4.608,0,0,0,2.184.452h.3l.035-.024H42.9V24.036h1.93v4.993a3.551,3.551,0,0,0,2,.494H57.785a4.063,4.063,0,0,0-1.507-3.052,6.061,6.061,0,0,0-3.386-.823,29.927,29.927,0,0,0-4.03.312l-.787-1.736,7.678-8.061Zm28.24.025V31.653H82.275V16.189Zm-6,0v2.262a12.567,12.567,0,0,1-1.38,6.457h-.042a21.04,21.04,0,0,1,3.056,4.779l-.9,1.958H69.5l-.72-1.81.042-.23a18.913,18.913,0,0,0,5.384-4.179l.3-.354a53.35,53.35,0,0,0-5.435-4.779v-.173l1.355-1.168a50.516,50.516,0,0,1,5.079,4.532,11.792,11.792,0,0,0,.779-4.746v-2.55Zm-52.3,8.884a1.755,1.755,0,0,0-1.261.823,6.285,6.285,0,0,0-.927,1.642l-.113.328.254.214a7.634,7.634,0,0,0,4.672,1.65,10.42,10.42,0,0,0-.347-2.237,4.31,4.31,0,0,0-.847-1.711A1.82,1.82,0,0,0,25.887,25.073Zm49.776,1.275-.186.23a14.229,14.229,0,0,1-4.03,3.068h6.535a19.817,19.817,0,0,0-2.319-3.29Zm-33.4-7.189L43.512,20.6l1.761-1.423,1.38,1.588-1.761,1.423-1.253-1.439L41.9,22.169,40.5,20.581ZM17.93,18.7,19.3,20.31l-1.752,1.423-1.405-1.6Z" transform="translate(0 7.752)" fill="#3b3e42"/>
            <path id="Combined-Shape-2" data-name="Combined-Shape" d="M66.427,0V15.465H62.16l-.026-.025h-.381A3.63,3.63,0,0,1,59.3,14.387v.041l-1.507,1.407L52.95,13.688a4.349,4.349,0,0,1-1.338,1.374,3.285,3.285,0,0,1-1.693.4H49.75l-.02-.031,0,.006h-.339a3.706,3.706,0,0,1-2.159-.864v.411q0,4.935-3.869,4.935a3.851,3.851,0,0,1-1.592-.345l-.339-1.793.152-.123a6.525,6.525,0,0,0,1.862.247,1.716,1.716,0,0,0,1.422-.592,3.128,3.128,0,0,0,.474-1.95V7.889h1.888v5.026a4.51,4.51,0,0,0,2.184.452h.313l.011.013.015-.021h.339a1.716,1.716,0,0,0,1.287-.543,10.113,10.113,0,0,0,1.3-2.007,11.341,11.341,0,0,1,2-2.8,3.19,3.19,0,0,1,2.269-1A2.693,2.693,0,0,1,59.223,8.25a5.256,5.256,0,0,1,.846,3.15,6.5,6.5,0,0,1-.186,1.546,3.806,3.806,0,0,0,1.947.411h.322l0,0,.005,0h2.294V0ZM30.94,5.725a19.133,19.133,0,0,1,4.233,7.79l-1.084,1.95H27.131l-.508-1.917.169-.189h6.518A22.4,22.4,0,0,0,29.34,7.05L30.7,5.725ZM40.142,0V15.465H38.229V0ZM71.989,0V15.465H70.076V0ZM56.531,9.122a1.577,1.577,0,0,0-1.194.65,12.828,12.828,0,0,0-1.3,2.048l-.136.288,3.928,1.752a5.045,5.045,0,0,0,.466-2.106,3.428,3.428,0,0,0-.508-1.917A1.455,1.455,0,0,0,56.531,9.122ZM46.44,2.336l1.38,1.645L46.059,5.363l-1.405-1.6Z" transform="translate(12.768 0)" fill="#3b3e42"/>
          </g>
        </g>
      </g>
    </g>
  </g>
</svg>
