<svg id="Page-1" xmlns="http://www.w3.org/2000/svg" width="26" height="26" viewBox="0 0 26 26">
  <g id="_019---Law-Writing" data-name="019---Law-Writing" transform="translate(0 0)">
    <path id="Shape" d="M7.315,17a1.29,1.29,0,0,0,.823-.292L11.995,13.6a1.3,1.3,0,0,0,.774.349c.039,0,.079.005.118.005a1.3,1.3,0,0,0,.858-.322l.385-.334.166.21a.87.87,0,0,0,.1.922l.429.542a.856.856,0,0,0,.579.322.947.947,0,0,0,.1.005.852.852,0,0,0,.537-.19l3.507-2.817a.87.87,0,0,0,.136-1.213l-.428-.542a.837.837,0,0,0-.812-.313L14.916,5.764a.867.867,0,0,0-.108-.893l-.428-.542a.862.862,0,0,0-1.213-.138L9.659,7.008a.871.871,0,0,0-.137,1.216l.426.545a.856.856,0,0,0,.58.322.824.824,0,0,0,.1.005.846.846,0,0,0,.166-.018l.236.3-.461.372a1.314,1.314,0,0,0-.236,1.806l-3.839,3.1a1.329,1.329,0,0,0-.2,1.854A1.3,1.3,0,0,0,7.315,17Zm8.185-2.57-.429-.544,2.253-1.809,1.248-1,0,0,.423.54ZM14.92,12.9l-.4-.51L11.979,9.181s0-.007-.006-.01-.006,0-.008-.007l-.436-.551L14.3,6.386l3.391,4.287ZM13.7,4.87l.426.54-.03.024L10.651,8.2c-.006.005-.009.013-.015.018l-.008.006L10.2,7.685ZM11.11,10.423l.456-.368,2.026,2.561-.414.359a.445.445,0,0,1-.64-.056l-1.5-1.854a.458.458,0,0,1-.1-.339A.448.448,0,0,1,11.11,10.423Zm-4.073,4.9,3.834-3.092.567.7-3.845,3.1a.433.433,0,0,1-.278.1.441.441,0,0,1-.347-.17.458.458,0,0,1,.068-.641Z" transform="translate(-3.401 -2.268)" fill="#404040"/>
    <path id="Shape-2" data-name="Shape" d="M6.433,37.867H16.4a.433.433,0,0,0,0-.867H6.433a.433.433,0,0,0,0,.867Z" transform="translate(-3.4 -20.967)" fill="#404040"/>
    <path id="Shape-3" data-name="Shape" d="M6.433,42.867h7.8a.433.433,0,0,0,0-.867h-7.8a.433.433,0,0,0,0,.867Z" transform="translate(-3.4 -23.8)" fill="#404040"/>
    <path id="Shape-4" data-name="Shape" d="M6.433,47.867h6.5a.433.433,0,0,0,0-.867h-6.5a.433.433,0,0,0,0,.867Z" transform="translate(-3.4 -26.633)" fill="#404040"/>
    <path id="Shape-5" data-name="Shape" d="M24.884,9.018a1.752,1.752,0,0,0-2.467.014l-2.13,2.131-1.22,1.221V1.3a1.3,1.3,0,0,0-1.3-1.3H3.467A.433.433,0,0,0,3.16.127L.127,3.16A.433.433,0,0,0,0,3.467V24.7A1.3,1.3,0,0,0,1.3,26H17.767a1.3,1.3,0,0,0,1.3-1.3V18.509l4.277-4.277.008,0s0-.006,0-.008l1.213-1.213A.013.013,0,0,0,24.577,13s0-.005.005-.007l.9-.9A1.741,1.741,0,0,0,25.5,9.63Zm-1.84,4.29-.918-.917-.919-.919.613-.613L23.657,12.7Zm-7.967,7.966-.611-.611,7.354-7.354.612.612Zm-2.95,1.252a.1.1,0,0,1-.113-.025.1.1,0,0,1-.029-.1l.814-2.178,1.5,1.5Zm8.467-10.443.613.614-7.354,7.353-.611-.611ZM3.033,1.479V2.6a.433.433,0,0,1-.433.433H1.479ZM18.2,24.7a.433.433,0,0,1-.433.433H1.3A.433.433,0,0,1,.867,24.7V3.9H2.6A1.3,1.3,0,0,0,3.9,2.6V.867H17.767A.433.433,0,0,1,18.2,1.3V13.251l-5.737,5.74a1.229,1.229,0,0,0-.306.469l-.988,2.646a.972.972,0,0,0-.039.427h-8.1a.433.433,0,1,0,0,.867h9.1a1.7,1.7,0,0,0,.286-.058l2.633-.982a1.221,1.221,0,0,0,.464-.3L18.2,19.376Zm6.673-13.221-.6.6-1.838-1.837.6-.6a.893.893,0,0,1,.632-.262.864.864,0,0,1,.611.249l.61.61a.867.867,0,0,1,.251.618.876.876,0,0,1-.26.62Z" transform="translate(0 0)" fill="#404040"/>
  </g>
</svg>
