<svg id="Layer_2" data-name="Layer 2" xmlns="http://www.w3.org/2000/svg" width="36" height="36" viewBox="0 0 36 36">
  <g id="invisible_box" data-name="invisible box">
    <rect id="Rectangle_56" data-name="Rectangle 56" width="36" height="36" fill="none"/>
    <rect id="Rectangle_57" data-name="Rectangle 57" width="36" height="36" fill="none"/>
    <rect id="Rectangle_58" data-name="Rectangle 58" width="36" height="36" fill="none"/>
  </g>
  <g id="Q3_icons" data-name="Q3 icons" transform="translate(7.501 6.738)">
    <path id="Path_47034" data-name="Path 47034" d="M30.55,18.371l-9-8.925a1.425,1.425,0,0,0-2.1,0l-9,8.925A1.575,1.575,0,0,0,10.3,20.4a1.425,1.425,0,0,0,2.25.15L19,14.1V30a1.5,1.5,0,0,0,3,0V14.1l6.45,6.45a1.425,1.425,0,0,0,2.25-.15,1.575,1.575,0,0,0-.15-2.025Z" transform="translate(-10.001 -8.985)" fill="#0995eb"/>
  </g>
</svg>
