<svg xmlns="http://www.w3.org/2000/svg" width="126.574" height="107.647" viewBox="0 0 126.574 107.647">
  <g id="_0ac920ce-a620-4aca-a4e1-9ec65bbfb0d4" data-name="0ac920ce-a620-4aca-a4e1-9ec65bbfb0d4" transform="translate(-12.967 -13.358)">
    <path id="Path_2" data-name="Path 2" d="M357.066,272.939c-2.529-.219-2.866-2.019-2.866-4.042v-43.53c0-4.834.042-9.694,0-14.507-.021-2.634,1.193-3.861,3.814-3.861q25.027.025,50.054,0c1.108,0,2.276-.067,2.992,1.071-1.463,3.62-1,7.426-1.012,11.173-.025,15.818,0,31.64-.042,47.458,0,1.193.539,2.731-1.193,3.372-.919-1.159-.683-2.529-.683-3.848q-.025-25.786,0-51.572c0-4.08,0-4.084-4-4.084H361.188c-3.342,0-3.372.021-3.372,3.427v51.993c0,3.229.067,3.3,3.3,3.3h43.576c1.239,0,2.529-.228,3.663.6.316,1.159-.683,1.02-1.264,1.159a12.144,12.144,0,0,1-2.929.139h-42.4C359.949,271.206,358.275,271.367,357.066,272.939Z" transform="translate(-306.548 -193.64)" fill="#fff"/>
    <path id="Path_3" data-name="Path 3" d="M412.816,271.539c.868-.628.472-1.551.476-2.331q.038-27.59,0-55.171a5.273,5.273,0,0,1,1.745-4.468c1.142.687.843,1.85.843,2.845.021,19.346,0,38.691.038,58.041,0,2.815-1.058,4.071-3.97,4.059-16.964-.08-33.933-.067-50.9-.089,0-2.053,1.155-2.5,3-2.491q22.983.067,45.962,0c.813,0,1.686.261,2.428-.341a.228.228,0,0,1,.379-.055Z" transform="translate(-310.511 -195.128)" fill="#fff"/>
    <path id="Path_4" data-name="Path 4" d="M539.793,404.618c-2.364-1.6-5.032.7-7.717.067-.9-.211-1.37.3-1.787,1.045a4.1,4.1,0,0,1-2.841,1.989c-1.012.219-2.36.691-2.681-.658s1.239-.552,1.85-.974c.523-.392,1.627-.384,1.61-1.079s-1.007-.287-1.547-.451c-2.2-.679-3.545-1.951-3.2-4.434.312-2.28,1.618-3.578,3.953-3.431,2.428.156,3.271,1.829,3.372,4.042.042,1.016-.476,2.407,1.488,2.171,1.745-.207,4.105.721,4.274-2.289.1-1.8.78-3.119,2.558-3.642a3.371,3.371,0,0,1,3.958,1.142,4.215,4.215,0,0,1,.333,4.746A3.37,3.37,0,0,1,539.793,404.618Z" transform="translate(-404.449 -303.377)" fill="#fff"/>
    <path id="Path_5" data-name="Path 5" d="M484.351,404.624c-2.234.211-5.083-.919-6.668,2.246-.253.51-1.336.7-2.074.843-.843.19-2.061.51-2.365-.607-.421-1.522,1.155-.632,1.715-1.066s1.724-.7,1.711-.99c-.046-.986-1.062-.421-1.635-.594-2.145-.691-3.33-1.989-3.081-4.341.219-2.107,1.353-3.4,3.481-3.515a3.286,3.286,0,0,1,3.751,3.583c0,2.567,1.294,2.9,3.372,2.659a17.483,17.483,0,0,1,3.793,0c2.529.266,4.164-.308,3.654-3.346-.08-.472-.24-1.214.679-1.222a1.387,1.387,0,0,1,1.408,1.037,3.8,3.8,0,0,1-3.713,5.294C487.128,404.641,485.864,404.624,484.351,404.624Z" transform="translate(-374.654 -303.325)" fill="#fff"/>
    <path id="Path_6" data-name="Path 6" d="M454.49,401.526c-.051,5.058-1.812,7.03-5.534,6.866a4.942,4.942,0,0,1-4.868-5.6,3.047,3.047,0,0,1,.464-1.581c.3-.384,1.02-.818,1.378-.7.577.19.084.843,0,1.264-.527,3.3,1.29,5.386,4.181,4.67.632-.156,1.618-.679,1.648-1.087.059-.94-.931-.388-1.446-.531-2.331-.657-3.793-2.023-3.275-4.556s2.284-3.7,4.822-3.009C454.326,397.927,454.444,400.089,454.49,401.526Z" transform="translate(-358.538 -303.598)" fill="#fff"/>
    <path id="Path_7" data-name="Path 7" d="M272.005,397.25a9.643,9.643,0,0,1,.025-2.107c.257-1.125-.974-2.883,1.163-3.25,2.217-.379,4.518-.742,6.17,1.391.636.822.961,2.137.27,2.744-2.276,2-.468,3.646.126,5.454.16.489,1.1,1.087.211,1.572a1.484,1.484,0,0,1-2.107-.813c-.451-.835-.809-1.774-1.264-2.647a1.559,1.559,0,0,0-1.783-.843c-.75.139-.421.885-.573,1.387-.27.974.953,2.773-.927,2.794s-1.235-1.821-1.315-2.984C271.946,399.054,272.009,398.139,272.005,397.25Z" transform="translate(-258.94 -300.439)" fill="#fff"/>
    <path id="Path_8" data-name="Path 8" d="M362.621,395.525c0-1.054-.046-2.107.021-3.148.038-.594-.422-1.581.759-1.568a1.319,1.319,0,0,1,1.344,1.555c-.206,1.846.266,2.065,2.141,1.728,2.284-.422,3.574,1.264,3.894,3.473a4.419,4.419,0,0,1-3.667,5.247,3.761,3.761,0,0,1-4.362-3.313,20.146,20.146,0,0,1-.046-3.974Z" transform="translate(-311.399 -299.979)" fill="#fff"/>
    <path id="Path_9" data-name="Path 9" d="M449.219,446.368c-3.574,0-7.165.046-10.727-.021-1.614-.03-2.744-.8-2.491-2.626.236-1.686,1.479-2,2.95-1.935,1.568.067,1.323,1.2,1.264,2.128-.084,1.264.312,1.8,1.648,1.686,1.18-.105,2.381,0,3.574-.03,1.4-.029,3.22.725,2.853-2.107-.152-1.155,1.189-1.791,2.478-1.686a1.638,1.638,0,0,1,1.652,2c-.421,2.436,1.328,1.61,2.466,1.787,1.724.266,1.749-.767,1.711-2.01,0-.544-.358-1.56.421-1.551s.421,1.033.421,1.576c-.067,1.315.126,2.053,1.77,2.031s1.559-.843,1.614-1.985c.063-1.264-.468-2.609.341-3.814,1.054,1.184.257,2.6.5,3.894.375,2.044-.325,2.845-2.554,2.7-3.283-.215-6.588-.055-9.884-.055Z" transform="translate(-353.852 -328.327)" fill="#fff"/>
    <path id="Path_10" data-name="Path 10" d="M402.689,398.35a3.106,3.106,0,0,1,3.11,3.014c.16,2.027-1.441,2.019-2.832,2.3-.716.148-2.175-.375-2.023.6.181,1.18,1.6,1.227,2.8,1.108.561-.055,1.37-1.125,1.686-.025.249.881-.628,1.441-1.5,1.711a4.215,4.215,0,0,1-4.577-1.269,4.552,4.552,0,0,1-.611-5.117C399.376,399.1,400.721,398.363,402.689,398.35Z" transform="translate(-332.025 -304.342)" fill="#fff"/>
    <path id="Path_11" data-name="Path 11" d="M294.129,402.909c-.051-3.043,2.192-5.138,4.9-4.5a3.02,3.02,0,0,1,2.634,3.051c0,1.829-1.446,1.876-2.765,2.183-.733.173-2.242-.62-2.082.725.114.953,1.576,1.083,2.7,1,.573-.042,1.345-1.113,1.686-.072.358,1.117-.725,1.526-1.61,1.779a4.307,4.307,0,0,1-5.458-4.173Z" transform="translate(-271.795 -304.31)" fill="#fff"/>
    <path id="Path_12" data-name="Path 12" d="M348.222,402.972c.114,2.613-1.007,4.215-3.747,4.139-1.715-.038-3.275-.746-3.372-2.7-.1-1.859,1.458-2.259,2.925-2.689.641-.181,2.074.662,1.817-.776-.207-1.155-1.555-.843-2.529-.813-.59,0-1.382,1.007-1.686.08s.636-1.42,1.467-1.715C346.144,397.413,348.243,399.247,348.222,402.972Z" transform="translate(-298.969 -304.248)" fill="#fff"/>
    <path id="Path_13" data-name="Path 13" d="M533.554,446.42c-2.449,0-4.91-.147-7.346.042-2.107.164-2.8-.586-2.474-2.571.219-1.328-.421-2.74.379-4.021,1.1,1.167.468,2.6.472,3.878,0,1.467.421,2.01,1.905,1.892a34.188,34.188,0,0,1,4.409,0c2.036.1,4.046.282,3.448-2.82-.055-.287-.063-.805.421-.742.181.021.354.485.422.771.27.881-.565,2.259.565,2.617s2.976.843,2.735-1.656c-.03-.3-.75-2.036.931-.877.11.08.582-.312.843-.531a2.058,2.058,0,0,1,2.529-.287c1.264.881.843,2.268.742,3.49s-1.129.8-1.816.813C539.016,446.441,536.285,446.415,533.554,446.42Z" transform="translate(-404.583 -328.362)" fill="#fff"/>
    <path id="Path_14" data-name="Path 14" d="M386.911,396.877c0-1.121-.067-2.242.03-3.351.046-.548-.535-1.6.725-1.513a1.4,1.4,0,0,1,1.408,1.513c0,1.745-.038,3.494,0,5.239.038,1.218-.54,2.807,1.564,3.014a.485.485,0,0,1,.282.813c-.291.346-.721.78-1.108.8a2.492,2.492,0,0,1-2.908-2.744C386.869,399.389,386.911,398.133,386.911,396.877Z" transform="translate(-325.435 -300.672)" fill="#fff"/>
    <path id="Path_15" data-name="Path 15" d="M318.959,397.282c.573,1.475-1.2,3.793,1.732,4.78.624.206-.173,1.311-.889,1.361-1.686.122-2.921-.514-2.95-2.411-.055-2.529-.046-5.058,0-7.553,0-.527-.354-1.416.7-1.391a1.357,1.357,0,0,1,1.408,1.294C319.022,394.614,318.959,395.879,318.959,397.282Z" transform="translate(-284.909 -300.707)" fill="#fff"/>
    <path id="Path_16" data-name="Path 16" d="M348.313,445.034c-.1.459.421,1.172-.341,1.235-.649.055-.5-.7-.594-1.138-.042-.2,0-.421-.038-.628-.173-.738-.367-1.475-.552-2.213-.316.679-.645,1.357-.952,2.04s-.228,2.061-1.138,1.96c-1.041-.114-.889-1.568-1.357-2.381-.291-.5.029-1.344-.843-1.526-.067.539-.114,1.083-.2,1.618s-.215,1.1-.346,1.64c-.08.316-.11.771-.59.653-.143-.038-.3-.464-.274-.683.215-1.589.476-3.174.725-4.758.067-.421.16-.843.729-.843s.615.472.759.843q.679,1.825,1.361,3.654c.485-1.222.931-2.457,1.467-3.65.148-.333.527-.75.843-.78.636-.063.7.548.771,1.033C347.934,442.446,348.124,443.757,348.313,445.034Z" transform="translate(-298.959 -328.443)" fill="#fff"/>
    <path id="Path_17" data-name="Path 17" d="M329.7,402.868c.716-.931-1.075-3.081,1.016-3.1,1.914,0,.9,2.082,1.151,3.25s-.708,2.761,1.29,3.275c.51.131.421.662.2,1.054a1.222,1.222,0,0,1-1.441.527C328.833,407.264,330.131,404.743,329.7,402.868Z" transform="translate(-292.351 -305.163)" fill="#fff"/>
    <path id="Path_18" data-name="Path 18" d="M375.784,439.25c.653.527.261,1.286.422,1.926.1.421-.388,1.214.539,1.163.6-.034.552-1.433,1.564-.843-.316.518-.67,1.02-.936,1.56a1.08,1.08,0,0,0,0,.771c.27.75,1.589,1.6,1.058,1.981-.843.607-1.125-.843-1.715-1.323-.257-.206-.459-.32-.582.08s.316,1.391-.561,1.227c-.7-.135-.379-1.075-.4-1.661-.042-1.323-.025-2.647,0-3.97C375.165,439.747,375.144,439.279,375.784,439.25Z" transform="translate(-318.65 -328.003)" fill="#fff"/>
    <path id="Path_19" data-name="Path 19" d="M514.123,452.083c-2.259.051-3.068-1.189-1.918-3.165.422-.746-.185-.986-.287-1.458-.3-1.357.059-2.386,1.437-2.815a2.716,2.716,0,0,1,1.538.059c.185,1.012-.712.362-1.1.561-.637.333-1.041.733-1.007,1.425.042,1,.7,1.437,1.623,1.614.316.059.873.253.864.354-.034.59-.565.447-.952.489-.792.093-1.922-.152-1.871,1.075.042.906.953,1.054,1.779,1.071a5.836,5.836,0,0,1,1.113.24C515.131,452.15,514.583,452.015,514.123,452.083Z" transform="translate(-397.658 -331.079)" fill="#fff"/>
    <path id="Path_20" data-name="Path 20" d="M365.67,446.677c-.32.476.649,1.77-.978,1.635-.927-.08-2.2.931-2.659-.628-.421-1.408.666-1.808,1.766-2.044.371-.08.754-.215.645-.624-.067-.245-.443-.443-.716-.59-.354-.19-1.176.32-1.087-.388.076-.607.91-.548,1.446-.447C365.8,443.921,365.649,445.3,365.67,446.677Z" transform="translate(-311.026 -330.478)" fill="#fff"/>
    <path id="Path_21" data-name="Path 21" d="M298.634,446.648c-.35.691.422,2.158-.615,2.015s-2.364,1.264-3.064-.341a5.775,5.775,0,0,1-.076-3.886c.135-.481.561-.114.636.253s-.025.717.072,1.041c.244.809-.687,2.276.885,2.305,1.028.021,1.193-1.142,1.239-2.107.025-.573-.185-1.753.337-1.61C299.152,444.6,298.3,445.843,298.634,446.648Z" transform="translate(-272.056 -330.87)" fill="#fff"/>
    <path id="Path_22" data-name="Path 22" d="M388.163,448.7a2.2,2.2,0,0,1-2.133-2.474,2.228,2.228,0,0,1,2-2.5,1.7,1.7,0,0,1,1.9,1.555c.261,1.264-.775.775-1.34.936s-1.45-.422-1.5.569c-.038.843.67,1.1,1.475,1.092.32,0,.995-.282.927.325S388.736,448.645,388.163,448.7Z" transform="translate(-324.963 -330.584)" fill="#fff"/>
    <path id="Path_23" data-name="Path 23" d="M276.116,439.66c.843.2,1.829-.3,2.061.422s-1.1.207-1.159.653c-.185,1.429-.177,2.887-.266,4.328-.025.375.143.969-.422,1s-.447-.582-.447-.948c-.034-1.113,0-2.225-.029-3.338a2.419,2.419,0,0,0-.177-1.007c-.278-.544-1.522.228-1.311-.818C274.388,439.727,275.606,439.736,276.116,439.66Z" transform="translate(-260.349 -328.241)" fill="#fff"/>
    <path id="Path_24" data-name="Path 24" d="M320.927,442.148c-1.72,1.534-1.943,2.887-.19,4.236-.177.16-.333.421-.527.455a1.067,1.067,0,0,1-1.307-.754c-.392-1.21.573-2.769-.944-3.692.422-.632.843-1.766,1.29-1.783C319.992,440.576,319.515,442.283,320.927,442.148Z" transform="translate(-285.583 -328.79)" fill="#fff"/>
    <path id="Path_25" data-name="Path 25" d="M410.4,444a2.776,2.776,0,0,1-.556.367c-2.145.7-.717,1.109.126,1.538a1.171,1.171,0,0,1,.544,1.876,1.9,1.9,0,0,1-2.2.763c-.447-.11-.506-.573-.042-.67,3.2-.683.843-1.21,0-1.842a1.142,1.142,0,0,1-.207-1.686,1.724,1.724,0,0,1,1.825-.725C410.041,443.661,410.176,443.829,410.4,444Z" transform="translate(-337.548 -330.505)" fill="#fff"/>
    <path id="Path_26" data-name="Path 26" d="M310.957,447.275c-.312,1.2-1.222,1.488-2.381,1.319-.152-.021-.274-.244-.421-.375.139-.118.27-.308.421-.333,2.529-.421,1.315-1.033.105-1.665a1.109,1.109,0,0,1-.582-1.576,1.686,1.686,0,0,1,1.715-.969c.206,0,.4.257.594.4-3.279,1.522.674,1.732.493,2.693a2.189,2.189,0,0,0,.055.51Z" transform="translate(-279.797 -330.558)" fill="#fff"/>
    <path id="Path_27" data-name="Path 27" d="M399.239,446.636v-1.5c.034-.485.03-.995.809-.843.421.072,1.151-.24,1.307-.038.506.662-.531.565-.645.982s-.257.915-.421,1.366c-.236.7.451,2.078-.628,2.015C398.788,448.529,399.522,447.121,399.239,446.636Z" transform="translate(-332.592 -330.859)" fill="#fff"/>
    <path id="Path_28" data-name="Path 28" d="M285.949,446.506v-1.618c0-.594.181-.931.893-.717.35.105.982-.118,1.087.055.32.51-.392.586-.569.91a7.894,7.894,0,0,0-.518,1.315c-.24.725.422,2.107-.506,2.107C285.548,448.537,286.134,447.117,285.949,446.506Z" transform="translate(-267.042 -330.812)" fill="#fff"/>
    <path id="Path_29" data-name="Path 29" d="M501.946,443.335c-.422,1.113.535,2.786-.67,2.988-.636.11-.329-1.918-.333-2.95s-.148-3.136.312-2.992C502.587,440.793,501.394,442.408,501.946,443.335Z" transform="translate(-391.402 -328.653)" fill="#fff"/>
    <path id="Path_30" data-name="Path 30" d="M331.874,392.783a1.17,1.17,0,1,1-2.322-.055,1.108,1.108,0,0,1,1.214-1.125C331.554,391.62,331.841,392.071,331.874,392.783Z" transform="translate(-292.282 -300.436)" fill="#fff"/>
    <path id="Path_32" data-name="Path 32" d="M517.878,392.54c.885,0,1.64.32,1.4,1.264s-1.037,1.159-1.875.455C516.972,393.535,517.04,392.932,517.878,392.54Z" transform="translate(-400.814 -300.981)" fill="#fff"/>
    <path id="Path_46608" data-name="Path 46608" d="M517.878,392.54c.885,0,1.64.32,1.4,1.264s-1.037,1.159-1.875.455C516.972,393.535,517.04,392.932,517.878,392.54Z" transform="translate(-425.209 -302.06)" fill="#fff"/>
    <path id="Path_34" data-name="Path 34" d="M513.545,394.368c-.763.527-1.492.548-1.766-.421s.333-1.378,1.264-1.332C513.941,392.995,513.941,393.618,513.545,394.368Z" transform="translate(-397.674 -301.022)" fill="#fff"/>
    <path id="Path_46607" data-name="Path 46607" d="M513.545,394.368c-.763.527-1.492.548-1.766-.421s.333-1.378,1.264-1.332C513.941,392.995,513.941,393.618,513.545,394.368Z" transform="translate(-422.069 -302.102)" fill="#fff"/>
    <path id="Path_35" data-name="Path 35" d="M514.889,389.416c-.181-.763-.118-1.526.843-1.526s.965.8.805,1.538C515.956,390.326,515.412,390.364,514.889,389.416Z" transform="translate(-399.465 -298.29)" fill="#fff"/>
    <path id="Path_38" data-name="Path 38" d="M531.622,403.244c0,1.024.236,2-1.138,1.871-1.45-.135-2.575-.615-2.554-2.36,0-1.235.316-2.335,1.8-2.242C531.55,400.63,531.5,402.152,531.622,403.244Z" transform="translate(-407.055 -305.59)" fill="#fff"/>
    <path id="Path_39" data-name="Path 39" d="M562.64,402.975c-.282,1.02-.2,2.322-1.808,2.356-1.5.034-1.9-.982-1.935-2.2s.392-2.31,1.778-2.423C562.193,400.581,562.412,401.8,562.64,402.975Z" transform="translate(-424.97 -305.701)" fill="#fff"/>
    <path id="Path_40" data-name="Path 40" d="M479.992,403.424c-.152.67.443,1.812-1.066,1.686s-2.584-.683-2.529-2.4c.029-1.121.274-2.2,1.686-2.187C480.022,400.549,479.938,402.041,479.992,403.424Z" transform="translate(-377.242 -305.597)" fill="#fff"/>
    <path id="Path_41" data-name="Path 41" d="M459.319,403.541c-.114.662.48,1.8-1,1.72s-2.664-.565-2.681-2.284c0-1.13.375-2.192,1.732-2.166C459.067,400.843,459.286,402.154,459.319,403.541Z" transform="translate(-365.234 -305.764)" fill="#fff"/>
    <path id="Path_42" data-name="Path 42" d="M278.712,399.587c-1.092.173-1.336-.421-1.332-1.458s.236-1.724,1.5-1.623c1.016.08,1.749.316,1.787,1.521C280.714,399.4,279.862,399.621,278.712,399.587Z" transform="translate(-262.106 -303.27)" fill="#fff"/>
    <path id="Path_43" data-name="Path 43" d="M367.879,405.355c-.025-1.345.4-2.487,1.918-2.466s1.918,1.159,1.88,2.508-.341,2.478-1.926,2.461S367.87,406.662,367.879,405.355Z" transform="translate(-314.461 -306.968)" fill="#fff"/>
    <path id="Path_44" data-name="Path 44" d="M440.63,447.924c-.038.67.131,1.484-.978,1.4a1.414,1.414,0,0,1-1.475-1.614,1.293,1.293,0,0,1,1.437-1.4C440.824,446.314,440.6,447.195,440.63,447.924Z" transform="translate(-355.13 -332.088)" fill="#fff"/>
    <path id="Path_45" data-name="Path 45" d="M468.212,449.329a1.5,1.5,0,0,1-1.205-1.686c.076-.767.48-1.323,1.34-1.286,1.041.042,1.189.771,1.146,1.614S469.127,449.308,468.212,449.329Z" transform="translate(-371.805 -332.114)" fill="#fff"/>
    <path id="Path_46" data-name="Path 46" d="M405.2,404.669c-.464-.139-1.391.358-1.227-.776a1.516,1.516,0,0,1,1.618-1.315c.788-.025,1.463.287,1.408,1.142C406.924,404.824,405.967,404.6,405.2,404.669Z" transform="translate(-335.333 -306.787)" fill="#fff"/>
    <path id="Path_47" data-name="Path 47" d="M300.774,404.674c-.421-.278-1.484.489-1.264-.716a1.635,1.635,0,0,1,1.821-1.4c.67.025,1.323.223,1.323,1.028C302.65,404.936,301.537,404.527,300.774,404.674Z" transform="translate(-274.892 -306.772)" fill="#fff"/>
    <path id="Path_48" data-name="Path 48" d="M349.14,410.969a1.332,1.332,0,0,1-1.564,1.231c-.7-.038-1.264-.422-1.155-1.163.131-.986,1.041-.94,1.77-1.028S349.266,410.189,349.14,410.969Z" transform="translate(-302.041 -311.077)" fill="#fff"/>
    <path id="Path_49" data-name="Path 49" d="M564.641,448.324c.194,1.172-.759,1.205-1.72,1.075-.506-.072-1.538.422-1.391-.611s.582-2.259,2-2.343C564.708,446.373,564.569,447.309,564.641,448.324Z" transform="translate(-426.486 -332.164)" fill="#fff"/>
    <path id="Path_51" data-name="Path 51" d="M389.638,445.51c.624.038,1.062.185.957.712-.042.211-.476.443-.759.485-.421.059-.91-.068-.784-.645C389.107,445.813,389.491,445.641,389.638,445.51Z" transform="translate(-326.7 -331.625)" fill="#fff"/>
    <path id="Path_52" data-name="Path 52" d="M409.639,252.741c-5.534-7.629-15.359-5.016-17.812,1.943-.666,1.892-.506,3.869-.6,5.816-.24,4.817.561,9.673-.556,14.457a11.38,11.38,0,0,1-2.992,5.2,1.59,1.59,0,0,1-2.407.308,1.526,1.526,0,0,1-.152-2.4c2.575-2.714,2.841-6.031,2.95-9.546.152-5.146-1.033-10.423.881-15.422a13.053,13.053,0,0,1,22.726-2.824A2.878,2.878,0,0,1,409.639,252.741Z" transform="translate(-324.14 -215.53)" fill="#fff"/>
    <path id="Path_53" data-name="Path 53" d="M409.686,238.618c-5.273-5.833-11.637-7.7-19.114-5.091A16.309,16.309,0,0,0,380.192,248V249.9c-.08,1.463.489,3.591-1.741,3.591-2.107,0-1.576-2.107-1.585-3.46-.063-10.377,5.273-17.529,15.2-20.458,6.495-1.914,15.46,1.045,19.434,6.415A3.406,3.406,0,0,1,409.686,238.618Z" transform="translate(-319.63 -206.36)" fill="#fff"/>
    <path id="Path_54" data-name="Path 54" d="M408.191,281.753a65.364,65.364,0,0,1,.185-16.829c.485-2.891,3.052-4.442,6.107-4.4a6.2,6.2,0,0,1,6.322,4.725c-1.382.683-1.551,2.748-3.372,2.95-.375-.481-.236-1.079-.375-1.614a2.5,2.5,0,0,0-2.731-2.107,2.584,2.584,0,0,0-2.386,2.314,2.406,2.406,0,0,0,1.783,2.74c.577.232,1.264.207,1.736.687,0,.067.076.16.046.2-1.028,1.492-.746,2.457,1.113,2.807a2.887,2.887,0,0,1-2.976.371c-2.727-1.243-2.436.59-2.5,2.179A31.04,31.04,0,0,0,408.191,281.753Z" transform="translate(-337.523 -224.603)" fill="#fff"/>
    <path id="Path_55" data-name="Path 55" d="M444,260.206l2.048-2.466a10.086,10.086,0,0,1,2.529,6.668c.063,4.544,0,9.083.042,13.626,0,1.239-.367,2.187-1.635,2.183S445.3,279.172,445.3,278c0-3.633-.059-7.266,0-10.9A13.59,13.59,0,0,0,444,260.206Z" transform="translate(-358.5 -222.995)" fill="#fff"/>
    <path id="Path_56" data-name="Path 56" d="M454.81,248.224c.2-1.151,1.134-1.8,1.8-2.634,4.434,4.565,5.268,10.221,4.9,16.227a1.467,1.467,0,0,1-1.686,1.458c-1.37-.1-1.686-1.075-1.581-2.225A19.019,19.019,0,0,0,454.81,248.224Z" transform="translate(-364.754 -215.966)" fill="#fff"/>
    <path id="Path_57" data-name="Path 57" d="M466.216,299.907c0,1.264.038,2.529,0,3.768a1.521,1.521,0,0,1-1.572,1.614,1.539,1.539,0,0,1-1.72-1.656c-.046-2.373-.021-4.746,0-7.119a1.659,1.659,0,0,1,3.317.042c.025,1.108,0,2.234,0,3.372Z" transform="translate(-369.433 -244.489)" fill="#fff"/>
    <path id="Path_58" data-name="Path 58" d="M420.789,323.016v-3.372a1.58,1.58,0,0,1,1.618-1.8,1.645,1.645,0,0,1,1.686,1.762c.059,2.305.042,4.615,0,6.921a1.552,1.552,0,0,1-1.648,1.762c-1.2,0-1.686-.767-1.686-1.935S420.785,324.133,420.789,323.016Z" transform="translate(-345.055 -257.77)" fill="#fff"/>
    <path id="Path_59" data-name="Path 59" d="M394.048,332.763a1.331,1.331,0,0,1-1.3-.67,1.707,1.707,0,0,1,.278-2.107,19.332,19.332,0,0,0,3.979-4.771,1.471,1.471,0,0,1,1.821-.662,1.576,1.576,0,0,1,1.163,1.336C400.231,327.474,395.835,332.662,394.048,332.763Z" transform="translate(-328.716 -261.591)" fill="#fff"/>
    <path id="Path_60" data-name="Path 60" d="M424.861,279.678c-.978-.185-2.47.573-2.828-.3s.889-1.808,1.623-2.588c.282-1.155,1.264-1.606,2.158-2.145,1.142-.9,1.1-3.106,3.216-2.95C429.662,275.956,428.469,278.24,424.861,279.678Z" transform="translate(-345.755 -231.067)" fill="#fff"/>
    <path id="Path_61" data-name="Path 61" d="M426.651,294.55c.354.278.974.518,1.163.948a16.688,16.688,0,0,0,2.6,4.012,1.581,1.581,0,0,1-.219,2.415,1.562,1.562,0,0,1-2.251-.27,12.093,12.093,0,0,1-3.056-4.7C424.434,295.629,425.1,294.828,426.651,294.55Z" transform="translate(-347.364 -244.291)" fill="#fff"/>
    <path id="Path_62" data-name="Path 62" d="M376.8,294.672c.2-1.239-.527-3.165,1.762-3.014s1.492,2.107,1.589,3.422c.11,1.4.164,3.207-1.787,3.089C376.214,298.039,376.994,296.012,376.8,294.672Z" transform="translate(-319.623 -242.613)" fill="#fff"/>
    <path id="Path_63" data-name="Path 63" d="M408.761,302.679c-.266-2.617.978-4.484,2.95-5.989.038,1.606.072,3.216.114,4.826a1.8,1.8,0,0,1-1.109,1.863,1.462,1.462,0,0,1-1.956-.7Z" transform="translate(-338.093 -245.529)" fill="#fff"/>
    <path id="Path_64" data-name="Path 64" d="M450.158,317.044a1.663,1.663,0,0,1-1.812,1.627,1.513,1.513,0,0,1-1.534-1.648c.025-1.151.7-1.61,1.762-1.585S450.036,316.1,450.158,317.044Z" transform="translate(-360.123 -256.375)" fill="#fff"/>
    <path id="Path_65" data-name="Path 65" d="M422.29,272.59c-.278,1.159-1.349,1.517-2.158,2.145-3.422-.164-5.209-2.428-3.73-4.86.776-1.264,1.951-2.154,3.671-1.551C422.184,269.058,422.728,270.559,422.29,272.59Z" transform="translate(-342.231 -229.007)" fill="#fff"/>
    <circle id="Ellipse_1" data-name="Ellipse 1" cx="1.054" cy="1.054" r="1.054" transform="translate(51.757 115.626)" fill="#fff"/>
    <path id="Path_46609" data-name="Path 46609" d="M517.676,392.54c.641,0,1.188.232,1.011.916s-.751.84-1.359.33C517.019,393.261,517.068,392.824,517.676,392.54Z" transform="translate(-386.539 -280.888)" fill="#fff"/>
    <path id="Path_46613" data-name="Path 46613" d="M517.506,392.54c.438,0,.811.158.69.625s-.512.573-.927.225C517.058,393.032,517.091,392.734,517.506,392.54Z" transform="translate(-420.67 -280.696)" fill="#fff"/>
    <path id="Path_46610" data-name="Path 46610" d="M513.041,393.885c-.553.382-1.081.4-1.28-.305s.241-1,.916-.965C513.328,392.889,513.328,393.341,513.041,393.885Z" transform="translate(-382.769 -280.938)" fill="#fff"/>
    <path id="Path_46612" data-name="Path 46612" d="M512.619,393.48c-.377.26-.738.271-.873-.208s.165-.681.625-.658C512.814,392.8,512.814,393.109,512.619,393.48Z" transform="translate(-416.373 -280.753)" fill="#fff"/>
    <path id="Path_46611" data-name="Path 46611" d="M514.867,389c-.131-.553-.085-1.106.611-1.106s.7.577.583,1.115C515.64,389.655,515.246,389.683,514.867,389Z" transform="translate(-384.919 -277.658)" fill="#fff"/>
    <path id="Path_46614" data-name="Path 46614" d="M517.506,392.54c.438,0,.811.158.69.625s-.512.573-.927.225C517.058,393.032,517.091,392.734,517.506,392.54Z" transform="translate(-414.046 -280.696)" fill="#fff"/>
    <path id="Path_46615" data-name="Path 46615" d="M512.619,393.48c-.377.26-.738.271-.873-.208s.165-.681.625-.658C512.814,392.8,512.814,393.109,512.619,393.48Z" transform="translate(-409.749 -280.753)" fill="#fff"/>
  </g>
</svg>
