<svg xmlns="http://www.w3.org/2000/svg" width="32.471" height="32" viewBox="0 0 32.471 32">
  <g id="authentication" transform="translate(-4 -4.406)">
    <path id="Path_48221" data-name="Path 48221" d="M29.035,25.042a4.236,4.236,0,1,0-4.092-4.234A4.169,4.169,0,0,0,29.035,25.042Zm0-6.728a2.5,2.5,0,1,1-2.352,2.494,2.429,2.429,0,0,1,2.352-2.494Z" transform="translate(-8.799 -5.112)" fill="#0491e8"/>
    <path id="Path_48222" data-name="Path 48222" d="M19.691,30.136a10.331,10.331,0,0,0-5.161,7.389,2.239,2.239,0,0,0,.5,1.815,2.185,2.185,0,0,0,1.666.774H32.6a2.185,2.185,0,0,0,1.666-.774,2.239,2.239,0,0,0,.5-1.815A10.331,10.331,0,0,0,29.6,30.136a.87.87,0,0,0-1.057.161,5.353,5.353,0,0,1-7.8,0A.87.87,0,0,0,19.691,30.136Zm4.956,3.586A7.138,7.138,0,0,0,29.3,31.984a8.6,8.6,0,0,1,3.752,5.822.5.5,0,0,1-.111.407.445.445,0,0,1-.341.161H16.7a.445.445,0,0,1-.341-.161.5.5,0,0,1-.111-.407A8.6,8.6,0,0,1,20,31.984,7.138,7.138,0,0,0,24.647,33.722Z" transform="translate(-4.411 -10.764)" fill="#0491e8"/>
    <path id="Path_48223" data-name="Path 48223" d="M5.74,10.985a4.848,4.848,0,0,1,4.845-4.84h3.651V4.406H10.584A6.589,6.589,0,0,0,4,10.985v3.426H5.74Z" transform="translate(0 0)" fill="#0491e8"/>
    <path id="Path_48224" data-name="Path 48224" d="M50.844,45.765A4.848,4.848,0,0,1,46,50.6H42.348v1.74H46a6.589,6.589,0,0,0,6.584-6.579V42.339h-1.74Z" transform="translate(-16.112 -15.938)" fill="#0491e8"/>
    <path id="Path_48225" data-name="Path 48225" d="M10.584,52.344h3.651V50.6H10.584a4.848,4.848,0,0,1-4.845-4.84V42.339H4v3.426A6.589,6.589,0,0,0,10.584,52.344Z" transform="translate(0 -15.938)" fill="#0491e8"/>
    <path id="Path_48226" data-name="Path 48226" d="M46,4.406H42.348v1.74H46a4.848,4.848,0,0,1,4.845,4.84v3.426h1.74V10.985A6.589,6.589,0,0,0,46,4.406Z" transform="translate(-16.112 0)" fill="#0491e8"/>
  </g>
</svg>
