<svg xmlns="http://www.w3.org/2000/svg" width="21.017" height="24" viewBox="0 0 21.017 24">
  <g id="court" transform="translate(-31.82)">
    <path id="Path_48048" data-name="Path 48048" d="M50.422,0H37.884a.352.352,0,0,0-.249.1L31.923,5.815a.352.352,0,0,0-.1.249v13.77a.352.352,0,0,0,.7,0V6.415h3.3A2.417,2.417,0,0,0,38.235,4V.7H50.422a1.713,1.713,0,0,1,1.711,1.711V21.585A1.713,1.713,0,0,1,50.422,23.3H34.235a1.713,1.713,0,0,1-1.711-1.711V21.24a.352.352,0,1,0-.7,0v.346A2.417,2.417,0,0,0,34.235,24H50.422a2.417,2.417,0,0,0,2.415-2.415V2.414A2.417,2.417,0,0,0,50.422,0Zm-14.6,5.712h-2.8L37.532,1.2V4A1.713,1.713,0,0,1,35.821,5.712Z" fill="#048e81"/>
    <path id="Path_48049" data-name="Path 48049" d="M234.749,166.324a1,1,0,1,0,1-1A1,1,0,0,0,234.749,166.324Zm1.289,0a.293.293,0,1,1-.293-.293A.293.293,0,0,1,236.038,166.324Z" transform="translate(-193.417 -157.578)" fill="#048e81"/>
    <path id="Path_48050" data-name="Path 48050" d="M116,130.537a.352.352,0,0,0-.352.352,2.242,2.242,0,0,0,4.484,0,.352.352,0,0,0-.352-.352h-.316l-1.058-2.684h1.735a2.1,2.1,0,0,0,1.734,1.841v3.681h-1.355a.97.97,0,1,0,0,1.941h3.414a.97.97,0,1,0,0-1.941H122.58v-3.681a2.1,2.1,0,0,0,1.734-1.841h1.735l-1.058,2.684h-.316a.352.352,0,0,0-.352.352,2.242,2.242,0,0,0,4.485,0,.352.352,0,0,0-.352-.352h-.316l-1.1-2.786a1.162,1.162,0,0,0-.476-2.221h-.632a.352.352,0,0,0,0,.7h.632a.459.459,0,0,1,0,.917h-2.6a.352.352,0,0,0-.351.375c0,.039,0,.071,0,.1a1.394,1.394,0,0,1-2.789,0c0-.033,0-.068,0-.1a.352.352,0,0,0-.351-.375h-2.6a.459.459,0,0,1,0-.917h6.635a.352.352,0,0,0,0-.7H122.58v-.45a.352.352,0,1,0-.7,0v.45h-3.985a1.162,1.162,0,0,0-.476,2.221l-1.1,2.786H116Zm8.2,3.808a.268.268,0,0,1-.267.267h-3.414a.267.267,0,1,1,0-.535h3.414A.268.268,0,0,1,124.2,134.345Zm2.362-1.918a1.542,1.542,0,0,1-1.5-1.188h3A1.542,1.542,0,0,1,126.566,132.428Zm-.819-1.891.819-2.077.819,2.077Zm-7.854,1.891a1.542,1.542,0,0,1-1.5-1.188h3A1.542,1.542,0,0,1,117.892,132.428Zm0-3.968.819,2.077h-1.638Z" transform="translate(-79.9 -118.881)" fill="#048e81"/>
    <path id="Path_48051" data-name="Path 48051" d="M105.184,384.387a.352.352,0,0,0,.352.352h13.436a.352.352,0,1,0,0-.7H105.536A.352.352,0,0,0,105.184,384.387Z" transform="translate(-69.925 -366.033)" fill="#048e81"/>
    <path id="Path_48052" data-name="Path 48052" d="M156.337,417.1a.352.352,0,0,0,0,.7h8.673a.352.352,0,1,0,0-.7Z" transform="translate(-118.345 -397.546)" fill="#048e81"/>
  </g>
</svg>
