<svg xmlns="http://www.w3.org/2000/svg" xmlns:xlink="http://www.w3.org/1999/xlink" width="24.624" height="28.016" viewBox="0 0 24.624 28.016">
  <defs>
    <linearGradient id="linear-gradient" x1="0.5" y1="1" x2="0.5" gradientUnits="objectBoundingBox">
      <stop offset="0" stop-color="#c3ffe8"/>
      <stop offset="0.997" stop-color="#f0fff4"/>
    </linearGradient>
    <linearGradient id="linear-gradient-2" x1="0.5" y1="1" x2="0.5" gradientUnits="objectBoundingBox">
      <stop offset="0" stop-color="#00b59c"/>
      <stop offset="1" stop-color="#9cffac"/>
    </linearGradient>
  </defs>
  <g id="protection" transform="translate(-31)">
    <path id="Path_48044" data-name="Path 48044" d="M85.852,67.9a1.635,1.635,0,0,1-.594-.111,18.706,18.706,0,0,1-5.463-3.254A10.342,10.342,0,0,1,76,56.6V49.044a1.647,1.647,0,0,1,.818-1.42,4.981,4.981,0,0,0,1.806-1.806A1.647,1.647,0,0,1,80.044,45H91.655a1.647,1.647,0,0,1,1.42.818,4.981,4.981,0,0,0,1.806,1.806,1.647,1.647,0,0,1,.818,1.42V56.6a10.344,10.344,0,0,1-3.783,7.94,18.586,18.586,0,0,1-5.474,3.252A1.635,1.635,0,0,1,85.852,67.9Z" transform="translate(-42.538 -42.538)" fill="url(#linear-gradient)"/>
    <g id="Group_878" data-name="Group 878" transform="translate(31)">
      <g id="Group_877" data-name="Group 877" transform="translate(0)">
        <path id="Path_48045" data-name="Path 48045" d="M54.8,3.283A2.465,2.465,0,0,1,52.34.821.821.821,0,0,0,51.52,0H35.1a.821.821,0,0,0-.821.821,2.465,2.465,0,0,1-2.462,2.462A.821.821,0,0,0,31,4.1v9.959a12.189,12.189,0,0,0,1.924,6.648,15.64,15.64,0,0,0,4.165,4.28,19.8,19.8,0,0,0,6.223,3.026,19.773,19.773,0,0,0,6.223-3.026,15.64,15.64,0,0,0,4.165-4.28,12.19,12.19,0,0,0,1.924-6.648V4.1A.821.821,0,0,0,54.8,3.283ZM52.34,14.063a9.556,9.556,0,0,1-3.507,7.326,17.747,17.747,0,0,1-5.224,3.1.821.821,0,0,1-.592,0,17.866,17.866,0,0,1-5.215-3.1,9.555,9.555,0,0,1-3.519-7.322V6.506a.821.821,0,0,1,.409-.71,5.8,5.8,0,0,0,2.1-2.1.821.821,0,0,1,.71-.409H49.117a.821.821,0,0,1,.71.409,5.8,5.8,0,0,0,2.1,2.1.821.821,0,0,1,.409.71ZM43.312,7.5a5.745,5.745,0,1,0,5.745,5.745A5.752,5.752,0,0,0,43.312,7.5ZM45.7,12.591l-2.462,2.462a.821.821,0,0,1-1.161,0l-1.231-1.231A.821.821,0,1,1,42,12.662l.651.651,1.882-1.882A.821.821,0,1,1,45.7,12.591Z" transform="translate(-31)" fill="url(#linear-gradient-2)"/>
      </g>
    </g>
  </g>
</svg>
