<svg id="_22-mobile" data-name="22-mobile" xmlns="http://www.w3.org/2000/svg" xmlns:xlink="http://www.w3.org/1999/xlink" width="15.442" height="18" viewBox="0 0 15.442 18">
  <defs>
    <linearGradient id="linear-gradient" x1="0.5" x2="0.5" y2="1" gradientUnits="objectBoundingBox">
      <stop offset="0" stop-color="#048e81"/>
      <stop offset="1" stop-color="#0995eb"/>
    </linearGradient>
  </defs>
  <g id="linear_color" data-name="linear color">
    <path id="Path_47163" data-name="Path 47163" d="M231.281,446.021h-1.834a.36.36,0,1,0,0,.72h1.834a.36.36,0,1,0,0-.72Z" transform="translate(-222.462 -430.18)" fill="url(#linear-gradient)"/>
    <path id="Path_47164" data-name="Path 47164" d="M60.141,11.76a2.788,2.788,0,0,0-1.814.587c-.043.035-.086.075-.13.118V6.936A.939.939,0,0,0,57.261,6h-8.64a.939.939,0,0,0-.936.936v.958l-.045-.045A1.512,1.512,0,0,0,45.5,9.987l1.558,1.558a1.513,1.513,0,0,0-.647,2.521l.886.886a1.512,1.512,0,0,0-.886,2.57l.6.6a1.512,1.512,0,0,0-.886,2.57l1.56,1.56v.814a.937.937,0,0,0,.936.936h6.912a.36.36,0,0,0,.36-.36V20.184a1.953,1.953,0,0,1,.778-1.555l1.382-1.037A.364.364,0,0,0,58.2,17.3v-2.88A1.706,1.706,0,0,1,59.781,12.5V23.64a.36.36,0,0,0,.72,0V12.12A.36.36,0,0,0,60.141,11.76ZM48.621,6.72h8.64a.216.216,0,0,1,.216.216V8.014H48.4V6.936A.216.216,0,0,1,48.621,6.72Zm-2.842,2.2a.8.8,0,0,1,1.352-.56l.554.554v2.24L46.011,9.478A.787.787,0,0,1,45.779,8.918Zm1.143,3.519a.8.8,0,0,1,1.12,0l1.629,1.629a.792.792,0,0,1-1.12,1.12l-1.629-1.629a.793.793,0,0,1,0-1.12Zm3.258,1.12-.391-.391a3.1,3.1,0,1,1,.632,2.217A1.515,1.515,0,0,0,50.18,13.557Zm-3.258,2.336a.8.8,0,0,1,1.12,0l1.629,1.629a.792.792,0,0,1-1.12,1.12l-1.629-1.629A.793.793,0,0,1,46.922,15.893Zm-.288,3.168a.8.8,0,0,1,1.12,0l1.629,1.629a.792.792,0,0,1-1.12,1.12l-1.629-1.629A.793.793,0,0,1,46.634,19.061Zm1.771,4V22.7a1.511,1.511,0,0,0,1.924-1.582h4.844V23.28H48.621A.216.216,0,0,1,48.4,23.064Zm7.834-5.011a2.677,2.677,0,0,0-1.066,2.131V20.4h-5.1a1.511,1.511,0,0,0-.182-.22l-.6-.6a1.512,1.512,0,0,0,.886-2.57l-.886-.886a1.5,1.5,0,0,0,.623-.221,3.815,3.815,0,1,0-.748-3.36s-.714-.707-.765-.747V8.734h9.072v8.39Z" transform="translate(-45.059 -6)" fill="url(#linear-gradient)"/>
    <path id="Path_47165" data-name="Path 47165" d="M219.747,143.024h.612a.522.522,0,0,1,0,1.044h-.908a.2.2,0,0,1-.2-.239.36.36,0,1,0-.72-.013v.037a.918.918,0,0,0,.918.935h.26V145a.36.36,0,1,0,.72,0v-.218a1.243,1.243,0,0,0-.072-2.482h-.612a.5.5,0,0,1,0-1.008h.893a.194.194,0,0,1,.2.207.36.36,0,1,0,.719.031.918.918,0,0,0-.917-.958h-.209v-.216a.36.36,0,1,0-.72,0v.217a1.224,1.224,0,1,0,.036,2.447Z" transform="translate(-212.261 -135.176)" fill="url(#linear-gradient)"/>
  </g>
</svg>
