<svg xmlns="http://www.w3.org/2000/svg" xmlns:xlink="http://www.w3.org/1999/xlink" width="28.935" height="28" viewBox="0 0 28.935 28">
  <defs>
    <linearGradient id="linear-gradient" x1="0.5" x2="0.5" y2="1" gradientUnits="objectBoundingBox">
      <stop offset="0" stop-color="#048e81"/>
      <stop offset="1" stop-color="#0491e8"/>
    </linearGradient>
  </defs>
  <path id="gavel" d="M18.528,24.855l-.165.165a1.293,1.293,0,0,0,0,1.825l1.272,1.272a1.292,1.292,0,0,0,1.825,0l6.164-6.164a1.292,1.292,0,0,0,0-1.824l-1.272-1.272a1.293,1.293,0,0,0-1.825,0l-.165.165a22.041,22.041,0,0,1-7.106-7.106l.165-.165a1.293,1.293,0,0,0,0-1.825L16.149,8.653a1.293,1.293,0,0,0-1.825,0L8.161,14.816a1.293,1.293,0,0,0,0,1.825l1.272,1.272a1.292,1.292,0,0,0,1.825,0l.165-.165c1.029.733,1.826,1.312,2.491,1.842L.491,32.383A1.539,1.539,0,0,0,0,33.425a1.351,1.351,0,0,0,.4,1.06l1.393,1.393a1.341,1.341,0,0,0,.972.4l.088,0a1.539,1.539,0,0,0,1.042-.489L16.686,22.364c.529.665,1.109,1.462,1.842,2.491Zm6.911-5.594a.5.5,0,0,1,.359.148l1.272,1.272a.509.509,0,0,1,0,.719l-6.164,6.164a.509.509,0,0,1-.719,0l-1.272-1.272a.509.509,0,0,1,0-.719l6.164-6.164A.5.5,0,0,1,25.439,19.261ZM9.985,17.36,8.713,16.088a.511.511,0,0,1,0-.719l6.163-6.164a.509.509,0,0,1,.719,0l1.272,1.272a.511.511,0,0,1,0,.719l-5.755,5.755h0l-.407.407a.509.509,0,0,1-.719,0Zm6.71-4.885A22.512,22.512,0,0,0,23.8,19.581l-4.713,4.713a22.516,22.516,0,0,0-7.106-7.106ZM3.328,35.245a.75.75,0,0,1-.519.248.569.569,0,0,1-.463-.168L.952,33.932a.567.567,0,0,1-.168-.463.748.748,0,0,1,.247-.519L14.52,20.092a14.944,14.944,0,0,1,1.665,1.665Zm25.592.53-.687-2.34a1.291,1.291,0,0,0-1.248-.934h-9.82a1.291,1.291,0,0,0-1.248.934l-.687,2.34a.391.391,0,0,0,.375.5H28.545a.391.391,0,0,0,.375-.5Zm-12.792-.281.54-1.839a.508.508,0,0,1,.5-.372h9.82a.508.508,0,0,1,.5.372l.54,1.839Z" transform="translate(0 -8.276)" fill="url(#linear-gradient)"/>
</svg>
