<svg xmlns="http://www.w3.org/2000/svg" width="26.854" height="32" viewBox="0 0 26.854 32">
  <g id="advisory" transform="translate(-0.101)">
    <path id="Path_48211" data-name="Path 48211" d="M57.7,363.832l.948,1.422v5.634H59.7v-5.95L58.542,363.2Zm0,0" transform="translate(-53.807 -339.295)" fill="#0491e8"/>
    <path id="Path_48212" data-name="Path 48212" d="M138.735,185.58a1.551,1.551,0,0,0,1.58-1.58h-1.053a.5.5,0,0,1-.527.527h-1.053a.5.5,0,0,1-.527-.527H136.1a1.551,1.551,0,0,0,1.58,1.58Zm0,0" transform="translate(-127.05 -171.89)" fill="#0491e8"/>
    <path id="Path_48213" data-name="Path 48213" d="M16.739,17.9H14.317v-1.9a4.217,4.217,0,0,0,2.633-3.528l.527-.158a1.635,1.635,0,0,0,1.106-1.474V9.478A1.551,1.551,0,0,0,17,7.9V4.739A4.719,4.719,0,0,0,12.264,0H10.158A4.719,4.719,0,0,0,5.419,4.739V7.9a1.551,1.551,0,0,0-1.58,1.58v1a1.646,1.646,0,0,0,.685,1.316l.895.579a4.186,4.186,0,0,0,2.633,3.633v1.9H5.63A5.517,5.517,0,0,0,.1,23.378v8.214H1.154V23.378a4.449,4.449,0,0,1,4.423-4.423H8.262L9.842,20.9a1.108,1.108,0,0,0-.263.684v1.685l-1,6.371a1.055,1.055,0,0,0,.421,1L10.526,31.8a1.11,1.11,0,0,0,1.264,0l1.527-1.158a1.055,1.055,0,0,0,.421-1l-1-6.371V21.588a1.109,1.109,0,0,0-.263-.684l1.58-1.948h2.685a4.45,4.45,0,0,1,4.423,4.423v8.214h1.053V23.378A5.506,5.506,0,0,0,16.739,17.9ZM15.9,7.9H14.739a1.5,1.5,0,0,0-2-.948,1.538,1.538,0,0,0-.948.948H10.526a1.5,1.5,0,0,0-2-.948,1.538,1.538,0,0,0-.948.948H6.419V6.371h.105A4.286,4.286,0,0,0,9.789,4.844a21.464,21.464,0,0,0,6.108.948Zm-2.106.527a.527.527,0,1,1-.527-.527A.5.5,0,0,1,13.791,8.424Zm-4.212,0A.527.527,0,1,1,9.052,7.9.5.5,0,0,1,9.579,8.424Zm.527-7.371h2.106A3.663,3.663,0,0,1,15.9,4.739a19.8,19.8,0,0,1-6.108-1L9.421,3.58,9.157,3.9A3.322,3.322,0,0,1,6.419,5.318V4.739a3.663,3.663,0,0,1,3.686-3.686ZM6.419,12.11v-.263l-1.369-.9a.478.478,0,0,1-.211-.421V9.478a.5.5,0,0,1,.527-.527H7.578a1.5,1.5,0,0,0,2,.948,1.538,1.538,0,0,0,.948-.948H11.79a1.5,1.5,0,0,0,2,.948,1.538,1.538,0,0,0,.948-.948H16.95a.5.5,0,0,1,.527.527v1.369a.506.506,0,0,1-.369.474l-1.211.421v.369a3.169,3.169,0,0,1-3.159,3.159H9.579A3.168,3.168,0,0,1,6.419,12.11Zm2.633,4.16c.158,0,.368.053.527.053h3.159a1.79,1.79,0,0,0,.527-.053V17.9H9.052Zm2.633,5.318v1.053H10.632V21.588Zm-.527,9.32L9.631,29.749l.948-6.055h1.158l.948,6.108Zm.263-10.373H10.9l-1.264-1.58h3.054Zm0,0" transform="translate(0 0)" fill="#0491e8"/>
    <path id="Path_48214" data-name="Path 48214" d="M248.1,364.937v5.95h1.053v-5.634l.948-1.422-.843-.632Zm0,0" transform="translate(-231.678 -339.295)" fill="#0491e8"/>
    <path id="Path_48215" data-name="Path 48215" d="M279.473,32H272.1v1.053h7.371a.5.5,0,0,1,.527.527v5.265a.5.5,0,0,1-.527.527h-4.054l-1.58,4.739h-.684V43.057H272.1v2.106h2.475l1.58-4.739h3.317a1.552,1.552,0,0,0,1.58-1.58V33.58A1.552,1.552,0,0,0,279.473,32Zm0,0" transform="translate(-254.099 -29.894)" fill="#0491e8"/>
    <path id="Path_48216" data-name="Path 48216" d="M272.1,88h1.58v1.053H272.1Zm0,0" transform="translate(-254.099 -82.208)" fill="#0491e8"/>
    <path id="Path_48217" data-name="Path 48217" d="M312.1,88h1.58v1.053H312.1Zm0,0" transform="translate(-291.466 -82.208)" fill="#0491e8"/>
    <path id="Path_48218" data-name="Path 48218" d="M352.1,88h1.58v1.053H352.1Zm0,0" transform="translate(-328.833 -82.208)" fill="#0491e8"/>
  </g>
</svg>
