<svg xmlns="http://www.w3.org/2000/svg" width="31.996" height="32" viewBox="0 0 31.996 32">
  <g id="Group_1157" data-name="Group 1157" transform="translate(-778.902 -248.5)">
    <path id="Path_48227" data-name="Path 48227" d="M14.688,26.618a5.365,5.365,0,0,0,2.453,3.4l-.384,1.946L9.057,33.9a1.461,1.461,0,0,0-1.008.859L6.113,39.433a1.472,1.472,0,0,0,1.355,2.032h24.8a1.472,1.472,0,0,0,1.355-2.032l-1.936-4.672a1.461,1.461,0,0,0-1-.859l-7.706-1.936-.384-1.946a5.365,5.365,0,0,0,2.453-3.4,1.344,1.344,0,0,0,.688-1.152v-.533a1.339,1.339,0,0,0-.533-1.067v-.533a5.333,5.333,0,1,0-10.666,0v.533A1.339,1.339,0,0,0,14,24.933v.533a1.344,1.344,0,0,0,.688,1.152Zm2.282,6.661L18.885,38.4l-3.546-3.813Zm2.773,1.787h.245l.411,1.493-.533,1.424-.533-1.419Zm1.723,1.707v-.043l1.3-3.45,1.632,1.312L20.848,38.4ZM22,32.356l-.933,2.485L21,34.585l.443-.88a.581.581,0,0,0,0-.48l-.3-.587.832-.416Zm-1.669,1.109L20.069,34h-.405l-.261-.533.261-.533h.405Zm-2.005.24.443.885-.069.261-.933-2.5.027-.133.832.416-.3.587a.581.581,0,0,0,0,.48Zm-11.2,6.517a.405.405,0,0,1-.027-.357l1.936-4.672a.405.405,0,0,1,.277-.229l5.669-1.424-.757.6a.531.531,0,0,0-.053.779L19.28,40.4H7.468a.4.4,0,0,1-.331-.176Zm23.561-5.056,1.946,4.7a.405.405,0,0,1-.037.384.4.4,0,0,1-.331.176H20.453l5.109-5.5a.531.531,0,0,0-.053-.779l-.757-.6,5.674,1.4a.405.405,0,0,1,.272.229Zm-8.965-4.032-1.451.731h-.811l-1.451-.731.123-.64a5.093,5.093,0,0,0,3.466,0Zm2.944-5.669a.261.261,0,0,1-.2.256.533.533,0,0,0-.395.432,4.234,4.234,0,0,1-8.362,0,.533.533,0,0,0-.395-.432.261.261,0,0,1-.2-.256v-.533a.272.272,0,0,1,.176-.251.533.533,0,0,0,.352-.5v-.123A5.258,5.258,0,0,0,17.5,24.4,4.72,4.72,0,0,0,21.4,22.554a2.848,2.848,0,0,0,2.629-.165,4.234,4.234,0,0,1,.107.944v.848a.533.533,0,0,0,.352.5.272.272,0,0,1,.181.251Zm-9-2.666h.224a4.57,4.57,0,0,0,4.176-2.314,3.28,3.28,0,0,0,.336-1.237l.144.187a2.133,2.133,0,0,1,.165,2.176,3.54,3.54,0,0,1-3.2,1.723,4.016,4.016,0,0,1-1.829-.427q-.011-.053-.016-.107ZM23.6,21.349a1.744,1.744,0,0,1-1.067.384,1.8,1.8,0,0,1-.677-.133A3.072,3.072,0,0,0,22,20.666a3.2,3.2,0,0,0-.219-1.141A4.266,4.266,0,0,1,23.6,21.349ZM19.333,19.1a2.048,2.048,0,0,1-.224.907,3.516,3.516,0,0,1-3.173,1.723A4.266,4.266,0,0,1,19.333,19.1Z" transform="translate(775.033 239.036)" fill="#0491e8"/>
    <path id="Path_48228" data-name="Path 48228" d="M26.563,6.8l-.331,2.048a.536.536,0,0,0,.784.565l1.717-.965,1.717.955a.571.571,0,0,0,.261.064.533.533,0,0,0,.523-.629L30.9,6.8l1.413-1.451a.533.533,0,0,0-.3-.9l-1.93-.32-.864-1.824a.533.533,0,0,0-.971,0l-.864,1.824-1.93.293a.533.533,0,0,0-.3.9Zm1.264-1.632a.533.533,0,0,0,.4-.3L28.734,3.8l.533,1.067a.533.533,0,0,0,.4.3l1.189.181-.907.917a.533.533,0,0,0-.144.459l.2,1.232-1.019-.56a.533.533,0,0,0-.533,0l-1.019.56L27.667,6.7a.533.533,0,0,0-.144-.459l-.885-.9Z" transform="translate(766.166 246.505)" fill="#0491e8"/>
    <path id="Path_48229" data-name="Path 48229" d="M49.563,14.778l-.331,2.048a.536.536,0,0,0,.784.565l1.717-.965,1.717.955a.571.571,0,0,0,.261.064.532.532,0,0,0,.523-.629L53.9,14.778l1.413-1.451a.533.533,0,0,0-.3-.9l-1.93-.32-.864-1.845a.533.533,0,0,0-.971,0l-.864,1.845-1.93.293a.533.533,0,0,0-.3.9Zm1.264-1.632a.533.533,0,0,0,.4-.3l.533-1.067.533,1.067a.533.533,0,0,0,.4.3l1.189.181-.933.917a.533.533,0,0,0-.144.459l.2,1.232-1.019-.56a.533.533,0,0,0-.533,0l-1.019.56.229-1.253a.533.533,0,0,0-.144-.459l-.88-.9Z" transform="translate(755.432 242.791)" fill="#0491e8"/>
    <path id="Path_48230" data-name="Path 48230" d="M3.563,14.8l-.331,2.048a.536.536,0,0,0,.784.565l1.717-.965,1.717.955a.571.571,0,0,0,.261.064.533.533,0,0,0,.523-.629L7.9,14.8l1.413-1.451a.533.533,0,0,0-.3-.9l-1.93-.32-.864-1.824a.533.533,0,0,0-.971,0l-.864,1.824-1.93.293a.533.533,0,0,0-.3.9Zm1.264-1.632a.533.533,0,0,0,.4-.3L5.734,11.8l.507,1.067a.533.533,0,0,0,.4.3l1.189.181-.88.917a.533.533,0,0,0-.144.459l.2,1.232L5.99,15.373a.533.533,0,0,0-.533,0l-1,.56L4.667,14.7a.533.533,0,0,0-.149-.437l-.88-.917Z" transform="translate(776.9 242.771)" fill="#0491e8"/>
    <path id="Path_48231" data-name="Path 48231" d="M3.563,35.8l-.331,2.048a.536.536,0,0,0,.784.565l1.717-.965,1.717.955a.571.571,0,0,0,.261.064.532.532,0,0,0,.523-.629L7.9,35.8l1.413-1.451a.533.533,0,0,0-.3-.9l-1.93-.32-.864-1.824a.533.533,0,0,0-.971,0l-.864,1.824-1.93.293a.533.533,0,0,0-.3.9Zm1.264-1.632a.533.533,0,0,0,.4-.3L5.734,32.8l.507,1.067a.533.533,0,0,0,.4.3l1.189.181-.88.917a.533.533,0,0,0-.144.459l.2,1.232L5.99,36.373a.533.533,0,0,0-.533,0l-1,.56L4.667,35.7a.533.533,0,0,0-.149-.437l-.88-.917Z" transform="translate(776.9 232.971)" fill="#0491e8"/>
    <path id="Path_48232" data-name="Path 48232" d="M49.563,35.778l-.331,2.048a.536.536,0,0,0,.784.565l1.717-.965,1.717.955a.571.571,0,0,0,.261.064.532.532,0,0,0,.523-.629L53.9,35.778l1.413-1.451a.533.533,0,0,0-.3-.9l-1.93-.32-.864-1.845a.533.533,0,0,0-.971,0l-.864,1.845-1.93.293a.533.533,0,0,0-.3.9Zm1.264-1.632a.533.533,0,0,0,.4-.3l.533-1.067.533,1.067a.533.533,0,0,0,.4.3l1.189.181-.933.917a.533.533,0,0,0-.144.459l.2,1.232-1.019-.56a.533.533,0,0,0-.533,0l-1.019.56.229-1.253a.533.533,0,0,0-.144-.459l-.88-.9Z" transform="translate(755.432 232.989)" fill="#0491e8"/>
  </g>
</svg>
