<svg xmlns="http://www.w3.org/2000/svg" width="74.68" height="57.23" viewBox="0 0 74.68 57.23">
  <g id="circleElement" transform="translate(-1091 -1378)">
    <path id="_01" data-name="01" d="M1095.87,1432.79a2.435,2.435,0,1,1-2.44-2.43A2.435,2.435,0,0,1,1095.87,1432.79Z" fill="#969696" fill-rule="evenodd"/>
    <path id="_02" data-name="02" d="M1095.87,1415.34a2.428,2.428,0,1,1-.715-1.722,2.435,2.435,0,0,1,.715,1.722Z" fill="#969696" fill-rule="evenodd"/>
    <path id="_03" data-name="03" d="M1095.87,1397.89a2.435,2.435,0,1,1-.713-1.727A2.435,2.435,0,0,1,1095.87,1397.89Z" fill="#969696" fill-rule="evenodd"/>
    <path id="_04" data-name="04" d="M1095.87,1380.43a2.435,2.435,0,1,1-2.44-2.43A2.435,2.435,0,0,1,1095.87,1380.43Z" fill="#969696" fill-rule="evenodd"/>
    <path id="_05" data-name="05" d="M1113.32,1432.79a2.435,2.435,0,1,1-2.43-2.43,2.435,2.435,0,0,1,2.43,2.43Z" fill="#969696" fill-rule="evenodd"/>
    <path id="_06" data-name="06" d="M1113.32,1415.34a2.426,2.426,0,1,1-.71-1.719,2.435,2.435,0,0,1,.71,1.719Z" fill="#969696" fill-rule="evenodd"/>
    <path id="_07" data-name="07" d="M1113.32,1397.89a2.433,2.433,0,1,1-.709-1.724A2.435,2.435,0,0,1,1113.32,1397.89Z" fill="#969696" fill-rule="evenodd"/>
    <path id="_08" data-name="08" d="M1113.32,1380.43a2.435,2.435,0,1,1-2.43-2.43A2.435,2.435,0,0,1,1113.32,1380.43Z" fill="#969696" fill-rule="evenodd"/>
    <path id="_09" data-name="09" d="M1130.77,1432.79a2.428,2.428,0,1,1-.711-1.719,2.43,2.43,0,0,1,.711,1.719Z" fill="#969696" fill-rule="evenodd"/>
    <path id="_10" data-name="10" d="M1130.77,1415.34a2.42,2.42,0,1,1-.709-1.721,2.43,2.43,0,0,1,.709,1.721Z" fill="#969696" fill-rule="evenodd"/>
    <path id="_11" data-name="11" d="M1130.77,1397.89a2.426,2.426,0,1,1-.707-1.726A2.43,2.43,0,0,1,1130.77,1397.89Z" fill="#969696" fill-rule="evenodd"/>
    <path id="_12" data-name="12" d="M1130.77,1380.43a2.428,2.428,0,1,1-.711-1.719,2.43,2.43,0,0,1,.711,1.719Z" fill="#969696" fill-rule="evenodd"/>
    <path id="_13" data-name="13" d="M1148.23,1432.79a2.435,2.435,0,1,1-2.44-2.43A2.435,2.435,0,0,1,1148.23,1432.79Z" fill="#969696" fill-rule="evenodd"/>
    <path id="_14" data-name="14" d="M1148.23,1415.34a2.428,2.428,0,1,1-.715-1.722A2.435,2.435,0,0,1,1148.23,1415.34Z" fill="#969696" fill-rule="evenodd"/>
    <path id="_15" data-name="15" d="M1148.23,1397.89a2.435,2.435,0,1,1-.713-1.727A2.435,2.435,0,0,1,1148.23,1397.89Z" fill="#969696" fill-rule="evenodd"/>
    <path id="_16" data-name="16" d="M1148.23,1380.43a2.435,2.435,0,1,1-2.44-2.43A2.435,2.435,0,0,1,1148.23,1380.43Z" fill="#969696" fill-rule="evenodd"/>
    <path id="_17" data-name="17" d="M1165.68,1432.79a2.435,2.435,0,1,1-2.43-2.43,2.435,2.435,0,0,1,2.43,2.43Z" fill="#969696" fill-rule="evenodd"/>
    <path id="_18" data-name="18" d="M1165.68,1415.34a2.426,2.426,0,1,1-.711-1.719A2.435,2.435,0,0,1,1165.68,1415.34Z" fill="#969696" fill-rule="evenodd"/>
    <path id="_19" data-name="19" d="M1165.68,1397.89a2.433,2.433,0,1,1-.709-1.724A2.435,2.435,0,0,1,1165.68,1397.89Z" fill="#969696" fill-rule="evenodd"/>
    <path id="_20" data-name="20" d="M1165.68,1380.43a2.435,2.435,0,1,1-2.43-2.43A2.435,2.435,0,0,1,1165.68,1380.43Z" fill="#969696" fill-rule="evenodd"/>
  </g>
</svg>
