<svg xmlns="http://www.w3.org/2000/svg" width="35" height="35" viewBox="0 0 35 35">
  <g id="Group_903" data-name="Group 903" transform="translate(4594 -9940)">
    <g id="Ellipse_141" data-name="Ellipse 141" transform="translate(-4594 9940)" fill="#fff" stroke="#aeaeae" stroke-width="1" stroke-dasharray="5">
      <circle cx="17.5" cy="17.5" r="17.5" stroke="none"/>
      <circle cx="17.5" cy="17.5" r="17" fill="none"/>
    </g>
    <path id="edit_1_" data-name="edit (1)" d="M1.772,16.873H6.4a.772.772,0,0,0,0-1.544H2.621A5.462,5.462,0,0,1,7.948,10.7,3.9,3.9,0,1,0,4.088,6.76,4.218,4.218,0,0,0,5.323,9.694,6.8,6.8,0,0,0,1,16.1a.729.729,0,0,0,.772.772ZM7.948,4.521a2.275,2.275,0,0,1,2.316,2.316A2.275,2.275,0,0,1,7.948,9.153,2.275,2.275,0,0,1,5.632,6.837,2.275,2.275,0,0,1,7.948,4.521Zm7.874,3.32a.746.746,0,0,0-1.081,0L9.878,12.7c-.232.232-.154.232-1.158,3.165a.8.8,0,0,0,1,1c2.934-1,2.934-.926,3.165-1.158l4.864-4.864a.746.746,0,0,0,0-1.081Zm-3.86,6.639-1.235.386.386-1.235,4.169-4.169.849.849Z" transform="translate(-4586 9948.1)" fill="#aeaeae"/>
  </g>
</svg>
