<svg version="1.2" xmlns="http://www.w3.org/2000/svg" viewBox="0 0 43 36" width="43" height="36"><defs><clipPath clipPathUnits="userSpaceOnUse" id="cp1"><path d="m-125-24h640v360h-640z" /></clipPath></defs><style>.s0{fill:#ffffff}</style><g clip-path="url(#cp1)"><path class="s0" d="m13.1 22.4c-0.8-0.1-0.9-0.7-0.9-1.3q0-7.1 0-14.2q0-2.3 0-4.7c0-0.8 0.4-1.2 1.3-1.2q8.1 0 16.2 0c0.4 0 0.7-0.1 1 0.3c-0.5 1.2-0.4 2.4-0.4 3.6q0 7.7 0 15.4c0 0.4 0.2 0.9-0.4 1.1c-0.3-0.3-0.2-0.8-0.2-1.2q0-8.4 0-16.7c0-1.4 0-1.4-1.3-1.4q-6.9 0-13.9 0c-1.1 0-1.1 0-1.1 1.1q0 8.5 0 16.9c0 1.1 0 1.1 1.1 1.1q7 0 14.1 0c0.4 0 0.8-0.1 1.2 0.2c0.1 0.4-0.2 0.3-0.4 0.4q-0.5 0-1 0q-6.9 0-13.7 0c-0.6 0-1.2 0.1-1.6 0.6z" /><path class="s0" d="m30 21.4c0.2-0.2 0.1-0.5 0.1-0.7q0-9 0-17.9c0-0.6 0.1-1.1 0.6-1.5c0.3 0.2 0.2 0.6 0.2 0.9q0 9.5 0.1 18.9c0 0.9-0.4 1.3-1.3 1.3q-8.3 0-16.5 0c0-0.7 0.3-0.8 0.9-0.8q7.5 0 14.9 0c0.3 0 0.6 0 0.8-0.2q0 0 0.1 0q0 0 0.1 0z" /><path class="s0" d="m40.7 29.5c-0.8-0.5-1.7 0.2-2.5 0c-0.3-0.1-0.5 0.1-0.6 0.3c-0.2 0.4-0.5 0.6-0.9 0.7c-0.4 0.1-0.8 0.2-0.9-0.2c-0.1-0.5 0.4-0.2 0.6-0.3c0.2-0.2 0.5-0.2 0.5-0.4c0-0.2-0.3-0.1-0.5-0.1c-0.7-0.3-1.1-0.7-1-1.5c0.1-0.7 0.5-1.1 1.3-1.1c0.7 0.1 1 0.6 1.1 1.3c0 0.4-0.2 0.8 0.4 0.7c0.6 0 1.4 0.3 1.4-0.7c0.1-0.6 0.3-1 0.9-1.2c0.5-0.1 0.9-0.1 1.2 0.4c0.4 0.4 0.4 1 0.1 1.5c-0.2 0.4-0.5 0.6-1.1 0.6z" /><path class="s0" d="m32.4 29.5c-0.8 0.1-1.7-0.3-2.2 0.7c-0.1 0.2-0.4 0.3-0.7 0.3c-0.3 0.1-0.7 0.2-0.8-0.2c-0.1-0.5 0.4-0.2 0.6-0.3c0.2-0.2 0.6-0.3 0.6-0.4c-0.1-0.3-0.4-0.1-0.6-0.2c-0.7-0.2-1.1-0.6-1-1.4c0.1-0.6 0.5-1.1 1.2-1.1c0.7 0 1.2 0.4 1.2 1.2c0 0.8 0.4 0.9 1.1 0.8q0.6 0 1.2 0c0.8 0.1 1.4-0.1 1.2-1.1c0-0.1-0.1-0.4 0.2-0.4c0.2 0 0.4 0.2 0.5 0.4c0.3 0.9-0.3 1.7-1.2 1.7c-0.4 0-0.9 0-1.3 0z" /><path class="s0" d="m27.9 28.4c0 1.7-0.6 2.3-1.8 2.2c-1 0-1.7-0.8-1.6-1.8q0-0.3 0.2-0.5c0.1-0.1 0.3-0.3 0.4-0.2c0.2 0 0 0.3 0 0.4c-0.2 1.1 0.4 1.7 1.4 1.5c0.2 0 0.5-0.2 0.5-0.3c0-0.4-0.3-0.2-0.5-0.2c-0.7-0.2-1.2-0.7-1-1.5c0.1-0.8 0.7-1.2 1.5-1c0.8 0.2 0.9 0.9 0.9 1.4z" /><path class="s0" d="m1 28q0-0.3 0-0.6c0.1-0.4-0.3-1 0.4-1.1c0.7-0.1 1.4-0.2 2 0.5c0.2 0.2 0.3 0.7 0.1 0.9c-0.8 0.6-0.2 1.1 0 1.7c0.1 0.2 0.4 0.4 0.1 0.5c-0.3 0.2-0.6 0-0.7-0.2c-0.1-0.3-0.3-0.6-0.4-0.9c-0.1-0.2-0.4-0.3-0.6-0.3c-0.2 0.1-0.1 0.3-0.2 0.5c-0.1 0.3 0.3 0.9-0.3 0.9c-0.6 0-0.4-0.6-0.4-1q0-0.4 0-0.9z" /><path class="s0" d="m13.4 27.6q0-0.5 0-1c0-0.2-0.2-0.5 0.2-0.5q0.2 0 0.4 0.2q0.1 0.1 0.1 0.3c-0.1 0.6 0.1 0.7 0.7 0.6c0.7-0.2 1.1 0.4 1.2 1.1c0.1 0.9-0.4 1.6-1.2 1.7c-0.7 0.1-1.2-0.3-1.4-1.1c-0.1-0.4 0-0.8 0-1.3z" /><path class="s0" d="m27.7 34.9q-1.7 0-3.5 0c-0.5 0-0.9-0.2-0.8-0.8c0.1-0.6 0.5-0.7 1-0.7c0.5 0.1 0.4 0.4 0.4 0.7c0 0.4 0.1 0.6 0.5 0.6c0.4 0 0.8 0 1.2 0c0.4 0 1 0.2 0.9-0.7c0-0.4 0.4-0.6 0.8-0.6c0.4 0.1 0.6 0.3 0.5 0.7c-0.1 0.8 0.5 0.5 0.8 0.6c0.6 0.1 0.6-0.3 0.6-0.7c0-0.2-0.1-0.5 0.1-0.5c0.3 0 0.2 0.4 0.2 0.5c-0.1 0.5 0 0.7 0.5 0.7c0.6 0 0.6-0.3 0.6-0.7c0-0.4-0.2-0.8 0.1-1.2c0.3 0.4 0.1 0.9 0.1 1.3c0.2 0.6-0.1 0.9-0.8 0.8c-1.1 0-2.1 0-3.2 0z" /><path class="s0" d="m19.7 27.1c0.5 0.1 0.9 0.4 1 1c0 0.7-0.5 0.7-0.9 0.8c-0.3 0-0.7-0.2-0.7 0.2c0.1 0.3 0.5 0.4 0.9 0.3c0.2 0 0.5-0.3 0.6 0c0.1 0.3-0.2 0.5-0.5 0.6c-0.5 0.1-1.1 0-1.5-0.4c-0.5-0.5-0.4-1.1-0.2-1.7q0.3-0.8 1.3-0.8z" /><path class="s0" d="m4 28.6c0-1 0.7-1.6 1.6-1.4c0.5 0.1 0.8 0.4 0.8 1c0 0.6-0.4 0.6-0.8 0.7c-0.3 0-0.8-0.2-0.7 0.2c0 0.3 0.5 0.4 0.9 0.3c0.1 0 0.4-0.3 0.5 0c0.1 0.4-0.2 0.5-0.5 0.6c-0.4 0.1-0.9 0-1.2-0.3c-0.4-0.2-0.6-0.6-0.6-1.1z" /><path class="s0" d="m12.7 28.7c0.1 0.8-0.3 1.3-1.2 1.3c-0.5 0-1-0.2-1.1-0.9c0-0.6 0.5-0.7 1-0.8c0.2-0.1 0.7 0.2 0.6-0.3c-0.1-0.4-0.5-0.3-0.9-0.3c-0.1 0-0.4 0.4-0.5 0.1c-0.1-0.3 0.2-0.5 0.5-0.6c1-0.3 1.6 0.3 1.6 1.5z" /><path class="s0" d="m38.6 34.9c-0.8 0-1.6 0-2.4 0.1c-0.7 0-0.9-0.2-0.8-0.9c0.1-0.4-0.1-0.9 0.1-1.3c0.4 0.4 0.2 0.9 0.2 1.3c0 0.4 0.1 0.6 0.6 0.6q0.7-0.1 1.4 0c0.7 0 1.4 0.1 1.2-0.9c-0.1-0.1-0.1-0.3 0.1-0.3c0.1 0 0.1 0.2 0.1 0.3c0.1 0.3-0.1 0.7 0.2 0.8c0.4 0.1 1 0.3 0.9-0.5c0-0.1-0.2-0.7 0.3-0.3c0 0 0.2-0.1 0.3-0.2c0.2-0.2 0.5-0.2 0.8-0.1c0.4 0.3 0.3 0.8 0.2 1.2c0 0.4-0.3 0.2-0.5 0.2q-1.4 0-2.7 0z" /><path class="s0" d="m16.7 27.8c0-0.3 0-0.7 0-1c0-0.2-0.2-0.6 0.2-0.5q0.2 0 0.4 0.1q0.1 0.2 0.1 0.4q0 0.8 0 1.7c0 0.4-0.2 0.9 0.5 0.9q0.1 0.1 0.1 0.1q0.1 0.1 0 0.2c-0.1 0.1-0.2 0.3-0.4 0.3q-0.9 0-0.9-0.9q0-0.6 0-1.3z" /><path class="s0" d="m7.8 28c0.2 0.4-0.4 1.2 0.6 1.5c0.2 0.1-0.1 0.4-0.3 0.5c-0.6 0-1-0.2-1-0.8q0-1.3 0-2.5c0-0.1-0.1-0.4 0.3-0.4c0.2 0 0.4 0.2 0.4 0.4c0 0.4 0 0.8 0 1.3z" /><path class="s0" d="m12.8 34.5c-0.1 0.1 0.1 0.3-0.1 0.4c-0.2 0-0.2-0.3-0.2-0.4q0-0.1 0-0.2q-0.1-0.4-0.2-0.7q-0.2 0.3-0.3 0.6c-0.1 0.3-0.1 0.7-0.4 0.7c-0.3-0.1-0.3-0.5-0.4-0.8c-0.1-0.2 0-0.4-0.3-0.5q0 0.3-0.1 0.5q0 0.3-0.1 0.6c0 0.1 0 0.2-0.2 0.2c0 0-0.1-0.2-0.1-0.2q0.1-0.8 0.3-1.6c0-0.1 0-0.3 0.2-0.3c0.2 0 0.2 0.2 0.2 0.3q0.3 0.6 0.5 1.2q0.2-0.6 0.5-1.2c0-0.1 0.1-0.2 0.2-0.2c0.2-0.1 0.3 0.1 0.3 0.3q0.1 0.6 0.2 1.3z" /><path class="s0" d="m8.9 28.3c0.2-0.3-0.4-1 0.3-1c0.6 0 0.3 0.7 0.4 1.1c0.1 0.4-0.3 0.9 0.4 1c0.2 0.1 0.1 0.3 0.1 0.4c-0.1 0.2-0.3 0.2-0.5 0.2c-1-0.2-0.6-1.1-0.7-1.7z" /><path class="s0" d="m15.3 32.7c0.2 0.2 0.1 0.4 0.1 0.7c0.1 0.1-0.1 0.3 0.2 0.3c0.2 0 0.2-0.4 0.5-0.2q-0.1 0.2-0.3 0.5q0 0.1 0 0.2c0.1 0.3 0.5 0.5 0.4 0.7c-0.3 0.2-0.4-0.3-0.6-0.5c-0.1 0-0.2-0.1-0.2 0.1c0 0.1 0.1 0.4-0.2 0.4c-0.2-0.1-0.1-0.4-0.1-0.6q0-0.6 0-1.3c0-0.1 0-0.3 0.2-0.3z" /><path class="s0" d="m34.5 35.9c-0.7 0-0.9-0.4-0.6-1c0.2-0.3 0-0.4-0.1-0.5c-0.1-0.4 0.1-0.8 0.5-0.9c0.2-0.1 0.5 0 0.5 0c0.1 0.3-0.2 0.1-0.4 0.2c-0.2 0.1-0.3 0.2-0.3 0.4c0 0.4 0.2 0.5 0.5 0.6c0.1 0 0.3 0.1 0.3 0.1c0 0.2-0.2 0.1-0.3 0.1c-0.2 0.1-0.6 0-0.6 0.4c0 0.3 0.3 0.3 0.6 0.3q0.2 0.1 0.3 0.1c0 0.2-0.2 0.2-0.4 0.2z" /><path class="s0" d="m14.5 34.3c-0.1 0.2 0.2 0.6-0.3 0.6c-0.3-0.1-0.7 0.3-0.9-0.2c-0.1-0.5 0.2-0.6 0.6-0.7c0.1 0 0.2-0.1 0.2-0.2c0-0.1-0.2-0.1-0.2-0.2c-0.2-0.1-0.4 0.1-0.4-0.1c0-0.2 0.3-0.2 0.5-0.2c0.5 0.1 0.5 0.6 0.5 1z" /><path class="s0" d="m5.4 34.2c-0.1 0.2 0.1 0.7-0.2 0.7c-0.4-0.1-0.8 0.4-1-0.2c-0.2-0.4-0.2-0.8 0-1.2c0-0.2 0.1-0.1 0.2 0.1c0 0.1 0 0.2 0 0.3c0.1 0.3-0.2 0.7 0.3 0.8c0.3 0 0.4-0.4 0.4-0.7c0-0.2-0.1-0.6 0.1-0.6c0.3 0.1 0.1 0.5 0.2 0.8z" /><path class="s0" d="m17.3 35q-0.7-0.1-0.7-0.8c0-0.5 0.2-0.8 0.6-0.9c0.4 0 0.6 0.2 0.6 0.6c0.1 0.4-0.2 0.2-0.4 0.3c-0.2 0-0.5-0.2-0.5 0.1c0 0.3 0.2 0.4 0.5 0.4c0.1 0 0.3-0.1 0.3 0.1c0 0.2-0.3 0.1-0.4 0.2z" /><path class="s0" d="m1.9 32.8c0.2 0.1 0.6-0.1 0.6 0.1c0.1 0.3-0.3 0.1-0.3 0.2c-0.1 0.5-0.1 1-0.1 1.4c0 0.2 0 0.4-0.2 0.4c-0.1 0-0.1-0.2-0.1-0.3q0-0.6 0-1.1q0-0.2-0.1-0.4c-0.1-0.1-0.5 0.1-0.4-0.2c0-0.1 0.4-0.1 0.6-0.1z" /><path class="s0" d="m8.2 33.4c-0.5 0.5-0.6 1 0 1.4c-0.1 0-0.1 0.1-0.2 0.1c-0.2 0.1-0.4 0-0.4-0.2c-0.2-0.4 0.2-0.9-0.3-1.2c0.1-0.2 0.2-0.6 0.4-0.6c0.2 0 0.1 0.6 0.5 0.5z" /><path class="s0" d="m20.4 33.5q-0.1 0-0.2 0.1c-0.7 0.2-0.2 0.3 0.1 0.5q0.4 0.2 0.1 0.6c-0.1 0.2-0.4 0.3-0.7 0.2c-0.1 0-0.1-0.2 0-0.2c1-0.2 0.3-0.4 0-0.6q-0.1-0.1-0.2-0.2q0-0.2 0.1-0.3c0.2-0.2 0.4-0.3 0.6-0.3q0.1 0.1 0.2 0.2z" /><path class="s0" d="m6.9 34.5c-0.1 0.4-0.4 0.5-0.8 0.4c-0.1 0-0.1 0-0.1-0.1c0 0 0-0.1 0.1-0.1c0.8-0.1 0.4-0.3 0-0.5q-0.1-0.1-0.2-0.2q0-0.2 0-0.3c0.1-0.3 0.4-0.4 0.6-0.4c0.1 0 0.1 0.1 0.2 0.2c-1.1 0.5 0.2 0.5 0.1 0.8q0 0.1 0.1 0.2z" /><path class="s0" d="m18.4 34.2c0-0.2 0-0.4 0-0.5c0-0.1 0-0.3 0.2-0.3c0.2 0.1 0.4 0 0.5 0c0.1 0.2-0.2 0.2-0.2 0.3q-0.1 0.3-0.2 0.5c-0.1 0.2 0.2 0.7-0.2 0.6c-0.3 0 0-0.4-0.1-0.6z" /><path class="s0" d="m2.9 34.2q0-0.3 0-0.6c0-0.1 0.1-0.3 0.3-0.2c0.1 0 0.3 0 0.3 0c0.1 0.2-0.1 0.2-0.1 0.3q-0.2 0.2-0.2 0.5c-0.1 0.2 0.1 0.6-0.2 0.6c-0.2 0 0-0.4-0.1-0.6z" /><path class="s0" d="m32.6 33.8c-0.1 0.4 0.2 0.9-0.2 1c-0.2 0.1-0.1-0.6-0.1-0.9c0-0.4 0-1.1 0.1-1c0.4 0.1 0 0.6 0.2 0.9z" /><path class="s0" d="m9.6 26.6c0 0.2-0.1 0.4-0.4 0.4q-0.1 0-0.3-0.1q-0.1-0.1 0-0.3q0-0.2 0.1-0.3q0.1-0.1 0.2-0.1c0.3 0 0.4 0.2 0.4 0.4z" /><path class="s0" d="m34.7 26.3c0.3 0 0.6 0.1 0.5 0.5c-0.1 0.3-0.3 0.3-0.6 0.1c-0.2-0.2-0.1-0.4 0.1-0.6z" /><path class="s0" d="m26.8 26c0.3 0 0.6 0.1 0.5 0.4c-0.1 0.3-0.4 0.4-0.6 0.2c-0.2-0.3-0.1-0.5 0.1-0.6z" /><path class="s0" d="m34.4 26.9c-0.3 0.2-0.5 0.2-0.6-0.1c-0.1-0.3 0.1-0.5 0.4-0.4c0.3 0.1 0.3 0.3 0.2 0.5z" /><path class="s0" d="m26.4 26.6c-0.2 0.1-0.4 0.1-0.5-0.2c-0.1-0.3 0.1-0.4 0.4-0.4c0.3 0.1 0.3 0.3 0.1 0.6z" /><path class="s0" d="m34.2 26.2c0-0.2 0-0.5 0.3-0.5c0.3 0 0.3 0.3 0.2 0.5q-0.2 0.5-0.5 0z" /><path class="s0" d="m37.2 28.3c0 0.4 0.1 0.7-0.4 0.6c-0.5 0-0.8-0.2-0.8-0.7c0-0.4 0.1-0.8 0.6-0.8c0.6 0.1 0.5 0.6 0.6 0.9z" /><path class="s0" d="m41.4 28.2c-0.1 0.3 0 0.8-0.6 0.8c-0.4 0-0.6-0.4-0.6-0.8c0-0.3 0.1-0.7 0.6-0.7c0.5-0.1 0.6 0.3 0.6 0.7z" /><path class="s0" d="m30.1 28.4c-0.1 0.2 0.1 0.6-0.3 0.5c-0.5 0-0.9-0.2-0.9-0.8c0-0.3 0.1-0.7 0.6-0.7c0.6 0 0.6 0.5 0.6 1z" /><path class="s0" d="m27.3 28.4c-0.1 0.2 0.1 0.5-0.3 0.5c-0.5 0-0.9-0.2-0.9-0.7c0-0.4 0.1-0.7 0.6-0.7c0.5 0 0.6 0.4 0.6 0.9z" /><path class="s0" d="m2.1 27.9c-0.3 0-0.4-0.2-0.4-0.5c0-0.3 0.1-0.5 0.5-0.5c0.3 0 0.6 0.1 0.6 0.5c0 0.4-0.3 0.5-0.7 0.5z" /><path class="s0" d="m14.1 28.6c0-0.5 0.1-0.8 0.6-0.8c0.5 0 0.6 0.3 0.6 0.8c0 0.4-0.1 0.8-0.6 0.8c-0.5 0-0.6-0.4-0.6-0.8z" /><path class="s0" d="m24.5 34.2c0 0.2 0 0.5-0.3 0.5q-0.5-0.1-0.5-0.6c0-0.2 0.2-0.4 0.5-0.4c0.4 0 0.3 0.3 0.3 0.5z" /><path class="s0" d="m28 34.7c-0.2-0.1-0.4-0.3-0.4-0.6c0.1-0.2 0.2-0.4 0.5-0.4c0.3 0 0.4 0.3 0.4 0.5c-0.1 0.3-0.2 0.5-0.5 0.5z" /><path class="s0" d="m19.4 28.4c-0.1-0.1-0.4 0.1-0.4-0.3c0.1-0.2 0.3-0.4 0.6-0.4c0.2 0 0.4 0.1 0.4 0.4c0 0.3-0.3 0.3-0.6 0.3z" /><path class="s0" d="m5.2 28.4c-0.2-0.1-0.5 0.2-0.5-0.2c0.1-0.3 0.3-0.5 0.6-0.5c0.3 0 0.5 0.1 0.5 0.3c0 0.5-0.4 0.4-0.6 0.4z" /><path class="s0" d="m12 29q0 0.2-0.1 0.4q-0.2 0.1-0.4 0c-0.2 0-0.4-0.1-0.3-0.3c0-0.4 0.3-0.3 0.5-0.4q0.4 0 0.3 0.3z" /><path class="s0" d="m41.6 34.3c0 0.4-0.3 0.4-0.6 0.4c-0.1 0-0.5 0.1-0.4-0.2c0-0.4 0.2-0.8 0.6-0.8c0.4 0 0.4 0.3 0.4 0.6z" /><path class="s0" d="m17.2 33.6c0.2 0 0.3 0 0.3 0.2c0 0.1-0.2 0.2-0.3 0.2c-0.1 0-0.3 0-0.2-0.2c0-0.1 0.1-0.2 0.2-0.2z" /><path class="s0" d="m24.5 8.7c-1.8-2.5-5-1.6-5.8 0.6c-0.2 0.7-0.1 1.3-0.2 1.9c-0.1 1.6 0.2 3.2-0.2 4.7c-0.1 0.7-0.5 1.2-0.9 1.7c-0.3 0.3-0.5 0.3-0.8 0.1q-0.2-0.1-0.2-0.4q0-0.2 0.1-0.4c0.9-0.9 1-1.9 1-3.1c0-1.6-0.3-3.4 0.3-5c0.6-1.6 1.9-2.5 3.5-2.6c1.6-0.2 2.9 0.4 3.9 1.7c-0.1 0.4-0.3 0.7-0.7 0.8z" /><path class="s0" d="m26 7.1c-1.7-1.9-3.8-2.5-6.2-1.7c-1.9 0.7-3.3 2.7-3.4 4.7q0 0.4 0 0.7c0 0.4 0.2 1.1-0.6 1.1c-0.6 0-0.5-0.7-0.5-1.1c0-3.4 1.7-5.7 5-6.6c2.1-0.7 5 0.3 6.3 2c-0.1 0.4-0.3 0.7-0.6 0.9z" /><path class="s0" d="m19.7 15.2c-0.2-1.8-0.3-3.7 0-5.5c0.2-0.9 1-1.4 2-1.4c1.1 0 1.8 0.5 2.1 1.5c-0.5 0.2-0.5 0.9-1.1 1c-0.1-0.2-0.1-0.4-0.1-0.5c-0.2-0.5-0.5-0.8-0.9-0.7c-0.4 0-0.8 0.3-0.8 0.7c-0.1 0.5 0.2 0.8 0.6 0.9c0.2 0.1 0.4 0.1 0.5 0.2c0 0.1 0.1 0.1 0.1 0.1c-0.4 0.5-0.3 0.8 0.3 0.9c-0.3 0.2-0.6 0.3-0.9 0.1c-0.9-0.4-0.8 0.2-0.9 0.7q-0.5 1-0.9 2z" /><path class="s0" d="m24.5 8.7l0.7-0.8c0.5 0.6 0.8 1.4 0.8 2.2c0 1.4 0 2.9 0 4.4c0 0.4-0.1 0.7-0.5 0.7c-0.4 0-0.6-0.3-0.6-0.7q0-1.8 0-3.6c0-0.7 0-1.5-0.4-2.2z" /><path class="s0" d="m26 7.1c0-0.4 0.3-0.6 0.6-0.9c1.4 1.5 1.7 3.4 1.6 5.3q-0.1 0.2-0.2 0.4q-0.2 0.1-0.4 0.1c-0.4 0-0.5-0.4-0.5-0.7c0.1-1.6-0.2-2.9-1.1-4.2z" /><path class="s0" d="m28.2 14.6q0 0.6 0 1.2q0 0.3-0.2 0.4q-0.1 0.2-0.3 0.2c-0.4 0-0.6-0.2-0.6-0.6q0-1.1 0-2.3q0-0.2 0.1-0.4q0.2-0.1 0.4-0.1c0.3 0 0.6 0.2 0.6 0.5q0 0.6 0 1.1z" /><path class="s0" d="m21.3 17.8q0-0.5 0-1.1c0-0.4 0.2-0.6 0.6-0.6c0.3 0 0.5 0.3 0.5 0.6q0 1.1 0 2.2c0 0.4-0.2 0.6-0.5 0.6c-0.4 0-0.6-0.2-0.6-0.6q0-0.6 0-1.1z" /><path class="s0" d="m18 19.7c-0.2 0-0.4 0-0.5-0.2c-0.1-0.2-0.1-0.5 0.1-0.7q0.8-0.6 1.3-1.5c0.1-0.2 0.4-0.3 0.6-0.2c0.2 0 0.4 0.2 0.4 0.4c0.1 0.5-1.4 2.2-1.9 2.2z" /><path class="s0" d="m22.4 12.4c-0.3-0.1-0.8 0.2-0.9-0.1c-0.1-0.3 0.3-0.6 0.5-0.8c0.1-0.4 0.4-0.5 0.7-0.7c0.4-0.3 0.4-1 1.1-1c0.2 1.4-0.2 2.1-1.4 2.6z" /><path class="s0" d="m22.5 12.9c0.1 0.1 0.3 0.2 0.4 0.3q0.3 0.8 0.8 1.4q0.2 0.1 0.2 0.4q-0.1 0.2-0.3 0.3c-0.2 0.2-0.5 0.2-0.7-0.1q-0.7-0.6-1-1.5c-0.1-0.4 0.1-0.7 0.6-0.8z" /><path class="s0" d="m15.3 13.5c0.1-0.4-0.2-1 0.6-1c0.7 0.1 0.5 0.7 0.5 1.2c0 0.4 0.1 1-0.6 1c-0.7-0.1-0.4-0.7-0.5-1.2z" /><path class="s0" d="m19.7 15.2c-0.1-0.9 0.3-1.5 0.9-2q0.1 0.8 0.1 1.6c0 0.3-0.1 0.5-0.4 0.6q-0.2 0.1-0.3 0q-0.2 0-0.3-0.2z" /><path class="s0" d="m26 16.3c-0.1 0.4-0.3 0.6-0.6 0.5q-0.2 0-0.4-0.1q-0.1-0.2-0.1-0.4c0-0.4 0.2-0.5 0.6-0.5c0.3 0 0.4 0.2 0.5 0.5z" /><path class="s0" d="m22.7 10.8c-0.1 0.4-0.4 0.5-0.7 0.7c-1.1-0.1-1.7-0.8-1.2-1.6c0.3-0.4 0.7-0.7 1.2-0.5c0.7 0.2 0.9 0.7 0.7 1.4z" /><path class="s0" d="m13.9 34.8c-0.2 0-0.3-0.1-0.3-0.3c0-0.2 0.1-0.3 0.3-0.3c0.2 0 0.3 0.1 0.3 0.3c0 0.2-0.1 0.3-0.3 0.3z" /><path class="s0" d="m39.3 32.9c0.2 0 0.4 0 0.3 0.3c0 0.2-0.2 0.2-0.4 0.1c-0.1-0.2-0.1-0.3 0.1-0.4z" /><path class="s0" d="m28.2 32.9c0.1 0 0.2 0.1 0.2 0.2c0 0.2-0.2 0.2-0.3 0.1q-0.1-0.2 0.1-0.3z" /><path class="s0" d="m39 33.3c-0.2 0.1-0.3 0.1-0.4-0.1c-0.1-0.2 0.1-0.3 0.3-0.3c0.2 0.1 0.2 0.2 0.1 0.4z" /><path class="s0" d="m28 33.2c-0.1 0.1-0.3 0.1-0.3-0.1c0-0.1 0.1-0.2 0.2-0.2c0.1 0.1 0.1 0.2 0.1 0.3z" /><path class="s0" d="m38.9 32.8c0-0.2 0-0.4 0.2-0.4c0.2 0 0.2 0.2 0.2 0.4q-0.2 0.3-0.4 0z" /><path class="s0" d="m30.3 32.9c0.2 0 0.3 0.1 0.3 0.2c-0.1 0.2-0.2 0.2-0.3 0.1q-0.2-0.2 0-0.3z" /><path class="s0" d="m30.1 33.2c-0.1 0.1-0.2 0.1-0.2-0.1c-0.1-0.1 0-0.2 0.2-0.2c0.1 0.1 0.1 0.2 0 0.3z" /></g></svg>