<svg id="Layer_2" data-name="Layer 2" xmlns="http://www.w3.org/2000/svg" xmlns:xlink="http://www.w3.org/1999/xlink" width="26" height="26" viewBox="0 0 26 26">
  <defs>
    <linearGradient id="linear-gradient" x1="0.239" y1="0.096" x2="1.306" y2="1.401" gradientUnits="objectBoundingBox">
      <stop offset="0" stop-color="#048e81"/>
      <stop offset="1" stop-color="#0995eb"/>
    </linearGradient>
  </defs>
  <g id="invisible_box" data-name="invisible box">
    <rect id="Rectangle_1552" data-name="Rectangle 1552" width="26" height="26" fill="none"/>
    <rect id="Rectangle_1553" data-name="Rectangle 1553" width="26" height="26" fill="none"/>
  </g>
  <g id="icons_Q2" data-name="icons Q2" transform="translate(2.167 2.22)">
    <path id="Path_48019" data-name="Path 48019" d="M24.042,4.1H5.625A1.571,1.571,0,0,0,4,5.67V24.141a1.571,1.571,0,0,0,1.625,1.571H24.042a1.571,1.571,0,0,0,1.571-1.571V5.67A1.571,1.571,0,0,0,24.042,4.1Zm-13.6,18.417H7.2V12.224h3.25Zm-1.625-11.7a1.9,1.9,0,0,1-1.842-1.9,1.842,1.842,0,0,1,3.683,0,1.9,1.9,0,0,1-1.842,1.9Zm13.6,11.7h-3.2V17.478c0-1.192,0-2.708-1.679-2.708s-1.9,1.3-1.9,2.654v5.092h-3.2V12.224h3.033v1.408h.054a3.358,3.358,0,0,1,3.033-1.679c3.25,0,3.846,2.112,3.846,4.929Z" transform="translate(-4 -4.098)" fill="url(#linear-gradient)"/>
  </g>
</svg>
