<svg xmlns="http://www.w3.org/2000/svg" width="32.001" height="32" viewBox="0 0 32.001 32">
  <g id="rocket" transform="translate(0.001 0)">
    <path id="Path_47262" data-name="Path 47262" d="M31.982.9A.937.937,0,0,0,31.1.017c-.012,0-.312-.017-.83-.017a32.422,32.422,0,0,0-7.55.921,20.667,20.667,0,0,0-9.86,5.21A17.564,17.564,0,0,0,10.067,9.8L9,8.736a.937.937,0,0,0-1.064-.184l-7.4,3.5a.938.938,0,0,0-.536.88L.389,24.23a.937.937,0,0,0,1.6.631l6.347-6.347,1.912,1.912L3.9,26.773A.938.938,0,1,0,5.226,28.1l6.347-6.347,1.912,1.912L7.138,30.01a.937.937,0,0,0,.63,1.6L19.063,32H19.1a.938.938,0,0,0,.847-.536l3.505-7.4A.938.938,0,0,0,23.263,23L22.2,21.933a17.568,17.568,0,0,0,3.672-2.791A18.574,18.574,0,0,0,29.7,13.393a26.929,26.929,0,0,0,1.769-5.928A30.66,30.66,0,0,0,31.982.9ZM1.895,13.487,8.14,10.529l1.026,1.027a25.848,25.848,0,0,0-1.688,5.164l-5.29,5.29ZM21.47,23.859,18.512,30.1l-8.522-.294,5.29-5.29a25.845,25.845,0,0,0,5.164-1.688ZM29.614,7.173c-.575,3.116-1.922,7.491-5.073,10.643A16.167,16.167,0,0,1,20.3,20.824a.923.923,0,0,0-.151.075,23.284,23.284,0,0,1-5.034,1.738L12.9,20.425l3.232-3.232a.938.938,0,0,0-1.326-1.326L11.573,19.1,9.362,16.888A23.271,23.271,0,0,1,11.1,11.854a.941.941,0,0,0,.075-.151,16.169,16.169,0,0,1,3.009-4.245c5.083-5.083,13.3-5.566,15.939-5.582a31.021,31.021,0,0,1-.509,5.3Zm0,0" transform="translate(0)" fill="#aeaeae"/>
    <path id="Path_47263" data-name="Path 47263" d="M298.055,106.883a3.691,3.691,0,1,0-2.61-1.081A3.668,3.668,0,0,0,298.055,106.883Zm-1.284-4.976a1.816,1.816,0,1,1-.532,1.284A1.8,1.8,0,0,1,296.771,101.907Zm0,0" transform="translate(-275.966 -93.281)" fill="#aeaeae"/>
  </g>
</svg>
