<svg id="Page-1" xmlns="http://www.w3.org/2000/svg" width="36.001" height="36" viewBox="0 0 36.001 36">
  <g id="_019---Law-Writing" data-name="019---Law-Writing">
    <path id="Shape" d="M7.82,22a1.786,1.786,0,0,0,1.14-.4l5.34-4.309a1.8,1.8,0,0,0,1.071.484c.055,0,.109.007.163.007a1.8,1.8,0,0,0,1.189-.446l.533-.462.23.291a1.2,1.2,0,0,0,.132,1.276l.593.75a1.186,1.186,0,0,0,.8.446,1.311,1.311,0,0,0,.136.007,1.18,1.18,0,0,0,.744-.263l4.856-3.9a1.2,1.2,0,0,0,.189-1.68l-.593-.75a1.159,1.159,0,0,0-1.124-.434L18.344,6.441A1.2,1.2,0,0,0,18.195,5.2l-.593-.75a1.193,1.193,0,0,0-1.68-.191l-4.856,3.9a1.206,1.206,0,0,0-.19,1.683l.59.754a1.186,1.186,0,0,0,.8.446,1.14,1.14,0,0,0,.135.007,1.172,1.172,0,0,0,.23-.025l.327.413-.638.515a1.82,1.82,0,0,0-.327,2.5L6.68,18.746A1.84,1.84,0,0,0,6.4,21.314,1.8,1.8,0,0,0,7.82,22Zm11.333-3.558-.593-.753,3.12-2.5L23.408,13.8l.007,0,.586.747Zm-.8-2.124-.559-.707-3.514-4.44s0-.01-.008-.014-.008-.005-.011-.01l-.6-.763L17.5,7.3l4.7,5.936ZM16.665,5.2l.59.748-.041.034L12.439,9.821c-.008.007-.013.018-.02.025l-.011.008L11.813,9.1Zm-3.59,7.688.631-.509,2.806,3.546-.574.5a.617.617,0,0,1-.886-.077l-2.07-2.567a.634.634,0,0,1-.138-.47A.621.621,0,0,1,13.075,12.892Zm-5.64,6.786L12.743,15.4l.785.973L8.2,20.666a.6.6,0,0,1-.385.136.611.611,0,0,1-.48-.235.635.635,0,0,1,.094-.888Z" transform="translate(-2.4 -1.601)" fill="#048e81"/>
    <path id="Shape-2" data-name="Shape" d="M6.6,38.2H20.4a.6.6,0,0,0,0-1.2H6.6a.6.6,0,0,0,0,1.2Z" transform="translate(-2.4 -14.8)" fill="#048e81"/>
    <path id="Shape-3" data-name="Shape" d="M6.6,43.2H17.4a.6.6,0,0,0,0-1.2H6.6a.6.6,0,0,0,0,1.2Z" transform="translate(-2.4 -16.8)" fill="#048e81"/>
    <path id="Shape-4" data-name="Shape" d="M6.6,48.2h9a.6.6,0,0,0,0-1.2h-9a.6.6,0,0,0,0,1.2Z" transform="translate(-2.4 -18.8)" fill="#048e81"/>
    <path id="Shape-5" data-name="Shape" d="M34.454,12.486a2.425,2.425,0,0,0-3.415.02l-2.95,2.951L26.4,17.147V1.8A1.8,1.8,0,0,0,24.6,0H4.8a.6.6,0,0,0-.424.176l-4.2,4.2A.6.6,0,0,0,0,4.8V34.2A1.8,1.8,0,0,0,1.8,36H24.6a1.8,1.8,0,0,0,1.8-1.8V25.628l5.921-5.921s.007,0,.011-.007,0-.008.007-.011l1.68-1.68A.017.017,0,0,0,34.03,18s0-.007.007-.01l1.247-1.247a2.41,2.41,0,0,0,.019-3.412Zm-2.548,5.94-1.271-1.27-1.273-1.273.848-.849,2.544,2.544ZM20.875,29.456l-.847-.847L30.211,18.427l.847.847ZM16.79,31.19a.141.141,0,0,1-.156-.034.137.137,0,0,1-.041-.142L17.72,28l2.072,2.072ZM28.514,16.73l.848.85L19.18,27.761l-.847-.847ZM4.2,2.048V3.6a.6.6,0,0,1-.6.6H2.048ZM25.2,34.2a.6.6,0,0,1-.6.6H1.8a.6.6,0,0,1-.6-.6V5.4H3.6A1.8,1.8,0,0,0,5.4,3.6V1.2H24.6a.6.6,0,0,1,.6.6V18.348L17.256,26.3a1.7,1.7,0,0,0-.424.65l-1.369,3.663a1.346,1.346,0,0,0-.053.592H4.2a.6.6,0,0,0,0,1.2H16.8a2.351,2.351,0,0,0,.4-.08l3.646-1.36a1.69,1.69,0,0,0,.643-.415L25.2,26.828Zm9.24-18.307-.837.835-2.545-2.544.829-.83a1.236,1.236,0,0,1,.875-.363,1.2,1.2,0,0,1,.845.345l.844.844a1.2,1.2,0,0,1,.348.855A1.213,1.213,0,0,1,34.44,15.893Z" transform="translate(0 0)" fill="#048e81"/>
  </g>
</svg>
