<svg xmlns="http://www.w3.org/2000/svg" width="18" height="18" viewBox="0 0 18 18">
  <g id="info-button_1_" data-name="info-button (1)" transform="translate(0 0)">
    <g id="Group_1008" data-name="Group 1008" transform="translate(0 0)">
      <path id="Path_48042" data-name="Path 48042" d="M15.364,2.636a9,9,0,1,0,0,12.728A9,9,0,0,0,15.364,2.636ZM10.174,12.913a1.174,1.174,0,0,1-2.348,0v-4.7a1.174,1.174,0,0,1,2.348,0Zm-1.195-6.7a1.047,1.047,0,0,1-1.113-1.07A1.046,1.046,0,0,1,8.993,4.056a1.079,1.079,0,1,1-.014,2.155Z" transform="translate(0 0)" fill="#2b7b74"/>
    </g>
  </g>
</svg>
