<svg xmlns="http://www.w3.org/2000/svg" width="59.119" height="52" viewBox="0 0 59.119 52">
  <g id="Group_708" data-name="Group 708" transform="translate(0 -30.826)">
    <path id="Path_46735" data-name="Path 46735" d="M74.032,45.649a1.732,1.732,0,0,0,1.732-1.732V41.939h2.1v1.978a1.732,1.732,0,0,0,3.464,0V35.569a4.515,4.515,0,0,0-9.029,0v8.348A1.732,1.732,0,0,0,74.032,45.649Zm1.732-10.08a1.051,1.051,0,0,1,2.1,0v2.906h-2.1Z" transform="translate(-63.952 -0.228)" fill="#0995eb"/>
    <path id="Path_46736" data-name="Path 46736" d="M165.182,36.394a1.051,1.051,0,0,1,0-2.1h.928a1.732,1.732,0,0,0,0-3.464h-.928a4.515,4.515,0,1,0,0,9.029,1.051,1.051,0,0,1,0,2.1h-.928a1.732,1.732,0,0,0,0,3.464h.928A4.515,4.515,0,0,0,165.182,36.394Z" transform="translate(-142.115 -0.003)" fill="#0995eb"/>
    <path id="Path_46737" data-name="Path 46737" d="M92.882,357.727a1.051,1.051,0,0,1,0-2.1h.928a1.732,1.732,0,0,0,0-3.464h-.928a4.515,4.515,0,0,0,0,9.029,1.051,1.051,0,0,1,0,2.1h-.928a1.732,1.732,0,0,0,0,3.464h.928A4.515,4.515,0,0,0,92.882,357.727Z" transform="translate(-78.164 -284.233)" fill="#0995eb"/>
    <path id="Path_46738" data-name="Path 46738" d="M235.746,38.532v5.157a1.732,1.732,0,0,0,3.464,0V38.532l2.6-5.2a1.732,1.732,0,0,0-3.1-1.549l-1.234,2.467-1.234-2.467a1.732,1.732,0,1,0-3.1,1.549Z" transform="translate(-206.063)" fill="#0995eb"/>
    <path id="Path_46739" data-name="Path 46739" d="M1.732,45.424h3.71a1.732,1.732,0,0,0,0-3.464H3.464v-2.1h.742a1.732,1.732,0,0,0,0-3.464H3.464v-2.1H5.442a1.732,1.732,0,0,0,0-3.464H1.732A1.732,1.732,0,0,0,0,32.561V43.692A1.732,1.732,0,0,0,1.732,45.424Z" transform="translate(0 -0.003)" fill="#0995eb"/>
    <path id="Path_46740" data-name="Path 46740" d="M182.176,355.626a1.732,1.732,0,0,0,0-3.464h-3.71a1.732,1.732,0,0,0-1.732,1.732v11.131a1.732,1.732,0,0,0,1.732,1.732h3.71a1.732,1.732,0,0,0,0-3.464H180.2v-2.1h.742a1.732,1.732,0,0,0,0-3.464H180.2v-2.1Z" transform="translate(-156.327 -284.233)" fill="#0995eb"/>
    <path id="Path_46741" data-name="Path 46741" d="M7.381,191.5H1.816a1.732,1.732,0,0,0,0,3.464H2.867v9.4a1.732,1.732,0,0,0,3.464,0v-9.4H7.381A1.732,1.732,0,0,0,7.381,191.5Z" transform="translate(-0.084 -142.119)" fill="#0995eb"/>
    <path id="Path_46742" data-name="Path 46742" d="M85.915,206.316a4.52,4.52,0,0,0,4.515-4.515v-5.565a4.515,4.515,0,0,0-9.029,0V201.8A4.52,4.52,0,0,0,85.915,206.316Zm-1.051-10.08a1.051,1.051,0,0,1,2.1,0V201.8a1.051,1.051,0,0,1-2.1,0Z" transform="translate(-72.001 -142.344)" fill="#0995eb"/>
    <path id="Path_46743" data-name="Path 46743" d="M7.3,352.162a1.732,1.732,0,0,0-1.732,1.732v8.348a1.051,1.051,0,0,1-2.1,0v-8.348a1.732,1.732,0,0,0-3.464,0v8.348a4.515,4.515,0,0,0,9.029,0v-8.348A1.732,1.732,0,0,0,7.3,352.162Z" transform="translate(0 -284.233)" fill="#0995eb"/>
    <path id="Path_46744" data-name="Path 46744" d="M276.09,198.43a1.732,1.732,0,0,0-2.449,2.449l1.113,1.113a1.732,1.732,0,1,0,2.449-2.449Z" transform="translate(-241.596 -147.803)" fill="#0995eb"/>
    <path id="Path_46745" data-name="Path 46745" d="M362.851,201.993l1.113-1.113a1.732,1.732,0,1,0-2.449-2.449l-1.113,1.113a1.732,1.732,0,1,0,2.449,2.449Z" transform="translate(-318.339 -147.803)" fill="#0995eb"/>
    <path id="Path_46746" data-name="Path 46746" d="M323.065,171.785a1.732,1.732,0,0,0,1.732-1.732v-1.574a1.732,1.732,0,0,0-3.464,0v1.574A1.732,1.732,0,0,0,323.065,171.785Z" transform="translate(-284.23 -120.237)" fill="#0995eb"/>
    <path id="Path_46747" data-name="Path 46747" d="M278.865,217.269l3.156-3.156a5.442,5.442,0,0,0-7.7-7.7l-7.938,7.938-.444-.444a7.293,7.293,0,0,0-10.32,0l-1.312,1.312a1.733,1.733,0,0,0,0,2.45l1.164,1.164a10.862,10.862,0,0,1,3.2,7.732,1.732,1.732,0,0,0,.507,1.225l8.43,8.43a1.734,1.734,0,0,0,1.225.507,8.828,8.828,0,0,0,6.284-2.6l7.983-7.983a1.732,1.732,0,0,0,.216-2.185Zm-6.189,14.409h0a5.382,5.382,0,0,1-3.159,1.547l-7.392-7.392a14.292,14.292,0,0,0-4.139-9.386,3.831,3.831,0,0,1,5.509-.087l1.669,1.669a1.732,1.732,0,0,0,2.449,0l9.163-9.163a1.978,1.978,0,0,1,2.8,2.8l-4.16,4.16a1.732,1.732,0,0,0-.216,2.185l4.46,6.689Z" transform="translate(-224.498 -153.905)" fill="#0995eb"/>
  </g>
</svg>
