<svg xmlns="http://www.w3.org/2000/svg" width="28" height="28" viewBox="0 0 28 28">
  <g id="lawyer" transform="translate(0 -0.002)">
    <g id="Group_1062" data-name="Group 1062" transform="translate(0 0.002)">
      <path id="Path_48210" data-name="Path 48210" d="M27.961,27.349l-2.634-6.041a1.4,1.4,0,0,0-.911-.894L17.6,18.245l-.73-1.825,2.155-2.586a.468.468,0,0,0,.108-.3V12.6H19.6A1.4,1.4,0,0,0,21,11.2V9.335a1.4,1.4,0,0,0-1.4-1.4h-.467V7.469H19.6a.467.467,0,0,0,.465-.5l-.343-4.8A2.342,2.342,0,0,0,17.4,0H10.734A2.336,2.336,0,0,0,8.4,2.335V7a.467.467,0,0,0,.467.467v.467H8.4A1.4,1.4,0,0,0,7,9.335V11.2a1.4,1.4,0,0,0,1.4,1.4h.467v.933a.468.468,0,0,0,.108.3l2.147,2.577-.852,1.914-2.352.735L3.584,20.414a1.379,1.379,0,0,0-.9.855L.039,27.349A.466.466,0,0,0,.467,28H27.534a.466.466,0,0,0,.428-.653ZM19.134,8.869H19.6a.467.467,0,0,1,.467.467V11.2a.467.467,0,0,1-.467.467h-.467Zm-10.267,2.8H8.4a.467.467,0,0,1-.467-.467V9.335A.467.467,0,0,1,8.4,8.869h.467ZM17.4,19.2l1.669.522-3.012,2.485-1.23-1.537Zm-2.16,3.634L14,24.075l-1.241-1.241L14,21.282Zm-3.994-4.409.663-1.49,1.916.767a.47.47,0,0,0,.347,0l1.9-.76.609,1.523L14,20ZM9.334,2.335a1.4,1.4,0,0,1,1.4-1.4H17.4a1.405,1.405,0,0,1,1.4,1.3l.307,4.3H15.867C13.7,6.535,12.6,5.75,12.6,4.2a.467.467,0,1,0-.933,0A2.336,2.336,0,0,1,9.334,6.535ZM9.8,13.366V7.433a3.275,3.275,0,0,0,2.32-1.527c.637,1.01,1.928,1.563,3.747,1.563H18.2v5.9l-2.149,2.579L14,16.766l-2.051-.82Zm.814,5.828,2.675,1.481-1.225,1.531L9.019,19.693Zm1.155,7.874H1.179L3.559,21.6a.468.468,0,0,1,.3-.3l4.093-1.279,3.865,3.19.729.729Zm.962,0,.588-2.354.35.35a.467.467,0,0,0,.66,0l.35-.35.588,2.354Zm3.5,0-.781-3.123.624-.624a.46.46,0,0,0,.213-.092l3.847-3.175.2.063-1.646,4.937a.467.467,0,0,0,.078.439l1.26,1.575Zm3.426-1.96L21.227,20.4l.751.235.405,4.862-1.345,1.345Zm2.47,1.96L23.2,26a.467.467,0,0,0,.135-.369l-.392-4.7,1.2.374a.5.5,0,0,1,.318.336l2.365,5.427Z" transform="translate(0 -0.002)" fill="#048fae"/>
    </g>
  </g>
</svg>
