<svg xmlns="http://www.w3.org/2000/svg" xmlns:xlink="http://www.w3.org/1999/xlink" width="24.51" height="28" viewBox="0 0 24.51 28">
  <defs>
    <linearGradient id="linear-gradient" x1="0.5" x2="0.5" y2="1" gradientUnits="objectBoundingBox">
      <stop offset="0" stop-color="#048e81"/>
      <stop offset="1" stop-color="#0491e8"/>
    </linearGradient>
  </defs>
  <g id="Deposit_at_bank" data-name="Deposit at bank" transform="translate(-2.98 0.036)">
    <path id="Path_48219" data-name="Path 48219" d="M25.142,17.472a.583.583,0,0,0,.583-.583V15.14H26.89a.583.583,0,0,0,.583-.583c0-1.6.128-2.046-.321-2.267L20.986,9.206a6.412,6.412,0,1,0-11.506,0L3.312,12.29c-.426.21-.321.519-.321,2.267a.583.583,0,0,0,.583.583H4.74v1.749a.583.583,0,0,0,.583.583h.583v4.663H5.323a.583.583,0,0,0-.583.583v1.749H3.575a.583.583,0,0,0-.583.583v2.332a.583.583,0,0,0,.583.583H26.89a.583.583,0,0,0,.583-.583V25.049a.583.583,0,0,0-.583-.583H25.725V22.718a.583.583,0,0,0-.583-.583h-.583V17.472Zm-.583-1.166h-3.5V15.14h3.5Zm-4.08,5.829a.583.583,0,0,0-.583.583v1.749H18.147V22.718a.583.583,0,0,0-.583-.583h-.583V17.472h.583a.583.583,0,0,0,.583-.583V15.14H19.9v1.749a.583.583,0,0,0,.583.583h.583v4.663Zm-9.909,2.332V22.718a.583.583,0,0,0-.583-.583H9.4V17.472h.583a.583.583,0,0,0,.583-.583V15.14h1.749v1.749a.583.583,0,0,0,.583.583h.583v4.663H12.9a.583.583,0,0,0-.583.583v1.749Zm5.246-2.332H14.65V17.472h1.166Zm-2.332-5.829V15.14h3.5v1.166Zm0,6.995h3.5v1.166h-3.5Zm1.749-22.15A5.246,5.246,0,1,1,9.987,6.4,5.246,5.246,0,0,1,15.233,1.151ZM4.158,13.17,10.086,10.2c1.282,1.725,2.232,1.44.484,1.44a.583.583,0,1,0,0,1.166H19.9a.583.583,0,0,0,0-1.166c-1.749,0-.8.286.484-1.44l5.928,2.967v.8H4.158ZM9.4,15.14v1.166h-3.5V15.14ZM7.072,17.472H8.238v4.663H7.072ZM5.906,23.3H9.4v1.166h-3.5Zm20.4,3.5H4.158V25.632h22.15Zm-5.246-2.332V23.3h3.5v1.166Zm2.332-2.332H22.227V17.472h1.166Z" transform="translate(0 0)" fill="url(#linear-gradient)"/>
    <path id="Path_48220" data-name="Path 48220" d="M22.914,9.829H20.583a.583.583,0,0,0,0,1.166h1.166v.583a.583.583,0,1,0,1.166,0v-.583a1.749,1.749,0,0,0,0-3.5H21.749a.583.583,0,1,1,0-1.166H24.08a.583.583,0,0,0,0-1.166H22.914V4.583a.583.583,0,0,0-1.166,0v.583a1.749,1.749,0,1,0,0,3.5h1.166a.583.583,0,1,1,0,1.166Z" transform="translate(-7.099 -1.684)" fill="url(#linear-gradient)"/>
  </g>
</svg>
