<svg xmlns="http://www.w3.org/2000/svg" xmlns:xlink="http://www.w3.org/1999/xlink" width="21.889" height="28" viewBox="0 0 21.889 28">
  <defs>
    <linearGradient id="linear-gradient" x1="0.5" x2="0.5" y2="1" gradientUnits="objectBoundingBox">
      <stop offset="0" stop-color="#048e81"/>
      <stop offset="1" stop-color="#0491e8"/>
    </linearGradient>
  </defs>
  <g id="businessman" transform="translate(-55.876)">
    <path id="Path_48233" data-name="Path 48233" d="M77.317,21.951V20.5a4.043,4.043,0,0,0-2.389-3.691l-.008,0-3.682-1.426-1.825-.707V13.6a4.3,4.3,0,0,0,1.735-2.959,1.988,1.988,0,0,0,1.861-1.936,2.039,2.039,0,0,0-.289-1.037.858.858,0,0,0,.3-.655V6.307a.861.861,0,0,0-.86-.86h-.125A5.239,5.239,0,0,0,68.3.527.862.862,0,0,0,67.511,0H66.13a.862.862,0,0,0-.793.527A5.239,5.239,0,0,0,61.6,5.447h-.125a.861.861,0,0,0-.86.86v.707a.859.859,0,0,0,.322.67,1.925,1.925,0,0,0-.307,1.027,1.982,1.982,0,0,0,1.861,1.931A4.256,4.256,0,0,0,64.225,13.6v1.059L58.72,16.8l-.007,0A4.043,4.043,0,0,0,56.324,20.5v1.453a.691.691,0,0,0-.448.646v1.363a.691.691,0,0,0,.448.646v2.273A1.123,1.123,0,0,0,57.446,28H69.813a.41.41,0,1,0,0-.82H68.9l-.372-3.573h0L68,18.471l.288-.451a.8.8,0,0,0,.852-.107l2.029-1.683,3.453,1.337A3.247,3.247,0,0,1,76.5,20.5v1.408H74.024V20.079a.41.41,0,0,0-.82,0v7.1H71.727a.41.41,0,0,0,0,.82h4.468a1.123,1.123,0,0,0,1.122-1.122V24.6a.691.691,0,0,0,.448-.646V22.6a.691.691,0,0,0-.448-.646ZM71.18,9.812V7.875h.676a1.223,1.223,0,0,1,.333.831A1.158,1.158,0,0,1,71.18,9.812ZM66.09.867s0,0,0-.007a.04.04,0,0,1,.04-.04h1.381a.04.04,0,0,1,.04.04s0,0,0,0V2.717a.41.41,0,1,0,.82,0v-1.3A4.391,4.391,0,0,1,71.22,5.447H68.371V4.631a.41.41,0,1,0-.82,0v.816H66.09Zm-.82.547V5.447H62.421a4.392,4.392,0,0,1,2.848-4.034Zm-2.809,8.4a1.1,1.1,0,0,1-.625-1.938h.625Zm-.984-2.758a.04.04,0,0,1-.04-.04V6.308a.04.04,0,0,1,.04-.04H72.164a.04.04,0,0,1,.04.04v.707a.04.04,0,0,1-.04.04Zm1.8,3.072V7.875H70.36v2.252a3.49,3.49,0,0,1-3.479,3.483h-.007A3.508,3.508,0,0,1,63.281,10.127Zm1.249,5.29,1.115.925-.625.926-1.674-1.388ZM59.617,27.18H57.446a.3.3,0,0,1-.3-.3V24.65h2.472Zm0-3.35H56.7v-1.1h2.92Zm5.476.039-.345,3.311H60.437v-7.1a.41.41,0,1,0-.82,0v1.827H57.144V20.5a3.253,3.253,0,0,1,1.878-2.931l3.45-1.347,2.042,1.693a.8.8,0,0,0,.852.107l.288.451-.562,5.4Zm.48,3.311.086-.823.823.823Zm2.506,0h-.437l-1.873-1.873.111-1.069,2.113,2.113Zm-.62-5.956.137,1.318L66.2,21.147l.111-1.069Zm-1.037-2.2.026-.246H67.2l.119,1.148Zm1.309,4.81.127,1.219-1.869-1.869.1-.989Zm-.381-5.876H66.3l-.37-.578.4-.6,0,0a.816.816,0,0,0,.044-.075l0-.006h.882l0,.005a.821.821,0,0,0,.046.078l.4.6Zm.118-2.239a.807.807,0,0,0-.146.159h-.992a.8.8,0,0,0-.146-.159l-1.143-.948a.867.867,0,0,0,.005-.093v-.619a4.525,4.525,0,0,0,3.547.01v.612a.826.826,0,0,0,.007.1Zm1.164,1.545-.625-.926,1.1-.91,0,0,1.183.458ZM76.5,26.878a.3.3,0,0,1-.3.3H74.024V24.65H76.5Zm.448-3.049h-2.92v-1.1h2.92v1.1Z" fill="url(#linear-gradient)"/>
  </g>
</svg>
