<svg version="1.2" xmlns="http://www.w3.org/2000/svg" viewBox="0 0 242 66" width="242" height="66"><defs><clipPath clipPathUnits="userSpaceOnUse" id="cp1"><path d="m-648-84h960v2953h-960z"/></clipPath></defs><style>.a{fill:#028e80}.b{fill:#808285}.c{fill:#0091ea}.d{opacity:.2;fill:#fff}</style><g clip-path="url(#cp1)"><path class="a" d="m103.2 15.2q-0.4-0.4-0.4-1 0-0.6 0.4-1 0.5-0.4 1-0.4 0.6 0 1 0.4 0.5 0.4 0.5 1 0 0.6-0.5 1-0.4 0.4-1 0.4-0.5 0-1-0.4z"/><path class="a" d="m106.6 15.2q-0.5-0.4-0.5-1 0-0.6 0.5-1 0.4-0.4 1-0.4 0.6 0 1 0.4 0.4 0.4 0.4 1 0 0.6-0.4 1-0.4 0.4-1 0.4-0.6 0-1-0.4z"/><path fill-rule="evenodd" class="a" d="m98.9 30.8q-2-1.9-2-5.3 0-1.7 0.8-2.6 0.7-0.9 1.7-0.9h0.8q-1.1 1.4-1.1 3.8 0 2 1.3 3.2 1.2 1.2 3.2 1.2 3.2 0 4.2-2.1-1.1-0.1-1.9-0.2-0.8-0.1-1.8-0.4-1-0.3-1.7-0.8-0.6-0.5-1.1-1.5-0.4-0.9-0.4-2.2 0-2.3 1.3-3.9 1.3-1.5 3.7-1.5 2.3 0 3.5 1.6 1.3 1.7 1.4 4.3-0.1 2.6-0.3 3.8-1.1 5.5-6.6 5.5-3 0-5-2zm9.4-5.2q0-0.3 0-0.9 0-0.6 0-0.9 0-0.9-0.1-1.5-0.1-0.7-0.3-1.3-0.3-0.7-0.8-1-0.6-0.3-1.5-0.3-1.1 0-1.7 0.8-0.6 0.8-0.6 2.2 0 0.6 0.2 1 0.2 0.5 0.4 0.8 0.2 0.3 0.6 0.5 0.4 0.2 0.7 0.3 0.3 0.1 0.8 0.2 0.5 0 0.8 0 0.3 0 0.8 0.1 0.6 0 0.7 0z"/><path class="a" d="m135.1 17.5q-0.4-0.4-0.4-1 0-0.6 0.4-1 0.4-0.4 1-0.4 0.6 0 1 0.4 0.4 0.4 0.4 1 0 0.6-0.4 1-0.4 0.4-1 0.4-0.6 0-1-0.4z"/><path class="a" d="m136.8 14.6q-0.3-0.3-0.3-0.9 0-0.5 0.3-0.9 0.4-0.4 0.9-0.4 0.6 0 1 0.4 0.4 0.4 0.4 0.9 0 0.6-0.4 0.9-0.4 0.4-1 0.4-0.5 0-0.9-0.4z"/><path fill-rule="evenodd" class="a" d="m139.3 21.5v2.3q0 1.8-1 3-1.1 1.2-3.2 1.3h-12.9q-0.4 1.6-1.9 2.9-1.6 1.3-4.5 1.3-0.8 0-1.3-0.4-0.4-0.3-0.4-0.8v-0.9q4.4-0.1 5.5-2.1-7.1-0.2-7.1-5.3 0-2.3 1.3-3.9 1.3-1.5 3.7-1.5 1.3 0 2.3 0.5 1 0.5 1.6 1.4 0.5 0.9 0.7 1.9 0.3 1 0.3 2.1v2.3h12.5q1.6-0.2 1.6-1.9v-4.1h0.9q1.9 0 1.9 1.9zm-19.4 4.1q0-0.4 0-1.3 0-0.9 0-1.5-0.1-0.5-0.2-1.2-0.1-0.7-0.4-1.1-0.3-0.4-0.8-0.7-0.5-0.3-1.2-0.3-1.1 0-1.7 0.8-0.6 0.8-0.6 2.2 0 1 0.3 1.6 0.3 0.7 0.9 1 0.6 0.3 1.2 0.4 0.5 0.1 1.2 0.1 0.3 0 0.7 0 0.5 0 0.6 0z"/><path class="a" d="m138.3 15.5q0.5-0.4 1-0.4 0.6 0 1.1 0.4 0.4 0.4 0.4 1 0 0.6-0.4 1-0.5 0.4-1.1 0.4-0.5 0-1-0.4-0.4-0.4-0.4-1 0-0.6 0.4-1z"/><path fill-rule="evenodd" class="a" d="m168.6 22.9q0 2.2-1.3 3.6-1.3 1.5-3.5 1.5-2.2 0-3.6-1.4c-0.8 0.9-2 1.3-3.5 1.4v0.1h-5.6q-0.4 1.6-2 2.9-1.5 1.3-4.5 1.3-0.7 0-1.2-0.4-0.5-0.3-0.5-0.8v-0.9q4.4-0.1 5.5-2.1-7.1-0.2-7.1-5.3 0-2.3 1.4-3.9 1.3-1.5 3.6-1.5 1.4 0 2.4 0.5 1 0.5 1.5 1.4 0.5 0.9 0.8 1.9 0.2 1 0.2 2.1v2.3h4.7q1.6 0 2.2-0.7 0.6-0.7 0.7-2.4 0-2 1.3-3.5 1.3-1.5 3.5-1.5 2.3 0 3.7 1.5 1.3 1.6 1.3 3.9zm-19.9 2.7q0-0.4 0-1.3 0-0.9 0-1.5 0-0.5-0.2-1.2-0.1-0.7-0.4-1.1-0.2-0.4-0.7-0.7-0.5-0.3-1.3-0.3-1.1 0-1.7 0.8-0.6 0.8-0.6 2.2 0 1 0.3 1.6 0.3 0.7 0.9 1 0.6 0.3 1.2 0.4 0.5 0.1 1.3 0.1 0.2 0 0.7 0 0.4 0 0.5 0zm17.4-3q0-1.4-0.6-2.2-0.6-0.8-1.7-0.8-2.5 0-2.5 3.3 0 1.4 0.6 2.2 0.6 0.8 1.7 0.8 2.5 0 2.5-3.3z"/><path fill-rule="evenodd" class="a" d="m12 29.5q-0.4 0.4-1.4 0.4-1.6 0-2.2-1.3l-1.1-2.7q-0.3-0.7-0.7-1.2-0.4-0.4-0.6-0.5-0.3-0.1-0.8-0.2-1.3-0.2-1.5-0.2v6.1h-1q-0.9 0-1.5-0.6-0.5-0.5-0.5-1.5v-12.5q0.5-0.2 1.8-0.4 1.2-0.2 2.1-0.2h1.6q2.2 0 3.6 1.2 1.4 1.2 1.4 3.1 0 1.6-0.9 2.7-0.9 1.1-2.2 1.3 1.1 0.5 1.8 2.1l1.2 2.8q0.2 0.4 0.4 0.7 0.1 0.3 0.3 0.6 0.2 0.2 0.2 0.3zm-4.5-8.5q0.6-0.5 0.6-1.5 0-1.2-0.6-1.7-0.5-0.5-1.6-0.5h-0.9q-0.8 0-1.3 0.2v3.9q0.7 0.1 2.2 0.1 0.9 0 1.6-0.5z"/><path fill-rule="evenodd" class="a" d="m17.7 25.4h-1.8q0.2 1.1 1 1.7 0.9 0.6 2.2 0.6 2.3 0 3.4-1h0.1v0.9q0 2.5-4.1 2.5-2.2 0-3.8-1.6-1.7-1.6-1.7-4.1 0-2.8 1.5-4.4 1.6-1.7 4-1.7 1.8 0 3.2 1.2 1.3 1.3 1.3 3.2 0 1.5-1.2 2.1-1.2 0.6-4.1 0.6zm-0.6-2q2 0 2.6-0.2 0.7-0.2 0.7-0.9 0-0.8-0.6-1.2-0.5-0.4-1.5-0.4-1 0-1.7 0.7-0.7 0.7-0.7 1.7v0.3z"/><path class="a" d="m30.4 27.7h0.8v0.6q0 1.6-1.9 1.6-1.8 0.1-2.7-0.8-0.9-0.9-0.9-2.7v-11.6h0.8q1 0 1.5 0.5 0.5 0.6 0.5 1.4v9.5q0 0.8 0.4 1.1 0.5 0.4 1.5 0.4z"/><path class="a" d="m37.7 29.6q-0.4 0.3-1.3 0.3-1.6 0.1-2.5-0.8-0.9-0.9-0.9-2.7v-7.6h0.8q2 0 2 2.1v5.3q0 0.8 0.4 1.1 0.4 0.4 1.3 0.4h0.5v0.6q0 0.9-0.3 1.3z"/><path class="a" d="m33.2 17.3q-0.4-0.5-0.4-1.2 0-0.6 0.4-1.1 0.5-0.5 1.2-0.5 0.7 0 1.2 0.5 0.5 0.5 0.5 1.1 0 0.7-0.5 1.2-0.5 0.5-1.2 0.5-0.7 0-1.2-0.5z"/><path fill-rule="evenodd" class="a" d="m48.7 26q0 1.8-1.2 2.9-1.2 1.1-3.1 1.1h-0.6q-2 0-3.2-1-1.3-1-1.3-2.5 0-3.6 5.6-3.6h1v-0.1q0-1.2-0.6-1.6-0.5-0.5-1.8-0.5-2.5 0-3.6 1.3h-0.1v-0.9q0-1.1 1-1.9 1.1-0.8 3.1-0.8 2.1 0 3.4 1.1 1.4 1.2 1.4 3.9zm-2.8-1h-1q-1.5 0-2.1 0.3-0.6 0.4-0.6 1.1 0 0.6 0.5 1 0.5 0.4 1.4 0.4 1.8 0 1.8-1.8z"/><path fill-rule="evenodd" class="a" d="m60.8 19.9q1.5 1.6 1.5 4.1 0 2.6-1.6 4.3-1.5 1.8-4 1.8-2.3 0-3.8-1.6-1.6-1.7-1.6-4.1v-10.3h1q0.9 0 1.4 0.5 0.5 0.4 0.5 1.4v4q1.1-1.7 3-1.7 2.2 0 3.6 1.6zm-1.5 4.6q0.1-2-0.6-2.9-0.7-0.8-2-0.8-1.1 0-1.8 0.9-0.7 0.9-0.7 2.3 0 3.6 2.7 3.6 1.1 0 1.8-0.9 0.7-0.9 0.6-2.2z"/><path class="a" d="m68.6 29.9q-1.7 0.1-2.7-0.8-0.9-0.9-0.9-2.7v-11.6h0.8q1 0 1.5 0.5 0.5 0.6 0.5 1.4v9.5q0 0.8 0.5 1.1 0.4 0.4 1.4 0.4h0.8v0.6q0 1.6-1.9 1.6z"/><path fill-rule="evenodd" class="a" d="m76.1 25.4h-1.9q0.2 1.1 1.1 1.7 0.9 0.6 2.1 0.6 2.3 0 3.5-1v0.9q0 2.5-4 2.5-2.2 0-3.9-1.6-1.6-1.6-1.6-4.1 0-2.8 1.5-4.4 1.5-1.7 3.9-1.7 1.9 0 3.2 1.2 1.4 1.3 1.4 3.2 0 1.5-1.2 2.1-1.3 0.6-4.1 0.6zm-0.6-2q1.9 0 2.6-0.2 0.6-0.2 0.6-0.9 0-0.8-0.5-1.2-0.6-0.4-1.6-0.4-1 0-1.6 0.7-0.7 0.7-0.8 1.7v0.3z"/><path class="b" d="m93.9 42.5c0-0.3 0.3-0.6 0.6-0.6 0.4 0 0.7 0.2 0.7 0.6 0 0.4-0.3 0.7-0.7 0.7-0.3 0-0.6-0.3-0.6-0.7z"/><path class="b" d="m95.7 42.5c0-0.3 0.3-0.6 0.7-0.6 0.3 0 0.6 0.2 0.6 0.6 0 0.4-0.3 0.7-0.6 0.7-0.4 0-0.7-0.3-0.7-0.7z"/><path class="b" d="m112.5 41.9c0.4 0 0.7 0.2 0.7 0.6 0 0.4-0.3 0.7-0.7 0.7-0.4 0-0.7-0.3-0.7-0.7 0-0.3 0.3-0.6 0.7-0.6z"/><path class="b" d="m110.7 41.9c0.3 0 0.6 0.2 0.6 0.6 0 0.4-0.3 0.7-0.6 0.7-0.4 0-0.7-0.3-0.7-0.7 0-0.3 0.3-0.6 0.7-0.6z"/><path class="b" d="m120.5 42.5c0-0.3 0.3-0.6 0.7-0.6 0.4 0 0.7 0.2 0.7 0.6 0 0.4-0.3 0.7-0.7 0.7-0.4 0-0.7-0.3-0.7-0.7z"/><path class="b" d="m120.9 41.1c0 0.3-0.3 0.6-0.6 0.6-0.4 0-0.7-0.3-0.7-0.6 0-0.4 0.3-0.7 0.7-0.7 0.3 0 0.6 0.3 0.6 0.7z"/><path class="b" d="m119.4 41.9c0.3 0 0.6 0.2 0.6 0.6 0 0.4-0.3 0.7-0.6 0.7-0.4 0-0.7-0.3-0.7-0.7 0-0.3 0.3-0.6 0.7-0.6z"/><path fill-rule="evenodd" class="b" d="m125.4 41.4h1.2v8.8h-30.9c-2.4 0-3.3-1.1-3.3-2.9 0-1.7 1-3.1 3.2-3.1 1.3 0 2.5 0.4 2.5 0.4v4.7h10.5c0.4 0 0.9 0 0.9 0-0.6-0.4-0.9-1.1-0.9-2.1 0-1.7 1.2-3 3.1-3 1.5 0 2.7 0.8 2.7 2.9 0 0.9-0.3 1.8-0.9 2.2 0 0 0.6 0 1 0h5.4v-5h1.1v5h4.4zm-28.5 4c0 0-0.6-0.3-1.5-0.3-1.1 0-1.8 0.8-1.8 2 0 1.5 0.6 2.2 2.2 2.2h1.1zm16.4 1.7c0-1.3-0.6-2-1.7-2-0.9 0-1.8 0.6-1.8 2 0 1.4 0.6 2.2 1.7 2.2 1 0 1.8-0.7 1.8-2.2z"/><path class="b" d="m128.9 41.4h1.2v8.8h-1.2z"/><path class="b" d="m139.9 53.1l0.1 0.9c0 0-1 0.2-2.2 0.2-2.3 0-3.3-1.1-3.3-2.4 0-1.1 0.7-2 2.1-2.2-0.9-0.3-1.6-1.2-1.6-2.4 0-1.8 1.1-3 3.2-3 0.7 0 1.3 0.1 1.3 0.1l-0.2 1c0 0-0.5-0.2-1.2-0.2-1.2 0-2 0.8-2 2 0 1.2 0.9 2.2 2.8 2.2h0.9v0.9h-1.6c-2.2 0-2.6 0.8-2.6 1.6 0 0.8 0.8 1.5 2.3 1.5 1.1 0 2-0.2 2-0.2z"/><path class="b" d="m155.7 42.3c0-0.3 0.3-0.7 0.7-0.7 0.3 0 0.7 0.3 0.7 0.7 0 0.4-0.4 0.7-0.7 0.7-0.4 0-0.7-0.3-0.7-0.7z"/><path fill-rule="evenodd" class="b" d="m168.1 47.3c0 0.9 0 1.9-0.1 2.9h-26.4v-8.8h1.2v7.9h13v-5h1.1v5h4.4v-5h1.1v0.5c0 0.7 0 1.6-0.1 2.3 0.6-1.9 2-2.9 3.4-2.9 1.7 0 2.4 1.2 2.4 3.1zm-1.1 0.1c0-1.4-0.4-2.3-1.5-2.3-1.7 0-2.8 2.2-3.1 4.2h4.5c0-0.6 0.1-1.3 0.1-1.9z"/><path class="b" d="m1.4 41.8h6v0.9h-2.4v7.5h-1.2v-7.5h-2.4z"/><path class="b" d="m11.5 43.9l-0.1 1.1c-1.3-0.2-1.9 0.7-1.9 2.7v2.5h-1.1v-6.2h1.1c0 0.4-0.1 1-0.2 1.5 0.3-0.9 0.9-1.7 2.2-1.6z"/><path class="b" d="m17.3 44h1.2v6.2h-1.1c0-0.4 0-0.9 0.1-1.3-0.4 0.8-1.2 1.4-2.2 1.4-1.4 0-1.9-0.9-1.9-2v-4.3h1.1v4c0 0.9 0.3 1.4 1.1 1.4 1 0 1.7-1.1 1.7-2.4z"/><path class="b" d="m24.8 48.3c0 1.2-1 2-2.6 2-0.5 0-1 0-1.4-0.2l0.1-1c0.4 0.2 0.9 0.3 1.4 0.3 0.8 0 1.3-0.4 1.3-1 0-1.3-2.8-0.5-2.8-2.7 0-1 0.8-1.8 2.4-1.8 0.4 0 0.9 0 1.2 0.1l-0.1 0.9c-0.3-0.1-0.7-0.2-1.2-0.2-0.8 0-1.2 0.4-1.2 0.9 0 1.4 2.9 0.6 2.9 2.7z"/><path class="b" d="m30.2 49.2l0.1 1c-0.4 0-0.9 0.1-1.3 0.1-1.2 0-1.6-0.5-1.6-1.9v-3.5h-1.3v-0.9h1.3v-2l1.1-0.3v2.3h1.7v0.9h-1.7v3.1c0 1.1 0.2 1.3 0.9 1.3q0.4 0 0.8-0.1z"/><path class="b" d="m47.9 41.8l1.2 8.4h-1.2l-0.7-4.9q-0.2-1.4-0.2-2.1h-0.1c-0.1 0.4-0.2 1-0.4 1.6l-1.8 5.4h-1.2l-1.7-5.1c-0.3-0.7-0.4-1.3-0.6-1.9 0 0.7-0.1 1.4-0.2 2.2l-0.6 4.8h-1.2l1.3-8.4h1.4l1.8 5.3c0.1 0.4 0.3 1.1 0.4 1.7q0.3-0.9 0.5-1.6l1.8-5.4z"/><path fill-rule="evenodd" class="b" d="m55.8 48.4c0 0.6 0 1.3 0 1.8h-1.1c0-0.4 0-0.9 0.1-1.2h-0.1c-0.3 0.7-1 1.3-2.1 1.3-1 0-1.7-0.7-1.7-1.7 0-1.3 1.4-2.1 3.7-2.1v-0.3c0-1-0.3-1.4-1.3-1.4-0.6 0-1.3 0.2-1.8 0.4l-0.3-0.9c0.7-0.2 1.5-0.4 2.3-0.4 1.7 0 2.3 0.8 2.3 2.1zm-1.2-1.1c-2 0-2.6 0.6-2.6 1.2 0 0.5 0.4 1 1 1 1 0 1.6-1 1.6-2z"/><path class="b" d="m60.8 46.8l2.6 3.4h-1.5l-2.3-3.2v3.2h-1.1v-9.1h1.1v5.6l2.2-2.7h1.4z"/><path fill-rule="evenodd" class="b" d="m69.7 46.4c0 0.2 0 0.5 0 0.7h-4.1c0 1.6 0.7 2.3 2 2.3 0.6 0 1.2-0.1 1.8-0.4l0.1 0.9c-0.6 0.3-1.3 0.4-2.1 0.4-1.9 0-2.9-1-2.9-3.2 0-1.8 1-3.2 2.8-3.2 1.7 0 2.4 1.1 2.4 2.5zm-1.1-0.1c0-1-0.5-1.6-1.4-1.6-0.8 0-1.4 0.6-1.5 1.6z"/><path class="b" d="m75.1 43.9l-0.1 1.1c-1.3-0.2-1.9 0.7-1.9 2.7v2.5h-1.1v-6.2h1.1c0 0.4-0.1 1-0.2 1.5h0.1c0.2-0.9 0.9-1.7 2.1-1.6z"/><path class="b" d="m80.6 48.3c0 1.2-1 2-2.6 2-0.4 0-1 0-1.3-0.2l0.1-1c0.4 0.2 0.9 0.3 1.3 0.3 0.8 0 1.4-0.4 1.4-1 0-1.3-2.9-0.5-2.9-2.7 0-1 0.8-1.8 2.5-1.8 0.3 0 0.8 0 1.2 0.1l-0.1 0.9c-0.4-0.1-0.8-0.2-1.2-0.2-0.9 0-1.2 0.4-1.2 0.9 0 1.4 2.8 0.6 2.8 2.7z"/><path class="c" d="m208.6 51.1v0.1q0 0.5-0.3 0.9c-1.2 2-2.7 3.8-4.4 5.2-0.3 0.3-0.7 0.5-1.1 0.5-0.9 0-1.6-0.8-1.6-1.7 0-0.5 0.2-0.9 0.6-1.2 1.4-1.2 2.7-2.7 3.6-4.3 0.3-0.7 0.9-1.1 1.6-1.1 0.9 0 1.6 0.7 1.6 1.6z"/><path class="c" d="m198 40.8c0 0.9-0.7 1.6-1.6 1.6-0.9 0-1.7-0.7-1.7-1.6v-1.8-1.6c0-0.9 0.8-1.6 1.7-1.6 0.9 0 1.6 0.7 1.6 1.6v1.6z"/><path class="c" d="m233.5 38.8v0.1 1.6 5.4c0 0.9-0.7 1.7-1.6 1.7-0.9 0-1.6-0.8-1.6-1.7v-5.4-1.6-0.1c0-0.9 0.7-1.6 1.6-1.6 0.9 0 1.6 0.7 1.6 1.6z"/><path class="c" d="m216.1 48.4v0.1 1.6 5.4c0 0.9-0.7 1.6-1.6 1.6-0.9 0-1.6-0.7-1.6-1.6v-5.4-1.6-0.1c0-0.9 0.7-1.6 1.6-1.6 0.9 0 1.6 0.7 1.6 1.6z"/><path class="c" d="m226.9 47.3v0.1c0 0.9-0.8 1.6-1.7 1.6-0.8 0-1.6-0.7-1.6-1.6v-0.1c0-0.9 0.8-1.6 1.6-1.6 0.9 0 1.7 0.7 1.7 1.6z"/><path class="c" d="m233.5 29.5v3.2c0 0.9-0.7 1.6-1.6 1.6-0.9 0-1.6-0.7-1.6-1.6v-3.2q0-1.7-0.3-3.3c-1.5-7.3-8.1-12.9-15.9-12.9-7.8 0-14.3 5.6-15.8 12.9q-0.3 1.6-0.3 3.3v2.9 0.1c0 0.9-0.7 1.6-1.6 1.6-0.9 0-1.7-0.7-1.7-1.6v-0.1-2.9q0-1.7 0.3-3.3c1.6-9.1 9.5-16.1 19.1-16.1 9.6 0 17.6 7 19.2 16.1q0.2 1.6 0.2 3.3z"/><path fill-rule="evenodd" class="c" d="m220.1 26.9q0.5 1.2 0.5 2.6c0 2.4-1.3 4.4-3.2 5.6-1 0.5-2.1 0.8-3.3 0.8q-0.8 0-1.5-0.2-0.9-0.2-1.7-0.6v4.6q0 0 0 0.1v3.3c0 0.9-0.7 1.7-1.6 1.7q-0.5 0-0.9-0.3-0.4-0.2-0.6-0.6 0 0 0 0-0.1-0.4-0.1-0.8v-13.6c0-3.6 2.9-6.5 6.4-6.5 2.7 0 5 1.6 6 3.9zm-2.7 2.6c0-1.8-1.5-3.3-3.3-3.3-1.7 0-3.2 1.5-3.2 3.3 0 1.8 1.5 3.2 3.2 3.2q0.7 0 1.3-0.3c0.9-0.4 1.6-1.2 1.9-2.2q0-0.3 0.1-0.7z"/><path class="c" d="m226.7 26.2q0.4 1.6 0.4 3.3v3.2 9.7c0 0.9-0.8 1.6-1.7 1.6-0.8 0-1.6-0.7-1.6-1.6v-8.6-1.1-3.2q0-1.7-0.5-3.3c-1.4-3.7-4.9-6.4-9.2-6.4-4.2 0-7.8 2.7-9.1 6.4q-0.6 1.6-0.6 3.3v3.2 1.1 5.2 3.4c0 3.5-1.4 6.8-3.7 9.1-0.3 0.3-0.7 0.5-1.2 0.5-0.9 0-1.6-0.8-1.6-1.6 0-0.6 0.3-1 0.7-1.3h-0.1c1.7-1.8 2.7-4.1 2.7-6.7v-3.4-6.3-3.2q0-1.7 0.4-3.3c1.5-5.5 6.5-9.7 12.5-9.7 6.1 0 11.1 4.2 12.6 9.7z"/><path class="a" d="m218.4 44.7q-0.5-0.2-0.8-0.7c-1.5-1.7-2.1-2.4-2.9-4.5-0.2-0.4-0.2-0.8-0.1-1.2 0.3-0.8 1.2-1.3 2-1 0.5 0.1 0.9 0.5 1.1 1 0.6 1.7 1 2.1 2.3 3.6 0.5 0.4 0.7 1.1 0.5 1.7-0.3 0.9-1.2 1.4-2.1 1.1z"/><path fill-rule="evenodd" class="a" d="m242 3.9v58.9c0 1.6-1.3 2.9-3 2.9h-50.6q-0.5 0-1-0.2c-1.1-0.4-2-1.5-2-2.7v-58.9c0-1.7 1.4-3 3-3h50.6c0.9 0 1.7 0.4 2.2 1 0.5 0.5 0.8 1.2 0.8 2zm-2.8 0c0-0.1-0.1-0.2-0.2-0.2h-50.6q-0.1 0.1-0.1 0.2v58.9c0 0 0 0.1 0.1 0.1h50.6c0.1 0 0.2-0.1 0.2-0.1z"/><path class="d" d="m241.2 1.9l-2 2.4-10.5 12.4-2.1 2.5-2.1 2.5-2.2 2.5-2.2 2.7-2.8 3.3-1.9 2.2-2.8 3.3-1.7 2-0.6 0.8-2.6 3.1-3.8 4.4-4.9 5.8-9.3 11.1-2.3 2.6c-1.1-0.4-2-1.5-2-2.7v-58.9c0-1.7 1.4-3 3-3h50.6c0.9 0 1.7 0.4 2.2 1z"/></g></svg>