<svg version="1.2" xmlns="http://www.w3.org/2000/svg" viewBox="0 0 178 219" width="178" height="219"><defs><clipPath clipPathUnits="userSpaceOnUse" id="cp1"><path d="m-70-298h960v2953h-960z"/></clipPath></defs><style>.a{fill:#0091ea}.b{fill:#028e80}</style><g clip-path="url(#cp1)"><path class="a" d="m63.3 188v0.1 0.1 0.1c0 1.6-0.5 3.1-1.4 4.3-5.2 9-12 17-20 23.6-1.3 1.3-3.1 2.1-5.2 2.1-4.1 0-7.4-3.3-7.4-7.4 0-2.4 1.2-4.5 2.9-5.8 6.7-5.6 12.4-12.2 16.8-19.7 1.1-2.8 3.8-4.8 6.9-4.8 4.1 0 7.4 3.3 7.4 7.4z"/><path class="a" d="m14.8 140.6c0 4-3.3 7.3-7.4 7.3-4.1 0-7.4-3.3-7.4-7.3v-8-7.3-0.1-0.2c0-4.1 3.3-7.4 7.4-7.4 4.1 0 7.4 3.3 7.4 7.4v0.1 0.1 0.1 7.3z"/><path class="a" d="m177.5 131.7v0.2 0.1 7.2 25c0 4.1-3.3 7.4-7.4 7.4-4.1 0-7.4-3.3-7.4-7.4v-25-7.2-0.1-0.2c0-4.1 3.3-7.4 7.4-7.4 4.1 0 7.4 3.3 7.4 7.4z"/><path class="a" d="m97.9 175.6v0.1 0.2 7.2 25c0 4-3.3 7.4-7.4 7.4-4.1 0-7.4-3.4-7.4-7.4v-25-7.2-0.1-0.1-0.1c0-4.1 3.3-7.4 7.4-7.4 4.1 0 7.4 3.3 7.4 7.4z"/><path class="a" d="m147 170.4v0.2 0.1c0 4.1-3.3 7.4-7.4 7.4-4.1 0-7.4-3.3-7.4-7.4v-0.1-0.2c0-4.1 3.3-7.4 7.4-7.4 4.1 0 7.4 3.3 7.4 7.4z"/><path class="a" d="m177.5 88.8v14.8c0 4.1-3.3 7.4-7.4 7.4-4 0-7.4-3.3-7.4-7.4v-0.1-14.7q0-7.6-1.4-14.8c-6.9-33.8-36.7-59.2-72.5-59.2-35.8 0-65.7 25.4-72.5 59.2q-1.5 7.2-1.5 14.8v13.6 0.1 0.2c0 4.1-3.3 7.4-7.4 7.4-4.1 0-7.4-3.3-7.4-7.4v-0.2-0.1-13.6q0-7.6 1.2-14.8c7.1-42 43.6-74 87.6-74 43.9 0 80.5 32 87.5 74q1.2 7.2 1.2 14.8z"/><path fill-rule="evenodd" class="a" d="m115.9 77.1c1.5 3.6 2.4 7.5 2.4 11.7 0 11-5.9 20.5-14.8 25.6-4.3 2.5-9.3 3.9-14.8 3.9-2.3 0-4.7-0.2-6.9-0.9-2.8-0.6-5.4-1.6-7.8-3v21.4q0 0 0 0.1v15.5c0 4.1-3.3 7.4-7.4 7.4-1.5 0-2.8-0.4-4-1.1-1.1-0.7-2-1.7-2.6-2.9v-0.1q0 0 0 0c-0.5-1-0.8-2.1-0.8-3.3v-62.6c0-16.4 13.3-29.6 29.5-29.6 12.3 0 22.7 7.3 27.2 17.9zm-12.4 11.7c0-8.2-6.5-14.8-14.8-14.8-8.1 0-14.7 6.6-14.7 14.8 0 8.2 6.6 14.7 14.7 14.7 2.1 0 4-0.4 5.8-1.1 4.3-1.8 7.5-5.6 8.7-10.2 0.2-1.1 0.3-2.2 0.3-3.4z"/><path class="a" d="m146.1 74c1.2 4.7 1.8 9.7 1.8 14.8v0.1 14.7 44.2 0.1 0.1c0 4-3.3 7.3-7.3 7.3-4.1 0-7.4-3.3-7.4-7.4v-39.1-5.2-14.8c0-5.2-0.9-10.2-2.6-14.8-6.1-17.3-22.5-29.6-41.8-29.6-19.4 0-35.8 12.3-41.9 29.6-1.6 4.6-2.5 9.6-2.5 14.8v14.8 5.2 23.8 15.3c0 16.3-6.6 31-17.2 41.7-1.3 1.4-3.2 2.2-5.3 2.2-4 0-7.3-3.3-7.3-7.4 0-2.4 1.1-4.5 2.9-5.8l-0.1-0.1c7.6-8 12.2-18.7 12.2-30.6v-0.1-15.2-29-14.7-0.1c0-5.1 0.6-10.1 1.9-14.8 6.5-25.5 29.7-44.4 57.3-44.4 27.5 0 50.7 18.9 57.3 44.4z"/><path class="b" d="m108.5 158.4h-0.2l-0.1-0.1c-1.5-0.5-2.8-1.5-3.7-2.7-6.9-7.9-9.5-11.2-13.2-20.8-0.8-1.7-1-3.7-0.4-5.6 1.3-3.8 5.5-6 9.4-4.7 2.2 0.8 3.9 2.6 4.6 4.7v-0.1c3.2 8.1 4.8 10 10.6 16.5 2.3 1.9 3.3 5.1 2.3 8.1-1.3 3.9-5.4 6-9.3 4.7z"/></g></svg>