<svg id="Layer_2" data-name="Layer 2" xmlns="http://www.w3.org/2000/svg" width="28" height="28" viewBox="0 0 28 28">
  <g id="invisible_box" data-name="invisible box">
    <rect id="Rectangle_1636" data-name="Rectangle 1636" width="28" height="28" fill="none"/>
  </g>
  <g id="icons_Q2" data-name="icons Q2" transform="translate(1.167 1.167)">
    <path id="Path_48237" data-name="Path 48237" d="M2,14.833A12.775,12.775,0,1,0,5.741,5.741,12.833,12.833,0,0,0,2,14.833ZM17.283,9.175a1.458,1.458,0,0,1,.467.992h0V19.5h0a1.458,1.458,0,0,1-.467.992,1.225,1.225,0,0,1-1.575-.233L11.1,15.65a1.108,1.108,0,0,1,0-1.633l4.608-4.608a1.225,1.225,0,0,1,1.575-.233Z" transform="translate(-2 -2)" fill="#048e81"/>
  </g>
</svg>
